<svg width="20" height="20" viewBox="0 0 20 20" fill="none" xmlns="http://www.w3.org/2000/svg">
<g clip-path="url(#clip0_784_3073)">
<path d="M14.9499 14.9502C13.5254 16.036 11.7908 16.6376 9.99992 16.6669C4.16658 16.6669 0.833252 10.0002 0.833252 10.0002C1.86983 8.06843 3.30753 6.38069 5.04992 5.05018M8.24992 3.53352C8.82353 3.39925 9.4108 3.33213 9.99992 3.33352C15.8333 3.33352 19.1666 10.0002 19.1666 10.0002C18.6607 10.9465 18.0575 11.8375 17.3666 12.6585M11.7666 11.7668C11.5377 12.0125 11.2617 12.2095 10.955 12.3461C10.6484 12.4828 10.3173 12.5562 9.98166 12.5622C9.64598 12.5681 9.31255 12.5063 9.00126 12.3806C8.68997 12.2549 8.40719 12.0677 8.16979 11.8303C7.93239 11.5929 7.74525 11.3101 7.61951 10.9988C7.49377 10.6875 7.43202 10.3541 7.43795 10.0184C7.44387 9.68277 7.51734 9.35172 7.65398 9.04506C7.79062 8.73839 7.98763 8.46239 8.23325 8.23352" stroke="#272766" stroke-linecap="round" stroke-linejoin="round"/>
<path d="M0.833252 0.833496L19.1666 19.1668" stroke="#272766" stroke-linecap="round" stroke-linejoin="round"/>
</g>
<defs>
<clipPath id="clip0_784_3073">
<rect width="20" height="20" fill="white"/>
</clipPath>
</defs>
</svg>
