<svg width="118" height="111" fill="none" xmlns="http://www.w3.org/2000/svg"><path fill="#fff" d="M0 0h118v111H0z"/><path d="M99 104c10.493 0 19-4.03 19-9s-8.507-9-19-9-19 4.03-19 9 8.507 9 19 9zM65.779 82.386c-4.298 2.152-11.267 2.152-15.558 0-4.291-2.153-4.298-5.628 0-7.774s11.267-2.152 15.558 0c4.291 2.153 4.298 5.627 0 7.774zM41.779 95.386c-4.298 2.152-11.267 2.152-15.558 0s-4.298-5.624 0-7.773c4.298-2.15 11.267-2.152 15.558 0s4.298 5.627 0 7.773zM18.779 109.386c-4.301 2.152-11.267 2.152-15.558 0-4.291-2.153-4.298-5.628 0-7.774s11.267-2.152 15.558 0c4.291 2.153 4.298 5.64 0 7.774z" fill="#E6E6E6"/><path d="M21 90H1l2.071 13.893c.158 1.017.923 2.011 2.3 2.788 3.113 1.759 8.155 1.759 11.268 0 1.48-.837 2.258-1.923 2.32-3.022L21 90z" fill="#6565A1"/><path d="M18.922 91.716c-4.371 2.579-11.46 2.579-15.83 0A8.059 8.059 0 0 1 1 90l.51 3.571a7.797 7.797 0 0 0 1.948 1.587c4.166 2.456 10.918 2.456 15.084 0a7.778 7.778 0 0 0 1.948-1.593l.51-3.558a8.154 8.154 0 0 1-2.078 1.709z" fill="#3B3B6D"/><path d="M2.974 103.9c.15 1.017.88 2.007 2.192 2.784 2.121 1.262 5.178 1.609 7.834 1.073-4.766.372-8.034-1.764-8.523-3.733-.489-1.97-1.116-11.626-1.116-11.626l.526-2.183L3.739 90H1l1.974 13.9z" fill="#3B3B6D"/><path d="M21.918 87.266a4.3 4.3 0 0 1-.66 1.574 7.368 7.368 0 0 1-2.483 2.257c-4.296 2.537-11.263 2.537-15.558 0A7.367 7.367 0 0 1 .734 88.84a4.348 4.348 0 0 1-.657-1.575c-.383-1.907.667-3.896 3.143-5.36 4.296-2.54 11.262-2.54 15.558 0 2.502 1.464 3.536 3.453 3.14 5.36z" fill="#6565A1"/><path d="M21.356 88.569a7.398 7.398 0 0 1-2.503 2.25c-4.331 2.528-11.356 2.528-15.687 0a7.398 7.398 0 0 1-2.503-2.25A4.306 4.306 0 0 1 0 87l.492 3.421c.226 1.377 1.24 2.718 3.048 3.772 4.128 2.41 10.818 2.41 14.946 0 1.783-1.041 2.796-2.366 3.038-3.723l.025-.176L22 87a4.258 4.258 0 0 1-.644 1.569z" fill="#6565A1"/><path d="M17.365 82.612c-3.515-2.15-9.216-2.15-12.728 0-1.99 1.217-2.852 2.858-2.592 4.444.2 1.216 1.066 2.4 2.592 3.332 3.512 2.15 9.213 2.15 12.728 0 1.523-.932 2.388-2.116 2.589-3.316.263-1.602-.599-3.23-2.589-4.46z" fill="#6565A1"/><path d="M2 87.737a6.087 6.087 0 0 0 2.03 1.748c3.57 2.02 9.366 2.02 12.94 0A6.087 6.087 0 0 0 19 87.737c-.029-1.21-.854-2.412-2.488-3.335-3.32-1.87-8.707-1.87-12.024 0-1.634.923-2.463 2.126-2.488 3.335z" fill="#E0E0E0"/><path d="M10 78.824s.02-2.339-1.606-3.606c-1.626-1.268-3.688-1.42-4.135-1.026-.446.393-.44 3.46 1.028 4.87 1.468 1.41 4.209 1.149 4.713-.238z" fill="#AFAFF0"/><path opacity=".1" d="M10 79c-2.057-3.162-6-4.796-6-4.796.467-.408 2.602-.275 4.326 1.062C9.98 76.546 10 78.883 10 79z" fill="#6565A1"/><path d="M11.9 81.346C11.62 78.01 10.764 76 10.45 76c-.315 0 .19 2.287-.299 5.293-.318 1.952-.954 3.901-1.11 4.706a.48.48 0 0 0-.035.274.74.74 0 0 0 .154.291.772.772 0 0 0 .266.2 2.346 2.346 0 0 0 2.05 0 .778.778 0 0 0 .265-.2.747.747 0 0 0 .152-.291.501.501 0 0 0 0-.12c.14-1.6.143-3.208.006-4.808z" fill="#AFAFF0"/><path opacity=".1" d="M11.9 81.346C11.62 78.01 10.764 76 10.45 76c-.315 0 .19 2.287-.299 5.293-.318 1.952-.954 3.901-1.11 4.706a.48.48 0 0 0-.035.274.74.74 0 0 0 .154.291.772.772 0 0 0 .266.2 2.346 2.346 0 0 0 2.05 0 .778.778 0 0 0 .265-.2.747.747 0 0 0 .152-.291.501.501 0 0 0 0-.12c.14-1.6.143-3.208.006-4.808z" fill="#6565A1"/><path d="m10 73-1.13-2.34.91-2.89V66L7 67.77v1.767l1.195 2.285c.02.035.048.062.082.078L10 73z" fill="#3B3B6D"/><path d="M15.984 56.284a2.026 2.026 0 0 0-.29-.924 2.093 2.093 0 0 0-.688-.696l-.783-.438a2.153 2.153 0 0 0-1.923 0l-8.322 4.69c-.283.175-.52.413-.69.694a2.02 2.02 0 0 0-.288.923v9.374c.02.326.119.643.289.925.17.281.406.52.689.696l.782.437a2.174 2.174 0 0 0 1.924 0l2.46-1.383 1.376 2.319a.204.204 0 0 0 .198.098.208.208 0 0 0 .107-.042.2.2 0 0 0 .067-.091l1.454-4.082 2.676-1.503c.283-.175.52-.414.69-.696.17-.281.268-.598.288-.924l-.016-9.377z" fill="#6565A1"/><path d="M3 70.641c.023.337.135.665.328.956.194.291.462.538.784.72l.89.452A2.724 2.724 0 0 0 7 72.848c-.515.17-.905-.086-.905-.636V62.52c.013-.336.123-.663.32-.95L3.336 60a1.805 1.805 0 0 0-.318.95L3 70.642z" fill="#3B3B6D"/><path d="M16 55.98c-.114-.39-.496-.514-.956-.27l-8.567 4.605a1.892 1.892 0 0 0-.694.685L3 59.508c.166-.28.406-.516.697-.686l8.578-4.602a2.323 2.323 0 0 1 1.978 0l.805.433c.245.15.456.346.617.574.162.228.273.484.325.753z" fill="#6565A1"/><path d="m9.687 68 1.306-.678v-3.929l.91-.474.097-1.365-1.007.523v-.749c0-.31.052-.458.3-.588L12 60.37V59l-.904.47a2.546 2.546 0 0 0-1.066.931c-.25.396-.368.847-.343 1.302v1.05L9 63.104v1.331l.687-.352V68z" fill="#fff"/><path d="M44 77H24l2.068 13.893c.158 1.017.922 2.008 2.3 2.788 3.11 1.759 8.155 1.759 11.264 0 1.484-.837 2.258-1.923 2.32-3.022L44 77z" fill="#6565A1"/><path d="M41.925 78.716c-4.37 2.579-11.46 2.579-15.83 0A8.195 8.195 0 0 1 24 77l.507 3.571a7.876 7.876 0 0 0 1.948 1.587c4.166 2.456 10.917 2.456 15.084 0 .73-.421 1.387-.96 1.948-1.597L44 77.003a8.156 8.156 0 0 1-2.075 1.713z" fill="#3B3B6D"/><path d="M25.974 90.898c.151 1.016.88 2.01 2.193 2.787 2.119 1.262 5.179 1.61 7.833 1.07-4.764.372-8.033-1.765-8.525-3.734-.492-1.969-1.113-11.626-1.113-11.626l.526-2.184L26.74 77H24l1.974 13.898z" fill="#3B3B6D"/><path d="M44.923 74.266a4.297 4.297 0 0 1-.66 1.574 7.367 7.367 0 0 1-2.484 2.257c-4.297 2.537-11.265 2.537-15.561 0a7.367 7.367 0 0 1-2.484-2.257 4.346 4.346 0 0 1-.657-1.575c-.383-1.907.667-3.896 3.144-5.36 4.296-2.54 11.265-2.54 15.561 0 2.474 1.464 3.524 3.453 3.141 5.36z" fill="#6565A1"/><path d="M44.331 75.569a7.392 7.392 0 0 1-2.5 2.25c-4.326 2.528-11.342 2.528-15.668 0a7.391 7.391 0 0 1-2.5-2.25A4.31 4.31 0 0 1 23 74l.492 3.421c.225 1.377 1.237 2.718 3.043 3.772 4.124 2.41 10.806 2.41 14.93 0 1.78-1.041 2.793-2.366 3.034-3.723l.025-.176L45 74a4.26 4.26 0 0 1-.669 1.569z" fill="#6565A1"/><path d="M40.365 69.614c-3.516-2.152-9.216-2.152-12.728 0-1.99 1.219-2.852 2.863-2.592 4.45.2 1.22 1.066 2.405 2.592 3.322 3.512 2.152 9.212 2.152 12.728 0 1.523-.933 2.388-2.12 2.589-3.321.263-1.588-.599-3.232-2.589-4.45z" fill="#6565A1"/><path d="M25 74.738a6.13 6.13 0 0 0 2.033 1.748c3.571 2.019 9.366 2.019 12.94 0A6.139 6.139 0 0 0 42 74.738c-.026-1.208-.854-2.41-2.485-3.336-3.323-1.87-8.707-1.87-12.024 0-1.634.925-2.462 2.115-2.491 3.336z" fill="#E0E0E0"/><path d="M35.984 73.148c-1.201-3.643-.595-7.336-.595-9.906 0-2.326-.553-5.273-.918-5.242-.365.032 0 2.257-.387 5.295-.16 1.223-1.418 6.54-1 10.032.028.098.08.19.152.268a.773.773 0 0 0 .267.186c.32.144.675.219 1.035.219.36 0 .714-.075 1.035-.219a.783.783 0 0 0 .266-.186.673.673 0 0 0 .152-.268.34.34 0 0 0-.007-.179z" fill="#AFAFF0"/><path opacity=".1" d="M35.984 73.148c-1.201-3.643-.595-7.336-.595-9.906 0-2.326-.553-5.273-.918-5.242-.365.032 0 2.257-.387 5.295-.16 1.223-1.418 6.54-1 10.032.028.098.08.19.152.268a.773.773 0 0 0 .267.186c.32.144.675.219 1.035.219.36 0 .714-.075 1.035-.219a.783.783 0 0 0 .266-.186.673.673 0 0 0 .152-.268.34.34 0 0 0-.007-.179z" fill="#6565A1"/><path d="M35 66.11c.01-.723.192-1.432.53-2.059a4.145 4.145 0 0 1 1.403-1.526c2.2-1.433 4.935.484 5.05.824.117.34-.392 1.817-1.442 2.582-1.05.765-3.286 1.873-5.541.179z" fill="#AFAFF0"/><path opacity=".1" d="M42 63.314a6.142 6.142 0 0 0-3.924.164A6.376 6.376 0 0 0 35 66c.01-.704.193-1.393.532-2.004a4.09 4.09 0 0 1 1.405-1.486c2.206-1.392 4.947.47 5.063.804z" fill="#6565A1"/><path d="M33 64.993a4.55 4.55 0 0 0-1.35-1.928 4.485 4.485 0 0 0-2.124-.985c-2.714-.465-4.516 1.23-4.526 1.769-.01.538.253.673 1.266 1.477 1.012.803 2.461 1.887 4.17 1.638a3.277 3.277 0 0 0 1.537-.647A3.323 3.323 0 0 0 33 64.993z" fill="#AFAFF0"/><path opacity=".15" d="M33 65a4.563 4.563 0 0 0-1.35-1.932 4.48 4.48 0 0 0-2.124-.988c-2.714-.466-4.516 1.234-4.526 1.773 1.142-.731 5.602-1.574 8 1.147z" fill="#6565A1"/><path d="M33 65c-2.4-2.721-6.863-1.878-8-1.143 0-.543 1.817-2.243 4.533-1.777.78.136 1.512.477 2.12.99A4.561 4.561 0 0 1 33 65z" fill="#AFAFF0"/><path opacity=".1" d="M33 65c-2.4-2.721-6.863-1.878-8-1.143 0-.543 1.817-2.243 4.533-1.777.78.136 1.512.477 2.12.99A4.561 4.561 0 0 1 33 65z" fill="#6565A1"/><path d="m34 56-1.503-3.007 1.21-3.718V47L30 49.275v2.275l1.593 2.935c.026.044.064.08.11.102L34 56z" fill="#3B3B6D"/><path d="M39.994 35.77a2.543 2.543 0 0 0-.324-1.118 2.488 2.488 0 0 0-.786-.848l-.907-.531a2.394 2.394 0 0 0-2.218 0l-9.646 5.668a2.483 2.483 0 0 0-.788.847 2.536 2.536 0 0 0-.325 1.12V52.25c.02.394.132.777.325 1.118.194.342.463.632.788.848l.903.53a2.423 2.423 0 0 0 2.222 0l2.842-1.674 1.608 2.805a.237.237 0 0 0 .228.12.233.233 0 0 0 .2-.163l1.678-4.937 3.097-1.822a2.48 2.48 0 0 0 .786-.848c.193-.341.303-.724.323-1.118l-.006-11.34z" fill="#6565A1"/><path d="M25 52.275c.02.388.13.766.322 1.102.19.337.457.623.777.835l.893.523a2.433 2.433 0 0 0 2.008.09c-.518.197-.912-.1-.912-.736V42.91c.013-.387.122-.765.318-1.098L25.32 40c-.197.332-.306.71-.318 1.098L25 52.275z" fill="#3B3B6D"/><path d="M40 35.54c-.135-.503-.574-.66-1.102-.343l-9.894 5.92c-.337.217-.613.521-.802.883L25 40.085c.188-.362.465-.666.802-.883l9.894-5.92a2.45 2.45 0 0 1 2.279 0l.93.554c.284.193.527.443.715.736.189.292.318.622.38.967z" fill="#6565A1"/><path d="M34.498 40.843c.935-.515 1.048-.574 1.414-.754.198-.114.42-.185.65-.207a.572.572 0 0 1 .404.112.704.704 0 0 1 .26.37c.083.247.123.505.12.764.017.462.02.6.02 1.792 0 1.193 0 1.338-.02 1.816a3.817 3.817 0 0 1-.12.898 2.6 2.6 0 0 1-.26.656c-.108.202-.244.39-.404.557-.19.198-.41.37-.65.511-.366.226-.48.292-1.414.81-.934.517-1.044.573-1.413.753-.199.115-.42.185-.65.207a.572.572 0 0 1-.405-.111.744.744 0 0 1-.26-.37 2.3 2.3 0 0 1-.12-.761c-.017-.462-.02-.603-.02-1.796s0-1.338.02-1.816c.005-.303.045-.604.12-.898a2.95 2.95 0 0 1 .26-.655 2.55 2.55 0 0 1 .404-.558c.191-.198.41-.37.65-.51.37-.227.48-.293 1.414-.81zm0-.803c-.951.524-1.068.596-1.44.822a3.94 3.94 0 0 0-1.473 1.537c-.178.32-.314.66-.404 1.013-.097.386-.151.78-.16 1.177-.018.485-.021.655-.021 1.851 0 1.197 0 1.364.02 1.833.003.333.057.664.161.983.07.224.212.422.404.567a.904.904 0 0 0 .62.173c.3-.028.59-.117.852-.262.373-.187.49-.246 1.441-.77.952-.524 1.072-.6 1.445-.826.313-.188.599-.417.849-.678.246-.258.454-.547.62-.859.177-.32.313-.66.403-1.013.1-.385.154-.78.165-1.176 0-.485.02-.64.02-1.852 0-1.213 0-1.364-.02-1.832a3.154 3.154 0 0 0-.165-.983 1.133 1.133 0 0 0-.404-.57.904.904 0 0 0-.62-.171c-.299.026-.588.114-.848.259-.373.187-.493.246-1.445.773" fill="#fff"/><path d="M33.5 42.2c-.829.548-1.5 2.027-1.5 3.285 0 1.259.671 1.857 1.5 1.315s1.5-2.024 1.5-3.286-.671-1.854-1.5-1.315zm0 3.795c-.537.355-.974-.023-.974-.848.005-.42.096-.831.266-1.203.169-.372.411-.692.708-.936.537-.358.974.02.974.844-.006.42-.097.832-.266 1.204-.17.372-.412.694-.708.939zM37 41.3a.628.628 0 0 1-.136.37 1.014 1.014 0 0 1-.364.288c-.276.11-.5 0-.5-.26a.63.63 0 0 1 .137-.368c.087-.114.211-.212.363-.287.276-.112.5 0 .5.258z" fill="#fff"/><path d="M67 63H47l2.066 13.899c.158 1.016.922 2.007 2.298 2.783 3.107 1.757 8.149 1.757 11.256 0 1.482-.836 2.256-1.922 2.317-3.017L67 63z" fill="#6565A1"/><path d="M64.925 64.716c-4.37 2.579-11.46 2.579-15.83 0A8.195 8.195 0 0 1 47 63l.51 3.568a7.802 7.802 0 0 0 1.948 1.59c4.166 2.456 10.918 2.456 15.084 0a7.798 7.798 0 0 0 1.948-1.597l.51-3.558a8.156 8.156 0 0 1-2.075 1.713z" fill="#3B3B6D"/><path d="M48.982 76.898c.15 1.016.879 2.007 2.191 2.787 2.117 1.262 5.172 1.61 7.827 1.07-4.76.372-8.03-1.765-8.518-3.734-.489-1.969-1.116-11.626-1.116-11.626l.529-2.184-.15-.211H47l1.982 13.898z" fill="#3B3B6D"/><path d="M67.923 60.266a4.298 4.298 0 0 1-.66 1.574 7.369 7.369 0 0 1-2.484 2.257c-4.296 2.537-11.265 2.537-15.561 0a7.367 7.367 0 0 1-2.484-2.257 4.346 4.346 0 0 1-.657-1.575c-.383-1.907.667-3.896 3.144-5.36 4.297-2.54 11.265-2.54 15.561 0 2.474 1.464 3.524 3.453 3.141 5.36z" fill="#6565A1"/><path d="M67.332 61.569a7.392 7.392 0 0 1-2.501 2.25c-4.326 2.528-11.342 2.528-15.668 0a7.391 7.391 0 0 1-2.5-2.25A4.31 4.31 0 0 1 46 60l.492 3.421c.225 1.377 1.237 2.718 3.043 3.773 4.124 2.408 10.806 2.408 14.93 0 1.78-1.042 2.793-2.367 3.034-3.724l.025-.176L68 60a4.26 4.26 0 0 1-.668 1.569z" fill="#6565A1"/><path d="M63.365 55.612c-3.516-2.15-9.215-2.15-12.728 0-1.99 1.217-2.852 2.858-2.592 4.444.2 1.217 1.066 2.4 2.592 3.332 3.513 2.15 9.212 2.15 12.728 0 1.523-.932 2.388-2.115 2.589-3.316.263-1.602-.599-3.243-2.589-4.46z" fill="#6565A1"/><path d="M48 60.737a6.086 6.086 0 0 0 2.03 1.748c3.57 2.02 9.366 2.02 12.94 0A6.086 6.086 0 0 0 65 60.737c-.025-1.21-.854-2.412-2.488-3.335-3.32-1.87-8.704-1.87-12.024 0-1.634.935-2.462 2.129-2.488 3.335z" fill="#E0E0E0"/><path d="M58 53.106c.01-.723.192-1.43.53-2.056a4.138 4.138 0 0 1 1.405-1.524c2.19-1.433 4.933.48 5.049.822.116.343-.391 1.816-1.44 2.578-1.049.762-3.287 1.886-5.544.18z" fill="#AFAFF0"/><path opacity=".1" d="M65 50.315a6.121 6.121 0 0 0-3.923.16A6.37 6.37 0 0 0 58 53a4.262 4.262 0 0 1 .53-2.009 4.083 4.083 0 0 1 1.406-1.488c2.203-1.378 4.945.477 5.064.812z" fill="#6565A1"/><path d="M58.99 59.128c-1.17-3.728-.752-8.068-.428-10.332.574-4.023.348-6.238 0-7.617-.55-2.183-1.045-3.276-1.393-3.172-.348.104-.157 1.232.062 3.344.279 2.667-.125 4.996-.633 7.857a37.412 37.412 0 0 0-.44 10.104c.028.101.08.195.15.275a.75.75 0 0 0 .262.19 2.355 2.355 0 0 0 2.009 0c.1-.046.189-.11.26-.19a.69.69 0 0 0 .147-.275.367.367 0 0 0 .004-.184z" fill="#AFAFF0"/><path opacity=".1" d="M58.99 59.128c-1.17-3.728-.752-8.068-.428-10.332.574-4.023.348-6.238 0-7.617-.55-2.183-1.045-3.276-1.393-3.172-.348.104-.157 1.232.062 3.344.279 2.667-.125 4.996-.633 7.857a37.412 37.412 0 0 0-.44 10.104c.028.101.08.195.15.275a.75.75 0 0 0 .262.19 2.355 2.355 0 0 0 2.009 0c.1-.046.189-.11.26-.19a.69.69 0 0 0 .147-.275.367.367 0 0 0 .004-.184z" fill="#6565A1"/><path d="M56 51.995a4.55 4.55 0 0 0-1.348-1.93 4.477 4.477 0 0 0-2.123-.985C49.815 48.615 48 50.31 48 50.85s.252.654 1.265 1.476c1.012.82 2.458 1.89 4.166 1.636a3.28 3.28 0 0 0 1.538-.645c.45-.344.805-.8 1.031-1.322z" fill="#AFAFF0"/><path opacity=".15" d="M56 52a4.559 4.559 0 0 0-1.348-1.933 4.474 4.474 0 0 0-2.123-.987C49.815 48.615 48 50.312 48 50.853c1.145-.73 5.603-1.563 8 1.147z" fill="#6565A1"/><path d="M56 52c-2.398-2.724-6.858-1.878-8-1.144 0-.544 1.812-2.242 4.53-1.776.782.135 1.514.475 2.123.988A4.558 4.558 0 0 1 56 52z" fill="#AFAFF0"/><path opacity=".1" d="M56 52c-2.398-2.724-6.858-1.878-8-1.144 0-.544 1.812-2.242 4.53-1.776.782.135 1.514.475 2.123.988A4.558 4.558 0 0 1 56 52z" fill="#6565A1"/><path d="M59 45.816a3.922 3.922 0 0 1 .7-1.643c.346-.46.784-.8 1.269-.982 1.684-.64 2.97.5 3.018.919.049.418-.017.68-.595 1.43-.578.751-1.377 1.477-2.483 1.46-.372.01-.74-.092-1.073-.298a2.499 2.499 0 0 1-.836-.886z" fill="#AFAFF0"/><path opacity=".15" d="M59 46a4.32 4.32 0 0 1 .702-1.75c.347-.49.786-.852 1.272-1.047 1.689-.682 2.977.534 3.026.98-.787-.496-3.694-.705-5 1.817z" fill="#6565A1"/><path d="M59 46c1.306-2.516 4.213-2.304 5-1.818-.049-.452-1.337-1.658-3.029-.98-.487.196-.925.558-1.272 1.05A4.3 4.3 0 0 0 59 46z" fill="#AFAFF0"/><path opacity=".1" d="M59 46c1.306-2.516 4.213-2.304 5-1.818-.049-.452-1.337-1.658-3.029-.98-.487.196-.925.558-1.272 1.05A4.3 4.3 0 0 0 59 46z" fill="#6565A1"/><path d="M56 45.075s-.431-1.975-1.819-2.676c-1.387-.7-2.887-.352-3.129.078s.363 2.415 1.727 3.144c1.686.9 3.1-.018 3.221-.546z" fill="#AFAFF0"/><path opacity=".1" d="M56 45c-1.984-2.056-5-2.532-5-2.532.245-.421 1.73-.767 3.162-.068 1.37.66 1.814 2.508 1.838 2.6z" fill="#6565A1"/><path d="m58 36-1.507-3.01 1.212-3.717V27L54 29.273v2.277l1.591 2.933c.026.045.064.081.11.103L58 36z" fill="#3B3B6D"/><path d="M63.99 15.765a2.53 2.53 0 0 0-.325-1.116 2.479 2.479 0 0 0-.788-.844l-.904-.532a2.402 2.402 0 0 0-2.224 0l-9.639 5.67a2.482 2.482 0 0 0-.785.845c-.193.341-.304.723-.325 1.116v11.35c.02.393.132.775.325 1.115.193.34.462.63.785.845l.905.532a2.421 2.421 0 0 0 2.223 0l2.848-1.675 1.593 2.808a.238.238 0 0 0 .228.12.235.235 0 0 0 .2-.164l1.67-4.945 3.11-1.818c.324-.215.594-.505.787-.846.193-.34.305-.723.326-1.117l-.01-11.344z" fill="#6565A1"/><path d="M49.012 32.28c.02.386.13.762.32 1.098.19.335.455.62.774.832l.89.524a2.415 2.415 0 0 0 2.004.09c-.514.2-.919-.096-.919-.732V22.91c.01-.386.115-.764.306-1.098L49.307 20A2.328 2.328 0 0 0 49 21.098l.012 11.181z" fill="#3B3B6D"/><path d="M64 15.529c-.134-.502-.574-.66-1.1-.33l-9.878 5.919a2.352 2.352 0 0 0-.803.882L49 20.084c.19-.36.467-.664.803-.882l9.879-5.92a2.452 2.452 0 0 1 2.282 0l.93.556c.285.19.53.438.72.729.19.29.32.617.386.962z" fill="#6565A1"/><path d="M60.402 26.439c.587-1.355.886-2.825.877-4.31.288-.459.53-.948.721-1.459a5.23 5.23 0 0 1-.83.809c.31-.442.526-.946.636-1.479-.265.38-.573.725-.918 1.029a.855.855 0 0 0-1.052 0c-.93.555-1.614 2.162-1.404 3.286-1.201.635-2.263.477-2.974-.302-.379 1.12-.197 2.182.444 2.39a.998.998 0 0 1-.635.14c-.016.934.46 1.51 1.156 1.286-.18.186-.396.33-.635.424.184.68.715.936 1.347.575a5.05 5.05 0 0 1-2.135 2.1c.38.088.772.095 1.154.022a2.825 2.825 0 0 0 1.07-.45c1.427-.85 2.523-2.389 3.222-4.058" fill="#F5F5F5"/><path d="M5.788 45.077v5.265l.94-.577c.186-.112.265-.022.265.312v.159a.66.66 0 0 1-.045.354.614.614 0 0 1-.22.27L3.32 52.953c-.185.112-.264.022-.264-.312v-.159a.66.66 0 0 1 .044-.353.614.614 0 0 1 .22-.27l1.172-.72v-4.196l-1.199.92c-.226.14-.293-.353-.293-.624a.546.546 0 0 1 .07-.23.509.509 0 0 1 .162-.172l2.187-1.777c.149-.072.369-.096.369.016zM12.75 41.04a.58.58 0 0 1-.077.24l-1.854 3.81 2.104 1.957a.21.21 0 0 1 .077.152c0 .084-.163.234-.538.443l-.557.311c-.28.156-.5.243-.587.15l-1.806-1.826-.039.031v2.71c0 .197-.173.396-.576.624l-.32.187c-.404.227-.577.22-.577.024v-5.98c0-.197.173-.396.577-.624l.32-.19c.403-.227.576-.221.576-.025v2.492h.039l1.662-3.567c.136-.22.337-.395.577-.501l.451-.256c.385-.208.548-.243.548-.162zM28.69 25.34v.243a.536.536 0 0 1-.265.517l-1.788 1.053-.088 1.342.23-.136c1.336-.785 2.221-.839 2.221.713 0 1.553-1.195 2.726-2.265 3.358-1 .601-1.735.73-1.735.37 0-.163.274-.876.478-.993.438-.064.861-.21 1.248-.43a1.76 1.76 0 0 0 .667-.615c.166-.26.263-.56.28-.871 0-.632-.295-.83-1.107-.35l-.964.566c-.257.154-.328.085-.328-.168l.168-2.777a.66.66 0 0 1 .104-.345.64.64 0 0 1 .268-.235l2.61-1.538c.187-.108.266-.02.266.295zM34.74 22.042a.612.612 0 0 1-.076.24l-1.845 3.805 2.104 1.958a.201.201 0 0 1 .077.153c0 .084-.163.23-.538.442l-.558.311c-.278.156-.5.243-.586.153l-1.806-1.828-.039.031v2.71c0 .195-.173.395-.576.622l-.32.19c-.404.227-.577.22-.577.025v-5.978c0-.196.173-.396.577-.623l.32-.19c.403-.224.576-.221.576-.025v2.491h.039l1.672-3.571c.135-.22.337-.395.576-.502l.452-.252c.378-.211.529-.246.529-.162zM47.788 7.076v5.266l.94-.577c.186-.116.265-.022.265.312v.159a.66.66 0 0 1-.045.353.615.615 0 0 1-.22.27l-3.411 2.095c-.185.112-.264.022-.264-.312v-.155a.66.66 0 0 1 .044-.354.613.613 0 0 1 .22-.27l1.172-.72v-4.2l-1.196.936c-.228.14-.293-.353-.293-.624a.55.55 0 0 1 .07-.23.513.513 0 0 1 .159-.172l2.19-1.774c.158-.094.369-.115.369-.003zM54 6.275c0 2.014-.751 3.664-2 4.428-1.249.764-2 .036-2-1.978s.751-3.664 2-4.428c1.249-.764 2-.036 2 1.978zM51.266 7.95c0 1.423.261 2 .734 1.707.473-.293.734-1.194.734-2.605s-.261-2-.734-1.707c-.473.293-.734 1.182-.734 2.605zM60.751.043a.613.613 0 0 1-.077.24l-1.848 3.81 2.097 1.961a.204.204 0 0 1 .077.153c0 .084-.163.23-.536.443l-.556.312c-.278.156-.498.243-.584.153l-1.801-1.83-.038.03v2.713c0 .197-.173.396-.575.624l-.335.178c-.403.224-.575.221-.575.025V2.88c0-.196.172-.396.575-.624l.335-.19c.402-.227.575-.221.575-.025v2.495h.038L59.19.959a1.29 1.29 0 0 1 .574-.502l.45-.252c.374-.212.537-.247.537-.162z" fill="#6565A1"/><path d="M97 32.23c.036 1.697-1.18 3.478-2.852 6.507-1.167 2.116-2.322 3.618-3.83 5.819-.372.542-.642.962-1.367 1.997a5.3 5.3 0 0 1-.999 1.191 6.622 6.622 0 0 1-1.662.94c-.753.301-1.57.39-2.368.255a2.892 2.892 0 0 1-.922-.314 8.7 8.7 0 0 0 3.717-1.655c1.201-.978 1.644-2.107 1.386-3.104l-.166-.662.052-.069c.015-.025.04-.056.067-.094l.13-.191c.043-.063.089-.138.138-.22l.157-.272a9.886 9.886 0 0 0 1.026-2.744c.036-.175.067-.357.092-.548.245-.562.494-1.135.743-1.675a26.598 26.598 0 0 0 1.806-5.33s-1.984-7.609-1.67-9.361c.39-2.195 2.002-2.615 3.422-2.7l.654.793c.719 2.283 2.328 5.951 2.445 11.438z" fill="#F28F8F"/><path d="m87.325 43-.822-.706a8.37 8.37 0 0 0 1.303-3.108c.412-1.99-.146-4.589-1.065-4.97-.976-.4-2.026.544-2.038.553L84 33.935c.062-.06 1.54-1.412 3.126-.756 1.718.71 2.154 4.114 1.715 6.247A9.415 9.415 0 0 1 87.325 43z" fill="#AFAFF0"/><path opacity=".1" d="M87.705 41c-.17.778-.408 1.512-.705 2.18l.61.82c.144-.311.275-.639.39-.98-.075-.57-.18-1.268-.295-2.02zM85.312 33a4.195 4.195 0 0 0-1.312.945L84.744 35A2.97 2.97 0 0 1 86 34.21a4.473 4.473 0 0 0-.688-1.21z" fill="#6565A1"/><path d="m87.929 44.82-2.312-9.499c-.183-.757-.804-1.428-1.855-1.86-2.256-.937-5.625-.4-7.523 1.205-.875.74-1.276 1.575-1.236 2.355l.436 9.78c.043 1.075.8 2.06 2.237 2.657 2.658 1.104 6.624.468 8.856-1.418 1.211-1.003 1.656-2.179 1.397-3.22z" fill="#AFAFF0"/><path opacity=".1" d="M83.063 36.755c-1.42 1.192-3.94 1.607-5.635.897-1.695-.71-1.91-2.228-.49-3.417 1.42-1.19 3.942-1.588 5.635-.894 1.692.694 1.91 2.228.49 3.414z" fill="#6565A1"/><path opacity=".2" d="M78 49c.386-.501.645-1.162.737-1.883A4.556 4.556 0 0 0 78.51 45s.717 1.248.416 2.499C78.626 48.749 78 49 78 49z" fill="#6565A1"/><path opacity=".4" d="M84.034 33.48c-2.324-.975-5.792-.417-7.746 1.253-1.954 1.67-1.649 3.813.674 4.788 2.323.974 5.796.416 7.75-1.254 1.954-1.67 1.651-3.813-.678-4.788zm-.35 4.354c-1.477 1.264-4.096 1.704-5.86.95-1.762-.752-1.985-2.36-.508-3.621 1.476-1.261 4.099-1.684 5.858-.948 1.76.736 1.986 2.362.51 3.62z" fill="#fff"/><path d="M78.91 44.111s-.546-.423-3.085-.83c-.773-.123-1.966-.244-2.408-.366-.442-.121-.606-.68-1-1.12A2.677 2.677 0 0 0 70.984 41L70 46.112c.574.13 1.174.068 1.71-.174.953-.371 1.31-.532 1.668-.361.388.204.75.455 1.077.749 1.022.94 2.46 2.132 3.84 2.674 1.788-.578 2.444-3.676.616-4.889z" fill="#AFAFF0"/><path d="M72.285 44.037c.176-1.37-.57-2.595-1.665-2.738-1.095-.143-2.126.852-2.302 2.221-.175 1.37.57 2.596 1.665 2.738 1.096.143 2.126-.851 2.302-2.22z" fill="#AFAFF0"/><path opacity=".1" d="M80 46.039c0 1.283-.657 2.593-1.696 2.961-1.383-.583-2.826-1.866-3.851-2.873a5.337 5.337 0 0 0-1.081-.809c-.362-.184-.717 0-1.673.389A2.63 2.63 0 0 1 70 45.9c.274.043.554.008.811-.1a1.6 1.6 0 0 0 .658-.522A3.32 3.32 0 0 0 72.126 44c.306.112.622.188.943.226.878.142 1.61.901 2.63 1.69 1.018.787 2.142 1.713 3.128 1.505.315-.045.606-.208.82-.461.215-.253.34-.58.353-.921z" fill="#6565A1"/><path opacity=".05" d="M72.285 44.037c.176-1.37-.57-2.595-1.665-2.738-1.095-.143-2.126.852-2.302 2.221-.175 1.37.57 2.596 1.665 2.738 1.096.143 2.126-.851 2.302-2.22z" fill="#6565A1"/><g opacity=".1" fill="#6565A1"><path d="M70.33 41.884a.93.93 0 0 0 .088-.339 1.082 1.082 0 0 0-.034-.366.32.32 0 0 0-.054-.12.144.144 0 0 0-.081-.057.108.108 0 0 0-.088.021.225.225 0 0 0-.07.093.932.932 0 0 0-.088.339c-.01.125.002.252.034.366.011.048.03.089.054.12.024.03.052.05.082.057.03.006.06-.001.087-.021a.224.224 0 0 0 .07-.093z"/><path d="M70.33 42.88a.927.927 0 0 0 .086-.338c.01-.124-.002-.25-.034-.364a.317.317 0 0 0-.053-.119.143.143 0 0 0-.081-.057.107.107 0 0 0-.088.021.225.225 0 0 0-.068.093.923.923 0 0 0-.089.337c-.01.125.002.251.034.365.01.048.029.09.053.122a.144.144 0 0 0 .082.058c.03.006.06-.001.088-.022a.227.227 0 0 0 .07-.096z"/><path d="M70.33 43.886a.946.946 0 0 0 .086-.34 1.087 1.087 0 0 0-.034-.367.317.317 0 0 0-.053-.12.143.143 0 0 0-.081-.057.107.107 0 0 0-.088.021.224.224 0 0 0-.068.093.926.926 0 0 0-.089.338c-.01.125.002.251.034.365.011.047.03.089.053.12a.146.146 0 0 0 .082.058c.03.007.06 0 .088-.02a.222.222 0 0 0 .07-.091z"/><path d="M70.33 44.886a.961.961 0 0 0 .085-.341 1.103 1.103 0 0 0-.033-.366.317.317 0 0 0-.053-.12.143.143 0 0 0-.081-.057.107.107 0 0 0-.088.021.224.224 0 0 0-.068.093.926.926 0 0 0-.089.338c-.01.125.002.251.034.365.011.047.03.089.053.12a.146.146 0 0 0 .082.058c.03.007.06 0 .088-.02a.222.222 0 0 0 .07-.091zM71.33 42.886a.95.95 0 0 0 .085-.34 1.092 1.092 0 0 0-.033-.365.325.325 0 0 0-.054-.12.146.146 0 0 0-.081-.058.107.107 0 0 0-.088.02.222.222 0 0 0-.07.091.95.95 0 0 0-.086.34c-.01.124.002.25.034.365.011.047.03.089.053.12a.146.146 0 0 0 .082.058c.03.007.06 0 .088-.02a.221.221 0 0 0 .07-.091zM69.329 41.885a.928.928 0 0 0 .088-.338 1.077 1.077 0 0 0-.033-.366.326.326 0 0 0-.054-.12.147.147 0 0 0-.081-.058.107.107 0 0 0-.088.02.223.223 0 0 0-.07.091.917.917 0 0 0-.088.339c-.01.125.003.252.036.365.01.048.029.09.052.12a.145.145 0 0 0 .081.06c.03.006.06 0 .088-.02a.222.222 0 0 0 .069-.093z"/><path d="M70.33 43.886a.93.93 0 0 0 .088-.339 1.08 1.08 0 0 0-.034-.366.324.324 0 0 0-.053-.12.146.146 0 0 0-.082-.058.107.107 0 0 0-.087.02.222.222 0 0 0-.07.091.928.928 0 0 0-.089.339c-.01.125.002.252.034.366.011.047.03.089.053.12a.146.146 0 0 0 .082.058c.03.007.06 0 .088-.02a.222.222 0 0 0 .07-.091zM69.33 43.886a.952.952 0 0 0 .085-.34 1.092 1.092 0 0 0-.033-.365.324.324 0 0 0-.054-.12.146.146 0 0 0-.081-.058.107.107 0 0 0-.088.02.222.222 0 0 0-.07.091.95.95 0 0 0-.086.34c-.01.124.002.25.034.365.011.047.03.089.053.12a.146.146 0 0 0 .082.058c.03.007.06 0 .088-.02a.221.221 0 0 0 .07-.091z"/><path d="M70.33 44.886a.96.96 0 0 0 .085-.341 1.101 1.101 0 0 0-.033-.367.32.32 0 0 0-.054-.119.145.145 0 0 0-.082-.057.108.108 0 0 0-.087.021.224.224 0 0 0-.07.093.946.946 0 0 0-.086.339c-.01.124.002.25.034.364.011.047.03.089.053.12a.146.146 0 0 0 .082.058c.03.007.06 0 .088-.02a.221.221 0 0 0 .07-.091zM69.33 44.886a.94.94 0 0 0 .088-.34 1.088 1.088 0 0 0-.034-.368.32.32 0 0 0-.054-.119.145.145 0 0 0-.081-.057.108.108 0 0 0-.088.021.224.224 0 0 0-.07.093.926.926 0 0 0-.088.338c-.01.124.002.251.034.365.011.047.03.089.053.12a.146.146 0 0 0 .082.058c.03.007.06 0 .088-.02a.222.222 0 0 0 .07-.091z"/></g><path d="M68.766 43.342a4.79 4.79 0 0 0-.564-.023.246.246 0 0 1-.137-.05.164.164 0 0 1-.065-.109.13.13 0 0 1 .014-.06.157.157 0 0 1 .041-.052.205.205 0 0 1 .064-.035.237.237 0 0 1 .075-.012 5.09 5.09 0 0 1 .62.025.241.241 0 0 1 .074.016.2.2 0 0 1 .062.038c.017.016.03.034.04.053a.13.13 0 0 1-.01.122.167.167 0 0 1-.047.05.212.212 0 0 1-.067.031.247.247 0 0 1-.077.009l-.023-.003zM62.163 56h-.036a.165.165 0 0 1-.103-.069.148.148 0 0 1-.019-.118l.227-.934a.153.153 0 0 1 .072-.098.17.17 0 0 1 .227.05.152.152 0 0 1 .023.117l-.23.934a.155.155 0 0 1-.06.085.17.17 0 0 1-.101.033zm.61-2.49h-.039a.164.164 0 0 1-.101-.07.149.149 0 0 1-.02-.117l.227-.934a.16.16 0 0 1 .074-.095.175.175 0 0 1 .182.005.159.159 0 0 1 .067.1.15.15 0 0 1-.002.062l-.23.934a.154.154 0 0 1-.054.09.17.17 0 0 1-.103.037v-.012zm.605-2.49h-.036a.167.167 0 0 1-.059-.025.156.156 0 0 1-.066-.102.146.146 0 0 1 .004-.06l.226-.934a.156.156 0 0 1 .074-.1.172.172 0 0 1 .127-.022.172.172 0 0 1 .105.07.155.155 0 0 1 .023.12l-.227.934a.147.147 0 0 1-.054.105.162.162 0 0 1-.117.038v-.024zm.608-2.49h-.04a.164.164 0 0 1-.1-.07.149.149 0 0 1-.02-.118l.14-.585c.029-.118.059-.233.09-.345a.162.162 0 0 1 .076-.099.178.178 0 0 1 .128-.018.17.17 0 0 1 .105.073c.023.036.03.08.019.121a8.61 8.61 0 0 0-.086.34l-.144.585a.15.15 0 0 1-.05.111.165.165 0 0 1-.118.045v-.04zm.726-2.444a.195.195 0 0 1-.059 0 .164.164 0 0 1-.091-.083.151.151 0 0 1-.004-.12c.128-.311.27-.622.414-.887a.162.162 0 0 1 .096-.075.172.172 0 0 1 .175.047.144.144 0 0 1 .021.172 8.605 8.605 0 0 0-.397.855.156.156 0 0 1-.054.091.173.173 0 0 1-.1.04v-.04zm1.344-2.18a.172.172 0 0 1-.112-.043.152.152 0 0 1-.048-.109.146.146 0 0 1 .048-.109c.238-.24.509-.45.805-.622a.175.175 0 0 1 .124-.019c.042.01.08.034.103.068a.152.152 0 0 1 .02.119.16.16 0 0 1-.075.096 3.573 3.573 0 0 0-.737.582.167.167 0 0 1-.054.053.178.178 0 0 1-.074.025v-.04zM62.157 59h-.035a.14.14 0 0 1-.057-.033.19.19 0 0 1-.042-.058.255.255 0 0 1-.018-.154l.107-.591a.242.242 0 0 1 .026-.075.188.188 0 0 1 .045-.056.142.142 0 0 1 .059-.03.126.126 0 0 1 .063.002c.02.006.04.017.058.032a.196.196 0 0 1 .044.06.268.268 0 0 1 .022.157l-.108.595a.212.212 0 0 1-.061.113.133.133 0 0 1-.103.037zM70.79 43.344h-.024a5.628 5.628 0 0 0-.564-.025.231.231 0 0 1-.14-.046.15.15 0 0 1-.062-.11c0-.021.004-.042.014-.061a.16.16 0 0 1 .041-.053.205.205 0 0 1 .064-.035.24.24 0 0 1 .075-.014c.207-.002.414.007.62.026a.22.22 0 0 1 .136.053.142.142 0 0 1 .05.116.15.15 0 0 1-.067.11.23.23 0 0 1-.144.04zM64.166 57h-.04a.164.164 0 0 1-.102-.07.149.149 0 0 1-.02-.117l.227-.934a.155.155 0 0 1 .074-.1.176.176 0 0 1 .233.049.153.153 0 0 1 .023.12l-.23.934a.152.152 0 0 1-.06.087.167.167 0 0 1-.105.03zm.608-2.49h-.04a.165.165 0 0 1-.1-.07.148.148 0 0 1-.02-.117l.226-.934a.15.15 0 0 1 .073-.097.167.167 0 0 1 .125-.018.17.17 0 0 1 .103.068.152.152 0 0 1 .022.118l-.23.934a.15.15 0 0 1-.055.1.167.167 0 0 1-.11.037l.006-.021zm.606-2.49h-.036a.166.166 0 0 1-.103-.07.147.147 0 0 1-.019-.118l.227-.934a.156.156 0 0 1 .074-.096.173.173 0 0 1 .124-.019c.042.01.078.035.101.07.023.035.03.077.02.117l-.227.934a.153.153 0 0 1-.056.1.17.17 0 0 1-.112.037l.007-.022zm.609-2.491h-.04a.165.165 0 0 1-.101-.07.149.149 0 0 1-.02-.117l.141-.585.089-.346a.161.161 0 0 1 .077-.099.178.178 0 0 1 .129-.018c.043.01.08.037.104.074.023.036.03.08.019.121-.03.109-.06.221-.086.336l-.144.588a.143.143 0 0 1-.013.063.154.154 0 0 1-.095.085.17.17 0 0 1-.067.008l.007-.04zm.727-2.44a.203.203 0 0 1-.06 0 .161.161 0 0 1-.09-.082.148.148 0 0 1-.005-.118c.122-.302.261-.599.415-.887a.162.162 0 0 1 .095-.078.173.173 0 0 1 .177.046.15.15 0 0 1 .04.113.147.147 0 0 1-.019.059 8.921 8.921 0 0 0-.398.856.16.16 0 0 1-.057.092.176.176 0 0 1-.104.039l.006-.04zm1.346-2.18a.168.168 0 0 1-.092-.024.155.155 0 0 1-.062-.068.145.145 0 0 1 .036-.17c.238-.24.509-.45.806-.622a.166.166 0 0 1 .125-.021.157.157 0 0 1 .102.07.151.151 0 0 1 .018.119.16.16 0 0 1-.074.096c-.272.162-.52.356-.737.58a.156.156 0 0 1-.054.054.168.168 0 0 1-.074.023l.006-.037zM64.156 58.999h-.034a.14.14 0 0 1-.057-.032.188.188 0 0 1-.042-.058.254.254 0 0 1-.018-.154l.107-.593c.01-.054.036-.1.072-.13a.132.132 0 0 1 .123-.027.17.17 0 0 1 .1.093.26.26 0 0 1 .021.157l-.104.597a.205.205 0 0 1-.063.114.13.13 0 0 1-.105.033zM70.208 44.446a.26.26 0 0 1-.111-.026.19.19 0 0 1-.078-.067.125.125 0 0 1-.006-.122.157.157 0 0 1 .043-.052.211.211 0 0 1 .066-.036c.211-.081.441-.13.677-.143.054.002.104.02.141.05.038.03.06.07.06.112a.149.149 0 0 1-.063.11.244.244 0 0 1-.142.046 1.908 1.908 0 0 0-.5.112.207.207 0 0 1-.087.016zM65.166 57h-.037a.172.172 0 0 1-.06-.024.154.154 0 0 1-.044-.044.141.141 0 0 1-.02-.116l.211-.83a.147.147 0 0 1 .027-.056.159.159 0 0 1 .048-.04.176.176 0 0 1 .127-.018c.043.01.08.034.103.068.023.035.03.076.02.116l-.21.83a.15.15 0 0 1-.06.084.174.174 0 0 1-.105.03zm.567-2.214h-.04a.168.168 0 0 1-.104-.068.142.142 0 0 1-.02-.116l.21-.83a.155.155 0 0 1 .076-.095.181.181 0 0 1 .186.005.157.157 0 0 1 .045.044.143.143 0 0 1 .02.116l-.212.83a.154.154 0 0 1-.06.083.178.178 0 0 1-.101.031zm.563-2.216h-.04a.171.171 0 0 1-.102-.07.145.145 0 0 1-.022-.114l.212-.831a.146.146 0 0 1 .026-.055.163.163 0 0 1 .047-.042.178.178 0 0 1 .128-.02c.043.01.08.034.103.069.023.034.03.076.02.115l-.21.831a.153.153 0 0 1-.06.084.178.178 0 0 1-.102.033zm.56-2.217h-.036a.177.177 0 0 1-.06-.024.16.16 0 0 1-.046-.044.144.144 0 0 1-.022-.116l.212-.83a.148.148 0 0 1 .026-.056.176.176 0 0 1 .175-.062.174.174 0 0 1 .06.025.157.157 0 0 1 .045.044.142.142 0 0 1 .019.116l-.208.83a.158.158 0 0 1-.062.08.182.182 0 0 1-.102.03v.007zm.58-2.21h-.043a.173.173 0 0 1-.059-.027.158.158 0 0 1-.043-.046.144.144 0 0 1-.015-.117c.09-.286.184-.562.285-.822a.162.162 0 0 1 .087-.078.182.182 0 0 1 .121-.004c.04.013.073.039.093.073.02.033.025.073.014.11-.097.254-.19.524-.275.806a.159.159 0 0 1-.064.077.183.183 0 0 1-.1.027zm.9-2.116a.192.192 0 0 1-.08-.018.164.164 0 0 1-.051-.039.141.141 0 0 1-.017-.17c.15-.257.32-.504.51-.739a.163.163 0 0 1 .049-.04.18.18 0 0 1 .186.01.158.158 0 0 1 .044.044.145.145 0 0 1 .018.116.15.15 0 0 1-.029.054c-.179.223-.34.458-.483.702a.164.164 0 0 1-.062.058.184.184 0 0 1-.085.022zM65.158 60h-.035a.17.17 0 0 1-.098-.091.26.26 0 0 1-.022-.154l.108-.597a.232.232 0 0 1 .025-.074.18.18 0 0 1 .045-.054.135.135 0 0 1 .058-.028.144.144 0 0 1 .118.036.192.192 0 0 1 .043.059.26.26 0 0 1 .02.155l-.107.593a.216.216 0 0 1-.056.112.137.137 0 0 1-.099.043z" fill="#FAFAFA"/><path d="M109 23c-1.326 0-2.598-.563-3.536-1.565-.937-1.001-1.464-2.36-1.464-3.777V6c1.326 0 2.597.564 3.535 1.565.937 1.002 1.464 2.36 1.465 3.777V23z" fill="#3B3B6D"/><path d="M104.595 20c1.307.068 2.269.325 3.157 2.996.888 2.672 2.745 12.932 2.123 14.004l-4.208-2.688-.963-4.76c-2.326-2.084-2.182-8.801-.109-9.552zM114 92.015l-3.491.985L109 88.162 112.567 87 114 92.015z" fill="#FFA8A7"/><path d="m109.38 90.468-.137-.475c-.268.233-.351 3.154-1.102 4.837-.824 1.843-1.696 3.153-2.064 3.981-.489 1.107 1.422 1.693 3.534.626 1.047-.53 2.728-1.916 2.993-2.8.265-.884.176-2.04.409-2.701.233-.662.958-1.54.987-2.227 0-.38-.342-1.09-.687-1.68-.319-.537-.668-1.13-.846-1.015l.105.36a3.376 3.376 0 0 1-1.351 1.346c-.496.256-1.668.321-1.841-.252z" fill="#3B3B6D"/><path d="M104.845 37.783c1.905 2.474 2.247 5.031 1.833 12.266-.414 7.235-.548 13.287-.442 13.693.107.406 2.348 3.315 3.075 5.96.727 2.646 2.689 17.649 2.689 17.649S110.887 89 108.405 89c0 0-7.954-21.92-8.487-23.548C99.385 63.825 96 46.677 96 46.677L96.514 37l8.331.783z" fill="#6565A1"/><path d="M93 85.04 90 85l-.066 5 3 .04.066-5z" fill="#FFA8A7"/><path d="M90.531 46.67c.293-3.355 1.028-9.167 1.028-9.167l8.572-.503c1.391 2.167.786 5.77.407 9.023l-4.917 19.2c.098.922.955 2.869 0 7.82-1.057 5.522-2.623 13.44-2.623 13.44s-2.441 1.233-3.647-.109c0 0-.637-17.957-.195-22.737.494-5.158 1.172-14.663 1.375-16.967z" fill="#6565A1"/><path d="M89.854 88.481V88c-.323.135-1.267 2.842-2.488 4.193-1.329 1.492-2.557 2.454-3.164 3.096-.798.888.872 2.008 3.232 1.639 1.166-.183 3.193-.963 3.71-1.723.517-.76.769-1.857 1.189-2.406.42-.549 1.377-1.152 1.616-1.79.126-.35 0-1.123-.171-1.774-.15-.6-.324-1.257-.518-1.203v.366a3.347 3.347 0 0 1-1.696.86c-.575.102-1.716-.186-1.71-.777zM98 55l-1.429-7.18A15.482 15.482 0 0 1 93 46c.706.895 1.55 1.672 2.5 2.301L98 55z" fill="#3B3B6D"/><path d="M92.249 32.063c-.21 1.943-1.003 9.139-1.003 9.139 6.482 3.427 14.525 1.155 15.754-.257-1.114-3.636-2.315-5.696-3.231-6.673l1.168-4.548s-2.892-4.114-.111-9.3l-3.439-.278L96.339 20c-1.207.067-2.066.18-2.066.18-.772.719-1.992 2.69-2.784 4.693-.508 1.294-1.044 3.36.76 7.19z" fill="#AFAFF0"/><path d="M97.184 17h2.623c.813 0 1.619-.164 2.37-.482a6.187 6.187 0 0 0 2.009-1.372 6.355 6.355 0 0 0 1.343-2.053c.311-.768.471-1.59.471-2.422a7.754 7.754 0 0 0-2.193-5.42A7.423 7.423 0 0 0 98.507 3c-1.992 0-3.9.808-5.309 2.247A7.757 7.757 0 0 0 91 10.67a6.4 6.4 0 0 0 1.81 4.472A6.126 6.126 0 0 0 97.185 17z" fill="#3B3B6D"/><path d="M93.697 6c-.801.472-1.788 2.475-1.69 6.672.081 3.557 1.24 4.438 1.822 4.688.582.25 1.706.097 2.797-.08v2.134s-1.508 1.74-1.414 2.722c.094.981 2.18 1.21 3.591.253 1.411-.956 2.602-2.813 2.602-2.813l-.025-4.91s.628.625 1.731-.312c.899-.781 1.204-2.1.503-2.813a1.57 1.57 0 0 0-1.374-.386 1.579 1.579 0 0 0-1.121.88s-1.74.066-4.06-1.203a6.506 6.506 0 0 1-2.263-2.015A6.461 6.461 0 0 1 93.697 6z" fill="#FFA8A7"/><path d="M96.001 11.478a.483.483 0 0 0 .453.52.499.499 0 0 0 .423-.826.5.5 0 0 0-.876.306z" fill="#3B3B6D"/><path d="m94.982 15-.982.441c.018.098.048.19.09.27a.63.63 0 0 0 .154.195c.06.05.126.08.194.09a.35.35 0 0 0 .2-.03c.13-.067.236-.203.3-.382.063-.18.079-.388.044-.584z" fill="#F28F8F" style="mix-blend-mode:multiply" opacity=".5"/><path d="m92.09 11 .91-.714a.58.58 0 0 0-.147-.177.501.501 0 0 0-.197-.096.469.469 0 0 0-.214 0 .5.5 0 0 0-.197.095.674.674 0 0 0-.234.41.736.736 0 0 0 .08.482zM92.001 11.466a.488.488 0 0 0 .122.364.505.505 0 0 0 .35.17.522.522 0 0 0 .364-.137.503.503 0 0 0 .162-.35.484.484 0 0 0-.128-.352.503.503 0 0 0-.87.305z" fill="#3B3B6D"/><path d="m95 11-.097 3L93 13.513 95 11zM96 18.135c1.183-.182 3.622-1.005 4-2.135a2.954 2.954 0 0 1-.854 1.441C98.42 18.173 96 19 96 19v-.865z" fill="#F28F8F" style="mix-blend-mode:multiply" opacity=".5"/><path d="M98.843 3 99 1.01a.8.8 0 0 0-.353.024.85.85 0 0 0-.316.176.95.95 0 0 0-.227.298 1.041 1.041 0 0 0-.102.374c-.017.27.061.536.217.744.157.208.38.342.624.374zM99.207 4 101 2.541a1.142 1.142 0 0 0-.306-.342 1.022 1.022 0 0 0-.403-.18.972.972 0 0 0-.433.011 1.031 1.031 0 0 0-.395.2c-.24.201-.4.498-.448.828-.048.33.021.667.192.942z" fill="#3B3B6D"/><path d="M105.766 34.234s-9.36 2.341-11.034 2.525c-1.406.152-2.481.112-3.503-.61-1.021-.724-1.73-.746-1.73-.746.186.597.305 1.21.356 1.832-.439.497-1.082.098-1.082.098a5.107 5.107 0 0 0-.16-.968c-1.16.418-1.772.934-1.577 1.673.158.57.473 2.625 2.317 2.92 1.504.242 4.278-.637 6.167-1.113 1.888-.477 12.138-1.527 14.48-3.08a2.883 2.883 0 0 0-.429-1.335 3.002 3.002 0 0 0-1.016-.994 3.13 3.13 0 0 0-2.798-.196l.009-.006z" fill="#FFA8A7"/></svg>