<svg width="140" height="125" fill="none" xmlns="http://www.w3.org/2000/svg"><path d="M27.171 114.848c25.812 13.536 67.66 13.536 93.471 0 25.812-13.537 25.809-35.482 0-49.019-25.809-13.536-67.66-13.536-93.471 0-25.812 13.537-25.812 35.485 0 49.019z" fill="#FAFAFA"/><path d="M125.44 104.525c-5.707 2.734-14.958 2.734-20.668 0-5.709-2.733-5.706-7.155 0-9.888 5.707-2.733 14.961-2.73 20.668 0 5.706 2.73 5.718 7.146 0 9.888zM46.776 95.928l33.459-19.382a2.93 2.93 0 0 1 2.658 0l9.893 5.729c.734.425.734 1.115 0 1.54l-33.428 19.508a2.882 2.882 0 0 1-2.648 0l-9.94-5.854c-.73-.425-.727-1.122.006-1.54z" fill="#F0F0F0"/><path d="M26.34 102.544s1.755.499 2.29.847c.533.349-.412.487-1.625.308.63.395 1.224.844 1.775 1.344.558.579-.946-.08-.946-.08s.614 1.648-.175 1.772c-.789.123-2.204-1.467-2.204-1.467s-.666.829-.86.453c-.193-.376-.018-1.125-.018-1.125-.555.402-1.136.768-1.737 1.097-.42.167-.307-.564-.307-.564s-3.014.823-3.355.617c-.34-.207 1.022-1.369 1.504-1.741 0 0-1.326-.127-1.068-.339.258-.213 1.403-.524 2.324-.672 0 0-1.903-.231-2.078-.41-.175-.179.72-.382.72-.382s-1.69-.73-1.457-1.174c.233-.444 2.762.379 2.762.379s-.475-.521.025-.567c.5-.046 2.456 1.202 2.456 1.202s.162-1.088.672-1.122c.755-.046 1.301 1.624 1.301 1.624z" fill="#AFAFF0"/><path d="M19.847 105.551a.08.08 0 0 1-.044-.015.08.08 0 0 1-.03-.037.082.082 0 0 1 0-.061.073.073 0 0 1 .018-.026.074.074 0 0 1 .025-.018c.034 0 3.377-1.377 6.474-2.924 3.097-1.547 4.187-2.567 4.2-2.58a.083.083 0 0 1 .113 0 .086.086 0 0 1 0 .118c-.046.04-1.139 1.051-4.24 2.604-3.1 1.553-6.445 2.915-6.482 2.93l-.034.009z" fill="#AFAFF0"/><path d="M23.18 105.08a.077.077 0 0 1-.036-.009.076.076 0 0 1-.028-.025.083.083 0 0 1 0-.114c.456-.33.812-.78 1.028-1.3l-3.336.086a.08.08 0 0 1-.08-.08c0-.022.008-.042.023-.058a.086.086 0 0 1 .057-.025l3.558-.093-.028.105a3.047 3.047 0 0 1-1.114 1.495.085.085 0 0 1-.043.018z" fill="#AFAFF0"/><path d="M27.085 106.183a.08.08 0 0 1-.055-.021c-.077-.074-1.808-1.778-1.713-3.082a30.87 30.87 0 0 1-5.35-1.627.078.078 0 0 1-.043-.044.082.082 0 0 1 .046-.105.082.082 0 0 1 .061.001 30.752 30.752 0 0 0 5.39 1.63h.074v.077c-.163 1.233 1.64 3.014 1.657 3.032a.085.085 0 0 1 .023.057.081.081 0 0 1-.09.082z" fill="#AFAFF0"/><path d="M23.629 102.642h-2.4a.08.08 0 0 1-.057-.136.08.08 0 0 1 .056-.024h2.15a4.82 4.82 0 0 0-.968-1.041.085.085 0 0 1-.022-.057.081.081 0 0 1 .048-.075.08.08 0 0 1 .088.018c.356.308.96.893 1.065 1.232l.04.083zM25.148 104.997h-.034a.084.084 0 0 1-.04-.108l.473-1.042h.059a9.326 9.326 0 0 1 1.976.669.087.087 0 0 1 .043.108.081.081 0 0 1-.045.041.082.082 0 0 1-.062-.001 9.726 9.726 0 0 0-1.876-.644l-.42.924a.08.08 0 0 1-.03.037.081.081 0 0 1-.044.016zM27.828 103.518l-2.492-.444-.252-1.451a.084.084 0 0 1 .099-.093.075.075 0 0 1 .06.065l.234 1.34 2.379.426c.01.001.02.005.03.01a.08.08 0 0 1 .034.051.075.075 0 0 1 0 .031.078.078 0 0 1-.033.051.079.079 0 0 1-.059.014z" fill="#AFAFF0"/><g opacity=".1" fill="#000"><path d="M19.847 105.551a.08.08 0 0 1-.044-.015.08.08 0 0 1-.03-.037.082.082 0 0 1 0-.061.073.073 0 0 1 .018-.026.074.074 0 0 1 .025-.018c.034 0 3.377-1.377 6.474-2.924 3.097-1.547 4.187-2.567 4.2-2.58a.083.083 0 0 1 .113 0 .086.086 0 0 1 0 .118c-.046.04-1.139 1.051-4.24 2.604-3.1 1.553-6.445 2.915-6.482 2.93l-.034.009z"/><path d="M23.18 105.08a.077.077 0 0 1-.036-.009.086.086 0 0 1-.028-.025.083.083 0 0 1 0-.114c.456-.33.812-.78 1.028-1.3l-3.336.086a.08.08 0 0 1-.08-.08c0-.022.008-.042.023-.058a.081.081 0 0 1 .057-.025l3.557-.093-.027.105a3.04 3.04 0 0 1-1.114 1.494.078.078 0 0 1-.044.019z"/><path d="M27.085 106.183a.081.081 0 0 1-.055-.022c-.077-.074-1.808-1.777-1.713-3.081a30.957 30.957 0 0 1-5.35-1.627.078.078 0 0 1-.043-.044.082.082 0 0 1 .046-.105.082.082 0 0 1 .061.001 30.752 30.752 0 0 0 5.39 1.63h.074v.077c-.163 1.233 1.64 3.014 1.657 3.032a.085.085 0 0 1 .023.057.081.081 0 0 1-.09.082z"/><path d="M23.629 102.642h-2.4a.08.08 0 0 1-.057-.136.08.08 0 0 1 .056-.024h2.15a4.82 4.82 0 0 0-.968-1.041.085.085 0 0 1-.022-.057.081.081 0 0 1 .048-.075.08.08 0 0 1 .088.018c.356.308.96.893 1.065 1.232l.04.083zM25.148 104.997h-.034a.084.084 0 0 1-.04-.108l.473-1.042h.058a9.272 9.272 0 0 1 1.977.669c.02.009.035.026.043.045a.088.088 0 0 1 0 .063.081.081 0 0 1-.046.041.082.082 0 0 1-.061-.001 9.726 9.726 0 0 0-1.876-.644l-.42.924a.082.082 0 0 1-.03.037.081.081 0 0 1-.044.016zM27.828 103.518l-2.492-.444-.252-1.451a.083.083 0 0 1 .015-.06.085.085 0 0 1 .084-.033.075.075 0 0 1 .06.065l.234 1.34 2.379.426c.01.001.02.005.03.01a.08.08 0 0 1 .034.051.077.077 0 0 1 0 .031.079.079 0 0 1-.033.051.083.083 0 0 1-.059.014z"/></g><path d="M39.99 102.544s-1.756.499-2.29.847c-.535.349.41.487 1.623.308-.629.396-1.223.845-1.774 1.344-.559.579.949-.08.949-.08s-.614 1.648.172 1.772c.785.123 2.203-1.467 2.203-1.467s.667.829.86.453c.193-.376.018-1.125.018-1.125.556.402 1.136.768 1.738 1.097.42.167.291-.564.291-.564s3.015.823 3.355.617c.341-.207-1.022-1.369-1.504-1.741 0 0 1.326-.127 1.069-.339-.258-.213-1.403-.524-2.324-.672 0 0 1.903-.231 2.081-.41.178-.179-.724-.382-.724-.382s1.69-.73 1.458-1.174c-.234-.444-2.763.379-2.763.379s.476-.521-.024-.567c-.5-.046-2.456 1.202-2.456 1.202s-.163-1.088-.672-1.122c-.74-.046-1.287 1.624-1.287 1.624z" fill="#AFAFF0"/><path d="M46.47 105.551a.075.075 0 0 0 .048-.021.082.082 0 0 0 .02-.098.084.084 0 0 0-.038-.038c-.034 0-3.377-1.377-6.474-2.924-3.097-1.547-4.187-2.567-4.199-2.58a.083.083 0 0 0-.113 0 .086.086 0 0 0 0 .118c.046.04 1.138 1.051 4.239 2.604 3.1 1.553 6.446 2.915 6.483 2.93l.033.009z" fill="#AFAFF0"/><path d="M43.148 105.08a.077.077 0 0 0 .064-.034.083.083 0 0 0-.015-.114 3.053 3.053 0 0 1-1.01-1.303l3.337.086a.08.08 0 0 0 .056-.024.079.079 0 0 0 .024-.056.082.082 0 0 0-.024-.058.077.077 0 0 0-.056-.025l-3.558-.093.028.105a3.044 3.044 0 0 0 1.102 1.497.083.083 0 0 0 .052.019z" fill="#AFAFF0"/><path d="M39.244 106.183c.02 0 .04-.008.055-.022.077-.074 1.808-1.778 1.713-3.081 1.828-.38 3.619-.924 5.35-1.627a.084.084 0 0 0 .043-.105.08.08 0 0 0-.104-.043 30.969 30.969 0 0 1-5.394 1.63h-.073v.077c.162 1.233-1.64 3.014-1.655 3.032a.097.097 0 0 0-.017.026.08.08 0 0 0 .017.088.09.09 0 0 0 .03.02.083.083 0 0 0 .035.005z" fill="#AFAFF0"/><path d="M42.7 102.642h2.4a.08.08 0 0 0 .08-.08.077.077 0 0 0-.022-.057.074.074 0 0 0-.027-.018.108.108 0 0 0-.03-.005h-2.165c.27-.392.596-.743.967-1.041a.085.085 0 0 0 .023-.057.081.081 0 0 0-.049-.075.081.081 0 0 0-.062 0 .073.073 0 0 0-.026.018c-.355.308-.96.893-1.065 1.232l-.024.083zM41.18 104.997h.034a.083.083 0 0 0 .04-.108l-.473-1.042h-.058a9.324 9.324 0 0 0-1.977.669.086.086 0 0 0-.042.046.086.086 0 0 0 0 .062c.009.019.025.034.045.041.02.008.042.007.062-.001a9.746 9.746 0 0 1 1.878-.644l.418.924a.08.08 0 0 0 .029.037c.013.01.028.015.044.016zM38.488 103.518l2.493-.444.252-1.451a.083.083 0 0 0-.016-.06.085.085 0 0 0-.052-.033.083.083 0 0 0-.06.013.083.083 0 0 0-.032.052l-.23 1.34-2.382.425a.1.1 0 0 0-.03.011.081.081 0 0 0-.035.05.08.08 0 0 0 0 .032.079.079 0 0 0 .033.051.083.083 0 0 0 .06.014z" fill="#AFAFF0"/><g opacity=".1" fill="#000"><path d="M46.47 105.551a.075.075 0 0 0 .048-.021.082.082 0 0 0 .02-.098.084.084 0 0 0-.038-.038c-.034 0-3.377-1.377-6.474-2.924-3.097-1.547-4.187-2.567-4.199-2.58a.083.083 0 0 0-.113 0 .086.086 0 0 0 0 .118c.046.04 1.138 1.051 4.239 2.604 3.1 1.553 6.446 2.915 6.483 2.93l.033.009z"/><path d="M43.148 105.08a.077.077 0 0 0 .064-.034.083.083 0 0 0-.015-.114 3.05 3.05 0 0 1-1.01-1.304l3.337.087a.08.08 0 0 0 .056-.024.079.079 0 0 0 .024-.056.082.082 0 0 0-.024-.058.082.082 0 0 0-.056-.026l-3.558-.092.028.105a3.044 3.044 0 0 0 1.102 1.497.083.083 0 0 0 .052.019z"/><path d="M39.244 106.183c.02 0 .04-.008.055-.022.077-.074 1.808-1.778 1.713-3.081 1.828-.38 3.619-.924 5.35-1.627a.084.084 0 0 0 .043-.105.08.08 0 0 0-.104-.043 31.055 31.055 0 0 1-5.394 1.63h-.073v.077c.162 1.233-1.64 3.014-1.655 3.032a.08.08 0 0 0 0 .114.074.074 0 0 0 .03.019.084.084 0 0 0 .035.006z"/><path d="M42.7 102.642h2.4a.08.08 0 0 0 .08-.08.078.078 0 0 0-.005-.031.07.07 0 0 0-.017-.026.074.074 0 0 0-.027-.018.082.082 0 0 0-.03-.005h-2.165c.27-.392.596-.743.967-1.041a.085.085 0 0 0 .023-.057.081.081 0 0 0-.049-.075.081.081 0 0 0-.062 0 .073.073 0 0 0-.026.018c-.356.308-.96.893-1.065 1.232l-.024.083zM41.18 104.997h.034a.083.083 0 0 0 .04-.108l-.473-1.042h-.058a9.269 9.269 0 0 0-1.977.669.087.087 0 0 0-.042.045.089.089 0 0 0 0 .063c.009.019.025.034.045.041.02.008.042.007.062-.001a9.746 9.746 0 0 1 1.878-.644l.418.924a.08.08 0 0 0 .029.037c.013.01.028.015.044.016zM38.488 103.518l2.493-.444.252-1.452a.081.081 0 0 0-.016-.059.085.085 0 0 0-.052-.033.078.078 0 0 0-.06.013.08.08 0 0 0-.032.052l-.23 1.34-2.382.425a.078.078 0 0 0-.03.011.078.078 0 0 0-.023.021.08.08 0 0 0-.012.061.079.079 0 0 0 .033.051.083.083 0 0 0 .06.014z"/></g><path d="M24.758 93.084a6.192 6.192 0 0 0-1.037.38c-.246.16.187.224.742.135-.288.18-.559.387-.81.616-.258.265.433-.037.433-.037s-.282.758.08.814c.362.055 1.01-.675 1.01-.675s.307.382.393.21a.98.98 0 0 0 0-.515c.255.183.521.351.798.502.193.077.132-.259.132-.259s1.384.376 1.534.287c.15-.09-.47-.617-.69-.795 0 0 .614-.059.488-.157a3.454 3.454 0 0 0-1.065-.309c.323-.03.643-.092.954-.188.08-.08-.331-.175-.331-.175s.776-.333.669-.536c-.107-.204-1.262.172-1.262.172s.221-.24 0-.262c-.22-.021-1.117.555-1.117.555s-.074-.5-.307-.515c-.353-.015-.614.752-.614.752z" fill="#AFAFF0"/><path d="M27.742 94.462a.034.034 0 0 0 .034-.022.039.039 0 0 0 .003-.014.038.038 0 0 0-.01-.027.037.037 0 0 0-.012-.008s-1.556-.617-2.971-1.34a9.002 9.002 0 0 1-1.937-1.191.037.037 0 0 0-.047.023.039.039 0 0 0-.002.014.038.038 0 0 0 .012.025c.595.481 1.25.883 1.946 1.196a47.302 47.302 0 0 0 2.975 1.344h.009z" fill="#AFAFF0"/><path d="M26.22 94.246a.031.031 0 0 0 .027-.016.031.031 0 0 0 .008-.011.033.033 0 0 0 0-.027.033.033 0 0 0-.008-.011 1.432 1.432 0 0 1-.463-.6l1.534.04a.033.033 0 0 0 .026-.01.034.034 0 0 0 .01-.025.036.036 0 0 0-.008-.028.036.036 0 0 0-.013-.009.036.036 0 0 0-.015-.003l-1.63-.043v.05c.093.276.27.517.507.687l.024.006z" fill="#AFAFF0"/><path d="M24.427 94.754a.037.037 0 0 0 .027 0c.034-.034.83-.813.786-1.417.84-.174 1.662-.423 2.456-.746a.037.037 0 0 0 .02-.02.035.035 0 0 0 .002-.015.039.039 0 0 0-.004-.014.034.034 0 0 0-.046-.019c-.8.324-1.628.573-2.474.746h-.034v.037c.074.57-.752 1.38-.76 1.39a.036.036 0 0 0-.012.026c0 .005.001.01.003.014a.036.036 0 0 0 .008.012.035.035 0 0 0 .014.006h.014z" fill="#AFAFF0"/><path d="M26.014 93.13h1.102a.04.04 0 0 0 .029-.038.04.04 0 0 0-.03-.038h-.99a2.29 2.29 0 0 1 .441-.481.036.036 0 0 0 .011-.026.036.036 0 0 0-.01-.026.036.036 0 0 0-.041-.009 1.887 1.887 0 0 0-.5.569l-.012.05zM25.317 94.209h.015a.036.036 0 0 0 .02-.021.037.037 0 0 0-.001-.029l-.218-.477h-.028c-.313.067-.616.17-.905.308a.037.037 0 0 0-.019.05.037.037 0 0 0 .05.018c.275-.132.563-.235.859-.308l.193.425c.001.009.005.017.01.023.007.006.015.01.024.01zM24.083 93.531l1.142-.203.113-.666a.036.036 0 0 0-.013-.019.036.036 0 0 0-.044 0 .037.037 0 0 0-.013.019l-.108.616-1.092.194c-.01 0-.02.004-.026.011a.037.037 0 0 0 .026.063l.015-.015z" fill="#AFAFF0"/><g opacity=".1" fill="#000"><path d="M27.742 94.462a.034.034 0 0 0 .034-.022.039.039 0 0 0 .003-.014.038.038 0 0 0-.01-.027.037.037 0 0 0-.012-.008s-1.556-.617-2.971-1.34a9.002 9.002 0 0 1-1.937-1.191.037.037 0 0 0-.047.023.039.039 0 0 0-.002.014.038.038 0 0 0 .012.025c.595.481 1.25.883 1.946 1.196a47.302 47.302 0 0 0 2.975 1.344h.009z"/><path d="M26.22 94.246a.03.03 0 0 0 .028-.015.033.033 0 0 0 .007-.012.033.033 0 0 0 0-.027.032.032 0 0 0-.008-.01 1.433 1.433 0 0 1-.463-.602l1.534.04a.035.035 0 0 0 .026-.008.034.034 0 0 0 .01-.025.037.037 0 0 0-.036-.04l-1.63-.044v.05c.093.276.27.517.507.687l.024.006z"/><path d="M24.427 94.754a.037.037 0 0 0 .027 0c.034-.034.83-.813.786-1.417.84-.174 1.662-.423 2.456-.746a.038.038 0 0 0 .02-.02.036.036 0 0 0-.002-.03.034.034 0 0 0-.032-.02 14.178 14.178 0 0 1-2.488.749h-.034v.036c.074.57-.752 1.38-.76 1.39a.037.037 0 0 0-.012.026c0 .005.001.01.003.014a.036.036 0 0 0 .008.012.037.037 0 0 0 .028.006z"/><path d="M26.014 93.13h1.102a.04.04 0 0 0 .029-.038.04.04 0 0 0-.029-.039h-.991a2.29 2.29 0 0 1 .442-.48.038.038 0 0 0 .01-.026.038.038 0 0 0-.01-.026.037.037 0 0 0-.026-.011.036.036 0 0 0-.027.01 1.89 1.89 0 0 0-.488.561l-.012.05zM25.317 94.209h.015a.038.038 0 0 0 .02-.021.037.037 0 0 0-.001-.029l-.218-.477h-.028c-.313.067-.616.17-.905.308a.038.038 0 0 0-.02.02.038.038 0 0 0 .022.049c.01.003.02.003.028-.001.276-.132.564-.235.86-.308l.193.425c.001.009.005.017.01.023.007.006.015.01.024.01zM24.083 93.531l1.142-.203.113-.666a.037.037 0 0 0-.07 0l-.108.616-1.092.194a.037.037 0 0 0 0 .074l.015-.015z"/></g><path d="M30.567 49.053c.51-7.22-4.908-13.487-12.1-13.998-7.192-.511-13.435 4.927-13.944 12.147-.51 7.22 4.908 13.486 12.1 13.998 7.192.51 13.435-4.928 13.944-12.147z" fill="#AFAFF0"/><path d="M65.207 45.41c1.405-10.201-5.694-19.614-15.855-21.024-10.162-1.41-19.538 5.717-20.943 15.917-1.404 10.2 5.695 19.613 15.856 21.023 10.161 1.41 19.538-5.716 20.942-15.917z" fill="#AFAFF0"/><path d="M41.617 58.274 33.19 74.932l1.357.692 8.426-16.658-1.357-.692zM26.219 56.779l-1.294.81 8.272 13.318 1.294-.81L26.22 56.78z" fill="#455A64"/><path d="M35.14 55.347v40.15a.636.636 0 0 1-.372.523 1.995 1.995 0 0 1-1.802 0 .633.633 0 0 1-.371-.523v-40.15h2.544z" fill="#455A64"/><path d="M52.627 38.082c2.394-7.571 4.948-10.532 3.327-11.457a18.517 18.517 0 0 0-19.931 1.045 18.633 18.633 0 0 0-6.437 8.193 18.712 18.712 0 0 0-1.044 10.382 18.673 18.673 0 0 0 4.675 9.319 18.561 18.561 0 0 0 8.932 5.338c3.422.89 7.026.78 10.39-.315a18.572 18.572 0 0 0 8.594-5.869c-5.504 1.612-11.613-6.813-8.506-16.636z" fill="#AFAFF0"/><path opacity=".1" d="M52.627 38.082c2.394-7.571 4.948-10.532 3.327-11.457a18.517 18.517 0 0 0-19.931 1.045 18.633 18.633 0 0 0-6.437 8.193 18.712 18.712 0 0 0-1.044 10.382 18.673 18.673 0 0 0 4.675 9.319 18.561 18.561 0 0 0 8.932 5.338c3.422.89 7.026.78 10.39-.315a18.572 18.572 0 0 0 8.594-5.869c-5.504 1.612-11.613-6.813-8.506-16.636z" fill="#000"/><path d="M17.542 35.025a12.962 12.962 0 0 0-7.628 2.465c-.353 8.012 6.415 15.814 4.525 18.436-1.891 2.622-6.563 1.017-8.18-1.208a13.08 13.08 0 0 0 4.788 4.78 13.017 13.017 0 0 0 13.047-.032 13.08 13.08 0 0 0 4.766-4.802 13.144 13.144 0 0 0-.016-13.096 13.08 13.08 0 0 0-4.779-4.79 13.016 13.016 0 0 0-6.523-1.753z" fill="#AFAFF0"/><path opacity=".1" d="M17.542 35.025a12.962 12.962 0 0 0-7.628 2.465c-.353 8.012 6.415 15.814 4.525 18.436-1.891 2.622-6.563 1.017-8.18-1.208a13.08 13.08 0 0 0 4.788 4.78 13.017 13.017 0 0 0 13.047-.032 13.08 13.08 0 0 0 4.766-4.802 13.144 13.144 0 0 0-.016-13.096 13.08 13.08 0 0 0-4.779-4.79 13.016 13.016 0 0 0-6.523-1.753z" fill="#000"/><path d="M50.803 50.998c9.353-9.388 9.353-24.61 0-33.999-9.353-9.388-24.516-9.388-33.869 0-9.352 9.389-9.352 24.61 0 34 9.353 9.388 24.516 9.388 33.869 0z" fill="#AFAFF0"/><path d="M57.179 39.493a24.067 24.067 0 0 1-5.415 10.468 23.939 23.939 0 0 1-9.724 6.622 23.856 23.856 0 0 1-11.69 1.18 23.894 23.894 0 0 1-10.844-4.545 24.017 24.017 0 0 1-7.382-9.177 24.115 24.115 0 0 1 1.465-22.822 23.983 23.983 0 0 1 2.881-3.74 24.12 24.12 0 0 0 1.475 15.363 23.998 23.998 0 0 0 10.477 11.295 23.863 23.863 0 0 0 15.16 2.57 23.914 23.914 0 0 0 13.59-7.214h.007z" fill="#AFAFF0"/><path opacity=".1" d="M57.179 39.493a24.067 24.067 0 0 1-5.415 10.468 23.939 23.939 0 0 1-9.724 6.622 23.856 23.856 0 0 1-11.69 1.18 23.894 23.894 0 0 1-10.844-4.545 24.017 24.017 0 0 1-7.382-9.177 24.115 24.115 0 0 1 1.465-22.822 23.983 23.983 0 0 1 2.881-3.74 24.12 24.12 0 0 0 1.475 15.363 23.998 23.998 0 0 0 10.477 11.295 23.863 23.863 0 0 0 15.16 2.57 23.914 23.914 0 0 0 13.59-7.214h.007z" fill="#000"/><path d="M89.303 32.424c.703-4.311-2.21-8.378-6.504-9.083-4.294-.705-8.346 2.218-9.048 6.53-.703 4.31 2.21 8.377 6.504 9.082 4.295.706 8.346-2.218 9.048-6.529z" fill="#AFAFF0"/><path d="M110.316 29.35c.763-6.168-3.599-11.788-9.743-12.554-6.143-.766-11.743 3.612-12.506 9.78-.763 6.167 3.6 11.788 9.743 12.554 6.144.766 11.743-3.613 12.506-9.78z" fill="#AFAFF0"/><path d="m96.064 37.27-5.086 10.056.818.418 5.086-10.056-.818-.417zM86.622 36.456l-.78.485 4.959 8.04.78-.485-4.959-8.04z" fill="#455A64"/><path d="M92.154 35.506v24.232a.393.393 0 0 1-.228.308 1.205 1.205 0 0 1-1.086 0 .387.387 0 0 1-.224-.308V35.506h1.538z" fill="#455A64"/><path d="M102.707 25.085c1.446-4.57 2.987-6.357 2.007-6.915a11.171 11.171 0 0 0-12.031.627 11.246 11.246 0 0 0-3.887 4.945 11.293 11.293 0 0 0 2.193 11.892 11.201 11.201 0 0 0 5.392 3.221 11.17 11.17 0 0 0 6.272-.192 11.206 11.206 0 0 0 5.186-3.545c-3.321.98-7.008-4.105-5.132-10.033z" fill="#AFAFF0"/><path opacity=".1" d="M102.707 25.085c1.446-4.57 2.987-6.357 2.007-6.915a11.171 11.171 0 0 0-12.031.627 11.246 11.246 0 0 0-3.887 4.945 11.293 11.293 0 0 0 2.193 11.892 11.201 11.201 0 0 0 5.392 3.221 11.17 11.17 0 0 0 6.272-.192 11.206 11.206 0 0 0 5.186-3.545c-3.321.98-7.008-4.105-5.132-10.033z" fill="#000"/><path d="M81.545 23.24a7.832 7.832 0 0 0-4.604 1.49c-.212 4.832 3.874 9.553 2.732 11.127-1.142 1.575-3.957.617-4.936-.733a7.895 7.895 0 0 0 2.89 2.886 7.858 7.858 0 0 0 7.876-.019 7.895 7.895 0 0 0 2.877-2.899 7.934 7.934 0 0 0-.011-7.906 7.895 7.895 0 0 0-2.885-2.89 7.857 7.857 0 0 0-3.939-1.057z" fill="#AFAFF0"/><path opacity=".1" d="M81.545 23.24a7.832 7.832 0 0 0-4.604 1.49c-.212 4.832 3.874 9.553 2.732 11.127-1.142 1.575-3.957.617-4.936-.733a7.895 7.895 0 0 0 2.89 2.886 7.858 7.858 0 0 0 7.876-.019 7.895 7.895 0 0 0 2.877-2.899 7.934 7.934 0 0 0-.011-7.906 7.895 7.895 0 0 0-2.885-2.89 7.857 7.857 0 0 0-3.939-1.057z" fill="#000"/><path d="M91.383 37.13c7.983 0 14.455-6.496 14.455-14.51S99.366 8.11 91.383 8.11 76.93 14.606 76.93 22.62 83.4 37.13 91.383 37.13z" fill="#AFAFF0"/><path d="M105.454 25.935a14.527 14.527 0 0 1-3.267 6.323 14.45 14.45 0 0 1-5.871 4.001 14.403 14.403 0 0 1-13.608-2.03 14.5 14.5 0 0 1-4.458-5.543 14.559 14.559 0 0 1 .89-13.782 14.479 14.479 0 0 1 5.134-4.918 14.67 14.67 0 0 0-3.377 2.665 14.567 14.567 0 0 0 2.747 12.325 14.468 14.468 0 0 0 5.037 4.05 14.38 14.38 0 0 0 11.998.263 14.434 14.434 0 0 0 4.775-3.354z" fill="#AFAFF0"/><path opacity=".1" d="M105.454 25.935a14.527 14.527 0 0 1-3.267 6.323 14.45 14.45 0 0 1-5.871 4.001 14.403 14.403 0 0 1-13.608-2.03 14.5 14.5 0 0 1-4.458-5.543 14.559 14.559 0 0 1 .89-13.782 14.479 14.479 0 0 1 5.134-4.918 14.67 14.67 0 0 0-3.377 2.665 14.567 14.567 0 0 0 2.747 12.325 14.468 14.468 0 0 0 5.037 4.05 14.38 14.38 0 0 0 11.998.263 14.434 14.434 0 0 0 4.775-3.354z" fill="#000"/><path d="M77.935 53.735a.75.75 0 0 0-.34.595c0 .219.15.308.34.197a.753.753 0 0 0 .344-.595c0-.218-.153-.308-.344-.197z" fill="#AFAFF0"/><path d="M74.212 83.227a.918.918 0 0 1-.46-.126l-9.921-5.75a3.53 3.53 0 0 1-1.76-3.06V62.788a.926.926 0 0 1 .922-.924.919.919 0 0 1 .92.924v11.503a1.687 1.687 0 0 0 .838 1.458l9.921 5.752a.923.923 0 0 1 .43 1.04.924.924 0 0 1-.89.686zM59.227 91.873a.894.894 0 0 1-.46-.126l-9.925-5.75a3.541 3.541 0 0 1-1.759-3.06V71.434a.926.926 0 0 1 .921-.924.919.919 0 0 1 .921.924v11.503a1.692 1.692 0 0 0 .838 1.458l9.924 5.752a.924.924 0 0 1 .43 1.04.925.925 0 0 1-.89.686zM89.155 74.556a.894.894 0 0 1-.458-.126l-9.915-5.75a3.527 3.527 0 0 1-1.758-3.057V54.12a.926.926 0 0 1 .92-.924.919.919 0 0 1 .921.924v11.503a1.691 1.691 0 0 0 .838 1.454l9.915 5.741a.923.923 0 0 1 .43 1.042.925.925 0 0 1-.893.684v.012z" fill="#37474F"/><path d="M60.942 90.727v10.643a.522.522 0 0 1-.307.431 1.633 1.633 0 0 1-1.476 0 .521.521 0 0 1-.307-.431V90.727h2.09zM52.191 85.72v10.646a.517.517 0 0 1-.307.428 1.628 1.628 0 0 1-1.48 0 .52.52 0 0 1-.306-.428V85.72h2.093zM90.84 73.398v10.646a.526.526 0 0 1-.307.428 1.628 1.628 0 0 1-1.48 0 .516.516 0 0 1-.307-.428V73.398h2.094zM82.085 68.393V79.04a.525.525 0 0 1-.306.429 1.621 1.621 0 0 1-1.477 0 .523.523 0 0 1-.307-.429V68.393h2.09z" fill="#455A64"/><path d="m45.033 74.05-.184-.104a1.181 1.181 0 0 1-.531-.924v-1.658a1.178 1.178 0 0 1 .53-.925L78.698 50.82a1.18 1.18 0 0 1 1.065 0l.184.108a1.178 1.178 0 0 1 .531.925v1.657a1.192 1.192 0 0 1-.53.925L46.094 74.05a1.171 1.171 0 0 1-1.062 0z" fill="#37474F"/><path d="m46.81 72.202-2.336-1.356c-.097.159-.151.34-.156.527v1.658a1.187 1.187 0 0 0 .53.924l.185.105a1.171 1.171 0 0 0 1.062 0l.715-.413v-1.445z" fill="#263238"/><path d="m45.033 79.113-.184-.105a1.176 1.176 0 0 1-.531-.924v-1.658a1.178 1.178 0 0 1 .53-.924L78.698 55.87a1.182 1.182 0 0 1 1.065 0l.184.107a1.177 1.177 0 0 1 .531.925v1.657a1.19 1.19 0 0 1-.53.925L46.094 79.113a1.153 1.153 0 0 1-1.062 0z" fill="#37474F"/><path d="M46.81 77.255 44.474 75.9c-.097.16-.15.341-.156.527v1.658a1.181 1.181 0 0 0 .53.924l.185.105a1.153 1.153 0 0 0 1.062 0l.715-.413v-1.445z" fill="#263238"/><path d="m45.033 84.185-.184-.108a1.172 1.172 0 0 1-.531-.924v-1.658a1.181 1.181 0 0 1 .53-.924l33.849-19.62a1.182 1.182 0 0 1 1.065 0l.184.109a1.177 1.177 0 0 1 .531.924v1.658a1.19 1.19 0 0 1-.53.924l-33.852 19.62a1.173 1.173 0 0 1-1.062 0z" fill="#37474F"/><path d="m46.81 82.324-2.336-1.356c-.096.16-.15.341-.156.527v1.658a1.177 1.177 0 0 0 .53.924l.185.108a1.171 1.171 0 0 0 1.062 0l.715-.416v-1.445z" fill="#263238"/><path d="M46.81 87.254v.213a1.183 1.183 0 0 0 .534.924l1.43.83a1.173 1.173 0 0 0 1.063 0L83.694 69.6a1.172 1.172 0 0 0 .53-.924v-.213a1.18 1.18 0 0 0-.53-.924l-1.43-.83a1.173 1.173 0 0 0-1.063 0L47.344 86.33a1.175 1.175 0 0 0-.534.924z" fill="#37474F"/><path d="M49.315 86.638v2.709a1.092 1.092 0 0 1-.531-.127l-1.43-.829a1.177 1.177 0 0 1-.535-.924v-.213a1.18 1.18 0 0 1 .534-.924l.716-.416 1.246.724z" fill="#263238"/><path d="M51.175 89.784v.213a1.193 1.193 0 0 0 .53.924l1.431.829a1.182 1.182 0 0 0 1.065 0L88.05 72.131a1.173 1.173 0 0 0 .531-.924v-.213a1.18 1.18 0 0 0-.53-.924l-1.431-.83a1.171 1.171 0 0 0-1.062 0L51.706 88.86a1.178 1.178 0 0 0-.531.924z" fill="#37474F"/><path d="M53.67 89.168v2.708a1.107 1.107 0 0 1-.53-.126l-1.43-.83a1.188 1.188 0 0 1-.532-.924v-.212a1.183 1.183 0 0 1 .531-.925l.715-.415 1.247.724z" fill="#263238"/><path d="M55.54 92.31v.229a1.178 1.178 0 0 0 .53.924l1.431.83a1.153 1.153 0 0 0 1.062 0l33.851-19.626a1.185 1.185 0 0 0 .531-.924v-.213a1.184 1.184 0 0 0-.53-.924l-1.431-.83a1.18 1.18 0 0 0-1.065 0l-33.851 19.61a1.18 1.18 0 0 0-.528.925z" fill="#37474F"/><path d="M58.032 91.695v2.711a1.078 1.078 0 0 1-.53-.13l-1.434-.813a1.172 1.172 0 0 1-.531-.924v-.213a1.185 1.185 0 0 1 .53-.924l.716-.413 1.25.706z" fill="#263238"/><path d="m46.095 71.154 33.85-19.616c.292-.172.532-.033.532.309v1.657a1.193 1.193 0 0 1-.531.925L46.095 74.05c-.292.17-.531.034-.531-.308v-1.664a1.19 1.19 0 0 1 .53-.925zM46.095 76.223l33.85-19.616c.292-.17.532-.034.532.308v1.658a1.19 1.19 0 0 1-.531.924L46.095 79.113c-.292.173-.531.034-.531-.308v-1.658a1.193 1.193 0 0 1 .53-.924zM46.095 81.295l33.85-19.62c.292-.169.532-.033.532.309v1.658a1.19 1.19 0 0 1-.531.924l-33.851 19.62c-.292.169-.531.03-.531-.309v-1.658a1.184 1.184 0 0 1 .53-.924zM49.837 87.775l33.857-19.619a.323.323 0 0 0 .162-.499.323.323 0 0 0-.162-.117l-1.43-.83a1.173 1.173 0 0 0-1.063 0L47.344 86.33a.322.322 0 0 0-.224.308.324.324 0 0 0 .224.308l1.43.83a1.171 1.171 0 0 0 1.063 0zM54.202 90.305l33.848-19.62a.322.322 0 0 0 .224-.307.325.325 0 0 0-.224-.308l-1.43-.83a1.171 1.171 0 0 0-1.063 0l-33.85 19.62a.325.325 0 0 0-.159.497.325.325 0 0 0 .158.119l1.43.829a1.18 1.18 0 0 0 1.066 0zM58.563 92.847 92.415 73.23a.326.326 0 0 0 .157-.497.325.325 0 0 0-.157-.12l-1.43-.828a1.18 1.18 0 0 0-1.066 0l-33.851 19.6c-.307.173-.307.447 0 .617l1.43.829a1.154 1.154 0 0 0 1.065.015z" fill="#455A64"/><path d="M48.004 71.037a.762.762 0 0 0-.34.598c0 .219.153.308.34.197a.757.757 0 0 0 .344-.594c0-.22-.154-.309-.344-.2zM48.004 76.097a.761.761 0 0 0-.34.594c0 .219.153.308.34.2a.759.759 0 0 0 .344-.594c0-.222-.154-.308-.344-.2zM48.004 81.156a.758.758 0 0 0-.34.595c0 .219.153.308.34.197a.754.754 0 0 0 .344-.594c0-.216-.154-.308-.344-.198zM77.935 58.795a.75.75 0 0 0-.34.594c0 .22.15.309.34.198a.753.753 0 0 0 .344-.595c0-.219-.153-.308-.344-.197zM77.935 53.865a.75.75 0 0 0-.34.594c0 .22.15.309.34.198a.754.754 0 0 0 .344-.595c0-.219-.153-.308-.344-.197zM77.935 63.851a.754.754 0 0 0-.34.595c0 .222.15.308.34.2a.757.757 0 0 0 .344-.594c0-.22-.153-.309-.344-.2zM50.85 85.329c-.166.098-.166.252 0 .348a.649.649 0 0 0 .613 0c.166-.096.166-.25 0-.349a.667.667 0 0 0-.614 0zM55.22 87.88a.184.184 0 0 0-.122.174.185.185 0 0 0 .123.174.668.668 0 0 0 .614 0 .185.185 0 0 0 0-.348.667.667 0 0 0-.614 0zM59.598 90.428c-.166.099-.17.253 0 .352a.668.668 0 0 0 .614 0c.168-.1.168-.253 0-.352a.667.667 0 0 0-.614 0zM80.74 68.014c-.165.099-.168.253 0 .352a.667.667 0 0 0 .615 0c.169-.099.169-.253 0-.352a.667.667 0 0 0-.614 0zM85.115 70.566a.184.184 0 0 0-.122.174.186.186 0 0 0 .122.174.667.667 0 0 0 .614 0 .184.184 0 0 0 .089-.28.184.184 0 0 0-.089-.068.667.667 0 0 0-.614 0zM89.492 73.126c-.166.096-.166.25 0 .348a.667.667 0 0 0 .614 0c.166-.098.166-.252 0-.348a.647.647 0 0 0-.614 0zM62.993 62.406a.755.755 0 0 0-.344.595c0 .219.153.308.344.197a.76.76 0 0 0 .34-.595c0-.218-.153-.308-.34-.197zM62.993 67.463a.761.761 0 0 0-.344.598c0 .218.153.308.344.197a.763.763 0 0 0 .34-.595c0-.219-.153-.308-.34-.2zM62.993 72.51a.755.755 0 0 0-.344.595c0 .218.153.308.344.2a.763.763 0 0 0 .34-.598c0-.197-.153-.292-.34-.197zM65.795 76.685a.184.184 0 0 0-.088.28.184.184 0 0 0 .088.069.649.649 0 0 0 .614 0c.166-.096.166-.25 0-.349a.667.667 0 0 0-.614 0zM70.188 79.237a.185.185 0 0 0 0 .348.667.667 0 0 0 .614 0 .184.184 0 0 0 .122-.174.185.185 0 0 0-.123-.174.667.667 0 0 0-.613 0zM74.55 81.785c-.166.098-.169.252 0 .348a.649.649 0 0 0 .614 0c.168-.096.168-.25 0-.348a.667.667 0 0 0-.614 0zM109.758 62.055h6.556c.468 0 .916-.187 1.246-.518a1.77 1.77 0 0 0 .516-1.25v-14a5.07 5.07 0 0 0-1.476-3.577 5.03 5.03 0 0 0-3.564-1.482 5.031 5.031 0 0 0-3.562 1.483 5.067 5.067 0 0 0-1.475 3.577v13.998c0 .469.185.918.515 1.25.33.331.777.518 1.244.519z" fill="#263238"/><path d="m108.84 55.95-1.698 20.258s3.776 2.052 7.981.323V58.49l-6.283-2.54z" fill="#AFAFF0"/><path opacity=".6" d="m108.84 55.95-1.698 20.258s3.776 2.052 7.981.323V58.49l-6.283-2.54z" fill="#fff"/><path d="M124.826 91.103c.396-.206.647.308 1.01.706.251.286.647.736.706 1.063.086.48-.347 1.232-.826 1.654-.479.422-1.031.718-1.206 1.633a2.237 2.237 0 0 1-1.474 1.868c-1.034.447-2.422.308-2.891 0-.559-.36-.049-.758.733-1.88 1.019-1.464 1.811-2.511 1.811-3.876l2.137-1.168z" fill="#AFAFF0"/><path d="m124.019 89.904.838 1.233a1.183 1.183 0 0 1-.283 1.64l-.027.018a1.26 1.26 0 0 1-1.603-.25l-1.304-1.43 2.379-1.21z" fill="#F28F8F"/><path d="M108.975 66.532c-.052 1.569-.329 7.29.813 10.295a27.78 27.78 0 0 0 2.373 4.896c.341.586 10.13 10.169 10.13 10.169s1.66-.124 1.927-1.738c0 0-4.012-6.847-4.88-8.252-.869-1.405-3.948-3.556-3.948-3.556l.28-13.164-6.695 1.35z" fill="#AFAFF0"/><path opacity=".4" d="M108.975 66.532c-.052 1.569-.329 7.29.813 10.295a27.78 27.78 0 0 0 2.373 4.896c.341.586 10.13 10.169 10.13 10.169s1.66-.124 1.927-1.738c0 0-4.012-6.847-4.88-8.252-.869-1.405-3.948-3.556-3.948-3.556l.28-13.164-6.695 1.35z" fill="#000"/><path d="m111.49 96.287-2.072-.472-.685 3.025 2.071.473.686-3.026z" fill="#F28F8F"/><path d="M112.425 71.324a13.234 13.234 0 0 1-1.891-2.188c-1.584-2.194-1.338-4.145-1.338-4.145h.648l8.561.176c.847 1.396 1.034 3.516.745 5.577-.595 4.283-4.128 11.71-4.128 11.71.052.585.307 3.044-.258 5.238-.878 3.445-3.272 9.269-3.272 9.269s-1.498.215-2.241-.657c0 0 1.323-11.826 1.679-14.855.39-3.306 1.495-10.125 1.495-10.125z" fill="#AFAFF0"/><path opacity=".4" d="M112.425 71.324a13.234 13.234 0 0 1-1.891-2.188c-1.584-2.194-1.338-4.145-1.338-4.145h.648l8.561.176c.847 1.396 1.034 3.516.745 5.577-.595 4.283-4.128 11.71-4.128 11.71.052.585.307 3.044-.258 5.238-.878 3.445-3.272 9.269-3.272 9.269s-1.498.215-2.241-.657c0 0 1.323-11.826 1.679-14.855.39-3.306 1.495-10.125 1.495-10.125z" fill="#000"/><path d="M117.953 58.721c-.089-.154-2.747-3.892-.015-5.818-1.449.786-1.535 1.85-1.535 2.875.012.968.408 1.775 1.55 2.943z" fill="#F28F8F"/><path d="m108.969 97.81.067-.307c-.218.043-1.145 1.59-2.069 2.264-1.007.737-1.884 1.171-2.336 1.504-.614.447.27 1.356 1.756 1.436.737.04 2.078-.185 2.493-.579.414-.395.712-1.045 1.04-1.328.329-.284.992-.533 1.228-.894a2.53 2.53 0 0 0 .129-1.118c0-.392-.025-.817-.157-.81 0 .042-.052.224-.052.224a2.577 2.577 0 0 1-1.258.28c-.363-.009-1.013-.089-.841-.671z" fill="#AFAFF0"/><path opacity=".17" d="M111.194 79.412s.998-7.115 1.228-8.088c0 0-1.759-.672-2.299-1.291 0 0 .387.862 1.645 1.63l-.574 7.75zM116.51 79.203s-1.059 2.65-1.488 3.235c0 0 .107 2.015.092 2.422l.555.487a12.614 12.614 0 0 0-.248-2.721l1.089-3.423z" fill="#AFAFF0"/><path d="M109.457 59.17c-.135 1.233-.482 7.362-.482 7.362 4.095 2.194 9.175.743 9.955-.163a8.74 8.74 0 0 0-2.303-3.929l1.329-3.716s.157-.382.154-.385c-.086-.151-1.94-2.247-.181-5.575l-2.391-.218-3.5-.102c-.761.043-1.304.117-1.304.117-.488.46-1.259 1.72-1.759 3.004-.322.826-.758 2.395.482 3.606z" fill="#fff"/><path d="M110.092 43.431c-.531.309-1.191 1.661-1.124 4.478.053 2.388.826 2.976 1.213 3.149.387.172 1.133.065 1.86-.056v1.433s-1.004 1.168-.942 1.827c.061.66 1.449.81 2.388.17a7.568 7.568 0 0 0 1.728-1.892l-.015-3.297s.426.416 1.151-.219c.598-.524.801-1.408.334-1.883a1.035 1.035 0 0 0-1.356-.056c-.13.103-.233.235-.301.386a5.705 5.705 0 0 1-2.698-.807 4.315 4.315 0 0 1-1.505-1.347 4.351 4.351 0 0 1-.733-1.886z" fill="#FFA8A7"/><path d="M111.627 47.307a.307.307 0 1 0 .615 0 .307.307 0 0 0-.615 0z" fill="#263238"/><path d="m111.556 49.332-.697.222a.369.369 0 0 0 .311.266c.049.005.097 0 .144-.013a.387.387 0 0 0 .242-.475z" fill="#F28F8F"/><path d="m109.171 46.386.614-.419a.344.344 0 0 0-.229-.161.351.351 0 0 0-.274.056.39.39 0 0 0-.111.524zM109.322 47.092a.308.308 0 0 0 .282.327.306.306 0 0 0 .307-.309.309.309 0 0 0-.282-.326.307.307 0 0 0-.307.308z" fill="#263238"/><path d="m110.734 46.92-.05 1.808-.945-.296.995-1.513zM112.053 51.002c.765-.102 2.336-.555 2.582-1.18a1.613 1.613 0 0 1-.553.81c-.472.404-2.032.86-2.032.86l.003-.49z" fill="#F28F8F"/><path d="m117.419 60.221-2.302 2.968 1.51-.749.792-2.219z" fill="#AFAFF0"/><path d="m117.211 43.77 1.166-.616a.642.642 0 0 0-.884-.308.704.704 0 0 0-.282.924z" fill="#263238"/><path d="m117.235 43.776 1.148.67a.658.658 0 0 0 .086-.502.66.66 0 0 0-.11-.236.66.66 0 0 0-.194-.172.691.691 0 0 0-.93.24z" fill="#263238"/><path d="M109.785 89.904s-.85 6.2-1.068 7.205c-.218 1.004-1.811 2.32-3.146 3.217-1.228.816-1.566 1.152-1.133 2.098.718.924 2.594.727 3.625.308 1.031-.419 1.562-1.445 2.618-1.938.811-.379 1.016-.669.989-1.695-.04-1.615 2.188-8.132 2.188-8.132-.506-1.1-2.974-1.574-4.073-1.063zM118.579 88.373c.86.949 3.583 3.519 3.883 3.935.406.557-.307 1.673-.721 2.446-.5.925-1.857 2.253-1.903 2.758-.046.505.307.814 1.019.952.712.139 2.296.046 3.128-.906.832-.952.991-1.9 1.455-2.496.463-.594 1.357-1.479 1.228-2.086-.105-.468-.743-1.288-1.6-2.29-.856-1-3.425-4.93-3.425-4.93-.194 1.08-1.922 2.57-3.064 2.617z" fill="#AFAFF0"/><path d="M111.67 99.09a2.12 2.12 0 0 1-1.154 1.118c-.531.25-1.36 1.06-1.778 1.439-.69.632-2.179 1.106-3.207.866a3.465 3.465 0 0 0 1.884 0 3.559 3.559 0 0 0 1.756-1.038 6.446 6.446 0 0 1 1.354-1.051c.42-.163 1.019-.549 1.136-1.035l.009-.3z" fill="#AFAFF0"/><path opacity=".1" d="M111.67 99.09a2.12 2.12 0 0 1-1.154 1.118c-.531.25-1.36 1.06-1.778 1.439-.69.632-2.179 1.106-3.207.866a3.465 3.465 0 0 0 1.884 0 3.559 3.559 0 0 0 1.756-1.038 6.446 6.446 0 0 1 1.354-1.051c.42-.163 1.019-.549 1.136-1.035l.009-.3z" fill="#000"/><path d="M126.404 92.416c-.07.62-.36 1.192-.817 1.614a7.053 7.053 0 0 0-1.154 1.735c-.614 1.177-1.194 2.09-2.455 2.314a2.373 2.373 0 0 0 1.534-.647 4.995 4.995 0 0 0 1.111-1.667c.286-.56.629-1.09 1.023-1.58a2.75 2.75 0 0 0 .865-1.6l-.107-.17z" fill="#AFAFF0"/><path opacity=".1" d="M126.404 92.416c-.07.62-.36 1.192-.817 1.614a7.053 7.053 0 0 0-1.154 1.735c-.614 1.177-1.194 2.09-2.455 2.314a2.373 2.373 0 0 0 1.534-.647 4.995 4.995 0 0 0 1.111-1.667c.286-.56.629-1.09 1.023-1.58a2.75 2.75 0 0 0 .865-1.6l-.107-.17z" fill="#000"/><path d="m115.227 52.383 2.702.224s-1.197 3.236.181 5.732l-.599 3.174v1.217s1.59 2.625 1.885 4.955c.295 2.33.215 9.376.215 9.376s-3.168 1.593-6.268.527c0 0 .347-19.052.887-21.628.54-2.576.997-3.577.997-3.577z" fill="#AFAFF0"/><path opacity=".7" d="m115.227 52.383 2.702.224s-1.197 3.236.181 5.732l-.599 3.174v1.217s1.59 2.625 1.885 4.955c.295 2.33.215 9.376.215 9.376s-3.168 1.593-6.268.527c0 0 .347-19.052.887-21.628.54-2.576.997-3.577.997-3.577z" fill="#fff"/><path d="m115.08 71.278-.058 4.93s1.943.326 3.343-.308c0 0-.516.65-1.842.724-1.326.074-1.826-.108-1.826-.108l.383-5.239zM117.919 59.343a14.715 14.715 0 0 1-.92-3.327 7.875 7.875 0 0 0 .776 4.052l.144-.724zM112.053 52.435a13.625 13.625 0 0 0-3.213 3.516s.181-2.28.463-2.838c.338-.669 1.302-.854 2.763-.875l-.013.197z" fill="#AFAFF0"/><path opacity=".6" d="M112.053 52.435a13.625 13.625 0 0 0-3.213 3.516s.181-2.28.463-2.838c.338-.669 1.302-.854 2.763-.875l-.013.197z" fill="#fff"/><path d="M120.123 63.066c-1.43.983-3.253 2.301-4.675 2.631a1.06 1.06 0 0 1-.755-.11c-.614-.334-1.053-.355-1.673-.515-.485-.127-.712-.343-.792-.247a.583.583 0 0 0 .135.77c.247.2.516.37.802.509a5.183 5.183 0 0 1-1.698-.028c-1.289-.225-1.4.672-1.047 1.516.406.965 1.366 1.233 3.758.801.919-.2 1.819-.485 2.685-.853a50.455 50.455 0 0 0 5.455-2.743" fill="#FFA8A7"/><path d="M117.929 52.608a2.58 2.58 0 0 1 2.167 1.396c.469.785 2.148 6.22 3.026 9.552a1.17 1.17 0 0 1-.574 1.334c-.761.413-2.041 1.14-2.928 1.54a15.814 15.814 0 0 0-1.081-2.465l.955-.653-1.575-3.96s-2.078-3.851.01-6.744z" fill="#AFAFF0"/><path opacity=".7" d="M117.929 52.608a2.58 2.58 0 0 1 2.167 1.396c.469.785 2.148 6.22 3.026 9.552a1.17 1.17 0 0 1-.574 1.334c-.761.413-2.041 1.14-2.928 1.54a15.814 15.814 0 0 0-1.081-2.465l.955-.653-1.575-3.96s-2.078-3.851.01-6.744z" fill="#fff"/><path d="M129.099 83.994a.372.372 0 0 0 .371-.373.372.372 0 1 0-.742 0c0 .206.166.373.371.373z" fill="#AFAFF0"/><path d="M129.587 84.962a.146.146 0 0 1-.141-.096l-.491-1.186a.155.155 0 0 1 .202-.201.152.152 0 0 1 .083.084l.488 1.186a.149.149 0 0 1 .012.059.147.147 0 0 1-.045.109.144.144 0 0 1-.05.032.13.13 0 0 1-.058.013z" fill="#37474F"/><path d="m129.449 83.504-5.768-16.84-3.377 1.36 8.469 15.776.676-.296z" fill="#AFAFF0"/><path d="M120.565 68.196c.209-.416-.307-1.128 0-1.454.307-.327.774.203 1.164.034.469-.204.374-.882.696-.925.455-.052.642.906 1.17.925l-3.03 1.42z" fill="#AFAFF0"/><path opacity=".2" d="M120.565 68.196c.209-.416-.307-1.128 0-1.454.307-.327.774.203 1.164.034.469-.204.374-.882.696-.925.455-.052.642.906 1.17.925l-3.03 1.42z" fill="#000"/><path d="m118.929 63.688.347-.237s.399-.416.709.237c.264.57 1.305 2.884 1.692 3.744a.322.322 0 0 0 .602-.032.33.33 0 0 0-.01-.236c-.387-.86-1.562-3.494-1.704-3.849-.172-.428-.54-1.032-1.32-.616a.724.724 0 0 0-.316.99z" fill="#37474F"/><path d="M120.786 67.457c-.509.647-.273.967.274 1.026a2.923 2.923 0 0 0 2.391-.952c.506-.648.408-.746-.402-.866a2.487 2.487 0 0 0-2.263.792z" fill="#AFAFF0"/><path opacity=".2" d="M120.786 67.457c-.509.647-.273.967.274 1.026a2.923 2.923 0 0 0 2.391-.952c.506-.648.408-.746-.402-.866a2.487 2.487 0 0 0-2.263.792z" fill="#000"/><path d="m121.385 68.501 6.836 13.343-6.581-13.65-.255.307z" fill="#AFAFF0"/><path opacity=".2" d="m121.385 68.501 6.836 13.343-6.581-13.65-.255.307z" fill="#000"/><path d="m123.202 67.457 4.565 12.553-4.866-12.22.301-.333z" fill="#AFAFF0"/><path opacity=".2" d="m123.202 67.457 4.565 12.553-4.866-12.22.301-.333z" fill="#000"/><path d="M121.756 68.464c.2-.043-.359-1.19.089-1.41.449-.223.894 1.007 1.118.924a.786.786 0 0 1-.393.77c-.439.185-.814-.284-.814-.284zM123.291 67.706c.12-.098-.288-1.411.194-1.633l.577 1.704-.771-.07zM121.385 68.504c-.138.056-.393-.33-.614-.662-.221-.333-.589-.524-.786-.422l.584 1.084s.5.38.816 0z" fill="#AFAFF0"/></svg>