<svg width="30" height="28" viewBox="0 0 30 28" fill="none" xmlns="http://www.w3.org/2000/svg">
<path d="M15 22.25C16.875 22.25 18.469 21.5935 19.782 20.2805C21.095 18.9675 21.751 17.374 21.75 15.5C21.75 13.625 21.0935 12.031 19.7805 10.718C18.4675 9.405 16.874 8.749 15 8.75C13.125 8.75 11.531 9.4065 10.218 10.7195C8.905 12.0325 8.249 13.626 8.25 15.5C8.25 17.375 8.9065 18.969 10.2195 20.282C11.5325 21.595 13.126 22.251 15 22.25ZM15 19.25C13.95 19.25 13.0625 18.8875 12.3375 18.1625C11.6125 17.4375 11.25 16.55 11.25 15.5C11.25 14.45 11.6125 13.5625 12.3375 12.8375C13.0625 12.1125 13.95 11.75 15 11.75C16.05 11.75 16.9375 12.1125 17.6625 12.8375C18.3875 13.5625 18.75 14.45 18.75 15.5C18.75 16.55 18.3875 17.4375 17.6625 18.1625C16.9375 18.8875 16.05 19.25 15 19.25ZM3 27.5C2.175 27.5 1.4685 27.206 0.880503 26.618C0.292502 26.03 -0.000997453 25.324 2.54669e-06 24.5V6.5C2.54669e-06 5.675 0.294003 4.9685 0.882003 4.3805C1.47 3.7925 2.176 3.499 3 3.5H7.725L10.5 0.5H19.5L22.275 3.5H27C27.825 3.5 28.5315 3.794 29.1195 4.382C29.7075 4.97 30.001 5.676 30 6.5V24.5C30 25.325 29.706 26.0315 29.118 26.6195C28.53 27.2075 27.824 27.501 27 27.5H3ZM27 24.5V6.5H20.925L18.1875 3.5H11.8125L9.075 6.5H3V24.5H27Z" fill="#272766"/>
</svg>
