<svg xmlns="http://www.w3.org/2000/svg" width="522" height="480" fill="none"><path fill="#F5F5F5" d="M423.682 439.495c-96.917 53.769-254.06 53.769-350.99 0-96.929-53.769-96.916-140.917 0-194.723 96.918-53.806 254.073-53.769 351.002 0s96.917 140.954-.012 194.723Z"/><path fill="#A8D1AB" d="m458.609 325.45-8.567-4.902s-4.124-22.804-1.04-42.41c4.345-27.558 23.094-37.067 29.899-34.31 6.804 2.757 8.408 10.906-3.892 26.823-7.294 9.362-16.632 29.225-16.4 54.799Z"/><path fill="#000" d="m458.609 325.449-8.567-4.901s-4.124-22.804-1.04-42.41c4.344-27.558 23.094-37.067 29.898-34.31 6.805 2.757 8.408 10.906-3.891 26.823-7.295 9.362-16.633 29.225-16.4 54.798Z" opacity=".1"/><path fill="#fff" d="M455.488 314.508h.086a.616.616 0 0 0 .526-.699c-3.561-25.806 6.805-54.075 18.444-65.459a.617.617 0 0 0-.67-1.004.613.613 0 0 0-.199.134c-11.859 11.592-22.421 40.327-18.811 66.513a.62.62 0 0 0 .218.372.62.62 0 0 0 .406.143Z"/><path fill="#A8D1AB" d="M482.523 339.285c1.359.784 4.161-.932 5.238-1.655a12.908 12.908 0 0 0 4.321-4.962 12.197 12.197 0 0 0 1.089-7.353 29.938 29.938 0 0 0-.93-3.884 510.125 510.125 0 0 1-1.077-3.786 9.457 9.457 0 0 1-.563-3.811c.33-2.586 2.631-4.399 4.712-5.955 2.3-1.728 4.699-4.007 4.687-7.12a10.952 10.952 0 0 0-2.741-6.519c-1.481-1.887-3.244-3.541-4.59-5.538a7.623 7.623 0 0 1-1.566-4.828 7.886 7.886 0 0 1 1.052-3.027 42.647 42.647 0 0 0 3.304-6.053c.759-2.181.649-4.902-1.052-6.446a7.138 7.138 0 0 0-5.348-1.335c-1.762.223-3.456.82-4.969 1.752-4.896 2.745-7.747 8.578-12.985 10.71a50.414 50.414 0 0 1-6.34 1.556 7.813 7.813 0 0 0-5.226 3.615c-1.921 3.847 1.64 8.577.294 12.67-1.224 3.603-4.7 4.987-6.67 8.247a7.753 7.753 0 0 0-.918 4.717 22.59 22.59 0 0 0 1.995 7.99 55.522 55.522 0 0 0 4.369 7.193c.086.073 23.706 13.699 23.914 13.822Z"/><path fill="#fff" d="M468.534 331.822a.625.625 0 0 0 .434-.193.616.616 0 0 0 .166-.445c-1.016-24.421 10.476-51.391 18.835-59.221a.615.615 0 0 0-.844-.895c-8.567 7.99-20.243 35.401-19.215 60.165a.614.614 0 0 0 .624.589Z"/><path fill="#fff" d="M472.194 303.027a.447.447 0 0 0 .171 0 82.143 82.143 0 0 1 17.709-2.856.62.62 0 0 0 .587-.637.588.588 0 0 0-.636-.588 83.108 83.108 0 0 0-18.015 2.855.618.618 0 1 0 .184 1.226Z"/><path fill="#A8D1AB" d="m55.654 291.717 7.845-4.485s3.758-20.757.943-38.611c-3.953-25.083-21.014-33.734-27.219-31.246-6.205 2.487-7.649 9.925 3.55 24.421 6.596 8.541 15.09 26.639 14.881 49.921Z"/><path fill="#000" d="m55.655 291.718 7.845-4.484s3.757-20.758.942-38.612c-3.953-25.083-21.013-33.734-27.218-31.246-6.205 2.487-7.65 9.925 3.549 24.421 6.596 8.541 15.09 26.639 14.882 49.921Z" opacity=".1"/><path fill="#fff" d="M58.493 281.756h-.073a.558.558 0 0 1-.37-.213.548.548 0 0 1-.107-.412c3.206-23.441-6.193-49.174-16.791-59.614a.556.556 0 0 1 .77-.797c10.795 10.563 20.415 36.761 17.135 60.546a.562.562 0 0 1-.564.49Z"/><path fill="#A8D1AB" d="M33.882 304.253c-1.224.723-3.794-.845-4.773-1.495a11.873 11.873 0 0 1-3.929-4.521 11.164 11.164 0 0 1-.99-6.666c.2-1.198.483-2.381.844-3.542l.99-3.382a8.68 8.68 0 0 0 .503-3.467c-.294-2.365-2.387-4.007-4.284-5.429-2.093-1.568-4.283-3.676-4.271-6.482a9.981 9.981 0 0 1 2.448-5.931c1.358-1.715 2.961-3.235 4.185-5.036a6.967 6.967 0 0 0 1.42-4.411 7.212 7.212 0 0 0-.955-2.745 38.323 38.323 0 0 1-3.01-5.514c-.686-1.985-.588-4.448.954-5.87a6.5 6.5 0 0 1 4.896-1.225 11.12 11.12 0 0 1 4.528 1.605c4.491 2.451 7.05 7.818 11.822 9.742a48.195 48.195 0 0 0 5.765 1.421 7.11 7.11 0 0 1 4.76 3.26c1.75 3.492-1.493 7.805-.269 11.518 1.09 3.296 4.284 4.546 6.12 7.512a6.98 6.98 0 0 1 .832 4.301 20.429 20.429 0 0 1-1.812 7.266 50.81 50.81 0 0 1-3.977 6.556c-.098.073-21.601 12.535-21.797 12.535Z"/><path fill="#fff" d="M46.623 297.514a.563.563 0 0 1-.551-.589c.93-22.228-9.534-46.772-17.134-53.915a.574.574 0 0 1-.188-.396.562.562 0 0 1 .96-.425c7.758 7.278 18.43 32.227 17.5 54.773a.576.576 0 0 1-.587.552Z"/><path fill="#fff" d="M43.293 271.242a.413.413 0 0 1-.172 0 74.766 74.766 0 0 0-16.106-2.598.56.56 0 0 1-.538-.576.537.537 0 0 1 .587-.539 75.61 75.61 0 0 1 16.388 2.647.56.56 0 0 1 .38.698.55.55 0 0 1-.54.368Z"/><path fill="#8D8DE9" d="m172.68 138.042-83.528 48.292a17.582 17.582 0 0 0-7.955 13.785v67.824a17.622 17.622 0 0 0 7.943 13.785l8.959 5.184a17.569 17.569 0 0 0 15.91 0l83.54-48.292a17.61 17.61 0 0 0 7.943-13.785v-67.824a17.61 17.61 0 0 0-7.943-13.786l-8.959-5.183a17.554 17.554 0 0 0-15.91 0Z"/><path fill="#000" d="m89.153 195.524 8.946 5.171a17.586 17.586 0 0 1 7.955 13.785v67.836c0 5.073-3.561 7.132-7.955 4.595l-8.959-5.183a17.622 17.622 0 0 1-7.943-13.785v-67.848c0-5.061 3.562-7.12 7.956-4.571Z" opacity=".03"/><path fill="#000" d="M99.359 287.536a17.96 17.96 0 0 0 14.686-.612l83.528-48.316a17.572 17.572 0 0 0 7.955-13.786v-67.824a16.191 16.191 0 0 0-2.325-7.842l-99.438 57.47a16.345 16.345 0 0 1 2.325 7.842v67.861c-.037 4.558-2.937 6.678-6.731 5.207Z" opacity=".2"/><path fill="#fff" d="M81.21 200.095c0-5.061 3.549-7.144 7.93-4.595l8.959 5.171a16.45 16.45 0 0 1 5.629 5.943l99.39-57.458a16.38 16.38 0 0 0-5.63-5.943l-8.959-5.171a17.517 17.517 0 0 0-15.91 0l-83.528 48.28a17.608 17.608 0 0 0-5.577 5.947 17.64 17.64 0 0 0-2.304 7.826Z" opacity=".1"/><path fill="#8D8DE9" d="m187.036 174.926-71.094 41.099a17.61 17.61 0 0 0-7.955 13.785v53.463a17.61 17.61 0 0 0 7.955 13.785l83.504 48.292a17.554 17.554 0 0 0 15.91 0l71.106-41.099a17.572 17.572 0 0 0 7.955-13.785v-53.475a17.62 17.62 0 0 0-7.955-13.786l-83.528-48.279a17.558 17.558 0 0 0-15.898 0Z"/><path fill="#fff" d="m115.942 225.214 83.651 48.304a17.557 17.557 0 0 0 15.91 0l71.106-41.099c4.381-2.536 4.381-6.654 0-9.19l-83.663-48.304a17.554 17.554 0 0 0-15.91 0l-71.094 41.099c-4.393 2.536-4.393 6.654 0 9.19Z" opacity=".2"/><path fill="#000" d="M207.425 275.418v71.843a15.906 15.906 0 0 0 7.931-1.936l71.106-41.075a17.545 17.545 0 0 0 5.628-5.938 17.583 17.583 0 0 0 2.327-7.847v-53.463a17.79 17.79 0 0 0-5.752-12.155c2.166 2.451 1.468 5.514-2.081 7.56l-71.081 41.111a16.144 16.144 0 0 1-8.078 1.9Z" opacity=".2"/><path fill="#8D8DE9" d="m298.896 129.808-83.54-48.28a17.558 17.558 0 0 0-15.91 0l-8.959 5.184a17.574 17.574 0 0 0-7.955 13.785v67.824a17.572 17.572 0 0 0 7.955 13.785l83.528 48.292a17.557 17.557 0 0 0 15.91 0l8.959-5.184a17.618 17.618 0 0 0 7.943-13.785v-67.836a17.613 17.613 0 0 0-7.931-13.785Z"/><path fill="#fff" d="m184.87 92.667 99.438 57.494a16.052 16.052 0 0 1 5.629-5.968l8.971-5.183c4.369-2.537 7.919-.49 7.919 4.595a17.653 17.653 0 0 0-2.318-7.838 17.596 17.596 0 0 0-5.601-5.947l-83.552-48.28a17.582 17.582 0 0 0-15.91 0l-8.971 5.183a15.991 15.991 0 0 0-5.605 5.944Z" opacity=".2"/><path fill="#000" d="m298.897 138.998-8.959 5.183a17.586 17.586 0 0 0-5.624 5.94 17.612 17.612 0 0 0-2.331 7.845v67.861c0 5.073 3.561 7.132 7.955 4.595l8.959-5.183a17.606 17.606 0 0 0 7.942-13.786v-67.86c0-5.073-3.549-7.132-7.942-4.595Z" opacity=".2"/><path fill="#8D8DE9" d="m289.387 234.123-71.094 41.111a17.57 17.57 0 0 0-7.955 13.786v53.462a17.61 17.61 0 0 0 7.955 13.785l83.528 48.28a17.557 17.557 0 0 0 15.911 0l71.093-41.099a17.608 17.608 0 0 0 7.955-13.785V296.2a17.608 17.608 0 0 0-7.955-13.785l-83.528-48.292a17.554 17.554 0 0 0-15.91 0Z"/><path fill="#fff" d="m218.293 284.424 83.651 48.304a17.554 17.554 0 0 0 15.91 0l71.106-41.111c4.381-2.536 4.381-6.641 0-9.19l-83.663-48.304a17.557 17.557 0 0 0-15.91 0l-71.094 41.111c-4.394 2.537-4.394 6.642 0 9.19Z" opacity=".2"/><path fill="#000" d="M309.776 334.627v71.831c2.766.06 5.499-.603 7.931-1.924l71.106-41.086a17.538 17.538 0 0 0 7.955-13.786v-53.45a17.799 17.799 0 0 0-5.753-12.168c2.167 2.451 1.469 5.514-2.08 7.573l-71.082 41.111a16.26 16.26 0 0 1-8.077 1.899Z" opacity=".2"/><path fill="#8D8DE9" d="m401.248 189.066-83.528-48.291a17.557 17.557 0 0 0-15.91 0l-8.959 5.183a17.61 17.61 0 0 0-7.955 13.785v67.836a17.61 17.61 0 0 0 7.955 13.786l83.541 48.181a17.554 17.554 0 0 0 15.91 0l8.958-5.171a17.642 17.642 0 0 0 7.943-13.785v-67.788a17.6 17.6 0 0 0-7.955-13.736Z"/><path fill="#000" d="m401.248 198.207-8.958 5.172a17.586 17.586 0 0 0-5.623 5.941 17.632 17.632 0 0 0-2.333 7.844V285c0 5.073 3.562 7.132 7.956 4.595l8.958-5.171a17.622 17.622 0 0 0 5.613-5.944 17.65 17.65 0 0 0 2.33-7.841v-67.836c0-5.073-3.549-7.132-7.943-4.596Z" opacity=".2"/><path fill="#fff" d="m287.246 151.852 99.45 57.47a16.578 16.578 0 0 1 5.63-5.943l8.959-5.183c4.381-2.537 7.955-.454 7.955 4.595a17.682 17.682 0 0 0-7.955-13.786l-83.528-48.279a17.583 17.583 0 0 0-15.91 0l-8.959 5.183a16.43 16.43 0 0 0-5.642 5.943Z" opacity=".2"/><path fill="#8D8DE9" d="m403.095 271.166-83.528 48.291a17.583 17.583 0 0 0-7.943 13.786v67.811a17.558 17.558 0 0 0 7.943 13.786l8.959 5.183a17.554 17.554 0 0 0 15.91 0l83.516-48.377a17.602 17.602 0 0 0 5.622-5.941 17.636 17.636 0 0 0 2.333-7.845v-67.787a17.61 17.61 0 0 0-7.955-13.785l-8.959-5.183a17.557 17.557 0 0 0-15.898.061Z"/><path fill="#000" d="m319.568 328.586 8.958 5.171a17.586 17.586 0 0 1 5.624 5.94 17.612 17.612 0 0 1 2.331 7.845v67.837c0 5.073-3.561 7.131-7.955 4.595l-8.958-5.184a17.544 17.544 0 0 1-5.61-5.918 17.578 17.578 0 0 1-2.333-7.818v-67.873c0-5.073 3.549-7.131 7.943-4.595Z" opacity=".03"/><path fill="#000" d="M329.774 420.66a17.929 17.929 0 0 0 7.409 1.27 17.92 17.92 0 0 0 7.277-1.883l83.504-48.402a17.595 17.595 0 0 0 7.955-13.785v-67.787a16.248 16.248 0 0 0-2.325-7.842L334.155 339.7a16.48 16.48 0 0 1 2.326 7.842v67.849c.037 4.57-2.913 6.678-6.707 5.269Z" opacity=".2"/><path fill="#fff" d="M311.637 333.169c0-5.049 3.549-7.132 7.918-4.596l8.971 5.184a16.479 16.479 0 0 1 5.63 5.943l99.438-57.507a16.594 16.594 0 0 0-5.63-5.943l-8.971-5.183a17.58 17.58 0 0 0-15.91 0l-83.528 48.28a17.663 17.663 0 0 0-7.918 13.822Z" opacity=".1"/><path fill="#FFA8A7" d="M314.818 180.489c-9.533-.319-14.686 3.296-16.301 10.587-1.616 7.291 3.451 36.761 3.451 36.761-14.943 9.166-25.138 15.182-32.212 18.454-5.568 2.561-22.029 16.212-22.213 19.532-.183 3.321 6.438-2.316 10.562-5.06 4.124-2.745 9.069-2.451 17.281-4.657 8.212-2.205 37.425-9.668 41.513-13.577 4.088-3.909-2.081-62.04-2.081-62.04Z"/><path fill="#263238" d="M254.984 355.14c1.114 1.225 2.375 2.524 2.24 3.982a14.925 14.925 0 0 1-3.953 8.309c-3.072 3.32-5.079 9.656-5.654 13.957-.576 4.301-.955 15.268-6.401 19.606-5.446 4.338-18.652 6.482-18.652-1.52 0-8.001 15.764-38.746 15.764-38.746l16.656-5.588Z"/><path fill="#F28F8F" d="M247.666 360.287a118.232 118.232 0 0 0-5.324 17.155c-1.346 6.421-3.243 10.931-6.511 12.671-3.267 1.74-8.151 1.409-6.315-2.953 1.836-4.363 8.812-26.481 8.812-26.481l9.338-.392Z"/><path fill="#455A64" d="M289.888 251.046s-25.97 11.898-38.6 18.687c-12.63 6.788-24.636 13.479-27.145 18.907-2.644 5.784-1.971 19.606-.588 32.803 1.383 13.197 4.284 37.055 4.284 37.055l36.973-55.472 37.156-24.569-12.08-27.411Z"/><path fill="#37474F" d="m291.063 276.361-1.224-2.757s-21.466 12.413-28.92 17.033c-7.453 4.619-15.408 10.281-19.067 18.772-3.66 8.492-14.968 42.141-14.968 42.141l26.068-46.748 38.111-28.441Z"/><path fill="#263238" d="M224.682 400.049c1.065.699.918 3.358.82 5.294-.098 1.936 1.224 4.485-1.53 7.475-2.754 2.99-7.551 3.259-11.394 7.352s-9.791 11.641-20.292 12.181c-10.5.539-17.807-4.069-19.226-7.426-1.42-3.358.746-5.956 7.869-8.651 7.563-2.868 9.717-3.677 9.717-3.677l34.036-12.548Z"/><path fill="#FFA8A7" d="M217.032 377.27s-7.111 12.879-11.113 18.675c-4.002 5.796-9.668 11.029-15.812 15.697-1.334 1.03-4.271 2.831-5.36 3.676a1.993 1.993 0 0 0-.926 1.428 2.002 2.002 0 0 0 .51 1.624c1.762 2.561 11.014 4.999 17.048 2.156 6.034-2.843 12.728-9.251 16.497-11.763a160.57 160.57 0 0 0 4.982-3.37 4.319 4.319 0 0 0 1.884-3.811c0-.429 0-.931-.061-1.52-.098-3.173 6.45-14.704 6.45-14.704l-14.099-8.088Z"/><path fill="#455A64" d="M347.349 265.726c-.11 10.575-.636 16.469-6.119 26.112-5.483 9.644-19.043 15.746-34.99 21.113-13.193 4.436-32.604 10.771-36.447 11.604-3.842.834-4.65 2.892-5.531 9.717-.882 6.826-5.483 17.352-15.788 29.581a329.375 329.375 0 0 0-20.928 28.404s-10.77 0-14.894-7.181c0 0 29.972-70.789 34.769-78.962 4.798-8.174 43.692-29.752 43.692-29.752s-.661-14.643-1.224-25.316l57.46 14.68Z"/><path fill="#37474F" d="M285.556 265.86a82.102 82.102 0 0 0 5.507 10.502l-2.448 1.335a29.532 29.532 0 0 1-3.059-11.837Z"/><path fill="#FAFAFA" d="m340.801 184.704 9.351 4.705s-6.45 6.495-4.675 22.449c1.223 11.298 3.769 12.254 9.497 15.452-7.625 17.351-7.723 42.888-7.723 42.888s-13.462 7.241-37.939.269c-21.528-6.127-19.386-19.422-19.386-19.422l9.252-7.144 2.056-16.848s-7.343-7.353-4.136-20.391c3.206-13.037 17.721-26.173 17.721-26.173h5.679l20.303 4.215Z"/><path fill="#F0F0F0" d="M293.365 261.24c10.929 4.093 27.536 4.742 34.268 0 6.731-4.742 12.324-17.817 11.235-26.284-1.09-8.467 1.064-22.939 4.381-31.516l2.166-.613a44.065 44.065 0 0 0 .11 9.019c1.224 11.298 3.77 12.254 9.497 15.452-7.159 16.922-7.722 42.887-7.722 42.887s-13.462 7.242-37.94.27c-6.951-1.973-12.569-5.036-15.91-9.227l-.085.012Z"/><path fill="#263238" d="m323.704 171.262 10.513.282a26.491 26.491 0 0 0 18.946-7.26 26.552 26.552 0 0 0 8.272-18.546 31.878 31.878 0 0 0-8.711-22.71 31.803 31.803 0 0 0-22.179-9.934 31.798 31.798 0 0 0-22.689 8.717 31.873 31.873 0 0 0-9.926 22.211 26.558 26.558 0 0 0 7.255 18.962 26.496 26.496 0 0 0 18.519 8.278Z"/><path fill="#263238" d="M338.966 105.742c-4.688 6.58 0 11.261 6.596 15.93 6.597 4.669 12.52 7.622 17.208 1.041 4.687-6.58 2.362-14.092-4.211-18.785-6.572-4.693-14.931-4.718-19.593 1.814Z"/><path fill="#263238" d="m354.813 126.842 6.609 5.135a4.07 4.07 0 0 0 .958-3.049 4.069 4.069 0 0 0-1.545-2.796 4.376 4.376 0 0 0-6.022.71Z"/><path fill="#FFA8A7" d="M310.584 126.781c-3.403 1.9-7.784 10.232-7.858 27.951 0 15.01 4.7 18.858 7.111 19.985 2.411 1.128 7.135.613 11.725 0l-.074 6.225s-8.249 9.031-7.967 13.173c.281 4.142 10.549 6.286 16.583 2.451 6.034-3.836 11.235-11.507 11.235-11.507l.441-20.831s2.619 2.684 7.343-1.225c3.855-3.198 5.275-8.725 2.447-11.8a6.567 6.567 0 0 0-10.5 1.801s-7.343.074-16.865-5.539a27.333 27.333 0 0 1-9.284-8.709 27.365 27.365 0 0 1-4.337-11.975Z"/><path fill="#263238" d="M319.567 151.411a1.886 1.886 0 0 0 2.154 1.936 1.886 1.886 0 0 0-.123-3.749 1.92 1.92 0 0 0-2.031 1.813Z"/><path fill="#F28F8F" d="m318.722 164.118-4.418 1.287a2.259 2.259 0 0 0 1.905 1.709c.301.038.606.016.898-.067a2.45 2.45 0 0 0 1.615-2.929Z"/><path fill="#263238" d="m304.269 145.199 3.892-2.549a2.243 2.243 0 0 0-2.322-1.068 2.232 2.232 0 0 0-.836.333 2.451 2.451 0 0 0-.734 3.284ZM305.027 149.647a1.898 1.898 0 1 0 3.054-1.423 1.895 1.895 0 0 0-1.022-.391 1.937 1.937 0 0 0-2.032 1.814Z"/><path fill="#F28F8F" d="m313.569 147.87-.232 12.29-5.911-2.009 6.143-10.281ZM321.563 174.693c4.895-.502 14.833-3.088 16.485-6.96a10.12 10.12 0 0 1-3.611 4.902c-3.035 2.45-12.948 5.048-12.948 5.048l.074-2.99Z"/><path fill="#EBEBEB" d="M325.735 289.547v1.299a3.676 3.676 0 0 1-1.835 3.186l-35.027 20.182a3.673 3.673 0 0 1-3.672 0l-64.252-37.142a3.679 3.679 0 0 1-1.836-3.186v-.894l67.924 39.212 38.698-22.657Z"/><path fill="#FAFAFA" d="m219.101 272.98 38.099-22.057a2.194 2.194 0 0 1 2.191 0l66.088 38.219a.482.482 0 0 1 .242.423.494.494 0 0 1-.242.423l-38.466 22.24-67.912-39.248Z"/><path fill="#FFA8A7" d="M275.324 256.143c-3.133 1.226-3.01 2.132-5.568 3.578-4.737 2.696-7.808 2.169-7.808 2.169a42.842 42.842 0 0 1-4.48 3.676c-3.341 2.304-6.707 4.069-10.831 2.77-4.516-1.434-1.334-5.907 0-8.112 1.334-2.206 8.567-8.664 10.036-9.987 1.468-1.324 7.6-2.23 13.021-3.921l5.63 9.827Z"/><path fill="#E0E0E0" d="m287.38 309.006 20.549-11.862-60.092-34.739-20.658 11.8 60.201 34.801ZM297.477 275.994l-.38.22-10.072 5.821-17.905-10.355-.38-.208 10.452-6.041 18.285 10.563Z"/><path fill="#E6E6E6" d="m297.097 276.215-10.072 5.82-17.905-10.354 10.072-5.821 17.905 10.355Z"/><path fill="#EBEBEB" d="M287.023 312.241v2.45a3.66 3.66 0 0 1-1.835-.49l-64.253-37.141a3.679 3.679 0 0 1-1.835-3.186v-.895l67.923 39.262Z"/><path fill="#E0E0E0" d="M287.025 312.241v2.45a3.664 3.664 0 0 1-1.836-.49l-64.252-37.141a3.681 3.681 0 0 1-1.836-3.186v-.895l67.924 39.262Z" opacity=".5" style="mix-blend-mode:multiply"/><path fill="#EBEBEB" d="M285.997 312.828a4.368 4.368 0 0 1-3.758-.294l-63.971-36.981a4.363 4.363 0 0 1-2.117-3.052l-7.012-41.809a4.592 4.592 0 0 1 0-.723c0-1.163.463-2.278 1.285-3.1l66.479 38.44a3.248 3.248 0 0 1 1.567 2.254l7.527 45.265Z"/><path fill="#FAFAFA" d="m287.023 312.253-.44.245c-.19.11-.386.208-.588.294l-7.575-45.302a3.242 3.242 0 0 0-1.567-2.255l-66.48-38.439c.267-.258.563-.484.882-.674l66.626 38.55a3.26 3.26 0 0 1 1.567 2.254l7.575 45.327Z"/><path fill="#8D8DE9" d="M249.954 274.18c-.465-2.794-3.353-6.519-6.438-8.308-3.084-1.789-5.225-.968-4.76 1.838.465 2.806 3.365 6.519 6.449 8.308 3.085 1.789 5.226.968 4.749-1.838Z"/><path fill="#FFA8A7" d="M320.118 282.918c8.163-2.378 37.389-10.563 46.262-13.479 6.119-2.01 9.509-3.419 9.68-8.774.147-4.975-7.208-45.731-9.888-55.766-2.338-8.811-7.552-11.825-16.021-15.526-5.85 4.632-7.514 28.245-.526 34.445 2.607 10.342 7.343 28.306 7.343 28.306s-16.62 8.651-28.491 14.374c-5.924 2.855-13.952 6.948-18.676 7.462-3.745.405-10.391.662-11.823 1.973a111.993 111.993 0 0 0-9.631 11.2c-1.334 2.193-4.529 6.678 0 8.112 4.124 1.299 7.477-.466 10.831-2.769a43.565 43.565 0 0 0 4.479-3.677 16.395 16.395 0 0 0 9.681-1.923c2.509-1.434 6.78-3.958 6.78-3.958Z"/><path fill="#E0E0E0" d="m342.405 65.6 4.442-8.358-3.573-10.318V40.59l10.941 6.335v6.323l-4.7 8.161a.769.769 0 0 1-.318.282l-6.792 3.91Z"/><path fill="#F0F0F0" d="m347.349 57.218-4.712 8.087a.689.689 0 0 1-1 .181.683.683 0 0 1-.224-.303l-4.895-14.325 10.831 6.36Z"/><path fill="#F0F0F0" d="M323.998 8.007a7.275 7.275 0 0 1 3.28-5.685l2.668-1.544a7.333 7.333 0 0 1 6.56 0l61.841 35.78a7.244 7.244 0 0 1 3.28 5.686v32.019a7.252 7.252 0 0 1-3.28 5.685l-2.668 1.544a7.2 7.2 0 0 1-6.56 0l-13.169-7.61-10.916-6.322-37.756-21.86a7.273 7.273 0 0 1-3.28-5.686V8.007Z"/><path fill="#E0E0E0" d="M401.627 74.263a7.244 7.244 0 0 1-3.28 5.686l-2.668 1.544a7.336 7.336 0 0 1-5.997.27c1.542.575 2.717-.295 2.717-2.17V47.575a6.78 6.78 0 0 0-.955-3.235l9.228-5.33c.587.98.916 2.093.955 3.235v32.02Z"/><path fill="#FAFAFA" d="M324.108 7.076c.379-1.397 1.652-1.838 3.17-.968l61.866 35.781a6.485 6.485 0 0 1 2.313 2.45l9.228-5.33a6.675 6.675 0 0 0-2.314-2.45L336.518.777a7.334 7.334 0 0 0-6.572 0l-2.668 1.556a7.182 7.182 0 0 0-3.17 4.743Z"/><path fill="#fff" d="m384.175 46.803-51.977-30.046c-1.089-.638-1.983-.344-1.983.649a3.999 3.999 0 0 0 1.983 2.94l51.977 30.047c1.102.638 1.995.343 1.995-.65a3.98 3.98 0 0 0-1.995-2.94ZM384.175 57.046 332.198 27c-1.089-.637-1.983-.343-1.983.65a4.023 4.023 0 0 0 1.983 2.94l51.977 30.047c1.102.637 1.995.343 1.995-.65a3.957 3.957 0 0 0-1.995-2.941ZM384.175 67.29l-51.977-30.046c-1.089-.637-1.983-.355-1.983.638a4.015 4.015 0 0 0 1.983 2.916l51.977 30.046c1.102.638 1.995.344 1.995-.649a3.965 3.965 0 0 0-1.995-2.904Z"/><path fill="#8D8DE9" d="m290.196 92.974 4.442-8.37-3.573-10.33v-6.322l10.929 6.323v6.323l-4.7 8.16a.712.712 0 0 1-.318.283l-6.78 3.933Z"/><path fill="#000" d="m290.196 92.974 4.442-8.37-3.573-10.33v-6.322l10.929 6.323v6.323l-4.7 8.16a.712.712 0 0 1-.318.283l-6.78 3.933Z" opacity=".2"/><path fill="#8D8DE9" d="M243.175 18.74a7.24 7.24 0 0 1 3.28-5.685l2.668-1.544a7.198 7.198 0 0 1 6.559 0l61.842 35.744a7.357 7.357 0 0 1 3.28 5.698v32.019a7.253 7.253 0 0 1-3.28 5.685l-2.668 1.606a7.338 7.338 0 0 1-6.56 0l-13.169-7.622-4.687 8.136a.7.7 0 0 1-.993.18.709.709 0 0 1-.231-.29l-4.957-14.337-37.755-21.848a7.234 7.234 0 0 1-3.28-5.686l-.049-32.055Z"/><path fill="#000" d="M320.804 84.973a7.253 7.253 0 0 1-3.28 5.686l-2.668 1.605a7.336 7.336 0 0 1-5.997.27c1.542.575 2.717-.295 2.717-2.17v-32.08a6.744 6.744 0 0 0-.955-3.235l9.228-5.343c.587.984.915 2.102.955 3.247v32.02Z" opacity=".2"/><path fill="#fff" d="M243.285 17.786c.38-1.397 1.653-1.838 3.17-.968l61.841 35.781a6.481 6.481 0 0 1 2.314 2.45l9.227-5.33a6.673 6.673 0 0 0-2.313-2.45l-61.78-35.782a7.333 7.333 0 0 0-6.572 0l-2.668 1.544a7.216 7.216 0 0 0-3.219 4.755Z" opacity=".2"/><path fill="#fff" d="M293.511 58.798a9.681 9.681 0 0 1 4.369 7.585c0 2.794-1.958 3.934-4.369 2.537a9.69 9.69 0 0 1-4.381-7.598c0-2.793 1.958-3.92 4.381-2.524ZM277.382 49.449a9.705 9.705 0 0 1 4.369 7.597c0 2.794-1.958 3.922-4.369 2.525A9.68 9.68 0 0 1 273 51.986c0-2.795 1.959-3.934 4.382-2.537ZM261.239 40.112a9.662 9.662 0 0 1 4.381 7.585c0 2.794-1.958 3.921-4.381 2.524a9.681 9.681 0 0 1-4.369-7.585c0-2.794 1.958-3.921 4.369-2.524Z"/></svg>