<svg width="262" height="220" fill="none" xmlns="http://www.w3.org/2000/svg"><path d="M38.368 205.5c51.16 19.33 134.104 19.336 185.264 0 51.161-19.335 51.153-50.673 0-70.003-51.153-19.329-134.104-19.329-185.264 0-51.16 19.33-51.154 50.674 0 70.003z" fill="#8D8DE9"/><path d="M188.637 149.976s-3.894-6.309-4.277-13.162c-.383-6.853 1.123-9.704 3.19-10.524 2.067-.82 2.228 1.702 3.288 3.19 1.061 1.488 3.226.642 4.028-4.001.802-4.643 3.725-12.476 9.802-13.999 6.684-1.658 3.101 6.184 1.417 9.241-1.684 3.056-2.985 7.226-1.88 8.358 1.105 1.132 2.825-.962 4.455.98 1.988 2.344-4.188 10.783-7.734 12.824l-12.289 7.093z" fill="#B8CFBF"/><path d="M193.976 147.329a.429.429 0 0 1-.169-.041.436.436 0 0 1-.259-.422 64.158 64.158 0 0 1 9.98-31.011.43.43 0 0 1 .291-.183.43.43 0 0 1 .175.009c.058.014.111.04.158.076a.445.445 0 0 1 .098.615 63.336 63.336 0 0 0-9.802 30.538.448.448 0 0 1-.472.419z" fill="#fff"/><path d="M194.483 142.063a.468.468 0 0 1-.214-.054c-2.495-1.381-3.876-5.48-3.93-5.65a.46.46 0 0 1-.025-.173.455.455 0 0 1 .301-.397.446.446 0 0 1 .562.285s1.337 3.948 3.564 5.151a.458.458 0 0 1 .17.606.44.44 0 0 1-.428.232zM194.92 139.363a.448.448 0 0 1-.38-.674.454.454 0 0 1 .273-.2c6.434-1.63 8.662-4.999 8.679-5.034a.458.458 0 0 1 .281-.198.44.44 0 0 1 .465.18.456.456 0 0 1 .075.336.457.457 0 0 1-.063.163c-.098.151-2.415 3.689-9.214 5.418l-.116.009z" fill="#fff"/><path d="M91.684 136.128s-8.545-2.085-8.99-18.09c-.473-17.269 2.093-37.426-8.02-39.057-10.115-1.631-15.73 10.693-15.604 25.085.115 12.6 5.195 39.957 32.579 45.322l.035-13.26z" fill="#B8CFBF"/><path opacity=".2" d="M91.684 136.128s-8.545-2.085-8.99-18.09c-.473-17.269 2.093-37.426-8.02-39.057-10.115-1.631-15.73 10.693-15.604 25.085.115 12.6 5.195 39.957 32.579 45.322l.035-13.26z" fill="#000"/><path d="M91.684 147.748h-.08c-6.157-1.123-11.174-4.518-14.908-10.078-11.068-16.513-7.584-47.345-6.434-52.728a.454.454 0 0 1 .526-.347.463.463 0 0 1 .347.534c-1.132 5.347-4.598 35.788 6.3 52.041a21.493 21.493 0 0 0 14.33 9.696.44.44 0 0 1 .288.188.446.446 0 0 1-.369.694z" fill="#fff"/><path d="M91.684 188.82c-8.83 1.194-23.169 1.176-31.447-5.347-8.279-6.523-6.55-12.137-3.369-14.48 3.182-2.344 5.944-5.017.473-10.222-5.472-5.204-14.258-13.562-17.11-26.1-2.851-12.538-1.443-20.38 4.153-22.991 5.427-2.531 6.861 1.497 10.185 9.802 3.324 8.305 10.8 1.185 17.199 3.779 6.398 2.593 6.14 7.726 6.54 12.137.402 4.411 2.514 5.631 6.14 5.631 3.627 0 7.236 2.086 7.236 6.238v41.553z" fill="#B8CFBF"/><path d="M91.684 174.258a.252.252 0 0 1-.116 0c-.383-.106-9.517-2.762-22.821-14.979-14.169-13.01-20.852-32.526-20.923-32.722a.455.455 0 0 1 .285-.561.444.444 0 0 1 .561.276c.063.196 6.684 19.498 20.683 32.347 13.117 12.057 22.358 14.757 22.456 14.784a.449.449 0 0 1 .318.379.449.449 0 0 1-.015.174.432.432 0 0 1-.428.302z" fill="#fff"/><path d="M72.463 162.38a.425.425 0 0 1-.41-.285c-2.86-7.343-3.511-23.053-3.565-23.722a.456.456 0 0 1 .428-.463.474.474 0 0 1 .463.428c0 .16.669 16.227 3.476 23.436a.447.447 0 0 1-.259.579.438.438 0 0 1-.133.027zM72.391 172.94a21.048 21.048 0 0 1-2.46-.125.446.446 0 0 1-.337-.665.436.436 0 0 1 .27-.212.448.448 0 0 1 .175-.014c.08 0 8.376.945 12.181-2.932a.457.457 0 0 1 .32-.157.442.442 0 0 1 .434.279.448.448 0 0 1-.121.502c-2.754 2.843-7.557 3.324-10.462 3.324z" fill="#fff"/><path d="m92.147 208.096 88.521-51.116a1 1 0 0 0 .483-1.519 1 1 0 0 0-.483-.365l-8.184-4.708a3.635 3.635 0 0 0-3.268 0l-88.549 51.069a1 1 0 0 0 0 1.883l8.212 4.709a3.637 3.637 0 0 0 3.268.047z" fill="#6060B3"/><path d="M91.583 43.884 167.042.33c1.357-.773 2.449-.142 2.449 1.412v140.146a5.397 5.397 0 0 1-2.449 4.237l-75.43 43.555c-1.357.781-2.45.15-2.45-1.413V48.121a5.406 5.406 0 0 1 2.421-4.237z" fill="#fff"/><path d="M184.766 6.178c0-1.564-1.093-2.195-2.449-1.413l-9.031 5.208-66.4 38.346a5.392 5.392 0 0 0-2.448 4.238v140.108c0 1.563 1.092 2.194 2.448 1.412l66.428-38.356 9.003-5.198a5.392 5.392 0 0 0 2.449-4.238V6.178z" fill="#fff"/><path d="M185.707 6.178a2.42 2.42 0 0 0-3.861-2.232l-8.616 4.981-66.815 38.61a6.278 6.278 0 0 0-2.919 5.057v140.071a2.612 2.612 0 0 0 1.186 2.401c.338.196.722.297 1.112.292a3.22 3.22 0 0 0 1.563-.461l66.862-38.611 8.597-4.962a6.359 6.359 0 0 0 2.92-5.057l-.029-140.09zm-12.458 148.498-.773.452-66.023 38.121a.958.958 0 0 1-.376.174.953.953 0 0 1-.415-.005c-.123-.075-.245-.339-.245-.772V52.556a4.528 4.528 0 0 1 1.978-3.427l65.957-38.14 9.417-5.452a.943.943 0 0 1 .791-.17c.123.076.245.34.245.773v140.145a4.531 4.531 0 0 1-1.977 3.428l-8.598 4.963h.019z" fill="#6B6BC7"/><path d="M144.602 38.733c8.475-4.878 15.302-.942 15.302 8.842 0 9.785-6.855 21.66-15.302 26.5-8.448 4.84-15.303.942-15.303-8.833s6.855-21.622 15.303-26.51z" fill="#6B6BC7"/><path d="M144.602 46.417c2.74-1.582 4.962-.301 4.962 2.825a10.973 10.973 0 0 1-4.962 8.598c-2.741 1.582-4.963.301-4.963-2.825a10.973 10.973 0 0 1 4.963-8.598zM154.273 63.292c0-5.198-3.645-7.307-8.155-4.708l-2.826 1.629c-4.501 2.6-8.155 8.928-8.155 14.126v1.403c2.609.857 5.886.395 9.417-1.667a30.134 30.134 0 0 0 9.672-9.577l.047-1.206z" fill="#6B6BC7"/><path opacity=".7" d="M144.602 46.417c2.74-1.582 4.962-.301 4.962 2.825a10.973 10.973 0 0 1-4.962 8.598c-2.741 1.582-4.963.301-4.963-2.825a10.973 10.973 0 0 1 4.963-8.598zM154.273 63.292c0-5.198-3.645-7.307-8.155-4.708l-2.826 1.629c-4.501 2.6-8.155 8.928-8.155 14.126v1.403c2.609.857 5.886.395 9.417-1.667a30.134 30.134 0 0 0 9.672-9.577l.047-1.206z" fill="#fff"/><path d="m114.994 95.593 19.691-11.366c.942-.518 1.629-.104 1.629.941v.65a3.6 3.6 0 0 1-1.629 2.825l-19.691 11.367c-.895.518-1.629.094-1.629-.942v-.65a3.6 3.6 0 0 1 1.629-2.825z" fill="#6B6BC7"/><path opacity=".1" d="m114.994 95.593 19.691-11.366c.942-.518 1.629-.104 1.629.941v.65a3.6 3.6 0 0 1-1.629 2.825l-19.691 11.367c-.895.518-1.629.094-1.629-.942v-.65a3.6 3.6 0 0 1 1.629-2.825z" fill="#000"/><path d="m114.184 109.314 59.573-34.391c.442-.264.81-.057.81.47v6.95a1.832 1.832 0 0 1-.81 1.413l-59.573 34.391c-.452.264-.819.047-.819-.471v-6.95a1.813 1.813 0 0 1 .819-1.412z" fill="#6B6BC7"/><path opacity=".2" d="m114.184 109.314 59.573-34.391c.442-.264.81-.057.81.47v6.95a1.832 1.832 0 0 1-.81 1.413l-59.573 34.391c-.452.264-.819.047-.819-.471v-6.95a1.813 1.813 0 0 1 .819-1.412z" fill="#fff"/><path d="m114.994 126.509 19.691-11.366c.942-.518 1.629-.094 1.629.942v.649a3.588 3.588 0 0 1-1.629 2.826l-19.691 11.366c-.895.527-1.629.104-1.629-.942v-.649a3.62 3.62 0 0 1 1.629-2.826z" fill="#6B6BC7"/><path opacity=".1" d="m114.994 126.509 19.691-11.366c.942-.518 1.629-.094 1.629.942v.649a3.588 3.588 0 0 1-1.629 2.826l-19.691 11.366c-.895.527-1.629.104-1.629-.942v-.649a3.62 3.62 0 0 1 1.629-2.826z" fill="#000"/><path d="m114.184 140.23 59.573-34.391c.442-.264.81-.047.81.471v6.95a1.837 1.837 0 0 1-.81 1.412l-59.573 34.392c-.452.263-.819.056-.819-.471v-6.95a1.809 1.809 0 0 1 .819-1.413z" fill="#6B6BC7"/><path opacity=".2" d="m114.184 140.23 59.573-34.391c.442-.264.81-.047.81.471v6.95a1.837 1.837 0 0 1-.81 1.412l-59.573 34.392c-.452.263-.819.056-.819-.471v-6.95a1.809 1.809 0 0 1 .819-1.413z" fill="#fff"/><path d="m137.943 144.176 23.543-13.57c.942-.528 1.639-.104 1.639.941v7.271a3.605 3.605 0 0 1-1.639 2.825l-23.543 13.579c-.941.518-1.629.094-1.629-.942v-7.279a3.641 3.641 0 0 1 1.629-2.825z" fill="#6B6BC7"/><path opacity=".1" d="m137.943 144.176 23.543-13.57c.942-.528 1.639-.104 1.639.941v7.271a3.605 3.605 0 0 1-1.639 2.825l-23.543 13.579c-.941.518-1.629.094-1.629-.942v-7.279a3.641 3.641 0 0 1 1.629-2.825z" fill="#000"/></svg>