<svg width="127" height="96" fill="none" xmlns="http://www.w3.org/2000/svg"><path d="M19.439 86.372c24.542 12.837 64.335 12.837 88.874 0s24.542-33.651 0-46.489c-24.542-12.837-64.332-12.837-88.874 0-24.543 12.838-24.536 33.652 0 46.489z" fill="#F0F0F0"/><path d="m72.193 91.52 45.722-26.423a.414.414 0 0 0 0-.784L93.83 50.388a1.499 1.499 0 0 0-1.356 0L46.752 76.815a.413.413 0 0 0 0 .784L70.837 91.52a1.5 1.5 0 0 0 1.356 0z" fill="#E6E6E6"/><path d="M7.949 54.63c-.88.828-2.484.68-3.17.574a3.519 3.519 0 0 1-2.301-1.295 2.526 2.526 0 0 1-.313-2.555c.166-.345.435-.7.338-1.073-.097-.373-.48-.539-.805-.718C.7 49.011-.18 47.97.032 46.741c.213-1.229 1.616-1.461 1.616-1.461-.52-.8-.82-1.724-.87-2.678-.038-1.038.14-2.091.394-2.235.254-.145 2.972 1 3.648 3.17a2.192 2.192 0 0 1 2.656-.461c.892.514 1.653 1.784 1.115 3.653-.539 1.868.285 1.426.792 2.982.313.94-.138 2.11-.473 2.988-.16.476-.352.94-.573 1.392-.097.2-.229.383-.388.54z" fill="#6B6BC7"/><path d="M7.604 55.044a.156.156 0 0 1-.156-.147C7.09 48.845 3.69 43.458 2.046 42.04a.157.157 0 0 1 .203-.238c1.688 1.442 5.149 6.93 5.512 13.072a.154.154 0 0 1-.147.166l-.01.003z" fill="#fff"/><path d="M116.894 57.48c.122-1.501 1.277-4.06 2.987-5.885 1.71-1.825 4.45-2.703 6.141-1.97 1.566.688 1.228 2.798-.848 4.049-2.077 1.251-5.171 2.781-6.229 5.149l-2.051 2.84v-4.182z" fill="#6B6BC7"/><path opacity=".2" d="M116.894 57.48c.122-1.501 1.277-4.06 2.987-5.885 1.71-1.825 4.45-2.703 6.141-1.97 1.566.688 1.228 2.798-.848 4.049-2.077 1.251-5.171 2.781-6.229 5.149l-2.051 2.84v-4.182z" fill="#3B3B6D"/><path d="M116.894 60.168h-.022a.157.157 0 0 1-.132-.176c.79-5.863 6.793-9.466 8.59-9.811a.16.16 0 0 1 .187.127.161.161 0 0 1-.127.187c-1.744.335-7.572 3.837-8.34 9.544a.158.158 0 0 1-.156.129z" fill="#fff"/><path d="M117.119 64.235c.314-.822 1.616-2.302 3.511-3.032 1.894-.731 3.316-1.38 3.996-2.556.679-1.176-.511-2.33-2.421-2.248-1.91.081-5.086 2.085-5.324 5.264l.238 2.572z" fill="#6B6BC7"/><path d="M116.982 62.83h-.032a.156.156 0 0 1-.122-.124.158.158 0 0 1 0-.061c.564-2.841 4.741-5.29 6.338-5.447a.16.16 0 0 1 .116.035.161.161 0 0 1 .057.106.158.158 0 0 1-.141.173c-1.532.15-5.524 2.49-6.063 5.199a.159.159 0 0 1-.055.087.154.154 0 0 1-.098.032z" fill="#fff"/><path d="M114.573 64.235c-.163-.383-.989-.706-2.085-.395a2.653 2.653 0 0 1-2.402-.505 2.149 2.149 0 0 1-.627-1.317c-.05-.414 0-1.044-.228-1.396a1.12 1.12 0 0 0-.821-.4 3.252 3.252 0 0 1-.923-.16 1.081 1.081 0 0 1-.508-.462c-.275-.492-.134-1.11-.275-1.652a1.65 1.65 0 0 0-.686-.94c-.473-.315-1.66-.66-1.153-1.456.436-.683 1.513-.712 2.192-.492.781.309 1.524.705 2.215 1.182.201.13.418.235.645.314.479.153.999-.063 1.478-.135a2.769 2.769 0 0 1 1.547.14c1.212.54.77 1.518 1.641 1.813 0 0 .842.565.723 2.34a15.515 15.515 0 0 1-.733 3.52z" fill="#6B6BC7"/><path opacity=".2" d="M114.573 64.235c-.163-.383-.989-.706-2.085-.395a2.653 2.653 0 0 1-2.402-.505 2.149 2.149 0 0 1-.627-1.317c-.05-.414 0-1.044-.228-1.396a1.12 1.12 0 0 0-.821-.4 3.252 3.252 0 0 1-.923-.16 1.081 1.081 0 0 1-.508-.462c-.275-.492-.134-1.11-.275-1.652a1.65 1.65 0 0 0-.686-.94c-.473-.315-1.66-.66-1.153-1.456.436-.683 1.513-.712 2.192-.492.781.309 1.524.705 2.215 1.182.201.13.418.235.645.314.479.153.999-.063 1.478-.135a2.769 2.769 0 0 1 1.547.14c1.212.54.77 1.518 1.641 1.813 0 0 .842.565.723 2.34a15.515 15.515 0 0 1-.733 3.52z" fill="#3B3B6D"/><path d="M115.04 62.654a.15.15 0 0 1-.095-.032.148.148 0 0 1-.055-.084c-.605-2.217-7.635-6.487-8.954-6.64a.157.157 0 0 1-.104-.06.156.156 0 0 1-.033-.117.165.165 0 0 1 .175-.138c1.381.164 8.571 4.494 9.216 6.874a.157.157 0 0 1-.014.119.153.153 0 0 1-.095.072.095.095 0 0 1-.041.006z" fill="#fff"/><path d="M108.147 58.804a.158.158 0 0 1-.12-.024.17.17 0 0 1-.044-.044.193.193 0 0 1-.024-.058.164.164 0 0 1 .024-.12.162.162 0 0 1 .102-.068 5.942 5.942 0 0 1 2.505-.47.152.152 0 0 1 .135.109.156.156 0 0 1-.05.166.154.154 0 0 1-.113.035 5.664 5.664 0 0 0-2.358.449.14.14 0 0 1-.057.025zM112.159 59.472a.159.159 0 0 1-.154-.122 5.374 5.374 0 0 1 .151-2.243.162.162 0 0 1 .298-.035.167.167 0 0 1 .015.123 5.131 5.131 0 0 0-.144 2.088.16.16 0 0 1-.022.12.15.15 0 0 1-.1.066l-.044.003z" fill="#fff"/><path d="m36.979 55.007-2.546-1.471 2.546-.737v2.208z" fill="#E0E0E0"/><path d="M36.979 52.8v2.207l-2.546-1.471" fill="#3B3B6D" style="mix-blend-mode:multiply"/><path d="M21.712 61.623v2.345L7.72 55.878v-2.342l13.992 8.087z" fill="#E0E0E0"/><path d="M21.712 61.623v2.345L7.72 55.878v-2.342l13.992 8.087z" fill="#3B3B6D" style="mix-blend-mode:multiply"/><path d="m6.449 35.149 13.992 8.09v19.12L6.449 54.27V35.15z" fill="#3B3B6D"/><path d="m20.44 43.239 19.082-11.031v19.12L20.44 62.36V43.239z" fill="#455A64"/><path d="M39.522 32.208 25.53 24.12 6.448 35.149l13.992 8.09 19.08-11.031z" fill="#455A64"/><path d="m21.712 43.975 16.538-9.56v4.412l-16.538 9.56v-4.412z" fill="#3B3B6D"/><path d="M28.072 40.664c0 .204.608.02 1.356-.414l2.377-1.373c.749-.433 1.356-.94 1.356-1.154v-.367l-5.089 2.941v.367z" fill="#3B3B6D" style="mix-blend-mode:multiply" opacity=".5"/><path d="m21.712 49.858 16.538-9.56v4.411l-16.538 9.56v-4.411z" fill="#3B3B6D"/><path d="M28.072 46.55c0 .2.608.016 1.356-.417l2.377-1.374c.749-.432 1.356-.94 1.356-1.15v-.37l-5.089 2.94v.37z" fill="#3B3B6D" style="mix-blend-mode:multiply" opacity=".5"/><path d="m21.712 55.74 16.538-9.56v4.415l-16.538 9.557V55.74z" fill="#3B3B6D"/><path d="M28.072 52.432c0 .204.608.016 1.356-.417l2.377-1.373c.749-.433 1.356-.94 1.356-1.15v-.37l-5.089 2.943v.367z" fill="#3B3B6D" style="mix-blend-mode:multiply" opacity=".5"/><path d="m21.712 63.968 1.275-.734V60.89l-1.275.734v2.345zM36.979 55.007l1.271-.737v-2.205l-1.271.734v2.208z" fill="#3B3B6D"/><path d="m20.544 40.012 13.554-7.839a1.234 1.234 0 0 0 .56-.969v-4.747a1.236 1.236 0 0 0-.56-.969l-9.364-5.412a1.226 1.226 0 0 0-1.115 0l-13.556 7.839a1.229 1.229 0 0 0-.558.969v4.766a1.255 1.255 0 0 0 .558.96l9.376 5.402a1.233 1.233 0 0 0 1.105 0z" fill="#6B6BC7"/><path opacity=".6" d="m20.544 40.012 13.554-7.839a1.234 1.234 0 0 0 .56-.969v-4.747a1.236 1.236 0 0 0-.56-.969l-9.364-5.412a1.226 1.226 0 0 0-1.115 0l-13.556 7.839a1.229 1.229 0 0 0-.558.969v4.766a1.255 1.255 0 0 0 .558.96l9.376 5.402a1.233 1.233 0 0 0 1.105 0z" fill="#fff"/><path d="M34.398 25.748a.998.998 0 0 0-.313-.276l-9.363-5.412a1.226 1.226 0 0 0-1.115 0L10.05 27.9a1.229 1.229 0 0 0-.557.968v.097l9.708 5.576 15.197-8.793z" fill="#6B6BC7"/><path opacity=".7" d="M34.398 25.748a.998.998 0 0 0-.313-.276l-9.363-5.412a1.226 1.226 0 0 0-1.115 0L10.05 27.9a1.229 1.229 0 0 0-.557.968v.097l9.708 5.576 15.197-8.793z" fill="#fff"/><path d="M19.983 39.69v-4.767a1.23 1.23 0 0 0-.544-.969l-9.364-5.412c-.313-.179-.557-.034-.557.314v4.766a1.255 1.255 0 0 0 .545.987l9.376 5.403c.313.179.544.035.544-.323z" fill="#6B6BC7"/><path d="M22.082 37.911v-.605l10.481-6.058v.605l-10.481 6.058z" fill="#E0E0E0"/><path d="M22.082 37.911v-.605l10.481-6.058v.605l-10.481 6.058z" fill="#6B6BC7" style="mix-blend-mode:multiply" opacity=".5"/><path d="m22.864 37.46 4.234 2.446a.486.486 0 0 0 .445 0l7.939-4.588a.289.289 0 0 0 0-.564l-4.231-2.446-8.387 4.845v.307z" fill="#E0E0E0"/><path d="M27.32 34.578v5.38a.425.425 0 0 0 .223-.053l7.939-4.587a.289.289 0 0 0 0-.564l-.824-.477h-6.817l-.52.301z" fill="#E0E0E0" style="mix-blend-mode:multiply" opacity=".5"/><path d="M27.098 39.601a.485.485 0 0 0 .445 0l7.939-4.587a.138.138 0 0 0 0-.26l-4.231-2.446-8.387 4.845 4.234 2.448z" fill="#F5F5F5"/><path d="M27.098 39.601a.485.485 0 0 0 .445 0l7.939-4.587a.138.138 0 0 0 0-.26l-4.231-2.446-8.387 4.845 4.234 2.448z" fill="#fff" opacity=".5"/><path d="m12.65 27.614 10.478-6.061.513.298-10.478 6.06-.514-.297z" fill="#E0E0E0"/><path d="m12.65 27.614 10.478-6.061.513.298-10.478 6.06-.514-.297z" fill="#6B6BC7" style="mix-blend-mode:multiply" opacity=".5"/><path d="m12.65 27.614-.486-2.151 10.478-6.058.486 2.148-10.479 6.061z" fill="#E0E0E0"/><path d="m12.89 27.755-.485-2.148 10.482-6.058.485 2.148-10.482 6.058z" fill="#6B6BC7"/><path opacity=".6" d="m12.89 27.755-.485-2.148 10.482-6.058.485 2.148-10.482 6.058z" fill="#fff"/><path d="m12.405 25.607-.241-.144.485 2.151.242.141-.486-2.148z" fill="#6B6BC7"/><path d="m12.164 25.463.241.144 10.482-6.058-.245-.144-10.478 6.058z" fill="#6B6BC7"/><path opacity=".8" d="m12.164 25.463.241.144 10.482-6.058-.245-.144-10.478 6.058z" fill="#fff"/><path d="m15.192 29.085 6.33 3.659a1.112 1.112 0 0 1 .56.969v1.254c0 .285.2.401.444.257l9.59-5.54a.987.987 0 0 0 .444-.775v-1.254a1.114 1.114 0 0 0-.557-.966l-6.332-3.666a.995.995 0 0 0-.893 0l-9.586 5.544a.272.272 0 0 0-.134.418c.033.047.08.081.134.1z" fill="#fff" opacity=".5"/><path d="m23.006 22.22-9.433 5.454-.119-.527-1.456-6.435 9.432-5.45 1.457 6.432.119.527z" fill="#F5F5F5"/><path d="m23.006 22.22-9.433 5.454-.119-.527-1.456-6.435 9.432-5.45 1.457 6.432.119.527z" fill="#fff" stroke="#E0E0E0" stroke-width=".01" stroke-miterlimit="10" opacity=".5"/><path d="M23.128 27.614c-.577.332-.577.881 0 1.22a2.306 2.306 0 0 0 2.104 0c.586-.339.586-.885 0-1.223a2.328 2.328 0 0 0-2.104.003z" fill="#EBEBEB"/><path d="M16.933 24.62a1 1 0 0 1-.413-.75c-.173-.989.293-1.836 1.4-2.543l-.025-.125c-.03-.17-.086-.274-.17-.314-.08-.038-.2 0-.35.091a1.471 1.471 0 0 0-.27.22c-.075.081-.16.181-.25.297a.587.587 0 0 1-.138.16.154.154 0 0 1-.175-.018.741.741 0 0 1-.2-.176.525.525 0 0 1-.107-.2.559.559 0 0 1 .125-.368c.113-.173.246-.333.398-.473.163-.157.342-.298.532-.42.493-.316.872-.42 1.137-.314a.94.94 0 0 1 .514.793l.253 1.443c.029.184.068.366.116.545.032.12.072.248.12.39.022.05.04.104.053.16 0 .084-.073.21-.257.375a3.98 3.98 0 0 1-.498.392c-.075.047-.135.05-.176 0a1.058 1.058 0 0 1-.15-.244 1.78 1.78 0 0 1-.235.502c-.115.181-.27.335-.45.451a.76.76 0 0 1-.784.125zm1.15-1.393a.97.97 0 0 0 .119-.288l-.163-.94a1.097 1.097 0 0 0-.589 1.162.408.408 0 0 0 .157.292.247.247 0 0 0 .278-.034.65.65 0 0 0 .188-.192h.01z" fill="#E0E0E0"/><path d="M50.335 33.104a1.458 1.458 0 0 1-.626-1.15v-8.382a1.334 1.334 0 0 1 .71-1.113l11.296-5.224a1.636 1.636 0 0 1 1.347.038 1.457 1.457 0 0 1 .626 1.15v8.382a1.34 1.34 0 0 1-.71 1.113l-11.284 5.224a1.636 1.636 0 0 1-1.36-.038z" fill="#455A64"/><path d="m52.242 24.262-2.33-1.345a1.255 1.255 0 0 0-.213.658v8.382a1.46 1.46 0 0 0 .627 1.15 1.637 1.637 0 0 0 1.346.038l.56-.26.01-8.623z" fill="#3B3B6D"/><path d="m51.694 23.196 11.274-5.227a.464.464 0 0 1 .71.454v8.382a1.34 1.34 0 0 1-.71 1.113l-11.274 5.224a.463.463 0 0 1-.71-.455v-8.381a1.334 1.334 0 0 1 .71-1.11zM54.174 46.296v19.193a.562.562 0 0 1-.253.442l-.686.395a.557.557 0 0 1-.508 0l-.685-.395a.57.57 0 0 1-.254-.442V46.296a.863.863 0 0 1 .861-.862h.664a.86.86 0 0 1 .861.862z" fill="#3B3B6D"/><path d="M52.386 45.434a.595.595 0 0 1 .595.595v20.184c0 .145-.1.2-.225.132l-.724-.42a.54.54 0 0 1-.244-.424V46.03a.6.6 0 0 1 .598-.595zM67.083 53.034V72.79a.566.566 0 0 1-.257.439l-.683.395a.563.563 0 0 1-.51 0l-.683-.395a.561.561 0 0 1-.254-.44V53.035a.295.295 0 0 1 .292-.294h1.8a.294.294 0 0 1 .295.294z" fill="#3B3B6D"/><path d="M64.988 52.74h.607a.294.294 0 0 1 .294.294v20.457c0 .16-.112.226-.253.144l-.683-.395a.56.56 0 0 1-.254-.439V53.047a.296.296 0 0 1 .289-.307z" fill="#3B3B6D"/><path d="M51.788 45.898v.263a1.728 1.728 0 0 0 .626 1.254l12.84 8.956a1.31 1.31 0 0 0 1.312.069l16.13-9.354a1.496 1.496 0 0 0 .69-1.188v-.273a1.341 1.341 0 0 0-.711-1.113l-15.871-7.369a1.697 1.697 0 0 0-1.39.063l-12.947 7.49a1.497 1.497 0 0 0-.679 1.202z" fill="#3B3B6D"/><path d="m52.468 44.71 12.946-7.492a1.697 1.697 0 0 1 1.39-.063l15.871 7.37c.391.181.407.504.031.72l-16.14 9.332a1.31 1.31 0 0 1-1.312-.066l-12.84-8.949a.47.47 0 0 1 .054-.853z" fill="#455A64"/><path d="M56.918 37.708c-1.356 2.053-1.817 5.33-.51 7.886.625 1.232 6.575 8.049 10.894 7.487 7.425-.972 14.33-10.861 14.33-10.861l-9.968-5.384-14.746.872zM90.63 61.083c3.444 2.772 5.658 3.058 6.547 3.622.89.564.846 2.123-.792 2.9-1.638.778-3.617.828-5.01 0-1.394-.828-2.528-2.097-3.868-2.624-1.34-.527-1.98-.6-2.386-1.518-.407-.919-.263-3.985-.263-3.985l5.771 1.605z" fill="#3B3B6D"/><path d="M88.086 56.182c.07 1.302.072 2.456 1.29 3.738.394.413.812.802 1.253 1.163a234.224 234.224 0 0 0 3.93 3.158c.288.226-.773 1.43-2.386 1.191-1.613-.238-3.407-2.091-4.697-3.157a42.537 42.537 0 0 0-1.55-1.223 2.954 2.954 0 0 1-1.128-1.772l-.42-2 3.708-1.098z" fill="#FFA8A7" stroke="#FFA8A7" stroke-width=".039" stroke-miterlimit="10"/><path d="M81.826 66.163c3.445 2.772 5.656 3.057 6.548 3.622.893.564.846 2.123-.792 2.9-1.638.778-3.617.828-5.01 0-1.394-.828-2.528-2.098-3.868-2.624-1.34-.527-1.98-.602-2.39-1.518-.41-.916-.262-3.985-.262-3.985l5.774 1.605z" fill="#3B3B6D"/><path d="M79.28 61.262c.07 1.301.076 2.455 1.294 3.738.393.413.811.802 1.252 1.163 2.014 1.656 3.642 2.932 3.927 3.158.285.225-.77 1.43-2.386 1.191-1.616-.238-3.407-2.091-4.697-3.157a42.537 42.537 0 0 0-1.55-1.223 2.967 2.967 0 0 1-1.128-1.772l-.42-2 3.708-1.098z" fill="#FFA8A7" stroke="#FFA8A7" stroke-width=".039" stroke-miterlimit="10"/><path d="M70.052 67.22v22.89a.603.603 0 0 0 .272.47l.73.42a.591.591 0 0 0 .541 0l.73-.42a.602.602 0 0 0 .272-.47V67.22a.314.314 0 0 0-.313-.314h-1.92a.313.313 0 0 0-.313.314z" fill="#6B6BC7"/><path d="M72.284 66.906h-.648a.313.313 0 0 0-.313.314v23.633c0 .172.122.244.272.157l.73-.42a.602.602 0 0 0 .272-.47v-22.9a.314.314 0 0 0-.313-.314z" fill="#6B6BC7"/><path opacity=".6" d="M72.284 66.906h-.648a.313.313 0 0 0-.313.314v23.633c0 .172.122.244.272.157l.73-.42a.602.602 0 0 0 .272-.47v-22.9a.314.314 0 0 0-.313-.314z" fill="#fff"/><path d="M114.573 41.508v22.89a.604.604 0 0 0 .273.47l.729.42a.593.593 0 0 0 .542 0l.73-.42a.598.598 0 0 0 .272-.47v-22.89a.316.316 0 0 0-.091-.222.315.315 0 0 0-.222-.092h-1.919a.313.313 0 0 0-.314.314z" fill="#6B6BC7"/><path d="M116.806 41.194h-.648a.313.313 0 0 0-.313.313v23.63c0 .176.122.245.272.157l.73-.42a.598.598 0 0 0 .272-.47V41.508a.316.316 0 0 0-.091-.222.315.315 0 0 0-.222-.092z" fill="#6B6BC7"/><path opacity=".6" d="M116.806 41.194h-.648a.313.313 0 0 0-.313.313v23.63c0 .176.122.245.272.157l.73-.42a.598.598 0 0 0 .272-.47V41.508a.316.316 0 0 0-.091-.222.315.315 0 0 0-.222-.092z" fill="#fff"/><path d="M47.153 53.994v22.89a.603.603 0 0 0 .273.47l.73.42a.591.591 0 0 0 .541 0l.73-.42a.602.602 0 0 0 .272-.47v-22.89a.314.314 0 0 0-.313-.314h-1.92a.313.313 0 0 0-.313.314z" fill="#6B6BC7"/><path d="M49.386 53.68h-.645a.313.313 0 0 0-.313.314v23.633c0 .172.119.244.269.157l.73-.42a.601.601 0 0 0 .272-.471v-22.89a.316.316 0 0 0-.19-.298.313.313 0 0 0-.123-.025z" fill="#6B6BC7"/><path opacity=".6" d="M49.386 53.68h-.645a.313.313 0 0 0-.313.314v23.633c0 .172.119.244.269.157l.73-.42a.601.601 0 0 0 .272-.471v-22.89a.316.316 0 0 0-.19-.298.313.313 0 0 0-.123-.025z" fill="#fff"/><path d="M45.882 53.78v-.216a1.212 1.212 0 0 1 .542-.94l45.98-26.581a1.208 1.208 0 0 1 1.088 0l24.357 14.082a1.197 1.197 0 0 1 .542.94v.217a1.214 1.214 0 0 1-.542.94L71.865 68.804a1.198 1.198 0 0 1-1.084 0L46.424 54.721a1.2 1.2 0 0 1-.542-.94z" fill="#6B6BC7"/><path opacity=".6" d="M45.882 53.78v-.216a1.212 1.212 0 0 1 .542-.94l45.98-26.581a1.208 1.208 0 0 1 1.088 0l24.357 14.082a1.197 1.197 0 0 1 .542.94v.217a1.214 1.214 0 0 1-.542.94L71.865 68.804a1.198 1.198 0 0 1-1.084 0L46.424 54.721a1.2 1.2 0 0 1-.542-.94z" fill="#fff"/><path d="m71.323 38.231-24.9 14.392a1.212 1.212 0 0 0-.541.941v.217a1.201 1.201 0 0 0 .542.94l24.373 14.082c.167.087.353.132.542.129l-.016-30.701z" fill="#6B6BC7"/><path d="m46.424 53.25 24.373 14.082a1.198 1.198 0 0 0 1.083 0l45.985-26.58a.332.332 0 0 0 0-.627L93.507 26.043a1.207 1.207 0 0 0-1.087 0l-45.996 26.58a.332.332 0 0 0 0 .628z" fill="#6B6BC7"/><path opacity=".7" d="m46.424 53.25 24.373 14.082a1.198 1.198 0 0 0 1.083 0l45.985-26.58a.332.332 0 0 0 0-.627L93.507 26.043a1.207 1.207 0 0 0-1.087 0l-45.996 26.58a.332.332 0 0 0 0 .628z" fill="#fff"/><path d="M76.415 40.749v.11a.6.6 0 0 0 .27.47l4.546 2.628a.601.601 0 0 0 .542 0l14.718-8.595a.605.605 0 0 0 .273-.474v-.021a.603.603 0 0 0-.273-.47l-4.534-2.628a.626.626 0 0 0-.545 0l-14.719 8.51a.6.6 0 0 0-.278.47z" fill="#3B3B6D"/><path d="M76.415 40.749v.11a.6.6 0 0 0 .27.47l4.546 2.628a.545.545 0 0 0 .27.066v-4.607h-3.326l-1.49.863a.598.598 0 0 0-.27.47z" fill="#3B3B6D"/><path d="m96.495 34.71-14.719 8.513a.6.6 0 0 1-.542 0l-4.547-2.628a.165.165 0 0 1-.11-.157.166.166 0 0 1 .11-.156l14.719-8.51a.626.626 0 0 1 .545 0l4.534 2.627c.16.085.16.226.01.31z" fill="#455A64"/><path d="m83.323 39.385-.463.266c-.022 0-.022.032 0 .041l.498.292a.094.094 0 0 0 .072 0l.463-.27c.022 0 .022-.031 0-.04l-.498-.29a.076.076 0 0 0-.072 0zm.82 1.01.467-.267c.019 0 .019-.031 0-.04l-.5-.292a.097.097 0 0 0-.073 0l-.463.27c-.022 0-.022.027 0 .04l.498.289a.075.075 0 0 0 .062 0h.01zm1.5-.866.787-.455c.022 0 .022-.03 0-.04l-.498-.292a.093.093 0 0 0-.072 0l-.786.455c-.02 0-.02.031 0 .04l.5.292c.02.007.041.007.06 0h.01zm-.82.474.464-.267c.022 0 .022-.031 0-.044l-.498-.288a.094.094 0 0 0-.072 0l-.467.27c-.019 0-.019.028 0 .04l.501.289a.076.076 0 0 0 .063 0h.01zm1.823-1.054.463-.267a.025.025 0 0 0 .01-.009.026.026 0 0 0 0-.025.026.026 0 0 0-.01-.01l-.5-.288a.089.089 0 0 0-.07 0l-.466.27c-.02 0-.02.028 0 .04l.5.289a.074.074 0 0 0 .063 0h.01zm.68-.392.463-.266a.025.025 0 0 0 0-.044l-.501-.289a.093.093 0 0 0-.072 0l-.464.27c-.019 0-.019.028 0 .04l.501.29a.075.075 0 0 0 .063 0h.01zm-1.967-1.176-.464.267a.025.025 0 0 0-.013.022c0 .004.001.009.004.012a.026.026 0 0 0 .01.01l.5.288a.087.087 0 0 0 .07 0l.466-.27c.019 0 .019-.028 0-.04l-.501-.289a.075.075 0 0 0-.082 0h.01zm.68-.392-.464.267c-.022 0-.022.031 0 .04l.498.292a.094.094 0 0 0 .072 0l.463-.27c.022 0 .022-.03 0-.04l-.498-.289a.075.075 0 0 0-.081 0h.01zm.679-.395-.467.27c-.019 0-.019.031 0 .04l.501.29a.076.076 0 0 0 .072 0l.464-.267c.019 0 .019-.032 0-.041l-.501-.292a.088.088 0 0 0-.079 0h.01zm.676-.392-.463.27c-.02 0-.02.028 0 .04l.5.29a.075.075 0 0 0 .073 0l.463-.267c.02 0 .02-.032 0-.041l-.5-.292a.093.093 0 0 0-.073 0zM83.994 39l-.467.27c-.02 0-.02.031 0 .04l.5.29a.075.075 0 0 0 .073 0l.476-.286c.019 0 .019-.032 0-.041l-.501-.292a.087.087 0 0 0-.082.02zm.676-1.216-1.034.59c-.022 0-.022.027 0 .04l1.212.702a.074.074 0 0 0 .072 0l.536-.313c.022 0 .022-.029 0-.041l-.642-.373c-.019 0-.019-.029 0-.041l.429-.248c.019 0 .019-.028 0-.04l-.501-.289a.075.075 0 0 0-.072.003v.01zm3.322.392.467-.27c.019 0 .019-.028 0-.04l-.501-.29a.075.075 0 0 0-.072 0l-.464.27c-.022 0-.022.029 0 .041l.498.288a.074.074 0 0 0 .072-.009v.01zm.68-.392.463-.27c.022 0 .022-.028 0-.04l-.498-.29a.075.075 0 0 0-.072 0l-.466.267a.025.025 0 0 0 0 .044l.5.289a.075.075 0 0 0 .073-.01v.01zm3.535-4.318a.087.087 0 0 0-.068 0l-.467.27c-.019 0-.019.03 0 .04l.501.289a.076.076 0 0 0 .072 0l.463-.267c.02 0 .02-.031 0-.04l-.5-.292zm1.895 1.179.463-.27c.023 0 .023-.028 0-.04l-.497-.289a.074.074 0 0 0-.072 0l-.467.267a.025.025 0 0 0-.01.009.026.026 0 0 0 0 .025.026.026 0 0 0 .01.01l.501.288c.024.006.05.003.072-.01v.01zm-.999-.869a.095.095 0 0 0-.072 0l-.467.27c-.018 0-.018.028 0 .04l.502.29a.076.076 0 0 0 .072 0l.463-.267c.022 0 .022-.032 0-.044l-.498-.289zm-2.039-.514-.463.267c-.019 0-.019.03 0 .04l.501.289a.074.074 0 0 0 .072 0l.463-.267c.02 0 .02-.031 0-.04l-.5-.289a.075.075 0 0 0-.073-.01v.01zm.752-.395a.096.096 0 0 0-.072 0l-.463.27c-.022 0-.022.031 0 .04l.497.289a.076.076 0 0 0 .072 0l.467-.267c.019 0 .019-.031 0-.04l-.501-.292zm1.606 2.17.467-.27c.019 0 .019-.028 0-.04l-.5-.29a.076.076 0 0 0-.073 0l-.463.27c-.022 0-.022.029 0 .041l.498.289a.075.075 0 0 0 .072-.01v.01zm-3.394 1.963.466-.27c.02 0 .02-.031 0-.04l-.5-.29a.075.075 0 0 0-.073 0l-.463.267c-.019 0-.019.032 0 .041l.501.292a.088.088 0 0 0 .069-.01V37zm2.715-1.568.467-.27c.018 0 .018-.028 0-.04l-.501-.289a.075.075 0 0 0-.073 0l-.463.27c-.019 0-.019.028 0 .04l.501.289a.068.068 0 0 0 .069-.013v.013zm-3.392 1.963.464-.27c.019 0 .019-.028 0-.04l-.501-.29a.069.069 0 0 0-.069 0l-.467.267a.025.025 0 0 0 0 .044l.501.289a.094.094 0 0 0 .072-.013v.013zm1.356-.787.467-.267c.019 0 .019-.031 0-.04l-.501-.292a.097.097 0 0 0-.072 0l-.463.27c-.022 0-.022.03 0 .04l.497.289a.074.074 0 0 0 .072-.013v.013zm.68-.392.463-.267c.022 0 .022-.031 0-.04l-.497-.292a.094.094 0 0 0-.072 0l-.467.27c-.019 0-.019.028 0 .04l.501.289a.075.075 0 0 0 .072-.013v.013zm.68-.392.463-.267a.025.025 0 0 0 .013-.022.026.026 0 0 0-.004-.012.026.026 0 0 0-.009-.01l-.501-.288a.095.095 0 0 0-.072 0l-.463.27c-.02 0-.02.028 0 .04l.5.289a.074.074 0 0 0 .073-.013v.013zm-3.323-.392-.464.27c-.022 0-.022.028 0 .04l.498.289a.075.075 0 0 0 .072 0l.464-.27c.022 0 .022-.028 0-.04l-.498-.29a.074.074 0 0 0-.072-.012v.013zm-6.11 5.832.464-.27c.022 0 .022-.028 0-.04l-.498-.289a.075.075 0 0 0-.072 0l-.464.27c-.022 0-.022.028 0 .04l.498.29a.074.074 0 0 0 .072 0zm.824-.477.463-.266c.02 0 .02-.031 0-.04l-.5-.292a.094.094 0 0 0-.073 0l-.463.27c-.02 0-.02.03 0 .04l.5.288a.075.075 0 0 0 .073 0zm-1.503.87.466-.27c.019 0 .019-.029 0-.041l-.5-.289a.075.075 0 0 0-.073 0l-.463.27c-.02 0-.02.028 0 .04l.5.29a.07.07 0 0 0 .07 0zm3.61-3.572-.466.266c-.019 0-.019.032 0 .04l.5.292a.093.093 0 0 0 .073 0l.463-.27c.02 0 .02-.03 0-.04l-.5-.288a.069.069 0 0 0-.07 0zm-4.359 3.963a.074.074 0 0 0 .072 0l.464-.266a.025.025 0 0 0 0-.044l-.501-.289a.094.094 0 0 0-.072 0l-.464.27c-.019 0-.019.028 0 .04l.501.289zm6.858-6.237-.463.27c-.022 0-.022.028 0 .04l.498.29a.076.076 0 0 0 .072 0l.466-.267a.025.025 0 0 0 .013-.022.025.025 0 0 0-.003-.013.024.024 0 0 0-.01-.01l-.5-.288a.097.097 0 0 0-.073 0zm-8.323 4.813-.464.267a.024.024 0 0 0-.01.01.025.025 0 0 0 0 .025.025.025 0 0 0 .01.009l.501.288a.088.088 0 0 0 .07 0l.466-.27c.019 0 .019-.027 0-.04l-.501-.288a.074.074 0 0 0-.072 0zm1.393.02-.463.269c-.022 0-.022.028 0 .04l.498.29a.075.075 0 0 0 .072 0l.466-.267c.019 0 .019-.032 0-.041l-.5-.292a.097.097 0 0 0-.076 0h.003zm-.63.99a.074.074 0 0 0 .073 0l.463-.266c.019 0 .019-.032 0-.041l-.5-.292a.094.094 0 0 0-.073 0l-.463.27c-.02 0-.02.031 0 .04l.5.29zm-.143.085-1.215-.703a.076.076 0 0 0-.072 0l-.464.267a.026.026 0 0 0-.01.01.026.026 0 0 0 0 .025.025.025 0 0 0 .01.009l1.215.702a.093.093 0 0 0 .072 0l.464-.27c.006-.012.006-.03-.013-.04h.013zm1.565-.869.464-.266c.022 0 .022-.032 0-.044l-.498-.289a.095.095 0 0 0-.072 0l-.467.27c-.018 0-.018.028 0 .04l.501.29a.075.075 0 0 0 .066 0h.006zm5.108-2.953.467-.267c.018 0 .018-.031 0-.04L87 37.296a.096.096 0 0 0-.072 0l-.464.27c-.022 0-.022.03 0 .04l.498.288a.075.075 0 0 0 .066 0h.006zm-6.53 2.335a.076.076 0 0 0-.071 0l-.464.267c-.022 0-.022.031 0 .04l.498.292a.095.095 0 0 0 .072 0l.464-.27c.022 0 .022-.03 0-.04l-.498-.289zm5.86-1.94.463-.27c.02 0 .02-.032 0-.04l-.5-.29a.074.074 0 0 0-.073 0l-.463.267c-.019 0-.019.032 0 .041l.5.292c.02.006.041.006.06 0h.013zm5.18-4.444a.095.095 0 0 0-.072 0l-.464.27c-.022 0-.022.031 0 .04l.498.29a.074.074 0 0 0 .072 0l.463-.267c.022 0 .022-.032 0-.041l-.497-.292zm.939.91.467-.267a.025.025 0 0 0 .013-.022.025.025 0 0 0-.013-.022l-.501-.288a.095.095 0 0 0-.072 0l-.464.27c-.022 0-.022.028 0 .04l.498.289a.074.074 0 0 0 .047 0h.025zm-1.678-.514-.464.266c-.022 0-.022.031 0 .04l.498.292a.094.094 0 0 0 .072 0l.467-.27c.018 0 .018-.03 0-.04l-.502-.288a.075.075 0 0 0-.097 0h.026zm-.68.392-.463.266a.025.025 0 0 0-.013.022.025.025 0 0 0 .013.022l.5.288a.095.095 0 0 0 .073 0l.463-.27c.019 0 .019-.028 0-.04l-.501-.288a.075.075 0 0 0-.097 0h.025zm-.677.391-.466.27c-.019 0-.019.028 0 .04l.501.29a.075.075 0 0 0 .072 0l.463-.27c.02 0 .02-.029 0-.041l-.5-.289a.069.069 0 0 0-.094 0h.024zm2.356.123.466-.267c.019 0 .019-.031 0-.04l-.501-.292a.093.093 0 0 0-.072 0l-.463.27c-.02 0-.02.03 0 .04l.5.289c.015.005.03.005.044 0h.025zm-.702.401.463-.27c.02 0 .02-.031 0-.04l-.5-.289a.075.075 0 0 0-.073 0l-.463.267c-.019 0-.019.031 0 .04l.501.292a.093.093 0 0 0 .072 0zm-2.715 1.568.463-.27c.02 0 .02-.028 0-.04l-.5-.29a.069.069 0 0 0-.07 0l-.466.27c-.019 0-.019.029 0 .041l.5.289a.075.075 0 0 0 .073 0zm.676-.392.467-.27c.019 0 .019-.028 0-.04l-.501-.289a.076.076 0 0 0-.072 0l-.464.27c-.018 0-.018.028 0 .04l.501.289a.07.07 0 0 0 .07-.006v.006zm-1.356.784.464-.267c.022 0 .022-.031 0-.044l-.498-.288a.094.094 0 0 0-.072 0l-.467.27c-.019 0-.019.028 0 .04l.501.289a.075.075 0 0 0 .072-.006v.006zm2.716-1.568.463-.27c.022 0 .022-.028 0-.04l-.498-.289a.075.075 0 0 0-.072 0l-.467.267a.025.025 0 0 0 0 .044l.501.288c.024.007.05.005.073-.006v.006zm-.68.392.467-.27c.018 0 .018-.028 0-.04l-.501-.289a.076.076 0 0 0-.073 0l-.463.267c-.022 0-.022.03 0 .043l.498.289a.093.093 0 0 0 .072-.006v.006zm.645-2.684-.467.266c-.018 0-.018.032 0 .041l.501.292a.094.094 0 0 0 .073 0l.463-.27c.019 0 .019-.031 0-.04l-.501-.29a.068.068 0 0 0-.069-.005v.006zm3.82.313.502.292a.093.093 0 0 0 .072 0l.463-.27c.019 0 .019-.031 0-.04l-.5-.289a.076.076 0 0 0-.073 0l-.463.267c-.02 0-.02.018 0 .028v.012zm-.964-.266.501.288a.075.075 0 0 0 .072 0l.714-.413c.019 0 .019-.029 0-.041l-.5-.289a.076.076 0 0 0-.073 0l-.714.414c-.019.013-.019.013 0 .028v.013zm1.725.83.502.29a.068.068 0 0 0 .069 0l.573-.33c.018 0 .018-.031 0-.04l-.501-.29a.075.075 0 0 0-.072 0l-.57.314c-.02.016-.02.032 0 .044v.013zm-.438.255a.075.075 0 0 0-.072 0l-.463.266c-.022 0-.022.032 0 .044l.498.289a.093.093 0 0 0 .072 0l.466-.27c.019 0 .019-.028 0-.04l-.5-.29zm-2.192-1.395.501.288a.076.076 0 0 0 .072 0l.893-.514a.025.025 0 0 0 0-.044l-.501-.289a.097.097 0 0 0-.073 0l-.892.518c-.006.01-.006.01.013.028l-.013.012zm-.391-.6.498.29a.075.075 0 0 0 .072 0l.573-.314c.018 0 .018-.032 0-.041l-.501-.292a.097.097 0 0 0-.073 0l-.557.298c-.022.016-.022.035 0 .047l-.012.013zm-2.478 4.91a.088.088 0 0 0-.068 0l-.467.27c-.019 0-.019.029 0 .041l.501.289a.074.074 0 0 0 .072 0l.464-.267a.025.025 0 0 0 .009-.009.026.026 0 0 0 0-.025.026.026 0 0 0-.01-.01l-.5-.288zm1.36-.783a.076.076 0 0 0-.073 0l-.463.27c-.022 0-.022.028 0 .04l.498.289a.074.074 0 0 0 .072 0l.467-.27c.018 0 .018-.028 0-.04l-.501-.289zm3.009-1.74a.074.074 0 0 0-.072 0l-.463.27c-.02 0-.02.028 0 .04l.5.289a.075.075 0 0 0 .073 0l.463-.27c.019 0 .019-.028 0-.04l-.501-.29zm-3.689 2.132a.075.075 0 0 0-.072 0l-.463.27c-.02 0-.02.028 0 .04l.5.289a.075.075 0 0 0 .073 0l.463-.27c.019 0 .019-.028 0-.04l-.501-.289zm1.36-.784a.074.074 0 0 0-.073 0l-.463.267c-.022 0-.022.031 0 .044l.498.288a.095.095 0 0 0 .072 0l.463-.27c.022 0 .022-.028 0-.04l-.498-.289zm.077-3.763a.095.095 0 0 0 .072 0l.714-.413c.022 0 .022-.029 0-.041l-.498-.289a.075.075 0 0 0-.072 0l-.701.398c-.022 0-.022.032 0 .044l.485.301zm.896 3.211a.094.094 0 0 0-.072 0l-.463.27c-.022 0-.022.028 0 .04l.498.29a.074.074 0 0 0 .072 0l.463-.267c.022 0 .022-.032 0-.044l-.498-.289zm.676-.392a.069.069 0 0 0-.068 0l-.467.27c-.019 0-.019.028 0 .04l.501.29a.076.076 0 0 0 .072 0l.463-.27c.02 0 .02-.029 0-.041l-.5-.289zm-14.132 4.425a.075.075 0 0 0 .072 0l1.143-.662c.018 0 .018-.028 0-.04l-.501-.29a.074.074 0 0 0-.072 0l-1.144.662c-.018 0-.018.029 0 .041l.502.289zm1.5-.866c.023.01.049.01.072 0l.463-.27c.022 0 .022-.03 0-.04l-.498-.289a.074.074 0 0 0-.072 0l-.466.267c-.02 0-.02.031 0 .04l.5.292zm9.181-5.101-.463.266c-.022 0-.022.031 0 .044l.498.289a.094.094 0 0 0 .072 0l.463-.27c.022 0 .022-.028 0-.041l-.498-.288a.075.075 0 0 0-.072 0zM81.88 38.35a.068.068 0 0 0 .07 0l.466-.266a.025.025 0 0 0 0-.044l-.501-.289a.097.097 0 0 0-.072 0l-.464.27c-.018 0-.018.028 0 .04l.501.29zm-3.538 2.045a.075.075 0 0 0 .072 0l.463-.267c.022 0 .022-.031 0-.04l-.498-.292a.093.093 0 0 0-.072 0l-.463.27c-.022 0-.022.027 0 .04l.498.289zm-1.178.103 1.215.702a.069.069 0 0 0 .07 0l.466-.266a.025.025 0 0 0 .013-.022.025.025 0 0 0-.013-.022l-1.215-.702a.097.097 0 0 0-.072 0l-.464.27c-.015.012-.015.03.007.04h-.007zm7.253-3.612a.086.086 0 0 0 .069 0l.573-.333c.019 0 .019-.028 0-.04l-.501-.289a.076.076 0 0 0-.072 0l-.57.314c-.019 0-.019.031 0 .04l.501.308zm-1.72.99a.095.095 0 0 0 .073 0l.714-.413c.019 0 .019-.029 0-.041l-.501-.288a.076.076 0 0 0-.072 0l-.714.41a.025.025 0 0 0-.013.022.025.025 0 0 0 .013.022l.5.289zm3.286-1.9a.076.076 0 0 0 .072 0l3.846-2.21c.018 0 .018-.028 0-.04l-.502-.29a.075.075 0 0 0-.072 0l-3.82 2.211c-.022 0-.022.029 0 .041l.476.288zm4.04-2.332a.087.087 0 0 0 .069 0l.573-.333c.018 0 .018-.028 0-.04l-.502-.289a.074.074 0 0 0-.072 0l-.57.33c-.021 0-.021.03 0 .04l.502.292zm-4.82 2.787a.094.094 0 0 0 .072 0l.573-.332c.019 0 .019-.028 0-.041l-.5-.288a.075.075 0 0 0-.073 0l-.57.329c-.022 0-.022.031 0 .044l.498.288zm5.609-3.242a.093.093 0 0 0 .072 0l.573-.332c.019 0 .019-.029 0-.041l-.501-.289a.075.075 0 0 0-.072 0l-.57.314c-.022 0-.022.031 0 .044l.498.304zm-7.175 4.151a.089.089 0 0 0 .07 0l.572-.332c.019 0 .019-.028 0-.04l-.5-.29a.074.074 0 0 0-.073 0l-.57.33c-.019 0-.019.031 0 .04l.501.292zm-2.43 1.402a.075.075 0 0 0 .072 0l.464-.266c.018 0 .018-.032 0-.041l-.501-.292a.094.094 0 0 0-.072 0l-.464.27c-.019 0-.019.031 0 .04l.501.29zm-1.5 1.076-.466.27c-.02 0-.02.027 0 .04l.5.288a.075.075 0 0 0 .073 0l.463-.27c.022 0 .022-.027 0-.04l-.498-.288a.076.076 0 0 0-.072 0zm2.928-.041-.463.266a.024.024 0 0 0-.01.01.025.025 0 0 0 .01.035l.5.288a.086.086 0 0 0 .07 0l.466-.27c.02 0 .02-.028 0-.04l-.5-.29a.075.075 0 0 0-.073 0zm1.644-2.603-1.359.784c-.019 0-.019.032 0 .041l.501.292c.023.009.05.009.072 0l1.356-.787c.022 0 .022-.029 0-.041l-.498-.289a.076.076 0 0 0-.072 0zm-3.823 2.252a.074.074 0 0 0-.072 0l-.464.266a.025.025 0 0 0-.01.01.025.025 0 0 0 .01.034l.501.289a.095.095 0 0 0 .072 0l.464-.27c.018 0 .018-.028 0-.04l-.501-.29zm.645.41-.467.27c-.019 0-.019.031 0 .04l.501.29a.075.075 0 0 0 .072 0l.464-.267c.018 0 .018-.032 0-.041l-.501-.292a.089.089 0 0 0-.07 0zm3.858-3.054-.467.267a.024.024 0 0 0-.01.01.025.025 0 0 0 .01.035l.501.287c.023.01.05.01.072 0l.451-.263c.019 0 .019-.028 0-.04l-.5-.29a.069.069 0 0 0-.057-.006zm-3.003 1.775a.087.087 0 0 0-.07 0l-.466.27c-.019 0-.019.028 0 .04l.501.289a.075.075 0 0 0 .072 0l.464-.267a.025.025 0 0 0 0-.043l-.501-.289zm6.394-3.738-.463.27c-.019 0-.019.028 0 .04l.5.29a.076.076 0 0 0 .073 0l.463-.27c.02 0 .02-.029 0-.041l-.5-.288a.075.075 0 0 0-.073 0zm-.676.392-.467.27c-.019 0-.019.028 0 .04l.501.29a.075.075 0 0 0 .072 0l.464-.267a.025.025 0 0 0 0-.044l-.501-.289a.087.087 0 0 0-.07 0zm1.356-.783-.464.27c-.022 0-.022.027 0 .04l.498.288a.076.076 0 0 0 .072 0l.467-.27c.019 0 .019-.028 0-.04l-.501-.288a.075.075 0 0 0-.072 0zm-2.715 1.567-.464.27c-.018 0-.018.031 0 .04l.501.29a.068.068 0 0 0 .07 0l.466-.267c.019 0 .019-.032 0-.041l-.501-.292a.097.097 0 0 0-.072 0zm.68-.392-.464.27c-.022 0-.022.028 0 .04l.498.29a.075.075 0 0 0 .072 0l.463-.267c.022 0 .022-.032 0-.041l-.498-.292a.093.093 0 0 0-.072 0zm-1.36.787-.463.267c-.019 0-.019.031 0 .04l.5.292a.095.095 0 0 0 .073 0l.463-.27c.02 0 .02-.03 0-.04l-.5-.289a.075.075 0 0 0-.073 0zm0 3.515a.068.068 0 0 0-.069 0l-.466.27c-.019 0-.019.028 0 .04l.5.29a.075.075 0 0 0 .073 0l.463-.27c.02 0 .02-.029 0-.041l-.5-.289zm-1.356.784a.098.098 0 0 0-.072 0l-.463.27c-.019 0-.019.028 0 .04l.5.29a.069.069 0 0 0 .07 0l.466-.267c.02 0 .02-.032 0-.041l-.5-.292zm2.192-1.254a.093.093 0 0 0-.072 0l-.463.27c-.019 0-.019.028 0 .04l.5.289a.076.076 0 0 0 .073 0l.463-.267a.025.025 0 0 0 .013-.022.025.025 0 0 0-.013-.021l-.5-.289zm-1.506.872a.093.093 0 0 0-.072 0l-.463.27c-.022 0-.022.028 0 .04l.498.289a.075.075 0 0 0 .072 0l.463-.267c.022 0 .022-.031 0-.044l-.498-.288zm2.865-1.656a.074.074 0 0 0-.072 0l-.463.27c-.022 0-.022.028 0 .04l.498.29a.076.076 0 0 0 .072 0l.463-.27c.022 0 .022-.029 0-.041l-.498-.289zm-.68.392a.075.075 0 0 0-.071 0l-.464.27c-.022 0-.022.028 0 .04l.498.289a.074.074 0 0 0 .072 0l.467-.27c.019 0 .019-.028 0-.04l-.501-.289zm-6.575 2.806a.093.093 0 0 0-.072 0l-.467.27c-.019 0-.019.028 0 .04l.501.29a.076.076 0 0 0 .072 0l.463-.267c.022 0 .022-.032 0-.04l-.497-.293zm-1.538-1.63-.463.27c-.022 0-.022.028 0 .04l.497.289a.076.076 0 0 0 .072 0l.467-.27c.019 0 .019-.028 0-.04l-.501-.289a.075.075 0 0 0-.081-.01l.009.01zm9.482-1.96a.069.069 0 0 0-.069 0l-.466.267a.025.025 0 0 0 0 .044l.501.288a.093.093 0 0 0 .072 0l.463-.27c.02 0 .02-.028 0-.04l-.5-.289zM81.613 42.448a.075.075 0 0 0-.072 0l-.463.27c-.019 0-.019.028 0 .04l.131.075a.075.075 0 0 0 .072 0l.467-.266c.019 0 .019-.031 0-.04l-.135-.079zM82.293 42.056a.075.075 0 0 0-.072 0l-.464.27c-.022 0-.022.028 0 .04l.132.076a.075.075 0 0 0 .072 0l.463-.267c.022 0 .022-.03 0-.043l-.131-.076zM82.97 41.664a.07.07 0 0 0-.07 0l-.466.267a.024.024 0 0 0-.01.009.025.025 0 0 0 0 .025.024.024 0 0 0 .01.01l.135.075a.075.075 0 0 0 .072 0l.463-.27c.019 0 .019-.028 0-.04l-.135-.076zM83.636 41.273a.075.075 0 0 0-.072 0l-.463.266c-.019 0-.019.031 0 .04l.134.079a.069.069 0 0 0 .07 0l.466-.27c.019 0 .019-.028 0-.04l-.135-.075z" fill="#E0E0E0"/><path d="m57.603 50.573 16.012-9.244a.59.59 0 0 1 .542 0l9.633 5.569a.598.598 0 0 1 .272.47v.097a.595.595 0 0 1-.272.47l-16.009 9.25a.59.59 0 0 1-.542 0l-9.636-5.568a.592.592 0 0 1-.269-.47v-.11a.6.6 0 0 1 .27-.464z" fill="#3B3B6D"/><path d="M57.33 51.043v.11a.6.6 0 0 0 .27.47l9.64 5.563a.534.534 0 0 0 .269.066V50.2h-9.257l-.649.373a.598.598 0 0 0-.272.47z" fill="#3B3B6D"/><path d="m57.603 50.573 16.012-9.244a.591.591 0 0 1 .542 0l9.633 5.569c.15.085.15.226 0 .313l-15.993 9.247a.625.625 0 0 1-.542 0l-9.636-5.572c-.166-.084-.166-.225-.016-.313z" fill="#455A64"/><path d="M71.054 44.27a.606.606 0 0 1 .544 0c1.194.68 5.903 3.415 7.087 4.102.15.084.15.225 0 .313-1.566.9-9.354 5.403-10.904 6.303a.601.601 0 0 1-.542 0l-7.09-4.102a.166.166 0 0 1 0-.313l10.905-6.303zM76.12 44.744c-.476.276-.476.724 0 .997a1.901 1.901 0 0 0 1.726 0c.476-.273.476-.721 0-.997a1.92 1.92 0 0 0-1.726 0zM78.801 45.782l-.773.451c-.226.129-.267.314-.091.417a.804.804 0 0 0 .726-.05l.774-.452c.225-.128.263-.313.088-.417a.797.797 0 0 0-.724.05zM79.703 46.305l-.764.452c-.226.132-.263.313-.088.42a.811.811 0 0 0 .724-.053l.773-.452c.226-.128.266-.313.09-.417a.814.814 0 0 0-.735.05zM80.608 46.838l-.773.452c-.226.132-.266.313-.091.42a.826.826 0 0 0 .726-.05l.774-.455c.222-.128.263-.313.088-.417a.815.815 0 0 0-.724.05zM73.615 42.79l-.773.455c-.226.129-.263.314-.088.417a.806.806 0 0 0 .724-.05l.773-.452c.225-.131.266-.313.09-.42a.825.825 0 0 0-.726.05zM74.51 43.317l-.773.452c-.225.128-.266.313-.09.416a.813.813 0 0 0 .726-.05l.774-.451c.225-.129.263-.314.087-.42a.81.81 0 0 0-.723.053zM75.413 43.84l-.774.452c-.225.129-.263.314-.087.42a.81.81 0 0 0 .723-.053l.773-.451c.226-.13.267-.314.091-.418a.805.805 0 0 0-.726.05zM91.406 46.898l-.079-.044a.602.602 0 0 1-.272-.47V30.847a.602.602 0 0 1 .272-.47l21.032-12.23a.593.593 0 0 1 .542 0l.128.076a.59.59 0 0 1 .273.47v15.55a.597.597 0 0 1-.273.47L91.948 46.901a.592.592 0 0 1-.542-.003z" fill="#E0E0E0"/><path d="m96.764 33.82-5.612-3.256a.55.55 0 0 0-.081.267v15.553a.602.602 0 0 0 .272.47l.078.044a.591.591 0 0 0 .542 0l4.817-2.785-.016-10.294z" fill="#3B3B6D"/><path d="M113.029 34.71 91.948 46.898c-.15.088-.273.016-.273-.157v-15.55a.594.594 0 0 1 .273-.47l21.081-12.188c.151-.088.273 0 .273.157v15.55a.596.596 0 0 1-.273.47z" fill="#455A64"/><path d="m103.127 41.172-.328 1.214-.373 1.317-1.773-1.026a.526.526 0 0 1 .191-.2l1.817-1.054.466-.25z" fill="#E0E0E0"/><path d="M106.901 42.342a.51.51 0 0 1-.219.451l-3.292 1.904a.532.532 0 0 1-.275.062l-.313-2.37-.129-.94-.823-6.14 3.758-2.173a.765.765 0 0 1 .106.272l1.187 8.934z" fill="#3B3B6D"/><path d="m105.604 33.123-3.757 2.173-.498-.313a.465.465 0 0 1 .184-.21l3.289-1.9a.58.58 0 0 1 .529 0l.05.03a.675.675 0 0 1 .203.22z" fill="#E0E0E0"/><path d="M103.115 44.76a.568.568 0 0 1-.254-.063l-2.007-1.16a.598.598 0 0 1-.273-.47v-.11a.547.547 0 0 1 .082-.267l1.763 1.013-.266-1.988-.041-.298-.817-6.18a.45.45 0 0 1 .047-.245l.498.314.823 6.14.129.94.316 2.373zM100.901 29.934c.175-.103.313 0 .313.207v2.157a.741.741 0 0 1-.313.578c-.179.103-.313 0-.313-.207v-2.16a.714.714 0 0 1 .313-.574zM102.066 29.279c.175-.1.313 0 .313.21v2.157a.728.728 0 0 1-.313.577c-.176.1-.313 0-.313-.21v-2.17a.728.728 0 0 1 .313-.564zM103.234 28.602c.175-.1.313 0 .313.206v2.158a.73.73 0 0 1-.313.577c-.176.103-.313 0-.313-.207v-2.158a.716.716 0 0 1 .313-.576zM104.399 27.934c.175-.1.313 0 .313.21V30.3a.72.72 0 0 1-.313.577c-.176.1-.313 0-.313-.207v-2.16a.74.74 0 0 1 .313-.577z" fill="#3B3B6D"/><path d="M71.31 27.927s6.89 3.22 8.474 3.685c1.585.464 2.844.583 4.26 1.01 1.547.467 4.647 1.94 5.088 2.508.442.567-.253 1.326-1.525 1.448-1.271.123-3.538-.542-3.933-.545-.395-.003-.097.15.37.737.466.586.626 1.307.244 1.611-.245.195-.61-.35-1.31-.664-.6-.273-1.302-.997-1.963-1.794-.66-.796-1.152-1.15-2.984-1.63-2.076-.546-7.363-1.844-7.363-1.844l.642-4.522zM68.78 15.705c1.102-.173 2.42.028 2.96.705.538.678 1.158 1.728.591 4.17l-3.551-4.875z" fill="#FFA8A7" stroke="#FFA8A7" stroke-width=".039" stroke-miterlimit="10"/><path d="M68.78 15.705a18.266 18.266 0 0 1 2.928 3.785c1.143 1.897 1.41 2.677 1.312 4.39-.097 1.784-.823 3.26-1.13 4.684-.395 1.828-.345 4.939-.226 8.278 0 0-3.178 3.963-8.123 3.82-4.945-.145-6.623-2.948-6.623-2.948l2.962-5.365-1.475-5.644 1.494-9.279 4.456-1.12 4.425-.601z" fill="#6B6BC7"/><path d="M60.951 21.938a24.946 24.946 0 0 1-.777 7.165l1.691 5.146-1.985-1.907-1.475-5.644 2.546-4.76z" fill="#6B6BC7"/><path opacity=".2" d="M60.951 21.938a24.946 24.946 0 0 1-.777 7.165l1.691 5.146-1.985-1.907-1.475-5.644 2.546-4.76z" fill="#3B3B6D"/><path d="m67.092 13.736-1.879-.104a6.36 6.36 0 0 1-4.393-2.116 6.376 6.376 0 0 1-1.61-4.607 7.325 7.325 0 0 1 2.427-5.046A7.306 7.306 0 0 1 66.917.01a7.312 7.312 0 0 1 5.04 2.433 7.33 7.33 0 0 1 1.85 5.287 6.378 6.378 0 0 1-2.116 4.394 6.362 6.362 0 0 1-4.599 1.61z" fill="#3B3B6D"/><path d="M71.649 3.231c.463.314 1.634 1.932 1.293 6.272-.288 3.675-1.275 4.524-1.88 4.753-.603.23-1.756 0-2.868-.244l-.097 1.793s1.143 1.527.517 2.33c-.467.593-1.841.84-3.003.367a4.158 4.158 0 0 1-2.192-1.957l.297-5.33s-.814.972-2.004.078-1.127-2.932-.366-3.622c.76-.69 2.298-.373 2.53.653a6.957 6.957 0 0 1 2.173-4.048c1.93-1.829 4.704-1.336 5.6-1.045z" fill="#FFA8A7" stroke="#FFA8A7" stroke-width=".039" stroke-miterlimit="10"/><path d="m69.015 6.703-1.037.407a.594.594 0 0 1 .314-.752.547.547 0 0 1 .723.345zM69.15 8.355a.474.474 0 0 1-.467.477.475.475 0 0 1-.46-.486.474.474 0 0 1 .466-.477.476.476 0 0 1 .46.486zM71.896 6.734l.94.649a.594.594 0 0 0-.148-.809.55.55 0 0 0-.792.16z" fill="#3B3B6D"/><path d="m69.1 11.478 1.052.405a.554.554 0 0 1-.718.344.589.589 0 0 1-.335-.749z" fill="#F28F8F" stroke="#F28F8F" stroke-width=".039" stroke-miterlimit="10"/><path d="M72.56 8.208a.465.465 0 0 1-.799.301.464.464 0 0 1 .518-.745.47.47 0 0 1 .28.444z" fill="#3B3B6D"/><path d="m70.333 7.819-.081 2.787 1.488-.373-1.407-2.414zM68.188 14.005c-.94-.157-2.768-.83-3.132-1.483 0 0 0 .433.574 1.05.573.618 2.536 1.151 2.536 1.151l.022-.718z" fill="#F28F8F" stroke="#F28F8F" stroke-width=".039" stroke-miterlimit="10"/><path d="M60.685.71c1.481.8.733 2.092-.122 3.682-.855 1.59-1.488 2.875-2.969 2.078-1.481-.796-1.992-2.734-1.137-4.324C57.312.556 59.21-.086 60.685.71zM62.799 8.364l.116-2.063 1.218.07-.182 3.282A1.22 1.22 0 0 1 62.8 8.364z" fill="#3B3B6D"/><path d="M71.649 3.231s-.423 6.121-8.797 4.17c0 0 .153-3.339 3.031-4.725 3.451-1.661 5.766.555 5.766.555z" fill="#6B6BC7"/><path d="M71.649 3.231a12.98 12.98 0 0 1-8.797 4.17s-.57-3.27 2.374-4.991C68.17.688 71.21 2 71.649 3.23zM69.895 49.312a.078.078 0 0 1-.075-.056l-.191-.737a.079.079 0 0 1 .115-.086.075.075 0 0 1 .035.048l.194.734a.081.081 0 0 1-.056.097h-.022z" fill="#3B3B6D"/><path d="m68.52 47.403 1.005 1.398a.266.266 0 0 0 .48-.147l.05-1.734-1.535.483z" fill="#3B3B6D"/><path d="M67.164 37.397a.407.407 0 0 0-.404-.232c-.51-.019-1.253.414-1.093.828L68.52 47.4a1.057 1.057 0 0 0 .98.018c.24-.092.439-.27.555-.501l-2.89-9.52z" fill="#455A64"/><path d="M66.453 36.644a.344.344 0 0 0-.291-.242.34.34 0 0 0-.363.437l.228.752a.175.175 0 0 0 .135.107.536.536 0 0 0 .463-.138.167.167 0 0 0 .057-.163l-.229-.753z" fill="#3B3B6D"/><path d="M59.899 17.414c-1.907.414-2.928 1.514-3.473 3.897-.545 2.383-2.978 13.383-3.25 14.471-.273 1.088.118 1.712 1.383 3.02 1.14 1.176 6.762 5.264 7.203 5.87.442.605 2.089 1.715 2.972 2.195.883.48 1.895.599 2.931.599.714 0 1.88-.725 2.762-.813.883-.087 1.128-.909.592-1.22-.535-.31-3.517-1.458-3.517-1.458l-.253-.94s-.229-.373-1.425-.398c-1.197-.026-1.513.423-3.025-.96-1.566-1.436-5.358-6.13-5.358-6.13l2.855-9.705s1.767-6.214-.397-8.428z" fill="#FFA8A7" stroke="#FFA8A7" stroke-width=".039" stroke-miterlimit="10"/></svg>