<svg width="133" height="97" fill="none" xmlns="http://www.w3.org/2000/svg"><path d="M113.523 86.816c-25.971 13.578-68.075 13.578-94.046 0-25.97-13.578-25.968-35.594 0-49.173 25.968-13.578 68.075-13.578 94.046 0 25.971 13.579 25.968 35.604 0 49.173z" fill="#F5F5F5"/><path d="M36.242 63.609c-4.71 2.249-12.351 2.249-17.047 0-4.696-2.25-4.711-5.895 0-8.14 4.711-2.246 12.352-2.246 17.047 0 4.696 2.245 4.712 5.894 0 8.14z" fill="#E0E0E0"/><path d="M92.245 11.908a.14.14 0 0 0 .139-.137V6.187c0-2.33-1.28-4.963-2.852-5.87-.657-.378-1.31-.421-1.84-.114-.729.419-1.144 1.43-1.144 2.77v5.55a.134.134 0 0 0 .136.137.136.136 0 0 0 .14-.137v-5.54c0-1.241.365-2.172 1.007-2.532.446-.257.986-.217 1.55.115 1.494.865 2.712 3.39 2.712 5.63v5.584a.135.135 0 0 0 .048.097.138.138 0 0 0 .104.03z" fill="#455A64"/><path d="m76.143 31.532.61-26.254 4.464-2.575.53 25.593-5.604 3.236z" fill="#AFAFF0"/><path d="m76.143 31.532.61-26.254 4.464-2.575.53 25.593-5.604 3.236z" fill="#000" opacity=".2"/><path d="m96.906 11.771.527 25.59-15.686-9.065-.53-25.593 15.69 9.068z" fill="#AFAFF0"/><path d="m96.906 11.771.527 25.59-15.686-9.065-.53-25.593 15.69 9.068z" fill="#000" opacity=".4"/><path d="m92.44 14.343-.608 26.254-15.69-9.065.611-26.254 15.687 9.065zM96.906 11.771l-4.466 2.572-.608 26.254 5.601-3.236-.527-25.59z" fill="#AFAFF0"/><path d="m96.906 11.771-4.466 2.572-.608 26.254 5.601-3.236-.527-25.59z" fill="#000" opacity=".2"/><path opacity=".2" d="m91.832 40.597 2.266-3.9.406-15.877.403 15.645 2.526.896-5.6 3.236zM87.77 13.685a1.24 1.24 0 0 1 .56.971c0 .357-.251.506-.56.329a1.24 1.24 0 0 1-.562-.99c0-.356.251-.505.561-.31zM82.209 10.43a1.241 1.241 0 0 1 .56.972c0 .36-.25.506-.56.329a1.24 1.24 0 0 1-.558-.971c0-.36.248-.506.558-.33z" fill="#000"/><path d="M87.769 14.457a.139.139 0 0 0 .152-.152V8.723c0-2.327-1.28-4.964-2.849-5.867-.66-.381-1.314-.422-1.84-.118-.73.422-1.148 1.434-1.148 2.774v5.568a.139.139 0 0 0 .08.148.139.139 0 0 0 .164-.036.139.139 0 0 0 .032-.112V5.533c0-1.241.366-2.172 1.008-2.535.446-.257.988-.217 1.55.118 1.493.862 2.711 3.388 2.711 5.627v5.584a.14.14 0 0 0 .14.13zM112.097 25.38a.116.116 0 0 0 .118-.114v-4.654c0-1.951-1.073-4.153-2.387-4.914a1.5 1.5 0 0 0-1.55-.096c-.619.35-.96 1.198-.96 2.32v4.654a.112.112 0 0 0 .04.07.116.116 0 0 0 .152 0 .117.117 0 0 0 .04-.07v-4.653c0-1.04.31-1.812.843-2.122a1.275 1.275 0 0 1 1.311.1c1.24.722 2.269 2.834 2.269 4.711v4.654c0 .016.003.031.01.046a.116.116 0 0 0 .067.063.115.115 0 0 0 .047.005z" fill="#455A64"/><path d="m98.611 41.81.511-21.98 3.738-2.152.444 21.423-4.693 2.709z" fill="#AFAFF0"/><path d="m98.611 41.81.511-21.98 3.738-2.152.444 21.423-4.693 2.709z" fill="#000" opacity=".2"/><path d="m115.993 25.266.444 21.423-13.133-7.588-.443-21.423 13.132 7.588z" fill="#AFAFF0"/><path d="m115.993 25.266.444 21.423-13.133-7.588-.443-21.423 13.132 7.588z" fill="#000" opacity=".4"/><path d="m112.255 27.419-.508 21.982-13.136-7.591.511-21.98 13.133 7.589z" fill="#AFAFF0"/><path d="m115.993 25.266-3.738 2.153-.508 21.982 4.69-2.712-.444-21.423z" fill="#AFAFF0"/><path d="m115.993 25.266-3.738 2.153-.508 21.982 4.69-2.712-.444-21.423z" fill="#000" opacity=".2"/><path opacity=".2" d="m111.747 49.4 1.897-3.266.338-13.29.341 13.095 2.114.75-4.69 2.712z" fill="#000"/><path d="M108.347 26.854a1.045 1.045 0 0 1 .468.816c0 .31-.211.422-.468.273a1.022 1.022 0 0 1-.471-.813c0-.3.21-.416.471-.276zM103.691 24.146c.137.089.25.209.331.35.082.141.129.3.137.463 0 .31-.211.421-.468.276a1.034 1.034 0 0 1-.468-.813c0-.304.195-.425.468-.276z" fill="#455A64" opacity=".2"/><path d="M108.347 27.515a.117.117 0 0 0 .114-.115V22.73c0-1.948-1.069-4.15-2.386-4.91a1.505 1.505 0 0 0-1.55-.1c-.62.354-.958 1.2-.958 2.32v4.654a.113.113 0 0 0 .115.115c.03 0 .06-.013.081-.034a.113.113 0 0 0 .034-.081V20.04c0-1.036.31-1.808.846-2.118a1.258 1.258 0 0 1 1.308.099c1.24.723 2.269 2.835 2.269 4.71V27.4c0 .016.004.032.01.046a.123.123 0 0 0 .07.063.115.115 0 0 0 .047.006z" fill="#455A64"/><path d="m114.614 60.55-1.568-.803s.263-2.97.796-5.935c.735-4.08 4.008-8.084 7.619-7.963 3.611.12 2.762 2.826 1.122 4.21-1.038.877-6.869 5.196-7.969 10.491z" fill="#AFAFF0"/><path d="m114.614 60.55-1.568-.803s.263-2.97.796-5.935c.735-4.08 4.008-8.084 7.619-7.963 3.611.12 2.762 2.826 1.122 4.21-1.038.877-6.869 5.196-7.969 10.491z" fill="#000" opacity=".1"/><path d="M113.842 60.218h.019a.2.2 0 0 0 .177-.214c-.419-4.129 3.598-11.428 8.288-13.187a.198.198 0 0 0 .109-.102.198.198 0 0 0-.096-.26.197.197 0 0 0-.15-.005c-4.823 1.815-8.97 9.326-8.542 13.607a.193.193 0 0 0 .195.161z" fill="#fff"/><path d="m113.52 64.037-.474-3.155a9.278 9.278 0 0 1 2.919-5.317c2.604-2.389 6.264-3.453 8.71-2.727 2.446.726 2.092 3.13-.065 3.943-2.157.813-5.071.775-7.749 2.643-1.826 1.3-3.431 3.515-3.341 4.613z" fill="#AFAFF0"/><path d="M113.337 62.08a.193.193 0 0 0 .123-.047.194.194 0 0 0 .066-.115c.691-3.89 6.732-7.973 11.158-7.541a.191.191 0 0 0 .143-.042.173.173 0 0 0 .047-.06.187.187 0 0 0 .021-.072.195.195 0 0 0-.041-.144.196.196 0 0 0-.132-.07c-4.674-.466-10.849 3.722-11.571 7.86a.194.194 0 0 0 .03.147.192.192 0 0 0 .125.08l.031.003z" fill="#fff"/><path d="m47.602 39.939 7.185-4.15 9.072-5.244h.022c.815-.452 1.323-1.448 1.323-2.872 0-1.365.465-2.336 1.219-2.814l-6.2 3.58-.979.565-9.06 5.233-.099.06c-.778.464-1.258 1.448-1.258 2.835 0 1.386-.46 2.332-1.225 2.807z" fill="#AFAFF0"/><path d="m47.602 39.939 7.185-4.15 9.072-5.244h.022c.815-.452 1.323-1.448 1.323-2.872 0-1.365.465-2.336 1.219-2.814l-6.2 3.58-.979.565-9.06 5.233-.099.06c-.778.464-1.258 1.448-1.258 2.835 0 1.386-.46 2.332-1.225 2.807z" fill="#000" opacity=".1"/><path d="M40.024 29.838v2.187c0 2.814 1.971 6.233 4.404 7.638 1.2.695 2.29.77 3.084.329l.09-.053c.766-.475 1.24-1.449 1.24-2.82 0-1.371.48-2.37 1.258-2.835l.1-.06 9.06-5.233c-1.674-1.69-2.864-4.24-2.864-6.424v-2.172l-16.372 9.443z" fill="#AFAFF0"/><path d="M50.193 34.225c.794-.42 1.86-.338 3.05.347a7.39 7.39 0 0 1 1.55 1.216c1.674 1.688 2.86 4.238 2.86 6.422 0 2.813 1.975 6.232 4.408 7.64l4.408 2.547L82.83 42.94l-4.407-2.547c-2.433-1.405-4.408-4.827-4.408-7.64 0-2.815-1.971-6.233-4.407-7.638-1.197-.692-2.285-.767-3.078-.33l-.106.06-6.199 3.58-.979.564-9.054 5.237z" fill="#AFAFF0"/><path d="M50.193 34.225c.794-.42 1.86-.338 3.05.347a7.39 7.39 0 0 1 1.55 1.216c1.674 1.688 2.86 4.238 2.86 6.422 0 2.813 1.975 6.232 4.408 7.64l4.408 2.547L82.83 42.94l-4.407-2.547c-2.433-1.405-4.408-4.827-4.408-7.64 0-2.815-1.971-6.233-4.407-7.638-1.197-.692-2.285-.767-3.078-.33l-.106.06-6.199 3.58-.979.564-9.054 5.237z" fill="#fff" opacity=".4"/><path d="M62.7 44.257c.102-.682.657-.93 1.327-.543l2.436 1.406 4.96 2.863a23.853 23.853 0 0 1 2.612 1.663c1.28 1.1 2.47 2.304 3.555 3.598 2.17 2.482 4.34 5.175 6.51 6.428l11.247 6.5a2.97 2.97 0 0 1 1.342 2.326v4.172c0 .794-.517 1.151-1.184.856a2.995 2.995 0 0 0 2.526-.08l14.934-8.634a2.966 2.966 0 0 0 1.342-2.326v-4.173a2.959 2.959 0 0 0-1.342-2.326l-11.248-6.515c-2.17-1.24-4.34-3.946-6.51-6.425a31.078 31.078 0 0 0-3.567-3.589 23.965 23.965 0 0 0-2.61-1.66l-4.959-2.863-2.433-1.408a2.964 2.964 0 0 0-2.684 0L64.01 42.163a3.005 3.005 0 0 0-1.311 2.094z" fill="#455A64"/><path d="M95.422 69.127s18.885-10.817 18.882-10.91v4.266a2.971 2.971 0 0 1-1.342 2.326l-14.943 8.637a2.964 2.964 0 0 1-2.684 0l-.639-.37.726-3.949z" fill="#455A64"/><path d="m64.03 43.711 7.386 4.272a24.298 24.298 0 0 1 2.613 1.66c3.353 2.71 6.707 8.093 10.06 10.026l11.25 6.514a2.965 2.965 0 0 1 1.341 2.327v4.173c0 .856-.601 1.203-1.342.775L64.033 55.366a2.972 2.972 0 0 1-1.342-2.327v-8.552c-.006-.856.595-1.204 1.339-.776z" fill="#455A64"/><path d="M73.933 46.528a23.868 23.868 0 0 1 2.612 1.663 20.11 20.11 0 0 1 1.832 1.715.833.833 0 0 0 .964.14l11.521-6.657a.465.465 0 0 0 .112-.76 20.196 20.196 0 0 0-1.838-1.716 23.955 23.955 0 0 0-2.61-1.66 1125.67 1125.67 0 0 0-4.417-2.553 1.196 1.196 0 0 0-1.075 0l-11.518 6.654a.329.329 0 0 0 0 .62l4.417 2.554z" fill="#37474F"/><path d="M81.034 37.262a1.192 1.192 0 0 1 1.075 0l4.417 2.556c.905.496 1.777 1.05 2.61 1.66.647.532 1.26 1.104 1.838 1.712l.056.071a.592.592 0 0 1-.168.146l-11.52 6.658a.833.833 0 0 1-.965-.14 20.097 20.097 0 0 0-1.831-1.716 23.868 23.868 0 0 0-2.613-1.662l-4.417-2.553-.053-.038.053-.037 11.518-6.657z" fill="#fff"/><path d="M97.939 70.582c0 .404.31.556.672.342l13.765-7.954a1.432 1.432 0 0 0 .67-1.117c0-.404-.31-.556-.67-.341l-13.765 7.957a1.438 1.438 0 0 0-.672 1.113z" fill="#7272AB"/><path d="M92.98 56.216v-.552l.638-.047 1.432-.834a1.485 1.485 0 0 1 1.342 0l.967.558.487-.037v.537a.464.464 0 0 1-.276.397l-1.804 1.042a1.483 1.483 0 0 1-1.342 0l-1.178-.68a.475.475 0 0 1-.276-.38l.01-.004z" fill="#E0E0E0"/><path d="m95.05 54.237-1.807 1.042a.41.41 0 0 0 0 .776l1.178.68a1.484 1.484 0 0 0 1.342 0l1.804-1.043a.41.41 0 0 0 0-.776l-1.175-.679a1.483 1.483 0 0 0-1.342 0z" fill="#F5F5F5"/><path d="M97.7 53.48v-.552l.638-.047 1.445-.834a1.485 1.485 0 0 1 1.342 0l.967.558.487-.034v.534a.467.467 0 0 1-.279.394l-1.804 1.042a1.467 1.467 0 0 1-1.342 0l-1.175-.68a.468.468 0 0 1-.279-.38z" fill="#E0E0E0"/><path d="m99.783 51.5-1.804 1.046a.41.41 0 0 0 0 .776l1.174.692a1.483 1.483 0 0 0 1.343 0l1.803-1.046a.411.411 0 0 0 .278-.388.412.412 0 0 0-.278-.388l-1.174-.679a1.485 1.485 0 0 0-1.342-.012z" fill="#F5F5F5"/><path d="M88.259 58.943v-.552l.62-.047 1.447-.834a1.483 1.483 0 0 1 1.342 0l.964.558.49-.037v.537a.466.466 0 0 1-.276.397l-1.807 1.042a1.483 1.483 0 0 1-1.342 0l-1.175-.68a.47.47 0 0 1-.276-.38l.013-.004z" fill="#E0E0E0"/><path d="m90.338 56.964-1.803 1.042a.409.409 0 0 0 0 .776l1.174.68a1.485 1.485 0 0 0 1.342 0l1.807-1.043a.41.41 0 0 0 0-.776l-1.178-.68a1.484 1.484 0 0 0-1.342 0z" fill="#F5F5F5"/><path d="M89.2 54.035v-.552l.64-.046 1.444-.835a1.483 1.483 0 0 1 1.342 0l.967.559.487-.038v.537a.466.466 0 0 1-.276.397l-1.807 1.042a1.485 1.485 0 0 1-1.342 0l-1.175-.679a.482.482 0 0 1-.28-.382v-.003z" fill="#E0E0E0"/><path d="M91.284 52.056 89.48 53.1a.41.41 0 0 0 0 .775l1.175.68a1.483 1.483 0 0 0 1.342 0l1.813-1.043a.41.41 0 0 0 0-.775l-1.178-.68a1.484 1.484 0 0 0-1.348 0z" fill="#F5F5F5"/><path d="M93.922 51.3v-.553l.638-.047 1.444-.834a1.484 1.484 0 0 1 1.343 0l.967.558.486-.034v.521a.463.463 0 0 1-.276.398l-1.807 1.042a1.483 1.483 0 0 1-1.342 0l-1.174-.68a.465.465 0 0 1-.276-.381l-.003.01z" fill="#E0E0E0"/><path d="m96.004 49.32-1.803 1.045a.409.409 0 0 0 0 .776l1.159.68a1.485 1.485 0 0 0 1.342 0l1.807-1.046a.41.41 0 0 0 0-.776l-1.178-.679a1.483 1.483 0 0 0-1.327 0z" fill="#F5F5F5"/><path d="M84.48 56.762v-.552l.639-.047 1.444-.834a1.483 1.483 0 0 1 1.343 0l.966.558.487-.037v.537a.47.47 0 0 1-.279.397l-1.804 1.042a1.483 1.483 0 0 1-1.342 0l-1.178-.68a.474.474 0 0 1-.275-.38v-.004z" fill="#E0E0E0"/><path d="m86.563 54.783-1.807 1.042a.41.41 0 0 0 0 .776l1.178.68a1.483 1.483 0 0 0 1.342 0l1.804-1.043a.409.409 0 0 0 0-.776l-1.175-.68a1.485 1.485 0 0 0-1.342 0z" fill="#F5F5F5"/><path d="M96.754 58.406v-.552l.639-.046 1.444-.835a1.465 1.465 0 0 1 1.342 0l.967.559.487-.038v.552a.478.478 0 0 1-.276.398l-1.807 1.042a1.485 1.485 0 0 1-1.342 0l-1.175-.68a.482.482 0 0 1-.279-.381v-.019z" fill="#E0E0E0"/><path d="m98.837 56.427-1.803 1.042a.409.409 0 0 0 0 .776l1.174.68a1.485 1.485 0 0 0 1.342 0l1.807-1.043a.406.406 0 0 0 .278-.388.409.409 0 0 0-.278-.388l-1.177-.679a1.487 1.487 0 0 0-1.343 0z" fill="#F5F5F5"/><path d="M101.478 55.67v-.552l.62-.047 1.448-.834a1.48 1.48 0 0 1 1.342 0l.964.558.489-.037v.537a.46.46 0 0 1-.276.397l-1.807 1.042a1.48 1.48 0 0 1-1.342 0l-1.174-.68a.471.471 0 0 1-.276-.38l.012-.004z" fill="#E0E0E0"/><path d="m103.561 53.703-1.807 1.043a.41.41 0 0 0 0 .775l1.175.664a1.485 1.485 0 0 0 1.342 0l1.807-1.042a.41.41 0 0 0 0-.776l-1.175-.68a1.484 1.484 0 0 0-1.342.016z" fill="#F5F5F5"/><path d="M92.034 61.149v-.553l.638-.046 1.448-.85a1.466 1.466 0 0 1 1.342 0l.967.558.48-.04v.537a.475.475 0 0 1-.279.397l-1.803 1.042a1.484 1.484 0 0 1-1.343 0l-1.174-.68a.482.482 0 0 1-.28-.38l.004.015z" fill="#E0E0E0"/><path d="m94.12 59.154-1.804 1.042a.409.409 0 0 0 0 .776l1.184.68a1.485 1.485 0 0 0 1.342 0l1.804-1.043a.41.41 0 0 0 0-.776l-1.175-.68a1.484 1.484 0 0 0-1.351 0z" fill="#F5F5F5"/><path d="M100.536 60.584v-.552l.638-.047 1.445-.837a1.485 1.485 0 0 1 1.342 0l.967.558.487-.034v.546a.467.467 0 0 1-.279.394l-1.804 1.045a1.484 1.484 0 0 1-1.342 0l-1.178-.679a.477.477 0 0 1-.276-.385v-.009z" fill="#E0E0E0"/><path d="m102.619 58.602-1.807 1.045a.41.41 0 0 0 0 .776l1.178.68a1.484 1.484 0 0 0 1.342 0l1.804-1.043a.41.41 0 0 0 0-.776l-1.175-.682a1.485 1.485 0 0 0-1.342 0z" fill="#F5F5F5"/><path d="M105.257 57.848v-.552l.638-.047 1.444-.834a1.485 1.485 0 0 1 1.343 0l.967.558.486-.037v.537a.46.46 0 0 1-.276.397l-1.807 1.042a1.484 1.484 0 0 1-1.342 0l-1.174-.68a.478.478 0 0 1-.279-.381v-.003z" fill="#E0E0E0"/><path d="m107.339 55.875-1.804 1.042a.41.41 0 0 0 0 .776l1.175.664a1.485 1.485 0 0 0 1.342 0l1.807-1.043a.406.406 0 0 0 .278-.387.409.409 0 0 0-.278-.388l-1.171-.664a1.485 1.485 0 0 0-1.349 0z" fill="#F5F5F5"/><path d="M95.815 63.32v-.552l.636-.047 1.447-.837a1.483 1.483 0 0 1 1.342 0l.967.558.487-.034v.537a.456.456 0 0 1-.083.236.456.456 0 0 1-.193.158l-1.804 1.045a1.483 1.483 0 0 1-1.342 0l-1.178-.68a.468.468 0 0 1-.275-.384h-.004z" fill="#E0E0E0"/><path d="m97.898 61.329-1.807 1.045a.409.409 0 0 0 0 .776l1.178.679a1.485 1.485 0 0 0 1.342 0l1.804-1.042a.41.41 0 0 0 0-.776l-1.175-.682a1.483 1.483 0 0 0-1.342 0z" fill="#F5F5F5"/><path d="m90.828 47.536.115-.474.477-.04 1.55-.904c.74-.428 1.723-.338 2.2.19a.97.97 0 0 1 .218.388h.136l-.121.502a1.392 1.392 0 0 1-.691.835l-1.903 1.098a.82.82 0 0 1-.964-.14c-.3-.32-.6-.651-.902-.992a.496.496 0 0 1-.115-.463z" fill="#E0E0E0"/><path d="m92.93 48.65 1.903-1.098c.74-.428.93-1.191.462-1.719-.469-.527-1.46-.62-2.201-.19l-1.903 1.1a.49.49 0 0 0-.127.775c.301.34.602.672.902.992a.818.818 0 0 0 .964.14z" fill="#F5F5F5"/><path d="m81.102 53.461.114-.48h.137c.13-.155.286-.286.462-.385l1.9-1.098a.79.79 0 0 1 .948.155c.31.332.592.66.887.977l.27-.022-.121.5a.487.487 0 0 1-.24.31l-1.9 1.098c-.74.428-1.744.36-2.225-.167a.93.93 0 0 1-.232-.888z" fill="#E0E0E0"/><path d="m83.665 54.014 1.9-1.099a.469.469 0 0 0 .112-.76c-.3-.322-.6-.653-.902-.992a.791.791 0 0 0-.949-.155l-1.9 1.098c-.743.428-.964 1.213-.486 1.74.477.527 1.481.59 2.225.168z" fill="#F5F5F5"/><path d="m85.863 50.452.115-.468.362-.025 2.278-1.315a.989.989 0 0 1 1.184.192c.233.26.462.515.695.766a.772.772 0 0 1 .058.08h.23l-.118.491a.601.601 0 0 1-.31.391l-2.44 1.408a1.022 1.022 0 0 1-1.202-.173 41.851 41.851 0 0 1-.694-.764.62.62 0 0 1-.158-.583z" fill="#E0E0E0"/><path d="M86.132 50.545c.23.258.462.515.692.764a1.03 1.03 0 0 0 1.205.173l2.44-1.408a.586.586 0 0 0 .14-.95 57.13 57.13 0 0 1-.695-.766.989.989 0 0 0-1.184-.192l-2.44 1.408a.62.62 0 0 0-.158.971z" fill="#F5F5F5"/><path d="m15.717 37.544 7.25-4.19.527 12.243-7.777 4.514V37.544z" fill="#AFAFF0"/><path d="m15.717 50.111-3.623-2.094 2.173-11.31 1.45.837v12.567z" fill="#37474F"/><path d="m12.094 48.017 2.365-.307 1.258 2.401-3.623-2.094z" fill="#37474F"/><path d="m12.094 48.017 2.365-.307 1.258 2.401-3.623-2.094z" fill="#37474F"/><path d="m12.094 48.017 2.365-.307 1.258 2.401-3.623-2.094z" fill="#AFAFF0"/><path opacity=".1" d="m12.094 48.017 2.365-.307 1.258 2.401-3.623-2.094z" fill="#000"/><path d="m14.459 47.71 1.258-11.004v13.405L14.46 47.71z" fill="#AFAFF0"/><path opacity=".2" d="m14.459 47.71 1.258-11.004v13.405L14.46 47.71z" fill="#000"/><path d="m22.967 33.353-1.268-.093-.183-.745-7.25 4.191h1.451v.838l7.25-4.191z" fill="#AFAFF0"/><path opacity=".2" d="m22.967 33.353-1.268-.093-.183-.745-7.25 4.191h1.451v.838l7.25-4.191z" fill="#000"/><path d="M18.085 37.023c0 .105.078.152.171.096a.372.372 0 0 0 .167-.292c0-.108-.074-.151-.167-.099a.374.374 0 0 0-.17.295z" fill="#AFAFF0"/><path opacity=".3" d="M18.085 37.023c0 .105.078.152.171.096a.372.372 0 0 0 .167-.292c0-.108-.074-.151-.167-.099a.374.374 0 0 0-.17.295z" fill="#000"/><path d="M20.236 35.745c0 .108.078.152.17.099a.372.372 0 0 0 .168-.31c0-.106-.074-.152-.167-.096a.376.376 0 0 0-.17.307z" fill="#AFAFF0"/><path opacity=".3" d="M20.236 35.745c0 .108.078.152.17.099a.372.372 0 0 0 .168-.31c0-.106-.074-.152-.167-.096a.376.376 0 0 0-.17.307z" fill="#000"/><path d="M16.632 36.163c0 .109.077.152.17.1a.372.372 0 0 0 .168-.295c0-.105-.075-.149-.168-.096a.375.375 0 0 0-.17.291z" fill="#AFAFF0" style="mix-blend-mode:multiply"/><path d="M16.632 36.163c0 .109.077.152.17.1a.372.372 0 0 0 .168-.295c0-.105-.075-.149-.168-.096a.375.375 0 0 0-.17.291z" fill="#000" style="mix-blend-mode:multiply" opacity=".2"/><path d="M18.801 34.888c0 .109.078.152.17.1a.373.373 0 0 0 .168-.295c0-.105-.074-.152-.167-.096a.375.375 0 0 0-.17.291z" fill="#AFAFF0" style="mix-blend-mode:multiply"/><path d="M18.801 34.888c0 .109.078.152.17.1a.373.373 0 0 0 .168-.295c0-.105-.074-.152-.167-.096a.375.375 0 0 0-.17.291z" fill="#000" style="mix-blend-mode:multiply" opacity=".2"/><path d="M14.267 36.706h1.45L14.46 47.71l-2.365.307 2.173-11.31zM21.517 32.515l.183.745-.183.93-.366.215.366-1.89z" fill="#AFAFF0"/><path d="M23.956 12.18c-1.008 0-3.035.33-4.085 4.94-.239 1.045-.437 2.186-.62 3.654-.282 2.171-.62 3.964-.887 6.018-.037.285-.173 1.126-.207 1.387-.193 1.393-.58 2.264-.58 3.322.158.64.527 1.346 1.953 1.492 1.339-.43 1.078-.639 1.11-1.84.03-1.2-.345-1.476-.224-2.906.515-3.39 1.528-9.17 1.528-9.17l2.012-6.896z" fill="#FFA8A7"/><path d="M16.818 36.164a.1.1 0 0 0 .096-.081s.25-1.492.56-2.615c.249-.89.881-1.123 1.44-1.328.123-.043.24-.087.343-.133a.098.098 0 0 0 .051-.054.096.096 0 0 0-.001-.073.097.097 0 0 0-.09-.058.097.097 0 0 0-.037.008c-.103.046-.214.087-.332.13-.573.208-1.283.469-1.55 1.455-.31 1.136-.567 2.621-.57 2.637a.1.1 0 0 0 .08.112h.01z" fill="#455A64"/><path d="M18.256 30.235c.245.405.435.841.564 1.297.05.245.443.028.517-.31a10.65 10.65 0 0 0 0-1.551c.127.477.183.97.168 1.464-.08.478-.208.583-.536.701-.329.118-.31-.183-.403-.577-.093-.394-.31-1.024-.31-1.024z" fill="#F28F8F"/><path d="M18.34 36.821v-2.903c0-.646 0-1.375 1.044-1.989.372-.217.654-.285.794-.195.14.09.12.332.12.335v3.561a.096.096 0 0 0 .165.068.096.096 0 0 0 .028-.068v-3.552a.586.586 0 0 0-.211-.509c-.21-.133-.543-.068-.992.193-1.147.673-1.144 1.495-1.14 2.156v2.903a.096.096 0 1 0 .192 0z" fill="#455A64"/><path d="M18.969 34.889a.096.096 0 0 0 .096-.081l.356-2.2a.096.096 0 0 0-.077-.111.1.1 0 0 0-.112.08l-.36 2.19a.096.096 0 0 0 .078.112l.019.01z" fill="#455A64"/><path d="M19.623 31.793c.527-.214 1.081-.62 1.277-.4a.93.93 0 0 1-.419 1.47c-.6.203-1.254.182-1.84-.06l.982-1.01z" fill="#FFA8A7"/><path d="M24.718 12.072c-1.571 0-3.468.496-4.224 1.951-.81 1.551-1.343 5.711-1.343 5.711s.596 1.282 2.79 1.139l2.777-8.801z" fill="#404077"/><path d="M37.271 50.818c.391-.204.642.295.995.695.251.28.639.723.698 1.043.083.474-.341 1.219-.812 1.628-.471.41-1.02.704-1.19 1.604a2.189 2.189 0 0 1-1.454 1.837c-1.02.44-2.387.31-2.852 0-.548-.357-.046-.745.722-1.862 1.005-1.44 1.789-2.466 1.789-3.81l2.104-1.135z" fill="#263238"/><path d="m36.469 49.64.824 1.21a1.167 1.167 0 0 1-.279 1.612l-.025.016a1.24 1.24 0 0 1-1.58-.245l-1.287-1.405 2.347-1.189z" fill="#FFA8A7"/><path d="M21.312 26.02c-.053 1.55.384 7.777 1.448 10.547 1.063 2.77 1.683 4.47 2.017 5.044.335.574 9.987 9.98 9.987 9.98s1.64-.121 1.9-1.71c0 0-3.955-6.728-4.814-8.109-.858-1.38-3.89-3.496-3.89-3.496l.276-12.07-6.924-.186z" fill="#37474F"/><path d="m23.44 58.884-2.04-.464.675-2.974 2.04.465-.675 2.973z" fill="#FFA8A7"/><path d="M21.312 26.02H31.1c.087 1.085.31 1.693.37 4.318.074 4.247-3.872 11.962-3.872 11.962.05.577.294 2.997-.254 5.14-.868 3.385-3.227 9.108-3.227 9.108s-1.475.211-2.21-.642c0 0 1.305-11.627 1.658-14.605.382-3.223 1.358-9.108 1.358-9.108a15.113 15.113 0 0 1-1.751-2.1 10.505 10.505 0 0 1-1.86-4.073z" fill="#37474F"/><path d="M34.718 23.612c-.44-4.541-1.814-7.734-2.015-8.875l-1.333 5.621c.42 1.508.752 3.039.995 4.585.056.388.688 3.763.589 5.202a1.028 1.028 0 0 1-.31.67c-.49.481-.636.897-.964 1.437-.257.425-.524.574-.456.676a.564.564 0 0 0 .76.096 3.95 3.95 0 0 0 .71-.62A5.248 5.248 0 0 1 32.181 34c-.58 1.151-.483 1.756 1.125 1.418 1.008-.214 1.674-1.011 1.94-3.397.05-.86.044-1.722-.015-2.58-.078-2.002-.381-4.468-.514-5.83z" fill="#FFA8A7"/><path d="M27.951 12.165c1.875.453 4.436 1.042 5.176 3.077.741 2.035 1.55 5.895 1.55 5.895-.586.685-2.408 1.045-3.195.62l-.37-1.22v5.467c-1.465 1.598-6.583 2.342-9.787 0V15.807c0-1.632.905-3.59 3.409-3.723l3.217.081z" fill="#404077"/><path d="m31.1 20.55-.939-2.962.94 4.29V20.55z" fill="#37474F"/><path d="M28.655 3.817a1.115 1.115 0 0 1 .93.31c.396.407.31 1.157 0 2.882l-1.225.143.295-3.335zM21.514 3.318a1.92 1.92 0 0 1-.766-.155c-.375-.218-.474.21-.27.58a1.759 1.759 0 0 0 1.423.946c0-.053.35-.959.35-.959l-.738-.412z" fill="#263238"/><path d="M28.081 7.17c.183.11.44-.241.667-.477a.788.788 0 0 1 1.32.217c.372.785-.474 1.827-.97 2.172a.87.87 0 0 1-1.017.09l-.13 3a3.2 3.2 0 0 1-2.411 1.833c-1.76.239-1.398-1.216-.822-1.927v-1.092c-.44.095-.892.118-1.339.069-.229-.063-.778-.723-1.131-1.468-.397-.831-1.057-2.311-.468-4.811.62-2.687 3.515-2.767 5.235-1.685 1.72 1.083 1.066 4.08 1.066 4.08z" fill="#FFA8A7"/><path d="M28.081 7.48c.09 0 .44-.576.667-.784.31-.285-.093-2.87-.093-2.87s.31-.983-.31-1.631c-.62-.649-1.823-.543-2.7-.574a7.888 7.888 0 0 1-3.14-.62C21.265.456 21.163.38 21.008.94c-.155.562-.214 1.806.53 2.647l.406.66s.379.31 1.55.463c1.172.152 3.146-.484 3.41-.519.334-.046.409.283.588 1.176.15.766.283 2.113.59 2.113z" fill="#263238"/><path d="m28.655 4.015 1.097-.589a.62.62 0 0 0-.83-.276.654.654 0 0 0-.267.865z" fill="#263238"/><path d="M24.722 10.98s1.63-.329 2.2-.62c.335-.175.61-.446.79-.779a2.577 2.577 0 0 1-.449.93c-.415.534-2.541.931-2.541.931v-.462z" fill="#F28F8F"/><path d="M24.669 7.105a.329.329 0 1 0 .328-.34.335.335 0 0 0-.328.34zM25 5.87l.7.385a.415.415 0 0 0-.163-.555.388.388 0 0 0-.537.17z" fill="#263238"/><path d="m24.87 9.292-.747.28a.392.392 0 0 0 .733.032.418.418 0 0 0 .014-.312z" fill="#F28F8F"/><path d="m21.755 6.14.639-.49a.384.384 0 0 0-.555-.083.418.418 0 0 0-.084.573zM21.954 7.012a.33.33 0 1 0 .198-.313.333.333 0 0 0-.198.313z" fill="#263238"/><path d="m23.49 6.972.31 1.945-1.078-.127.769-1.818z" fill="#F28F8F"/><path d="m21.631 57.426.065-.291c-.213.04-1.128 1.55-2.04 2.224-.994.726-1.859 1.154-2.302 1.48-.595.437.266 1.33 1.73 1.411.728.04 2.051-.183 2.457-.568.406-.384.704-1.03 1.026-1.309.323-.279.98-.521 1.2-.878.122-.352.165-.727.127-1.098 0-.385-.025-.803-.155-.797 0 .043-.053.223-.053.223a2.53 2.53 0 0 1-1.24.273c-.344-.03-.985-.111-.815-.67zM23.823 39.328s.867-6.18 1.1-7.135c0 0-1.401-.779-1.931-1.387.402.58.843 1.133 1.32 1.654l-.49 6.868zM29.064 39.123s-1.045 2.603-1.466 3.177c0 0 .105 1.982.09 2.382l.548.481a12.312 12.312 0 0 0-.245-2.674c.48-1.08.84-2.208 1.073-3.366z" fill="#263238"/><path d="M97.402 77.55 59.445 55.614a1.187 1.187 0 0 0-1.072 0L34.265 69.546a1.181 1.181 0 0 0-.536.93v.215a1.188 1.188 0 0 0 .536.93l37.957 21.933a1.17 1.17 0 0 0 1.069 0L97.405 79.39a1.188 1.188 0 0 0 .534-.93 1.176 1.176 0 0 0-.537-.91z" fill="#AFAFF0"/><path d="M97.402 77.55 59.445 55.614a1.187 1.187 0 0 0-1.072 0L34.265 69.546a1.181 1.181 0 0 0-.536.93v.215a1.188 1.188 0 0 0 .536.93l37.957 21.933a1.17 1.17 0 0 0 1.069 0L97.405 79.39a1.188 1.188 0 0 0 .534-.93 1.176 1.176 0 0 0-.537-.91z" fill="#fff" opacity=".2"/><path d="M97.939 78.468a1.19 1.19 0 0 1-.534.93L73.291 93.56c-.17.069-.35.113-.533.13V89.5l1.258-16.734 13.849-.729 9.537 5.513a1.177 1.177 0 0 1 .537.918z" fill="#AFAFF0"/><path d="M97.939 78.468a1.19 1.19 0 0 1-.534.93L73.291 93.56c-.17.069-.35.113-.533.13V89.5l1.258-16.734 13.849-.729 9.537 5.513a1.177 1.177 0 0 1 .537.918z" fill="#AFAFF0"/><path d="M97.939 78.468a1.19 1.19 0 0 1-.534.93L73.291 93.56c-.17.069-.35.113-.533.13V89.5l1.258-16.734 13.849-.729 9.537 5.513a1.177 1.177 0 0 1 .537.918z" fill="#000" opacity=".2"/><path d="M58.373 55.614 34.265 69.546a.326.326 0 0 0 0 .62L72.222 92.1a1.185 1.185 0 0 0 1.072 0L97.402 78.17a.329.329 0 0 0 0-.62L59.445 55.614a1.187 1.187 0 0 0-1.072 0z" fill="#AFAFF0"/><path d="M76.338 71.386a.451.451 0 0 0 .195-.065l2.356-1.362c.071-.04.108-.08.114-.115.007-.034-.024-.074-.09-.112l-1.05-.605a1.518 1.518 0 0 0-1.6 0 .62.62 0 0 0-.254.236.233.233 0 0 0 0 .242 1.205 1.205 0 0 0-.93.14c-.244.142-.372.31-.38.478-.01.167.132.35.42.518l1.023.573a.347.347 0 0 0 .196.072zm.576-1.551c-.071-.044-.108-.087-.105-.134.003-.046.043-.096.124-.142a.492.492 0 0 1 .245-.075.47.47 0 0 1 .23.065l.387.227-.493.282-.388-.223zm-1.153.599c-.077-.044-.108-.094-.099-.146a.238.238 0 0 1 .133-.15.56.56 0 0 1 .276-.08.474.474 0 0 1 .251.065l.434.252-.548.31-.447-.252zM74.366 70.204a.275.275 0 0 0 .062-.059L76.01 68.2a.196.196 0 0 0 .047-.1c0-.024-.025-.049-.072-.074l-.31-.186a.286.286 0 0 0-.133-.04.566.566 0 0 0-.167.028l-3.37.912a.31.31 0 0 0-.096.034c-.024 0-.037.028-.037.043 0 .016 0 .031.034.044l.546.31a.26.26 0 0 0 .102.03.31.31 0 0 0 .121-.018l.515-.152.737.425-.27.295a.094.094 0 0 0-.03.071.118.118 0 0 0 .058.06l.543.31a.137.137 0 0 0 .14.012zm-.48-1.4.908-.272-.477.524-.431-.251zM71.599 68.631a.452.452 0 0 0 .195-.065l2.359-1.365c.07-.04.107-.076.111-.112.004-.035-.027-.072-.093-.111l-.279-.162a.37.37 0 0 0-.12-.046.453.453 0 0 0-.156 0l-2.17.31 1.24-.72c.069-.04.11-.08.115-.114.007-.034-.025-.075-.09-.112l-.344-.199a.371.371 0 0 0-.195-.052.452.452 0 0 0-.198.065l-2.359 1.365c-.07.04-.108.076-.112.111 0 .035.031.072.1.112l.275.158a.37.37 0 0 0 .273.05l2.17-.31-1.24.723c-.07.04-.107.078-.112.111 0 .034.032.072.1.112l.34.199a.37.37 0 0 0 .19.052zM67.058 65.976c-.022 0-.037.028-.037.043 0 .016 0 .031.034.044l.545.31a.376.376 0 0 0 .087.037.202.202 0 0 0 .087 0l1.838-.264-.995.577c-.071.04-.109.078-.115.115-.006.037.028.072.096.112l.344.195a.332.332 0 0 0 .19.056.414.414 0 0 0 .195-.068l2.355-1.359c.072-.04.109-.08.115-.115.006-.034-.025-.074-.09-.111l-.34-.199a.37.37 0 0 0-.196-.053.44.44 0 0 0-.198.066l-.977.564.465-1.033a.053.053 0 0 0 0-.053.235.235 0 0 0-.068-.052l-.542-.31a.154.154 0 0 0-.152.003.106.106 0 0 0-.053.058l-.462 1.139-2.024.264a.233.233 0 0 0-.102.034zM65.672 64.909a2.946 2.946 0 0 0 1.423-.422c.474-.276.72-.546.74-.82.023-.272-.179-.524-.594-.766-.175-.1-.36-.183-.552-.245a2.402 2.402 0 0 0-.545-.111.186.186 0 0 0-.112.021.188.188 0 0 0-.059.063l-.146.26c-.021.028-.021.05 0 .062a.255.255 0 0 0 .1.025c.218.028.429.1.62.21.22.125.31.264.288.417-.022.152-.18.31-.462.474a1.81 1.81 0 0 1-.834.26 1.347 1.347 0 0 1-.738-.17.838.838 0 0 1-.375-.375.145.145 0 0 0-.043-.056.165.165 0 0 0-.105 0l-.472.087a.31.31 0 0 0-.093.03.069.069 0 0 0-.034.07c.04.204.255.418.639.638.41.24.88.361 1.354.348zM63.478 63.913a.276.276 0 0 0 .065-.06l1.578-1.944a.146.146 0 0 0 .046-.1c0-.024-.025-.05-.068-.074l-.31-.186a.267.267 0 0 0-.13-.04.58.58 0 0 0-.17.027l-3.37.913a.279.279 0 0 0-.093.034c-.025 0-.037.028-.037.043 0 .016 0 .031.034.043l.545.31c.03.018.065.029.1.032a.31.31 0 0 0 .12-.019l.515-.152.74.428-.272.31c-.022.025-.034.05-.028.069.006.018.022.04.06.059l.541.31a.13.13 0 0 0 .134-.003zm-.478-1.4.906-.272-.478.524-.428-.251zM60.71 62.34a.453.453 0 0 0 .198-.065l2.356-1.362c.068-.04.105-.078.112-.115.006-.037-.022-.071-.09-.111l-.865-.5a1.76 1.76 0 0 0-1.897 0c-.387.223-.524.453-.412.689l-1.224.31a.252.252 0 0 0-.078.028.075.075 0 0 0-.04.05c0 .018 0 .034.037.05l.493.285c.031.016.064.029.099.037.035.009.07.009.105 0l1.12-.31.272.158-.7.403c-.072.04-.109.08-.112.115-.003.034.025.071.093.111l.344.199c.06.026.125.036.189.028zm.505-1.368c-.214-.124-.204-.251.022-.382a.62.62 0 0 1 .648-.025l.279.162-.688.397-.26-.152zM58.475 61.046a.452.452 0 0 0 .195-.065l2.356-1.362c.068-.04.109-.077.115-.114.006-.038-.025-.072-.09-.11l-.778-.449a2.403 2.403 0 0 0-1.255-.338 2.864 2.864 0 0 0-1.364.422c-.462.27-.704.53-.722.785-.019.254.173.5.576.732l.775.447a.334.334 0 0 0 .192.052zm-.409-.859c-.17-.1-.236-.205-.198-.31.037-.106.201-.258.496-.428a1.94 1.94 0 0 1 .734-.283.863.863 0 0 1 .549.115l.279.162-1.581.915-.279-.171z" fill="#fff"/><path d="m89.849 79.005-6.482-3.748a1.196 1.196 0 0 0-1.075 0l-5.22 3.019a.326.326 0 0 0 0 .62l6.481 3.745a1.185 1.185 0 0 0 1.073 0l5.222-3.016a.33.33 0 0 0 0-.62z" fill="#E0E0E0"/><mask id="a" style="mask-type:luminance" maskUnits="userSpaceOnUse" x="76" y="75" width="15" height="8"><path d="m89.849 79.005-6.482-3.748a1.196 1.196 0 0 0-1.075 0l-5.22 3.019a.326.326 0 0 0 0 .62l6.481 3.745a1.185 1.185 0 0 0 1.073 0l5.222-3.016a.33.33 0 0 0 0-.62z" fill="#fff"/></mask><g mask="url(#a)" fill="#fff"><path d="m80.283 82.358 4.52-2.559a1.1 1.1 0 0 1 1.084 0l3.162 1.824.155-.267-3.162-1.827a1.409 1.409 0 0 0-1.391 0l-4.52 2.56.152.27zM81.57 78.546c.249 0 .494-.065.71-.19l4.4-2.546-.154-.267-4.404 2.544a1.102 1.102 0 0 1-1.107 0l-3.146-1.818-.155.27 3.146 1.817c.216.126.46.19.71.19z"/><path d="m82.754 77.994.155-.27-3.546-2.048.948-.549 3.701 2.138.155-.267-3.856-2.228-1.568.906 4.01 2.318zM86.606 83.13l1.572-.905-4.039-2.317-.155.266 3.571 2.051-.949.546-3.725-2.15-.155.267 3.88 2.243z"/></g><path d="m80.77 83.944-5.945-3.435a1.779 1.779 0 0 0-1.612 0l-.905.525c-.446.254-.446.673 0 .93l5.942 3.434a1.777 1.777 0 0 0 1.612 0l.908-.524c.443-.257.443-.676 0-.93z" fill="#AFAFF0"/><path d="m80.46 83.944-5.945-3.435a1.779 1.779 0 0 0-1.611 0l-.905.525c-.447.254-.447.673 0 .93l5.941 3.434a1.777 1.777 0 0 0 1.612 0l.908-.524c.444-.257.444-.676 0-.93z" fill="#fff" opacity=".7"/><path d="m71.955 78.85-5.942-3.431a1.778 1.778 0 0 0-1.612 0l-.908.524c-.443.258-.443.673 0 .93l5.945 3.435a1.773 1.773 0 0 0 1.609 0l.908-.525c.446-.26.446-.676 0-.933z" fill="#AFAFF0"/><path d="m71.955 78.85-5.942-3.431a1.778 1.778 0 0 0-1.612 0l-.908.524c-.443.258-.443.673 0 .93l5.945 3.435a1.773 1.773 0 0 0 1.609 0l.908-.525c.446-.26.446-.676 0-.933z" fill="#AFAFF0"/><path opacity=".7" d="m71.955 78.85-5.942-3.431a1.778 1.778 0 0 0-1.612 0l-.908.524c-.443.258-.443.673 0 .93l5.945 3.435a1.773 1.773 0 0 0 1.609 0l.908-.525c.446-.26.446-.676 0-.933z" fill="#fff"/><path d="m63.143 73.756-5.945-3.434a1.773 1.773 0 0 0-1.608 0l-.909.524c-.446.258-.446.673 0 .93l5.942 3.435a1.778 1.778 0 0 0 1.612 0l.908-.524c.443-.258.443-.674 0-.931z" fill="#AFAFF0"/><path opacity=".7" d="m63.143 73.756-5.945-3.434a1.773 1.773 0 0 0-1.608 0l-.909.524c-.446.258-.446.673 0 .93l5.942 3.435a1.778 1.778 0 0 0 1.612 0l.908-.524c.443-.258.443-.674 0-.931z" fill="#fff"/><path d="m54.328 68.665-5.942-3.434a1.777 1.777 0 0 0-1.611 0l-.909.524c-.443.255-.443.674 0 .931l5.945 3.434a1.779 1.779 0 0 0 1.612 0l.905-.524c.446-.258.446-.676 0-.93z" fill="#AFAFF0"/><path opacity=".7" d="m54.328 68.665-5.942-3.434a1.777 1.777 0 0 0-1.611 0l-.909.524c-.443.255-.443.674 0 .931l5.945 3.434a1.779 1.779 0 0 0 1.612 0l.905-.524c.446-.258.446-.676 0-.93z" fill="#fff"/><path d="M41.766 68.126c-.26.151-.233.412.065.586l15.293 8.835a1.11 1.11 0 0 0 1.01.037c.26-.152.233-.413-.065-.583l-15.293-8.838a1.131 1.131 0 0 0-1.01-.037z" fill="#AFAFF0"/><path d="M41.766 68.126c-.26.151-.233.412.065.586l15.293 8.835a1.11 1.11 0 0 0 1.01.037c.26-.152.233-.413-.065-.583l-15.293-8.838a1.131 1.131 0 0 0-1.01-.037z" fill="#000" opacity=".1"/><path d="M39.236 69.584c-.263.152-.235.412.062.583l9.795 5.655a1.113 1.113 0 0 0 1.01.037c.26-.149.233-.412-.065-.583l-9.791-5.655a1.111 1.111 0 0 0-1.01-.037z" fill="#AFAFF0"/><path d="M39.236 69.584c-.263.152-.235.412.062.583l9.795 5.655a1.113 1.113 0 0 0 1.01.037c.26-.149.233-.412-.065-.583l-9.791-5.655a1.111 1.111 0 0 0-1.01-.037z" fill="#000" opacity=".1"/></svg>