<svg width="117" height="114" fill="none" xmlns="http://www.w3.org/2000/svg"><path d="M17.134 56.37c-22.845 13.185-22.845 34.55 0 47.74 22.844 13.189 59.884 13.184 82.731 0 22.848-13.185 22.845-34.55 0-47.74-22.844-13.19-59.884-13.182-82.731 0z" fill="#FAFAFA"/><path d="M10.992 82.283a.108.108 0 0 1-.06-.064c-1.282-3.873-5.48-6.01-7.275-6.92-.29-.148-.52-.264-.668-.353a1.96 1.96 0 0 1-1.055-1.674 1.701 1.701 0 0 1 .961-1.443c1.471-.812 4.386.53 6.614 3.077 3.136 3.556 2.775 6.726 2.76 6.759a.1.1 0 0 1-.056.078l-1.132.537h-.04a.146.146 0 0 1-.049.003zm-1.645-7.248c-2.172-2.464-4.96-3.796-6.346-3.027a1.484 1.484 0 0 0-.855 1.261 1.764 1.764 0 0 0 .956 1.5c.144.087.369.203.656.349 1.797.913 5.985 3.044 7.338 6.925l.979-.457c.022-.42.123-3.316-2.728-6.551z" fill="#8D8DE9"/><path d="M11.684 81.985a.1.1 0 0 0 .067-.041.1.1 0 0 0 .016-.078c-.961-4.635-5.344-8.392-7.822-8.844a.106.106 0 0 0-.124.078.104.104 0 0 0 .084.119c2.45.446 6.742 4.287 7.655 8.688a.108.108 0 0 0 .124.078z" fill="#8D8DE9"/><path d="M12.17 81.753a.15.15 0 0 0 .046-.013l.757-.4a.102.102 0 0 0 .055-.079c0-.045.432-4.748-1.975-10.476-1.224-2.915-3.757-5.487-6.02-6.115a3.34 3.34 0 0 0-2.89.398 1.497 1.497 0 0 0-.756 1.13c-.079 1.193 1.531 2.615 3.24 4.12 1.193 1.052 2.427 2.142 3.115 3.186a.11.11 0 0 0 .147.033.101.101 0 0 0 .033-.139c-.702-1.067-1.948-2.166-3.152-3.228-1.668-1.47-3.245-2.86-3.172-3.96a1.298 1.298 0 0 1 .662-.98 3.124 3.124 0 0 1 2.704-.366c2.208.61 4.683 3.132 5.887 5.997 2.253 5.356 2.003 9.803 1.965 10.34l-.711.373a.098.098 0 0 0 .009.161.108.108 0 0 0 .056.018z" fill="#8D8DE9"/><path d="M11.734 78.9a.1.1 0 0 0 .088-.073.103.103 0 0 0 .003-.04c-1.01-7.265-6.518-12.125-7.984-12.862a.109.109 0 0 0-.143.043.098.098 0 0 0 .045.137c1.446.716 6.868 5.51 7.872 12.7a.1.1 0 0 0 .038.075.1.1 0 0 0 .08.02zM104.813 82.29h-.04l-1.133-.537a.102.102 0 0 1-.038-.032.088.088 0 0 1-.017-.046c0-.033-.376-3.203 2.76-6.759 2.235-2.537 5.142-3.889 6.613-3.077a1.701 1.701 0 0 1 .961 1.443 1.963 1.963 0 0 1-1.054 1.675c-.149.088-.379.204-.669.353-1.794.91-5.992 3.046-7.274 6.92a.099.099 0 0 1-.024.038.101.101 0 0 1-.037.025.146.146 0 0 1-.048-.003zm-1.024-.703.969.461c1.352-3.881 5.551-6.012 7.337-6.925.288-.146.505-.252.656-.348a1.766 1.766 0 0 0 .957-1.5 1.488 1.488 0 0 0-.856-1.262c-1.385-.756-4.173.568-6.346 3.027-2.841 3.23-2.75 6.125-2.717 6.547z" fill="#8D8DE9"/><path d="M104.17 81.985a.1.1 0 0 1-.068-.041.121.121 0 0 1-.016-.037.11.11 0 0 1 .001-.04c.961-4.636 5.344-8.394 7.822-8.845a.105.105 0 0 1 .123.078.103.103 0 0 1-.083.119c-2.45.446-6.742 4.287-7.655 8.688a.108.108 0 0 1-.124.078z" fill="#8D8DE9"/><path d="M103.683 81.753a.13.13 0 0 1-.045-.013l-.757-.4a.104.104 0 0 1-.038-.033.097.097 0 0 1-.018-.046c0-.045-.431-4.748 1.976-10.476 1.226-2.915 3.759-5.487 6.023-6.115a3.339 3.339 0 0 1 2.889.398 1.513 1.513 0 0 1 .757 1.13c.078 1.193-1.534 2.615-3.24 4.12-1.194 1.052-2.427 2.142-3.116 3.186a.112.112 0 0 1-.147.033.104.104 0 0 1-.046-.063.105.105 0 0 1-.001-.04.085.085 0 0 1 .015-.036c.701-1.067 1.947-2.166 3.151-3.228 1.668-1.47 3.245-2.86 3.172-3.96a1.303 1.303 0 0 0-.661-.98 3.127 3.127 0 0 0-2.705-.366c-2.208.61-4.683 3.132-5.887 5.997-2.253 5.356-2.003 9.802-1.965 10.34l.711.373a.093.093 0 0 1 .049.06.104.104 0 0 1 .004.039.12.12 0 0 1-.012.037.115.115 0 0 1-.048.037.111.111 0 0 1-.061.006z" fill="#8D8DE9"/><path d="M104.12 78.9a.1.1 0 0 1-.091-.113c1.009-7.265 6.517-12.125 7.983-12.862a.11.11 0 0 1 .144.043.106.106 0 0 1 .007.078.094.094 0 0 1-.053.058c-1.445.717-6.868 5.51-7.872 12.7a.1.1 0 0 1-.037.076.11.11 0 0 1-.039.02.096.096 0 0 1-.042 0z" fill="#8D8DE9"/><path d="M102.427 77.125c8.326 4.878 8.258 12.69-.126 17.45-8.385 4.758-21.922 4.66-30.238-.217-8.316-4.878-8.258-12.69.126-17.45 8.385-4.758 21.921-4.662 30.238.217zM43.538 77.478c8.327 4.878 8.261 12.69-.123 17.45-8.385 4.758-21.924 4.668-30.238-.215-8.314-4.882-8.26-12.69.124-17.449 8.384-4.759 21.924-4.653 30.238.214z" fill="#E0E0E0"/><path d="m106.237 35.54.59 1.44-.727 1.26-1.128-1.273-.169-.21c-.757-.92-2.51-3.076-1.728-5.548a2.49 2.49 0 0 1 4.837 1.052l-1.022.953.671 1.453-1.324.872z" fill="#F0F0F0"/><path d="M113.349 34.465c-.787 2.489-3.393 3.278-4.506 3.611-.073.023-.141.04-.197.06l-1.655.392.724-1.261-.59-1.438 1.324-.883-.668-1.452 1.009-.956a2.491 2.491 0 0 1 4.542 1.937l.017-.01zM99.25 10.292l1.665 1.163.104 1.909-2.148-.6a7.557 7.557 0 0 0-.335-.111c-1.476-.482-4.93-1.61-5.819-4.873a3.25 3.25 0 0 1 2.006-3.82 3.254 3.254 0 0 1 4.035 1.536L98.31 7.26l1.766 1.125-.827 1.906z" fill="#F0F0F0"/><path d="M106.305 4.091c.895 3.278-1.411 5.992-2.397 7.147l-.175.207-1.541 1.601-.101-1.909-1.665-1.165.83-1.904-1.766-1.122.444-1.766a3.248 3.248 0 0 1 2.7-3.365 3.253 3.253 0 0 1 3.666 2.278l.005-.002zM10.089 34.53l-.59 1.438.726 1.26 1.128-1.26c.045-.06.103-.131.169-.212.757-.92 2.523-3.077 1.728-5.548a2.49 2.49 0 0 0-4.834 1.044l1.01.953-.672 1.455 1.335.87z" fill="#F0F0F0"/><path d="M2.976 33.466c.787 2.49 3.394 3.279 4.506 3.612l.197.06 1.658.394-.727-1.274.59-1.438-1.324-.882.666-1.453-1.01-.956a2.49 2.49 0 0 0-4.54 1.937h-.016zM13.198 9.06l-1.8.983-.312 1.906 2.213-.368.348-.076c1.534-.32 5.13-1.072 6.378-4.25a3.277 3.277 0 0 0-3.903-4.306 3.28 3.28 0 0 0-1.9 1.349l.252 1.823-1.895.92.619 2.018z" fill="#F0F0F0"/><path d="M6.799 2.053c-1.262 3.206.757 6.174 1.617 7.44l.154.227 1.37 1.765.313-1.906 1.799-.984-.623-2.005 1.892-.933-.252-1.823a3.277 3.277 0 0 0-2.33-3.708 3.282 3.282 0 0 0-3.94 1.915v.012z" fill="#F0F0F0"/><path d="M57.105 70.785 46.241 64.29a47.3 47.3 0 0 0-1.673-1.117c-7.39-4.852-24.704-16.219-24.704-35.501 0-9.997 8.276-18.1 18.487-18.1 8.972 0 16.45 6.26 18.131 14.562 1.68-8.31 9.16-14.57 18.132-14.57 10.21 0 18.487 8.103 18.487 18.1 0 19.444-16.721 30.866-23.862 35.743-.474.325-.903.618-1.261.878l-10.873 6.501z" fill="#8D8DE9"/><path opacity=".3" d="M57.105 70.785 46.241 64.29a47.3 47.3 0 0 0-1.673-1.117c-7.39-4.852-24.704-16.219-24.704-35.501 0-9.997 8.276-18.1 18.487-18.1 8.972 0 16.45 6.26 18.131 14.562 1.68-8.31 9.16-14.57 18.132-14.57 10.21 0 18.487 8.103 18.487 18.1 0 19.444-16.721 30.866-23.862 35.743-.474.325-.903.618-1.261.878l-10.873 6.501z" fill="#fff"/><path d="M62.381 56.784a14.602 14.602 0 0 1-13.494-8.998 14.582 14.582 0 0 1 3.156-15.903 14.598 14.598 0 0 1 15.909-3.168 14.596 14.596 0 0 1 9.013 13.48 14.596 14.596 0 0 1-4.273 10.308 14.61 14.61 0 0 1-10.31 4.28zm0-28.952a14.387 14.387 0 0 0-13.304 8.861 14.368 14.368 0 0 0 3.108 15.675 14.384 14.384 0 0 0 15.68 3.118 14.38 14.38 0 0 0 8.876-13.292 14.372 14.372 0 0 0-4.21-10.148 14.386 14.386 0 0 0-10.15-4.214z" fill="#37474F"/><path d="M56.873 57.697a14.673 14.673 0 0 1-13.56-9.041 14.653 14.653 0 0 1 3.172-15.98 14.67 14.67 0 0 1 25.043 10.36 14.666 14.666 0 0 1-4.294 10.36 14.681 14.681 0 0 1-10.36 4.3zm0-29.093a14.446 14.446 0 0 0-13.35 8.9 14.426 14.426 0 0 0 3.123 15.734 14.443 14.443 0 0 0 22.22-2.181 14.427 14.427 0 0 0 2.435-8.02 14.442 14.442 0 0 0-4.229-10.198 14.456 14.456 0 0 0-10.199-4.235z" fill="#37474F"/><path d="M50.654 58.057a14.672 14.672 0 0 1-13.557-9.045 14.653 14.653 0 0 1 3.176-15.979 14.669 14.669 0 0 1 15.986-3.18A14.665 14.665 0 0 1 65.313 43.4a14.664 14.664 0 0 1-4.296 10.36 14.678 14.678 0 0 1-10.363 4.297zm0-29.09a14.445 14.445 0 0 0-13.35 8.9 14.426 14.426 0 0 0 3.122 15.734A14.442 14.442 0 0 0 65.081 43.4a14.442 14.442 0 0 0-4.229-10.198 14.456 14.456 0 0 0-10.198-4.235z" fill="#37474F"/><path d="M61.145 52.201a14.672 14.672 0 0 1-13.56-9.04 14.654 14.654 0 0 1 3.172-15.981 14.668 14.668 0 0 1 15.985-3.184A14.665 14.665 0 0 1 75.8 37.542 14.666 14.666 0 0 1 71.505 47.9a14.68 14.68 0 0 1-10.36 4.301zm0-29.092a14.445 14.445 0 0 0-13.35 8.9 14.427 14.427 0 0 0 3.122 15.734A14.442 14.442 0 0 0 75.573 37.54a14.44 14.44 0 0 0-4.228-10.198 14.454 14.454 0 0 0-10.2-4.234z" fill="#37474F"/><path d="M58.804 53.14a14.672 14.672 0 0 1-13.558-9.044 14.653 14.653 0 0 1 3.174-15.98 14.67 14.67 0 0 1 25.04 10.366 14.666 14.666 0 0 1-4.295 10.358 14.68 14.68 0 0 1-10.361 4.3zm0-29.09a14.445 14.445 0 0 0-13.348 8.902 14.427 14.427 0 0 0 3.123 15.732 14.442 14.442 0 0 0 24.655-10.202 14.44 14.44 0 0 0-4.23-10.199 14.453 14.453 0 0 0-10.2-4.234z" fill="#37474F"/><path d="M58.804 52.017a8.628 8.628 0 0 1-7.974-5.316 8.615 8.615 0 0 1 1.866-9.397A8.625 8.625 0 0 1 67.42 43.4a8.623 8.623 0 0 1-8.616 8.617zm0-17.01a8.4 8.4 0 0 0-7.764 5.176 8.389 8.389 0 0 0 1.816 9.149A8.4 8.4 0 0 0 67.193 43.4a8.398 8.398 0 0 0-8.39-8.393z" fill="#37474F"/><path d="M53.858 45.783a7.8 7.8 0 0 1-7.208-4.806 7.789 7.789 0 0 1 5.678-10.63 7.8 7.8 0 0 1 8.006 3.315 7.79 7.79 0 0 1-6.476 12.121zm0-15.356a7.572 7.572 0 0 0-6.993 4.67 7.561 7.561 0 0 0 1.64 8.246 7.57 7.57 0 0 0 12.347-8.245 7.566 7.566 0 0 0-6.994-4.67z" fill="#37474F"/><path d="M55.925 46.888a7.8 7.8 0 0 1-7.209-4.806 7.789 7.789 0 0 1 1.685-8.495 7.798 7.798 0 0 1 13.313 5.508 7.796 7.796 0 0 1-7.79 7.793zm0-15.356a7.571 7.571 0 0 0-6.993 4.67 7.561 7.561 0 0 0 1.64 8.245 7.571 7.571 0 0 0 12.922-5.35 7.571 7.571 0 0 0-7.57-7.563v-.002z" fill="#37474F"/><path d="M51.184 42.737a7.799 7.799 0 0 1-7.21-4.806 7.789 7.789 0 0 1 1.687-8.495 7.797 7.797 0 0 1 13.311 5.51 7.796 7.796 0 0 1-7.788 7.79zm0-15.356a7.572 7.572 0 0 0-6.994 4.67 7.562 7.562 0 0 0 5.517 10.316 7.574 7.574 0 0 0 7.77-3.217 7.562 7.562 0 0 0-3.397-11.193 7.573 7.573 0 0 0-2.896-.576z" fill="#37474F"/><path d="M54.292 42.875a7.385 7.385 0 0 1-6.824-4.551 7.376 7.376 0 0 1 5.377-10.065 7.387 7.387 0 0 1 7.58 3.137 7.377 7.377 0 0 1-6.133 11.48zm0-14.53a7.158 7.158 0 0 0-6.614 4.41 7.149 7.149 0 0 0 5.211 9.755 7.159 7.159 0 0 0 7.347-3.04 7.15 7.15 0 0 0-5.944-11.126z" fill="#37474F"/><path d="M61.947 43.924a8.625 8.625 0 0 1-7.969-5.316 8.614 8.614 0 0 1 6.28-11.752 8.625 8.625 0 0 1 8.853 3.663 8.614 8.614 0 0 1 1.453 4.788 8.63 8.63 0 0 1-8.617 8.617zm0-17.007a8.397 8.397 0 0 0-7.759 5.176 8.386 8.386 0 0 0 1.817 9.145 8.397 8.397 0 0 0 14.332-5.93 8.396 8.396 0 0 0-8.39-8.391z" fill="#37474F"/><path d="M55.925 50.166a14.672 14.672 0 0 1-13.558-9.043 14.653 14.653 0 0 1 3.173-15.98 14.67 14.67 0 0 1 25.042 10.363 14.666 14.666 0 0 1-4.296 10.36 14.68 14.68 0 0 1-10.361 4.3zm0-29.093a14.445 14.445 0 0 0-13.346 8.909 14.426 14.426 0 0 0 3.132 15.732A14.443 14.443 0 0 0 70.36 35.496a14.442 14.442 0 0 0-4.232-10.2 14.456 14.456 0 0 0-10.203-4.233v.01z" fill="#37474F"/><path d="M50.654 52.201a14.673 14.673 0 0 1-13.556-9.044 14.653 14.653 0 0 1 3.174-15.979 14.67 14.67 0 0 1 25.041 10.363 14.538 14.538 0 0 1-9.027 13.572 14.557 14.557 0 0 1-5.627 1.088h-.005zm0-29.092c-3.83 0-7.503 1.52-10.21 4.227a14.43 14.43 0 0 0 0 20.411 14.444 14.444 0 0 0 20.42 0 14.43 14.43 0 0 0 0-20.411 14.444 14.444 0 0 0-10.21-4.227z" fill="#37474F"/><path d="m27.95 47.19-.209-.138c2.132-3.223 6.482-4.628 10.345-3.344 5.021 1.669 8.579 1.533 9.772-.376l.215.133c-1.262 2.018-4.926 2.192-10.068.482-3.757-1.25-7.983.114-10.055 3.243zM83.901 47.364c-2.069-3.13-6.295-4.494-10.047-3.245-5.142 1.712-8.81 1.535-10.067-.48l.214-.133c1.189 1.909 4.751 2.045 9.772.373 3.859-1.284 8.206.124 10.346 3.344l-.218.141z" fill="#37474F"/><path d="M86.571 55.687a7.41 7.41 0 0 0-3.245 2.585c-1.743 2.403-4.14 5.407-4.14 5.407l-.6 7.517a4.307 4.307 0 0 0 1.806-.98c2.425-2.046 6.775-6.699 6.775-6.699l1.387-8.453c-.675.158-1.338.367-1.983.623z" fill="#FFBDA7"/><path d="M79.19 63.679a26.356 26.356 0 0 1 1.01 3.888s.568-2.494-.504-4.499l-.505.61z" fill="#F0997A"/><path d="M83.768 57.33c-.926 1.093-3.316 4.253-4.262 5.514.558 1.856 2.523 3.53 4.337 4.287 1.948-1.942 3.49-3.591 3.49-3.591l1.335-8.72c-2.546.17-3.732 1.147-4.9 2.51z" fill="#404077"/><path d="M73.135 54.237c.093-.563-.65-.855-.757-1.352a.404.404 0 0 1 .522-.477c.336.076.563.366.833.558.32.216.682.362 1.062.43.793.165 1.683.505 1.963 1.355a2.768 2.768 0 0 0-.567-.08c-1.007-.144-2.026-.296-3.056-.434z" fill="#F0997A"/><path d="M70.865 52.307c.055.089.108.18.158.268l.2.345c.03.058.058.116.085.174.028.058.048.172.071.182.273.123.676.181 1.032.52.356.337.384.473 1.206.456.553 0 1.337-.19 1.983-.084.646.106 1.24.32 1.434 1.15.194.83.09 1.302.33 2.137.182.63.575 2.065 1.638 5.069 1.196 3.371 1.334 4.9 1.334 4.9-.171.913-.963 3.593-1.743 3.782-1.062.253-2.455-.365-3.396-3.109-.353-1.034-.505-2.207-.61-3.73-.08-1.238-.208-2.038-.392-3.808-.166-1.606-.366-2.497-.696-3.041a4.176 4.176 0 0 0-1.489-1.385c-.717-.355-.782-.252-1.28-1.052-.312-.542-.882-1.041-1.188-1.414a5.074 5.074 0 0 1-.721-1.231 6.159 6.159 0 0 0-.401-.893.353.353 0 0 1-.086-.222.204.204 0 0 1 .093-.138.375.375 0 0 1 .164-.058c-.03 0-.174-.192-.197-.22-.055-.07-.1-.133-.164-.202a.144.144 0 0 1-.043-.171.151.151 0 0 1 .096-.058.782.782 0 0 1 .475.02c.194.094.375.214.537.356.025.02.053.037.083.048a.522.522 0 0 0 .126 0 .504.504 0 0 1 .349.161c.157.178.304.364.439.56.09.11.197.207.29.315.104.117.198.242.283.373z" fill="#FFBDA7"/><path d="M71.75 53.83c.165.148.362.254.575.31.181.05.368.073.555.071.177.064.363.097.55.099.422 0 .924-.074 1.418-.101.367.083.702.273.962.544.123.145.227.305.308.477.067.202.123.407.166.616a1.606 1.606 0 0 0-.055-.618 1.531 1.531 0 0 0-.296-.555 1.514 1.514 0 0 0-1.009-.467c.918-.04 1.802.091 2.1 1.112-.117-.9-1.048-1.238-1.853-1.26-.772-.053-1.6.27-2.334 0a3.385 3.385 0 0 1-.436-.381 2.95 2.95 0 0 0-.98-.47 4.823 4.823 0 0 0-1.032-1.571c-.269-.252-.45-.756-.88-.756.427.055.568.504.828.797.418.447.746.97.969 1.54a.22.22 0 0 0 .08.102c.326.133.647.181.909.42.143.144.297.276.46.397l-.087-.02c-.103-.028-.207-.051-.31-.081a4.655 4.655 0 0 1-.608-.204zm-1.353-.68a.541.541 0 0 1-.189-.137.772.772 0 0 1-.078-.158 1.349 1.349 0 0 0-.47-.585.412.412 0 0 1-.214-.273 1.844 1.844 0 0 0-.383-.532.735.735 0 0 0-.121-.114.267.267 0 0 0-.084-.045c.145.121.27.264.369.424.084.155.152.318.204.487v.022l.028.018c.073.053.143.11.21.171.065.063.127.13.184.202.114.143.204.303.267.474l.015.043.035.013c.067.02.132.045.195.075.065.033.128.066.189.104a1.77 1.77 0 0 1 .343.275 1.098 1.098 0 0 0-.5-.464zm-.923-2.121c-.028-.033-.07-.058-.096-.091.082.12.15.247.205.38a.798.798 0 0 0 .042.081c.02.026.041.05.064.073a2.2 2.2 0 0 1 .305.381c.086.151.144.317.169.49v.055l.053.015c.092.032.18.071.265.119a2.263 2.263 0 0 1 .487.358 3.1 3.1 0 0 1 .22.224 1.766 1.766 0 0 0-.55-.577 3.07 3.07 0 0 0-.22-.126c-.076-.04-.152-.058-.174-.116a.076.076 0 0 1 0-.033.94.94 0 0 0-.202-.505c-.111-.138-.252-.252-.359-.385-.05-.074-.085-.152-.13-.225a.926.926 0 0 0-.079-.118z" fill="#F0997A"/><path d="m82.41 89.56-2.462-3.959-4.017 2.845 5.755 5.702s2.566-.464 2.864-1.848c.298-1.385-1.388-2.353-2.14-2.74z" fill="#FFBDA7"/><path d="M85.534 90.925c.25.154.47.354.643.59.192.252.253 1.47.457 2.018.205.547.353.696.686 1.384.371.757.992 1.438.54 3.531-.451 2.093-1.377 3.142-2.187 3.712-.304.193-.65.309-1.01.338 0 0-1.153-.323-1.039-1.009.114-.685 1.91-10.564 1.91-10.564z" fill="#263238"/><path d="M80.833 93.583c.048.205.369.505.505.661.452.54.704 1.301.9 1.97.94 3.155-.196 4.9 1.638 5.954.53.272 1.562.096 2.968-2.068.716-1.105.991-3.279.593-4.21-.4-.93-.886-1.525-1.154-2.249-.267-.724-.282-2.113-.757-2.716a3.027 3.027 0 0 0-1.08-.774c-.322-.161-1.009-.348-1.344-.504-.336-.157-.505-.338-.7-.094l.402.414c.63.731.484.86.505 1.276.061.446.17.884.325 1.306-.447-.471-.648-.9-1.08-.784-.431.116-.487.1-1.062.744-.575.643-.702.89-.659 1.074z" fill="#8D8DE9"/><path d="M86.841 100.1c.717-1.105.992-3.279.593-4.21a9.054 9.054 0 0 0-.452-.9c.018.064.043.13.058.182.03.124.058.252.081.37.116.486.104.994-.033 1.474-.149.418-.48 1.457-1.009 1.528-.305.038-.59-.237-.737-.57-.063-.141-.179-.522-.179-.522a4.725 4.725 0 0 0-1.357.696c-.74.588-.7.699-.7.699.067.222.095.454.084.686a1.685 1.685 0 0 1-.232.711 1.044 1.044 0 0 1-.184.179c.096.736.34 1.304 1.11 1.745.52.272 1.552.096 2.957-2.068z" fill="#37474F"/><path d="M82.236 96.214c.243.83.385 1.686.424 2.55.369.796.626.756.624.32-.003-.437-.725-2.149-1.275-3.574.086.237.16.474.227.704zM83.745 90.887a1.817 1.817 0 0 0-.419-1.147c-.08-.03-.156-.058-.217-.086-.355-.164-.504-.338-.699-.093l.402.413c.63.732.484.86.504 1.277.062.445.171.883.326 1.306.449 1.367.787 1.806 1.057 3.112.27 1.306.083 2.212.275 2.27.192.058.557-.124.532-1.186-.025-1.061-.643-2.796-1.047-3.608-.404-.813-.727-1.688-.714-2.258z" fill="#37474F"/><path d="M85.246 97.535a.124.124 0 0 1-.063.043 3.152 3.152 0 0 0-2 1.417.131.131 0 1 1-.208-.156 3.436 3.436 0 0 1 2.14-1.513.13.13 0 0 1 .164.09.13.13 0 0 1-.033.12zM84.994 96.45a.163.163 0 0 1-.063.043 3.533 3.533 0 0 0-2.102 1.541.134.134 0 0 1-.19.03.137.137 0 0 1-.032-.188 3.815 3.815 0 0 1 2.24-1.64.134.134 0 0 1 .172.086.14.14 0 0 1-.025.129zM84.908 95.238a.15.15 0 0 1-.068.048c-.972.262-1.81.88-2.349 1.73a.151.151 0 0 1-.27-.064.148.148 0 0 1 .025-.11 4.33 4.33 0 0 1 2.5-1.841.15.15 0 0 1 .162.237zM84.644 94.219a.142.142 0 0 1-.069.045 3.928 3.928 0 0 0-2.298 1.69.146.146 0 0 1-.212.046.147.147 0 0 1-.055-.162.145.145 0 0 1 .03-.053 4.203 4.203 0 0 1 2.444-1.798.149.149 0 0 1 .187.093.15.15 0 0 1-.028.139zM84.177 93.245a.141.141 0 0 1-.069.046 3.928 3.928 0 0 0-2.298 1.69.15.15 0 0 1-.204.035.148.148 0 0 1-.057-.153.145.145 0 0 1 .024-.052 4.204 4.204 0 0 1 2.445-1.798.146.146 0 0 1 .159.232z" fill="#EBEBEB"/><path d="m81.298 89.992-2.546 2.477-1.466 1.107 2.061 3.19 4.78-2.82-2.83-3.954z" fill="#FFBDA7"/><path d="M85.577 74.55s-10.118-.784-14.382-.385c-4.353.408-4.1 4.54-2.776 6.385 3.639 5.044 9.487 10.229 9.487 10.229s2.796-1.175 3.361-3.35l-1.985-3.648 5.354 1.213 2.503-2.018.098-1.377-1.66-7.049z" fill="#8D8DE9"/><path d="m85.577 74.55 17.518 1.37s.53 4.116-.772 7.956a8.477 8.477 0 0 1-6.03 5.493 48.202 48.202 0 0 1-5.188.88 13.079 13.079 0 0 1-2.578 1.844c-1.325.666-7.12 3.707-7.12 3.707s-1.815-1.284-1.906-4.275l5.152-6.531c1.149-1.677 1.555-2.222 2.239-2.638-1.176-4.449-1.234-5.458-1.315-7.805z" fill="#8D8DE9"/><path d="M85.413 83.907c-.522.731-.77 1.087-.77 1.087l-.858-.202s1.338-1.735 2.218-2.663c.962-1.009 2.337-1.19 3.671-1.085 1.696.132 6.609.535 6.609.535s-4.676-.015-7.098.103c-2.422.119-3.25 1.493-3.772 2.225z" fill="#404077"/><path d="M85.246 77.874c.285 1.678 1.57 3.448 2.243 3.87l-.943.561s-1.461-2.15-1.3-4.43zM78.139 80.628a36.998 36.998 0 0 1 2.523 3.46l-1.368-.307c-1.811-3.44-2.21-4.454-4.75-5.92-.006 0 1.77.5 3.595 2.767zM92.203 88.136s-.793 1.397-3.629 2.9c-1.592.845-6.537 3.294-8.061 3.798.241.367.54.693.883.966 0 0 5.803-3.041 7.12-3.707.29-.147.57-.31.84-.49.12-.075.238-.156.349-.234.293-.204.557-.408.777-.585.22-.177.391-.325.505-.421l.11-.101.016-.013c1.198-1.245 1.09-2.113 1.09-2.113z" fill="#404077"/><path d="M71.155 95.866c-1.133.564-1.817 1.092-2.296 1.848-.48.757-.583 1.486 0 2.3.582.815 1.622 1.735 2.74 1.571 1.117-.164 1.783-.504 2.775-1.157l-3.22-4.562z" fill="#263238"/><path d="M80.617 96.04c.047.35-1.373 1.18-2.85 2.047-1.581.931-1.942 1.48-3.231 2.27-1.474.89-2.054.986-3.28.757-1.227-.23-2.847-1.808-1.956-3.468.724-1.354 1.779-1.8 3.386-2.376a31.398 31.398 0 0 0 3.74-1.578c1.145-.565 2.053-1.478 2.323-1.213-.161.098-1.337.973-1.085 1.16.066.103.253.053.535-.099a.517.517 0 0 1 .427-.058.822.822 0 0 1 .338.344c.168.293.32.596.454.907.111.21.063.089.166.3.104.212.334.59.328.818 0 .138-.095.189-.194.264-.098.076-.252.17-.333.253-.035.035-.098.14-.07.191.027.05.252.023.34-.022.088-.046.235-.094.338-.144.104-.05.364-.202.624-.353z" fill="#8D8DE9"/><path d="M75.043 100.047c-.212.129-1.552.9-2.019.55-.467-.351.553-1.15.553-1.15s.078-1.07-1.33-2.507c-.204.19-1.125.252-1.158-.28-.033-.532 1.446-1.34 1.468-1.35-1.539.558-2.543 1.01-3.247 2.326-.89 1.66.732 3.241 1.956 3.468 1.223.227 1.804.133 3.28-.757.138-.091.368-.209.497-.3z" fill="#37474F"/><path d="M73.41 99.343c-.567.252-.12.742.717.505 1.261-.368 2.256-1.186 3.64-1.766 1.477-.867 2.986-1.687 2.85-2.068-.253.13-.833.424-.833.424-.111.06-.399.197-.399.197-1.125.605-2.344 1.528-3.575 1.98-1.088.403-1.834.494-2.4.728zM72.343 97.132c.505-.356.575-.626 1.58-1.198 1.004-.573 2.681-1.766 3.719-2.484.387-.307.758-.634 1.11-.981-.2-.19-.848.058-1.479.537-.63.479-1.01.782-1.642 1.183-1.22.882-2.637 1.53-3.328 2.065-.692.535-.467 1.233.04.878z" fill="#37474F"/><path d="M72.252 96.998c.009.016.02.03.033.043a4.672 4.672 0 0 1 1.224 2.494.154.154 0 0 0 .159.131.13.13 0 0 0 .088-.056.13.13 0 0 0 .018-.103 4.911 4.911 0 0 0-1.33-2.686.122.122 0 0 0-.096-.036.123.123 0 0 0-.09.05.154.154 0 0 0-.006.163zM73.219 96.153c.01.014.02.028.032.04a6.394 6.394 0 0 1 1.514 2.939.154.154 0 0 0 .162.126.133.133 0 0 0 .086-.06.13.13 0 0 0 .015-.104 6.587 6.587 0 0 0-1.598-3.11.123.123 0 0 0-.189 0 .16.16 0 0 0-.022.17zM75.76 98.935a.146.146 0 0 0 .13.08.125.125 0 0 0 .092-.048.127.127 0 0 0 .025-.1c-.225-1.864-1.583-3.51-1.643-3.566a.124.124 0 0 0-.19 0 .164.164 0 0 0 .031.206c.013.013 1.327 1.622 1.534 3.357a.188.188 0 0 0 .02.07zM76.668 98.239a.146.146 0 0 0 .128.083.128.128 0 0 0 .092-.047.127.127 0 0 0 .027-.1 5.516 5.516 0 0 0-1.703-3.371.124.124 0 0 0-.149-.014.124.124 0 0 0-.038.037.159.159 0 0 0 .043.204 5.327 5.327 0 0 1 1.574 3.145.123.123 0 0 0 .026.063z" fill="#F0F0F0"/><path d="M77.856 97.608a.146.146 0 0 0 .126.081.122.122 0 0 0 .095-.043.12.12 0 0 0 .026-.1c-.176-1.943-1.675-3.327-1.74-3.383a.123.123 0 0 0-.148-.018.125.125 0 0 0-.04.036.159.159 0 0 0 .036.207c.015 0 1.46 1.352 1.625 3.155.003.023.01.045.02.065z" fill="#EBEBEB"/><path d="M85.373 61.684c-.336-4.646.984-6.305 3.295-6.855l4.92-.386s4.514.815 5.9 1.115c.892.192 2.565 2.398 3.1 5.22.434 2.295.86 4.217.979 7.438a81.295 81.295 0 0 1-.3 10.607c-7.25 3.051-17.496-.84-18.49-4.33.18-.992 1.534-2.51 1.484-4.452-.613-4.004-.782-6.897-.888-8.357z" fill="#404077"/><path d="m92.68 47.606 2.036.535c.284.057.565.131.84.222l.035 1.551.104 2.212a1.43 1.43 0 0 0 .777-.719c.545-1.03.934-2.134 1.153-3.278.575-2.928.298-3.92-.03-4.45a2.173 2.173 0 0 0-1.219-1.008c-.36-1.687-1.844-2.4-2.523-2.613a6.797 6.797 0 0 0-2.735-.171c-.418.035-.83.114-1.231.234-.55.182-1.055.49-1.608.654-.552.164-1.213.164-1.65-.217a.774.774 0 0 0-.161-.126.386.386 0 0 0-.44.12.895.895 0 0 0-.174.452c-.092.618.02 1.25.32 1.798a.394.394 0 0 0-.393.119.81.81 0 0 0-.179.388c-.204.928.356 1.894 1.143 2.429.34.219.7.402 1.078.547.8.328 1.623.598 2.462.81.795.206 1.597.297 2.395.511z" fill="#37474F"/><path d="M97.653 50.418c-1.105.639-1.693-.227-1.693-.227l.181 4.971c-1.983 3.097-7.933 2.34-5.687-.038l-.093-1.397a7.783 7.783 0 0 1-1.01-.035 2.64 2.64 0 0 1-2.29-1.813 7.275 7.275 0 0 1-.238-.833 15.7 15.7 0 0 1-.252-4.698c.034-.85.204-1.688.505-2.484.079-.228.21-.435.383-.603.679-.595 1.115.426 1.724.525.24.012.48-.043.69-.159a9.623 9.623 0 0 1 1.315-.452c.41-.108.901-.171 1.209.122.137.157.242.34.31.537.323.721.866 1.47 1.711 1.55.018.586.028 1.292.252 1.84.099.251.369.811.687.854.704.096.742-.504 1.03-.852a1.28 1.28 0 0 1 2.018.312 2.081 2.081 0 0 1-.752 2.88z" fill="#FFBDA7"/><path d="M94.595 52.093c-.157 1.14-1.623 1.987-4.194 2.234l-.04-.61c.633-.051 1.26-.154 1.877-.307 1.191-.285 2.357-1.317 2.357-1.317z" fill="#F0997A"/><path d="m92.75 45.879-1.107-.504a.64.64 0 0 0 .308.832.597.597 0 0 0 .8-.328zM88.274 44.444l-.969.757a.594.594 0 0 0 .85.12.646.646 0 0 0 .12-.877z" fill="#37474F"/><path d="M92.253 47.14a.504.504 0 1 1-1.003.099.504.504 0 0 1 1.003-.099zM88.365 47.112a.504.504 0 1 1-.537-.454.451.451 0 0 1 .537.454z" fill="#404077"/><path d="m90.126 46.131.073 3.254-1.829-.338c.313-1.302 1.138-2.242 1.756-2.916z" fill="#F0997A"/><path d="M90.797 50.711v.03a.039.039 0 0 0 .033 0l.056-.025a.23.23 0 0 0 .068-.04.057.057 0 0 0 .017-.048.028.028 0 0 0 0-.02h-.017a.188.188 0 0 0-.053.015l-.048.02a.134.134 0 0 0-.06.035c0 .011.001.022.004.033zm-.547 0c0 .028 0 .045.033.043a.116.116 0 0 0 .06-.03l.144-.096c.081-.057.165-.11.252-.157a1.92 1.92 0 0 1 .28-.113c.121-.038.253-.04.371-.08.048-.016.109-.112.028-.132a.82.82 0 0 0-.34.028 1.758 1.758 0 0 0-.591.257.801.801 0 0 0-.126.104.346.346 0 0 0-.104.176h-.007z" fill="#B16668"/><path d="M107.475 62.382s-.721-.857-2.573-3.01c-1.766-2.069-2.304-2.853-3.722-3.252-.641-.179-1.342-.315-1.564-.365-1.123 1.425-.252 5.8 1.261 8.267 0 0 4.037 3.883 6.636 5.8 2.301 1.7 3.73.598 4.017-.116l-4.055-7.324z" fill="#FFBDA7"/><path d="M111.27 52.978c-.219-.527.437-.983.419-1.49a.4.4 0 0 0-.615-.343c-.311.151-.467.484-.684.734a2.763 2.763 0 0 1-.936.66c-.732.343-1.514.883-1.6 1.766.171-.088.35-.159.535-.21.961-.368 1.92-.749 2.881-1.117z" fill="#F0997A"/><path d="M113.052 50.575c-.033.098-.063.199-.091.297-.028.099-.081.252-.114.381a2.305 2.305 0 0 0-.045.19.907.907 0 0 1-.025.194c-.237.181-.618.33-.886.74-.267.412-.267.55-1.07.72-.542.116-1.345.123-1.95.375-.606.253-1.133.596-1.13 1.448.002.852.209 1.289.169 2.156-.033.653-.089 2.139-.434 5.296-.389 3.559-.175 5.077-.175 5.077.376.85 1.767 3.278 2.559 3.266 1.09 0 2.309-.91 2.596-3.798.109-1.087 0-2.27-.252-3.77-.207-1.224-.265-2.03-.492-3.798-.204-1.602-.215-2.522-.02-3.12a4.179 4.179 0 0 1 1.133-1.687c.615-.505.704-.421 1.009-1.317.179-.6.618-1.218.833-1.649.198-.433.337-.891.411-1.362.036-.325.097-.646.184-.96a.353.353 0 0 0 .033-.235.208.208 0 0 0-.049-.072.209.209 0 0 0-.075-.044.43.43 0 0 0-.171-.02c.03 0 .126-.225.141-.253.033-.08.071-.157.113-.232a.12.12 0 0 0 .026-.144.122.122 0 0 0-.129-.067.792.792 0 0 0-.457.128 2.298 2.298 0 0 0-.441.47.268.268 0 0 1-.071.062.5.5 0 0 1-.121.033.507.507 0 0 0-.303.237c-.113.21-.213.425-.3.646-.061.128-.144.252-.209.376-.077.14-.142.286-.197.436z" fill="#FFBDA7"/><path d="M111.992 52.61c-.093.053-.187.098-.283.149l-.078.04c.132-.154.253-.318.361-.49.199-.294.505-.415.787-.62a.206.206 0 0 0 .056-.115 4.774 4.774 0 0 1 .588-1.723c.189-.335.222-.815.625-.966-.416.106-.479.633-.683.943a4.727 4.727 0 0 0-.646 1.695v.06a2.958 2.958 0 0 0-.846.681c-.097.167-.21.324-.338.47-.651.438-1.531.315-2.271.542-.779.199-1.609.741-1.513 1.644.052-1.062.883-1.392 1.786-1.564a1.492 1.492 0 0 0-.871.684 1.57 1.57 0 0 0-.073 1.223 5.434 5.434 0 0 1 .02-.638c.038-.186.103-.365.192-.532.189-.326.47-.59.808-.757.489-.088.994-.133 1.405-.227.18-.045.35-.12.505-.222.183-.041.359-.108.524-.196a1.4 1.4 0 0 0 .487-.432 4.64 4.64 0 0 1-.542.351zm1.307-.757c.043-.063.081-.126.129-.184a1.85 1.85 0 0 1 .476-.426l.031-.018v-.045c.021-.182.072-.359.149-.524.039-.087.084-.171.133-.253a1.74 1.74 0 0 1 .167-.212l.023-.025c.013-.175.042-.35.088-.52.056-.18.141-.35.252-.504a.313.313 0 0 0-.073.063.863.863 0 0 0-.091.14c-.118.185-.203.39-.252.604a.578.578 0 0 1-.038.174.554.554 0 0 1-.108.142c-.168.19-.28.425-.323.675a.67.67 0 0 1-.038.172.512.512 0 0 1-.154.176 1.137 1.137 0 0 0-.369.57l-.002-.005zm.757-2.716c-.028.081-.046.167-.076.252-.065.164-.187.3-.252.46a.946.946 0 0 0-.078.542.09.09 0 0 1 0 .032c0 .063-.101.116-.144.154a1.797 1.797 0 0 0-.586.86c.053-.09.101-.184.162-.267.056-.087.117-.172.182-.252.065-.077.135-.15.209-.217.072-.066.15-.125.232-.177l.046-.025v-.055a1.41 1.41 0 0 1 .053-.505c.053-.154.124-.301.212-.439a.906.906 0 0 0 .042-.085.54.54 0 0 0 .023-.089c.023-.143.061-.283.114-.418-.021.038-.053.07-.074.11a.8.8 0 0 0-.068.124l.003-.005zM107.475 62.382a14.632 14.632 0 0 0-.141 3.992 7.437 7.437 0 0 1-.452-4.69l.593.698z" fill="#F0997A"/><path d="M104.17 67.141c-1.895-1.682-3.489-3.205-3.489-3.205-.457-.704-2.811-5.685-1.196-8.378 1.173.252 2.27.504 2.886.95.616.447 1.078.977 2.089 2.182.682.81 1.837 2.192 2.523 3.011-.585 4.18-2.813 5.44-2.813 5.44z" fill="#404077"/><path d="M24.082 55.31c2.299 0 3.225.697 5.047 2.435 1.556 1.5 5.906 5.535 5.906 5.535s1.262 6.557-.106 6.557c-1.367 0-7.874-5.414-7.874-5.414l-2.973-9.112z" fill="#FFA8A7"/><path d="M34.76 63.028c-.63.923-.966 4.746-.966 4.746A4.92 4.92 0 0 1 33.216 65a4.44 4.44 0 0 1 1.07-2.408l.474.436zM43.841 54.723c.053-.57.846-.663 1.065-1.122a.402.402 0 0 0-.383-.59c-.344 0-.639.212-.947.33-.364.127-.75.178-1.135.15-.808-.044-1.766.067-2.243.814.191.003.383.025.57.065 1.024.119 2.049.23 3.073.353z" fill="#F28F8F"/><path d="M46.54 53.445c-.077.07-.15.146-.221.22-.07.072-.19.186-.28.284a3.321 3.321 0 0 0-.126.144c-.04.048-.091.156-.114.159-.295.05-.701 0-1.13.252-.43.252-.505.36-1.282.136-.532-.151-1.246-.52-1.9-.58-.654-.06-1.277 0-1.675.757-.399.756-.222 1.38-.664 2.126-.328.537-.6 1.041-2.445 3.639-1.355 1.909-3 3.122-3.139 5.091-.065.926-.017 3.571.694 3.94.967.504 2.836.403 4.11-2.003a20.98 20.98 0 0 0 1.532-3.457c.389-1.178.714-1.917 1.34-3.587.567-1.513.984-2.32 1.44-2.774a4.185 4.185 0 0 1 1.792-.965c.782-.164.817-.043 1.501-.694.442-.446 1.118-.787 1.514-1.07a5.077 5.077 0 0 0 1.01-1.008c.182-.27.387-.522.612-.757a.364.364 0 0 0 .14-.194.206.206 0 0 0-.056-.159.406.406 0 0 0-.144-.098c.028 0 .217-.141.252-.161.066-.056.136-.108.21-.154.053-.033.106-.094.085-.157a.161.161 0 0 0-.08-.078.782.782 0 0 0-.465-.1 2.47 2.47 0 0 0-.61.209.228.228 0 0 1-.091.022.404.404 0 0 1-.121-.027.504.504 0 0 0-.381.068 6.203 6.203 0 0 0-.565.43c-.116.087-.253.152-.361.233a3.117 3.117 0 0 0-.381.313z" fill="#FFA8A7"/><path d="M44.654 54.736H44.245c.187-.077.37-.166.545-.267.315-.17.638-.134.986-.182a.225.225 0 0 0 .104-.076 4.772 4.772 0 0 1 1.325-1.248c.323-.207.575-.615 1.009-.562-.419-.099-.72.335-1.045.504a4.768 4.768 0 0 0-1.365 1.198c0 .018-.022.035-.035.05a2.907 2.907 0 0 0-1.065.207c-.165.1-.34.184-.52.252-.78.084-1.514-.439-2.27-.582-.785-.19-1.767-.096-2.11.756.545-.913 1.433-.82 2.311-.547a1.494 1.494 0 0 0-1.09.197 1.528 1.528 0 0 0-.426.464c-.108.18-.18.378-.212.585.095-.191.201-.376.318-.555.12-.147.262-.276.419-.383.32-.197.69-.296 1.065-.285.474.149.94.345 1.35.454.18.045.368.06.555.043.18.049.367.074.555.073.22-.003.438-.055.636-.154-.21.033-.42.052-.631.058zm1.514-.053c.068-.035.13-.073.199-.103a1.988 1.988 0 0 1 .414-.13 1.5 1.5 0 0 1 .207-.024h.038l.025-.036c.104-.15.232-.283.378-.393.073-.055.15-.105.23-.149.081-.043.165-.08.252-.11l.033-.013.015-.02c.092-.15.2-.291.32-.42.136-.128.292-.235.462-.314a.279.279 0 0 0-.09.02.918.918 0 0 0-.147.08c-.19.11-.361.25-.505.417a.77.77 0 0 1-.116.138.627.627 0 0 1-.161.073 1.34 1.34 0 0 0-.6.447.66.66 0 0 1-.117.133.56.56 0 0 1-.217.086c-.238.034-.46.146-.628.318h.008zm1.935-2.05c-.063.058-.119.126-.184.181-.134.116-.303.18-.444.285a.938.938 0 0 0-.323.442.084.084 0 0 1-.013.03c-.038.053-.144.058-.2.07-.055.013-.163.04-.252.066-.253.087-.485.23-.676.419.091-.053.174-.114.268-.16a2.52 2.52 0 0 1 .562-.226c.094-.023.19-.039.285-.046h.056l.02-.05c.068-.16.166-.307.288-.431.118-.112.25-.21.39-.29a.453.453 0 0 0 .08-.058.765.765 0 0 0 .062-.066c.087-.116.186-.222.295-.318-.032.026-.08.038-.116.063a.921.921 0 0 0-.106.089h.008z" fill="#F28F8F"/><path d="M12.327 78.523c-.563-3.783-1.261-8.903-.636-14.057.2-1.652 1.648-6.709 2.082-7.942l3.28-.852s4.542-.346 5.112-.361c1.01-.025 1.918 0 1.918 0 .216.23 4.095 2.968 5.069 5.767.555 1.592.338 4.058-1.514 5.45 0 0-.28 2.774-.28 2.807 0 .033 1.71 2.663 1.995 3.279-.431 2.749-3.721 5.18-8.39 6.15-5.608 1.173-8.288-.03-8.636-.241z" fill="#FAFAFA"/><path d="M23.113 55.55h.876l.252.195c.96.756 3.878 3.076 4.69 5.404.564 1.614.253 3.906-1.437 5.168l-.089.065v.111c-.28 2.792-.28 2.812-.28 2.82v.08l.043.068c.018.026 1.592 2.482 1.948 3.186-.467 2.63-3.663 4.927-8.18 5.868a21.871 21.871 0 0 1-4.426.504c-2.152 0-3.472-.434-3.92-.658-.614-4.143-1.207-8.963-.616-13.87.191-1.592 1.57-6.411 2.018-7.765l3.129-.812c.346-.026 4.542-.343 5.074-.356h.939m0-.252c-.283 0-.608 0-.944.013-.578 0-5.112.358-5.112.358l-3.28.852c-.462 1.228-1.902 6.285-2.102 7.936-.618 5.155.073 10.265.636 14.057.235.144 1.554.757 4.15.757a22.034 22.034 0 0 0 4.477-.504c4.668-.971 7.958-3.402 8.39-6.151-.286-.62-1.997-3.279-1.997-3.279l.28-2.807c1.863-1.392 2.08-3.858 1.514-5.45-.974-2.799-4.852-5.548-5.069-5.764 0 0-.403-.013-.974-.013l.03-.005z" fill="#EBEBEB"/><path d="M24.335 66.912s-1.386 1.672-4.1 1.344a5.022 5.022 0 0 1-3.853-2.547s.38 2.92 3.726 3.326c3.086.376 4.227-2.123 4.227-2.123z" fill="#E0E0E0"/><path d="M15.271 43.73c-.017.079-.461.308-.545.381-.159.139-.3.297-.418.472a3.414 3.414 0 0 0-.485 1.26c-.151.757-.133 1.531-.21 2.298-.094.74-.243 1.471-.446 2.19a7.503 7.503 0 0 0-.313 1.938 2.536 2.536 0 0 0 .69 1.794 4.286 4.286 0 0 1 .05-1.965c.009.41.083.818.22 1.206a2.816 2.816 0 0 0 1.306 1.376c.577.292 1.19.505 1.824.633 1.025.25 2.077.378 3.132.379.65 0 1.302-.04 1.947-.109.838-.09 1.691-.252 2.405-.686.714-.433 1.262-1.24 1.196-2.078.228.412.333.88.303 1.35.456-.51.7-1.174.681-1.857a4.662 4.662 0 0 0-.505-1.944 8.846 8.846 0 0 1-.534-1.168 1.648 1.648 0 0 1-.023-1.142c.119-.237.313-.452.436-.694a4.337 4.337 0 0 0 .54-2.14c-.073-1.54-.933-3.567-3.724-4.258-2.321-.572-6.825-.254-7.526 2.764z" fill="#404077"/><path d="M16.349 51.66A1.766 1.766 0 0 1 14.797 51c-.792-.933-.83-1.848-.416-2.439.338-.486 1.138-.771 1.673-.41.572.385.577.68.782 1.099.204.419.79.123.668-1.526 1.164-.48 1.063-2.363 1.711-3.102 1.01-1.157 2.594-.78 3.099-.474a2.103 2.103 0 0 1 2.172-.043c.757.436 1.226 1.306 1.37 4.232.149 2.986-.46 4.943-1.186 5.548-.504.414-1.405.668-2.467.563l-.036 1.114s2.94 3.279-.971 2.83a6.185 6.185 0 0 1-4.34-2.666l.169-4.507s-.086.356-.676.44z" fill="#FFA8A7"/><path d="m24.206 45.977.939.732a.578.578 0 0 1-.825.11.613.613 0 0 1-.114-.842zM21.612 48.285a.504.504 0 1 1-1.008 0 .504.504 0 0 1 1.008 0zM25.029 48.055a.504.504 0 1 1-1.009 0 .504.504 0 0 1 1.009 0zM19.896 46.888l1.136-.578a.595.595 0 0 1-.252.84.679.679 0 0 1-.884-.262z" fill="#404077"/><path d="m24.529 49.695-1.56.71-.33-3.285 1.89 2.575z" fill="#F28F8F"/><path d="M22.11 51.604c0-.02-.044-.028-.064-.038l-.05-.023a.109.109 0 0 0-.056-.015.024.024 0 0 0-.018 0 .03.03 0 0 0 0 .02.06.06 0 0 0 .02.05.334.334 0 0 0 .071.044l.06.027a.039.039 0 0 0 .034 0 .056.056 0 0 0 0-.032.079.079 0 0 0 .002-.033zm.474-.15a.929.929 0 0 0-.134-.108 1.962 1.962 0 0 0-.303-.166 1.702 1.702 0 0 0-.32-.103.823.823 0 0 0-.359-.028c-.083.02-.022.12.03.136.127.043.253.045.392.086.101.03.2.07.295.118.092.051.181.107.267.167.05.035.104.065.152.1.019.017.041.028.065.033.03 0 .038-.017.036-.045a.384.384 0 0 0-.121-.19z" fill="#B16668"/><path d="M22.203 54.453c-1.534-.123-3.568-.756-4.078-1.742.253 1.062 1.32 1.65 2.173 1.924.606.2 1.232.334 1.867.401l.038-.583z" fill="#F28F8F"/><path d="m46.821 94.647-3.11-5.026 4.755-3.74c1.262 3.188 2.902 7.851 3.848 9.122 0 0-1.882 1.967-3.37 1.826-1.49-.141-1.974-1.304-2.123-2.181z" fill="#FFA8A7"/><path d="M47.248 97.381c.073.3.205.583.388.832.177.27 1.398.717 1.887 1.108.49.39.588.575 1.174 1.132.65.615 1.13 1.453 3.373 1.664 2.243.212 3.598-.38 4.43-1.008.29-.243.517-.552.662-.901 0 0 .04-1.26-.674-1.364-.714-.103-11.24-1.463-11.24-1.463z" fill="#404077"/><path d="M51.42 93.505c.193.116.387.532.505.719.4.623 1.085 1.12 1.694 1.53 2.873 1.953 4.99 1.368 5.465 3.55.106.617-.402 1.598-3.028 2.319-1.342.366-3.61-.048-4.423-.756-.813-.709-1.262-1.377-1.895-1.877-.633-.499-2.036-.958-2.493-1.616a3.143 3.143 0 0 1-.434-1.334c-.058-.376-.18-1.652-.18-1.652.536.87 1.237.706 1.648.862a6.84 6.84 0 0 1 1.21.744c-.331-.597-.697-.938-.442-1.334.254-.396.252-.456 1.085-.83.832-.373 1.117-.428 1.289-.325z" fill="#8D8DE9"/><path opacity=".4" d="M51.42 93.505c.193.116.387.532.505.719.4.623 1.085 1.12 1.694 1.53 2.873 1.953 4.99 1.368 5.465 3.55.106.617-.402 1.598-3.028 2.319-1.342.366-3.61-.048-4.423-.756-.813-.709-1.262-1.377-1.895-1.877-.633-.499-2.036-.958-2.493-1.616a3.143 3.143 0 0 1-.434-1.334c-.058-.376-.18-1.652-.18-1.652.536.87 1.237.706 1.648.862a6.84 6.84 0 0 1 1.21.744c-.331-.597-.697-.938-.442-1.334.254-.396.252-.456 1.085-.83.832-.373 1.117-.428 1.289-.325z" fill="#000"/><path opacity=".3" d="M56.059 101.613c-1.343.366-3.611-.048-4.424-.756a8.94 8.94 0 0 1-.757-.742c.059.04.114.086.164.116.116.071.23.139.349.199a3.07 3.07 0 0 0 1.49.439c.468-.015 1.62-.017 1.863-.537.136-.293-.05-.668-.338-.923a8.04 8.04 0 0 0-.47-.346 5.045 5.045 0 0 1 1.133-1.14c.828-.557.929-.481.929-.481.202.138.427.242.663.305.26.058.53.058.79 0a1.01 1.01 0 0 0 .237-.129c.712.333 1.204.757 1.4 1.675.102.628-.405 1.609-3.03 2.32z" fill="#000"/><path d="M53.618 95.755c.758.509 1.574.925 2.43 1.24.684.626.555.868.124.73-.431-.14-1.93-1.408-3.19-2.417.22.154.427.305.636.447zM47.782 95.56c-.41-.118-.741-.156-1.062-.423-.204-.16-.23-.706-.171-.938l.292.466c.573.406 1.03.426 1.441.583.428.204.833.454 1.209.744 1.231.887 1.566 1.37 2.793 2.055 1.226.686 2.197.792 2.195 1.009-.003.217-.3.52-1.363.156-1.062-.363-2.606-1.543-3.295-2.206-.689-.664-1.46-1.272-2.038-1.445z" fill="#37474F"/><path d="M53.985 99.21a.152.152 0 0 0 .063-.05c.562-.828.991-1.216 2.064-1.56a.137.137 0 0 0 .11-.058.14.14 0 0 0 .018-.123.138.138 0 0 0-.212-.07c-1.135.363-1.612.786-2.21 1.666a.138.138 0 0 0 .167.207v-.012zM52.978 98.6a.168.168 0 0 0 .063-.051 3.732 3.732 0 0 1 2.22-1.62.138.138 0 0 0 .1-.125.138.138 0 0 0-.01-.056.141.141 0 0 0-.178-.09 4.016 4.016 0 0 0-2.364 1.724.144.144 0 0 0 .079.221c.03.009.06.007.09-.004zM51.784 98.13a.18.18 0 0 0 .068-.055c.669-.933 1.242-1.405 2.49-1.808a.158.158 0 0 0 .073-.252.156.156 0 0 0-.168-.049 4.564 4.564 0 0 0-2.65 1.925.161.161 0 0 0 .036.222.172.172 0 0 0 .151.017zM50.843 97.538a.141.141 0 0 0 .068-.053c.656-.916 1.209-1.372 2.435-1.766a.153.153 0 0 0 .106-.134.154.154 0 0 0-.036-.113.151.151 0 0 0-.166-.045 4.436 4.436 0 0 0-2.589 1.881.154.154 0 0 0 .036.217.16.16 0 0 0 .146.013zM50.013 96.756a.14.14 0 0 0 .068-.053 4.133 4.133 0 0 1 2.435-1.765.156.156 0 0 0 .022-.286.153.153 0 0 0-.118-.01 4.444 4.444 0 0 0-2.589 1.884.151.151 0 0 0 .036.215.146.146 0 0 0 .146.015z" fill="#EBEBEB"/><path d="M46.324 78.86c-1.04-3.026-1.801-3.858-5.92-4.723-5.52-1.163-17.053-2.633-17.053-2.633l-.505 12.675c.465.18.586.053 1.088.207 1.915.585 8.152-.421 15.706-.863.8 1.963 1.741 3.531 3.836 6.252 1.486 1.927 2.084 2.757 2.084 2.757s2.816.09 4.71-2.141c.01 0-1.357-4.033-3.946-11.53z" fill="#404077"/><path d="M44.288 91.066c1.03.111 4.41-.307 5.498-2.292l.689 2.043s-.154.882-2.332 1.705c-1.766.663-2.664.363-2.664.363l-1.191-1.819z" fill="#37474F"/><path d="M36.759 73.459c-5.569-.977-13.408-1.955-13.408-1.955l-.505 12.675c.465.18.586.053 1.088.207 1.688.517 6.736-.204 13.085-.686l-.26-10.242z" fill="#404077"/><path d="m29.56 79.024-.29-.252-6.308 5.447c.376.122.523.03.982.172a7.35 7.35 0 0 0 2.069.176c1.819-1.432 2.914-4.11 3.547-5.543z" fill="#404077"/><path d="M41.717 94.14c0-.597-1.398-1.583-2.44-2.456-1.67-1.397-2.738-2.284-3.119-3.558-.38-1.274-.56-1.977-.555-2.83.005-.852 0-1.939.066-4.748 0-.359-5.602-.038-5.5.403.34 1.478.933 4.898.948 5.218.003.387-.063.77-.194 1.135a3.963 3.963 0 0 0-.083 2.128c.209.78.756.91 1.354 1.534.598.623.722.65 1.11 1.543.42.953 1.053 2.466 3.457 3.301a6.31 6.31 0 0 0 4.34-.202c.666-.3.616-1.245.616-1.467z" fill="#FFA8A7"/><path d="M30.746 89.432c-.017.321.032.642.142.944.095.322 1.18 1.127 1.554 1.659.373.532.416.757.837 1.473.465.804.697 1.78 2.867 2.65 2.17.87 3.699.681 4.713.298.36-.158.677-.4.926-.704 0 0 .411-1.246-.27-1.556-.681-.31-10.769-4.764-10.769-4.764z" fill="#404077"/><path d="M36.045 86.797c.156.171.23.645.292.865.212.739.757 1.435 1.234 2.017 2.291 2.79 4.572 2.83 4.403 5.143-.078.648-.873 1.475-3.701 1.42-1.444-.028-3.58-1.11-4.186-2.046-.606-.936-.843-1.74-1.335-2.426-.492-.686-1.746-1.556-2.006-2.345a3.292 3.292 0 0 1-.043-1.455c.056-.394.31-1.7.31-1.7.276 1.021 1.025 1.067 1.388 1.344.366.33.696.697.987 1.094-.154-.69-.419-1.14-.048-1.457.37-.318.386-.381 1.325-.505.938-.123 1.236-.1 1.38.05z" fill="#8D8DE9"/><path opacity=".4" d="M36.045 86.797c.156.171.23.645.292.865.212.739.757 1.435 1.234 2.017 2.291 2.79 4.572 2.83 4.403 5.143-.078.648-.873 1.475-3.701 1.42-1.444-.028-3.58-1.11-4.186-2.046-.606-.936-.843-1.74-1.335-2.426-.492-.686-1.746-1.556-2.006-2.345a3.292 3.292 0 0 1-.043-1.455c.056-.394.31-1.7.31-1.7.276 1.021 1.025 1.067 1.388 1.344.366.33.696.697.987 1.094-.154-.69-.419-1.14-.048-1.457.37-.318.386-.381 1.325-.505.938-.123 1.236-.1 1.38.05z" fill="#000"/><path opacity=".3" d="M38.27 96.249c-1.443-.028-3.58-1.11-4.186-2.045a9.37 9.37 0 0 1-.54-.964c.046.056.089.119.132.164.093.104.186.205.287.303.37.403.837.705 1.358.875.467.121 1.617.459 2.018.013.225-.253.147-.681-.063-1.01-.09-.143-.366-.483-.366-.483a5.237 5.237 0 0 1 1.466-.802c.987-.31 1.065-.207 1.065-.207.16.199.353.37.57.504.244.133.513.21.79.227.094-.01.186-.03.275-.06.61.542.974 1.112.903 2.08-.085.633-.888 1.473-3.709 1.405z" fill="#000"/><path d="M37.559 89.687a11.92 11.92 0 0 0 2.056 1.952c.505.822.298 1.026-.09.757-.39-.27-1.515-1.978-2.466-3.355.174.23.343.444.5.646zM31.808 87.785c-.375-.237-.693-.375-.933-.733-.06-.505.017-.815.252-.883l.018.446c.451.575.9.73 1.261 1.01.366.33.697.696.987 1.094.964 1.248 1.156 1.825 2.175 2.872 1.02 1.047 1.958 1.435 1.892 1.644-.065.21-.451.429-1.403-.252-.95-.68-2.144-2.302-2.634-3.167-.49-.865-1.087-1.698-1.615-2.03z" fill="#37474F"/><path d="M36.915 93.235a.148.148 0 0 0 .078-.03c.805-.658 1.345-.918 2.524-.946a.146.146 0 0 0 .13-.201.142.142 0 0 0-.135-.086c-1.237.028-1.837.308-2.693 1.009a.14.14 0 0 0-.02.204.139.139 0 0 0 .116.05zM36.093 92.332a.14.14 0 0 0 .075-.03 3.89 3.89 0 0 1 2.693-.963.144.144 0 0 0 .144-.151.151.151 0 0 0-.152-.147 4.185 4.185 0 0 0-2.866 1.027.15.15 0 0 0 .014.243c.028.017.06.024.092.021zM35.036 91.525a.161.161 0 0 0 .083-.035c.941-.731 1.65-1.034 3.015-1.07a.165.165 0 0 0 .17-.23.163.163 0 0 0-.17-.094c-1.433.037-2.208.36-3.207 1.137a.164.164 0 0 0 .109.292zM34.279 90.645a.157.157 0 0 0 .083-.032c.92-.72 1.605-1.01 2.944-1.047a.162.162 0 0 0 .157-.164.162.162 0 0 0-.157-.146c-1.405.035-2.157.353-3.136 1.115a.159.159 0 0 0 .116.284l-.007-.01zM33.683 89.624a.181.181 0 0 0 .083-.033c.924-.719 1.605-1.009 2.948-1.046a.162.162 0 0 0 .104-.279.158.158 0 0 0-.115-.042c-1.408.036-2.157.353-3.133 1.112a.164.164 0 0 0-.03.227.168.168 0 0 0 .143.06z" fill="#EBEBEB"/><path d="M35.792 70.702c-.037-5.218-1.385-7.518-2.952-8.322-1.544-.863-4.289-.177-8.059 3.026-3.05 2.587-4.978 4.993-7.271 8.575-.97.363-4.29 2.27-5.173 4.539a8.349 8.349 0 0 0 .79 2.918c2.213 4.118 7.446 4.655 10.683 3.137 1.96-.923 3.845-3.15 5.46-5.8.411 1.715.757 3.026.757 3.026 1.998.4 4.07.185 5.945-.615 0 0-.144-4.58-.18-10.484z" fill="#404077"/><path opacity=".2" d="m30.875 81.88.204.012c-.318-1.587-.63-3.057-.91-4.366-.616-2.88-1.103-5.154-1.161-6.544-.034-.87-.008-1.74.075-2.605.06-.734.091-1.102-.11-1.23-.15-.097-.364 0-.553.11-.465.267-1.136 1.148-3.028 4.703-.131.253-.252.505-.399.757-1.642 3.112-3.678 6.973-7.014 6.756l-.149-.012c-2.018-.202-3.343-1.216-3.984-3.014l-.159.156c.659 1.809 2.039 2.84 4.11 3.05 3.555.357 5.665-3.637 7.358-6.848l.398-.756c1.628-3.027 2.458-4.333 2.968-4.625.252-.144.325-.129.345-.116.101.063.063.52.02 1.046-.083.874-.109 1.753-.078 2.63.06 1.408.548 3.688 1.166 6.578.267 1.301.588 2.751.9 4.317z" fill="#000"/><path d="M29.757 81.357c1.05.348 4.64.711 6.255-.963l.063 2.068s-.37.855-2.851 1.114c-2.48.26-2.947-.252-2.947-.252l-.52-1.967z" fill="#37474F"/><path opacity=".2" d="M29.27 78.767c-1.615 2.663-3.5 4.893-5.463 5.8-2.866 1.347-7.423 1.103-9.87-1.936 1.186 1.16 3.976 2.045 7.41 1.102 3.626-.991 4.968-3.516 5.1-6.479.156-3.495 1.365-9.886 2.445-10.993-.12.229-.22.467-.3.711-1.429 4.68-.584 6.113.1 9.256.205.955.401 1.808.578 2.54z" fill="#000"/><path d="M29.964 64.261c.474-.313.878-.608 1.403-.986.16-.109.305-.24.429-.388.136-.187.123-.505-.05-.527a1.358 1.358 0 0 0-.505.088 6.688 6.688 0 0 0-1.043.426c.3-.207.566-.393.82-.603a.4.4 0 0 0 .111-.557c-.09-.161-.335-.166-.794 0-.111-.116-.41-.232-.868-.033-.099-.118-.409-.141-.74 0-.33.142-.535.252-.855.401-.406.194-.646.36-1.037.583-.737.424-4.12 2.585-4.695 2.996-.722.517-6.122 4.199-6.122 4.199s-1.05.756-1.779 3.071c-.396 1.261-.792 2.676.505 3.014 1.297.338 3.676-1.029 5.21-2.388 2.006-1.78 3.17-3.148 4.85-5.168.255-.359.627-.618 1.052-.733.366-.069.72-.193 1.047-.369a4.44 4.44 0 0 0 .641-.461c.34-.326.65-.684.921-1.07.106-.143.202-.294.313-.436a4.984 4.984 0 0 1 1.186-1.059z" fill="#FFA8A7"/><path d="M29.484 61.691c-.28-.201-.65-.02-.923.119a22.33 22.33 0 0 0-2.566 1.498c-3.232 2.04-6.724 4.52-9.96 6.557 3.208-2.353 6.448-4.67 9.859-6.721a18.095 18.095 0 0 1 2.642-1.395c.28-.126.68-.285.948-.058zM30.34 61.724l-.636.38c-.21.132-.422.253-.626.394l-.603.409-.616.416c.178-.174.366-.337.563-.49a8.75 8.75 0 0 1 .606-.433c.209-.139.424-.252.646-.373a5.46 5.46 0 0 1 .666-.303z" fill="#F28F8F"/><path d="M29.484 61.691c-.222.111-.436.235-.65.358l-.636.381-.639.383a26.65 26.65 0 0 1-.643.373 11.041 11.041 0 0 1 1.221-.855 7.8 7.8 0 0 1 .654-.36 4.04 4.04 0 0 1 .693-.28zM25.965 67.461c-.586-.08-.942-.625-1.083-.24-.141.387-.043.649-1.128 2.122-.37.504-1.102 1.437-1.69 2.199.943-.984 1.811-2.018 2.747-3.145.16-.225.364-.413.601-.552l.116-.063.048-.02.093-.04.046-.016a.93.93 0 0 1 .149-.043l.176-.045h.015c.187-.043.37-.1.548-.17a1.99 1.99 0 0 1-.639.013zM31.023 62.271a.393.393 0 0 0 .127-.527.39.39 0 0 1-.162.381c-.214.156-.81.487-1.261.784-.258.171-.487.381-.68.623.112-.065.907-.537 1.154-.658.293-.207.568-.393.822-.603z" fill="#F28F8F"/><path d="M13.778 56.524c-3.833.98-3.89 4.66-3.28 7.931.666 3.5 2.914 10.688 3.719 11.235l4.18-3.803-1.697-8.355s-1.174-5.997-2.922-7.008z" fill="#FFA8A7"/><path d="M17.598 67.923s-2.483 1.324-2.94 3.932c1.06-2.068 1.58-2.018 3.109-3.105l-.17-.827z" fill="#F28F8F"/></svg>