<svg width="124" height="142" fill="none" xmlns="http://www.w3.org/2000/svg"><path d="M23.492 85.385c-22.336 12.952-22.333 33.952 0 46.902 22.333 12.949 58.545 12.952 80.878 0 22.334-12.953 22.334-33.95 0-46.902-22.333-12.953-58.532-12.95-80.878 0z" fill="#F5F5F5"/><path d="M30.202 107.539a9.37 9.37 0 0 0 1.633 1.787 18.864 18.864 0 0 0 7.442 3.944c2.698.724 5.457.522 7.884 2.117 1.56 1.026 2.965 2.267 4.501 3.33 2.652 1.833 5.414 3.534 8.492 4.542 1.69.553 2.871.581 4.638.523 1.14-.037 2.284-.107 3.41.116 2.512.504 4.516 2.224 6.49 3.745 2.11 1.631 4.143 2.804 6.749 3.434 2.02.489 9.34.993 8.68-2.774-.164-.935-.96-1.604-1.706-2.19-1.874-.941-3.65-2.866-5.307-4.164-1.588-1.247-2.473-2.805-3.65-4.448-.967-1.347-1.947-2.707-3.181-3.816-2.558-2.245-6.065-3.751-9.012-5.477a696.995 696.995 0 0 0-10.037-5.768c-3.771-2.138-7.801-4.295-12.13-4.164-1.376.09-2.734.368-4.035.828-1.43.452-2.792 1.017-4.286 1.262-1.612.266-3.312.253-4.811.984-1.5.73-2.646 2.288-2.57 3.953a4.43 4.43 0 0 0 .806 2.236z" fill="#E0E0E0"/><path d="M98.26 22.924a1.236 1.236 0 0 1 1.101-.565l6.211.947a1.22 1.22 0 0 1 .879.865l5.401 13.857a3.862 3.862 0 0 1-.523 3.452L96.21 60.49c-.346.437-.742.611-1.1.565l-6.205-.944c-.36-.055-.682-.348-.885-.867L82.618 45.39a3.88 3.88 0 0 1 .523-3.452l15.12-19.014z" fill="#FAFAFA"/><path d="M99.224 22.655h.08l.608.092c1.451.22 5.31.806 5.605.855.295.05.49.281.645.675l5.402 13.854a3.591 3.591 0 0 1-.478 3.156l-15.113 19.02a1.03 1.03 0 0 1-.739.458h-.08l-5.358-.825-.855-.131c-.264-.04-.493-.281-.648-.675L82.892 45.28a3.608 3.608 0 0 1 .477-3.153l15.122-19.014a1.03 1.03 0 0 1 .736-.458m0-.305a1.304 1.304 0 0 0-.976.574L83.132 41.938a3.874 3.874 0 0 0-.523 3.452l5.402 13.854c.203.52.526.812.885.867l6.204.944a.865.865 0 0 0 .125 0 1.288 1.288 0 0 0 .976-.574l15.119-19.01a3.86 3.86 0 0 0 .523-3.453l-5.401-13.857a1.222 1.222 0 0 0-.879-.864l-6.21-.947a.811.811 0 0 0-.126 0z" fill="#F0F0F0"/><path d="m105.128 40.535-15.12 19.011a1.265 1.265 0 0 1-1.055.575c.648.097 5.806.88 6.153.937a1.24 1.24 0 0 0 1.104-.568l15.119-19.01a3.56 3.56 0 0 0 .663-1.62c-2.223-.339-4.358-.669-6.201-.944a3.56 3.56 0 0 1-.663 1.62z" fill="#E0E0E0"/><path d="m105.648 37.09-5.402-13.864c-.204-.519-.526-.812-.885-.867a1.23 1.23 0 0 0-1.1.565L83.14 41.938a3.875 3.875 0 0 0-.523 3.452l5.402 13.854c.203.52.526.812.885.867.358.055.754-.128 1.1-.565l15.12-19.014a3.88 3.88 0 0 0 .523-3.442z" fill="#F0F0F0"/><path opacity=".1" d="m94.543 53.843.195-3.733c1.99-3.874.085-7.943-1.423-8.808C97.7 36.628 96.484 30 95.213 26.758L83.14 41.938a3.875 3.875 0 0 0-.523 3.452l5.402 13.854c.203.52.526.812.885.867l6.204.944c.36.055.755-.128 1.101-.565l4.395-5.526-6.062-1.121z" fill="#000"/><path d="M20.56 40.035c-.578-.22-1.061-.171-1.375.085-.313.257-5.121 4.188-5.425 4.451-.305.263-.454.721-.356 1.332l2.643 16.393a4.311 4.311 0 0 0 2.451 3.018l25.271 9.656c.578.22 1.062.171 1.375-.085l5.417-4.457c.304-.26.46-.724.359-1.338l-2.643-16.393a4.288 4.288 0 0 0-2.451-3.018L20.56 40.034z" fill="#FAFAFA"/><path d="M19.873 40.2c.199.004.396.044.58.119l25.278 9.644a4.032 4.032 0 0 1 2.26 2.783l2.643 16.393c.076.482 0 .855-.252 1.05l-5.43 4.449a.758.758 0 0 1-.495.155 1.63 1.63 0 0 1-.587-.128l-25.278-9.644a4.023 4.023 0 0 1-2.26-2.783L13.7 45.854c-.08-.48 0-.852.249-1.048.25-.195 3.628-2.975 4.897-4.014l.532-.437a.764.764 0 0 1 .496-.155zm0-.306a1.065 1.065 0 0 0-.688.226c-.304.257-5.118 4.188-5.432 4.451-.313.263-.453.721-.355 1.332l2.643 16.393c.143.66.44 1.279.866 1.803.426.525.969.94 1.585 1.215l25.277 9.657c.22.087.452.135.688.14.248.008.491-.072.687-.226l5.417-4.457c.304-.26.46-.724.359-1.338l-2.643-16.393a4.312 4.312 0 0 0-.867-1.803 4.287 4.287 0 0 0-1.585-1.215l-25.277-9.644a1.93 1.93 0 0 0-.687-.141h.012z" fill="#F0F0F0"/><path d="m23.92 60.869 25.272 9.644c.554.211 1.02.18 1.339-.052-.566.468-5.08 4.161-5.384 4.415-.304.253-.8.305-1.38.082l-25.272-9.644a3.955 3.955 0 0 1-1.554-1.176c1.946-1.595 3.81-3.128 5.429-4.445.41.517.943.922 1.55 1.176z" fill="#E0E0E0"/><path d="M21.47 57.863 18.827 41.47c-.1-.61.045-1.078.358-1.335.314-.256.797-.305 1.375-.085l25.278 9.644a4.311 4.311 0 0 1 2.451 3.018l2.643 16.393c.1.61-.046 1.078-.359 1.338s-.797.306-1.374.085L23.92 60.884a4.318 4.318 0 0 1-2.451-3.021z" fill="#F0F0F0"/><path opacity=".1" d="M48.289 52.697a4.313 4.313 0 0 0-.866-1.803 4.287 4.287 0 0 0-1.585-1.215l-16.084-6.137.283 5.706 1.317.764a15.273 15.273 0 0 0-3.072 5.87 15.315 15.315 0 0 0-.3 6.624l-5.244 4.427 21.031 8.037c.578.22 1.062.171 1.375-.085l5.417-4.457c.304-.26.46-.724.359-1.338l-2.631-16.393z" fill="#000"/><path d="M68.746 59.916a22.409 22.409 0 0 1-12.489-3.805 22.558 22.558 0 0 1-8.28-10.133 22.672 22.672 0 0 1-1.279-13.046 22.61 22.61 0 0 1 6.152-11.56 22.449 22.449 0 0 1 11.51-6.18c4.36-.871 8.88-.424 12.988 1.285a22.502 22.502 0 0 1 10.089 8.316 22.65 22.65 0 0 1 3.788 12.544 22.657 22.657 0 0 1-6.592 15.958 22.457 22.457 0 0 1-15.887 6.62zm0-44.806a22.061 22.061 0 0 0-12.294 3.747 22.207 22.207 0 0 0-8.15 9.976 22.32 22.32 0 0 0-1.257 12.842 22.258 22.258 0 0 0 6.057 11.38 22.1 22.1 0 0 0 11.33 6.083c4.293.857 8.743.417 12.786-1.266a22.15 22.15 0 0 0 9.931-8.186 22.297 22.297 0 0 0 3.73-12.349 22.301 22.301 0 0 0-6.49-15.711 22.105 22.105 0 0 0-15.643-6.516z" fill="#37474F"/><path d="M60.257 61.33c-4.468 0-8.835-1.33-12.55-3.823a22.667 22.667 0 0 1-8.32-10.183 22.782 22.782 0 0 1-1.285-13.109 22.72 22.72 0 0 1 6.182-11.617 22.558 22.558 0 0 1 11.566-6.21 22.497 22.497 0 0 1 13.051 1.292 22.611 22.611 0 0 1 10.138 8.356 22.76 22.76 0 0 1 3.807 12.605 22.764 22.764 0 0 1-6.623 16.037 22.563 22.563 0 0 1-15.966 6.652zm0-45.026a22.17 22.17 0 0 0-12.355 3.765 22.317 22.317 0 0 0-8.191 10.024A22.43 22.43 0 0 0 38.445 43a22.368 22.368 0 0 0 6.087 11.438 22.21 22.21 0 0 0 11.387 6.113c4.313.862 8.785.42 12.849-1.271a22.26 22.26 0 0 0 9.98-8.228 22.407 22.407 0 0 0 3.748-12.41 22.409 22.409 0 0 0-6.524-15.78 22.21 22.21 0 0 0-15.715-6.545v-.012z" fill="#37474F"/><path d="M50.67 61.89c-4.467 0-8.835-1.331-12.55-3.824a22.668 22.668 0 0 1-8.319-10.183 22.782 22.782 0 0 1-1.285-13.109 22.72 22.72 0 0 1 6.182-11.617 22.558 22.558 0 0 1 11.566-6.21 22.497 22.497 0 0 1 13.05 1.292 22.61 22.61 0 0 1 10.138 8.356 22.76 22.76 0 0 1 3.807 12.606 22.764 22.764 0 0 1-6.623 16.036 22.563 22.563 0 0 1-15.966 6.652zm0-45.027a22.17 22.17 0 0 0-12.355 3.765 22.317 22.317 0 0 0-8.19 10.024 22.429 22.429 0 0 0-1.266 12.906 22.368 22.368 0 0 0 6.086 11.438 22.209 22.209 0 0 0 11.387 6.113c4.314.862 8.785.42 12.849-1.271a22.26 22.26 0 0 0 9.98-8.227A22.408 22.408 0 0 0 72.91 39.2a22.412 22.412 0 0 0-6.52-15.788 22.214 22.214 0 0 0-15.719-6.55z" fill="#37474F"/><path d="M66.842 52.822c-4.468 0-8.835-1.33-12.55-3.823a22.667 22.667 0 0 1-8.32-10.183 22.782 22.782 0 0 1-1.285-13.109A22.72 22.72 0 0 1 50.87 14.09a22.558 22.558 0 0 1 11.566-6.21 22.496 22.496 0 0 1 13.051 1.292 22.611 22.611 0 0 1 10.138 8.356 22.76 22.76 0 0 1 3.807 12.606 22.76 22.76 0 0 1-6.623 16.037 22.56 22.56 0 0 1-15.966 6.651zm0-45.023a22.17 22.17 0 0 0-12.356 3.765 22.317 22.317 0 0 0-8.19 10.025 22.43 22.43 0 0 0-1.266 12.907 22.368 22.368 0 0 0 6.088 11.437 22.209 22.209 0 0 0 11.387 6.112c4.314.862 8.786.42 12.85-1.272a22.26 22.26 0 0 0 9.98-8.229 22.408 22.408 0 0 0 3.746-12.41 22.412 22.412 0 0 0-6.522-15.786 22.214 22.214 0 0 0-15.717-6.549z" fill="#37474F"/><path d="M63.235 54.277c-4.468 0-8.835-1.331-12.55-3.824a22.667 22.667 0 0 1-8.32-10.183 22.782 22.782 0 0 1-1.285-13.11 22.72 22.72 0 0 1 6.183-11.617A22.558 22.558 0 0 1 58.83 9.335a22.496 22.496 0 0 1 13.051 1.292 22.61 22.61 0 0 1 10.137 8.358 22.76 22.76 0 0 1 3.806 12.606 22.764 22.764 0 0 1-6.625 16.034 22.563 22.563 0 0 1-15.964 6.652zm0-45.024a22.17 22.17 0 0 0-12.356 3.765 22.316 22.316 0 0 0-8.19 10.025 22.43 22.43 0 0 0-1.266 12.906 22.368 22.368 0 0 0 6.086 11.437 22.209 22.209 0 0 0 11.387 6.113c4.314.862 8.786.42 12.85-1.271a22.261 22.261 0 0 0 9.98-8.227 22.408 22.408 0 0 0 3.748-12.41 22.413 22.413 0 0 0-6.52-15.788 22.214 22.214 0 0 0-15.72-6.55z" fill="#37474F"/><path d="M63.235 52.538c-2.627 0-5.194-.782-7.378-2.247a13.326 13.326 0 0 1-4.89-5.986 13.393 13.393 0 0 1-.756-7.706 13.355 13.355 0 0 1 3.634-6.83 13.26 13.26 0 0 1 6.8-3.65 13.225 13.225 0 0 1 7.671.76 13.291 13.291 0 0 1 5.96 4.912 13.38 13.38 0 0 1 2.238 7.41 13.383 13.383 0 0 1-3.894 9.426 13.265 13.265 0 0 1-9.385 3.911zm0-26.324a12.89 12.89 0 0 0-7.183 2.189 12.974 12.974 0 0 0-4.762 5.828 13.04 13.04 0 0 0-.736 7.503 13.004 13.004 0 0 0 3.538 6.65 12.911 12.911 0 0 0 6.62 3.553c2.508.502 5.108.244 7.47-.739a12.942 12.942 0 0 0 5.803-4.783 13.028 13.028 0 0 0 2.179-7.215 13.031 13.031 0 0 0-3.791-9.178 12.916 12.916 0 0 0-9.138-3.808z" fill="#37474F"/><path d="M55.61 42.894c-2.374 0-4.695-.707-6.67-2.032a12.047 12.047 0 0 1-4.421-5.411 12.108 12.108 0 0 1-.683-6.967 12.074 12.074 0 0 1 3.285-6.174 11.988 11.988 0 0 1 6.147-3.3 11.955 11.955 0 0 1 6.936.686 12.016 12.016 0 0 1 5.387 4.441 12.096 12.096 0 0 1 2.024 6.7 12.097 12.097 0 0 1-3.52 8.522 11.99 11.99 0 0 1-8.485 3.535zm0-23.764c-2.305 0-4.558.688-6.474 1.974a11.695 11.695 0 0 0-4.292 5.255 11.754 11.754 0 0 0-.662 6.763c.45 2.27 1.56 4.356 3.19 5.993a11.64 11.64 0 0 0 5.968 3.203c2.261.451 4.604.22 6.734-.667a11.666 11.666 0 0 0 5.23-4.311 11.743 11.743 0 0 0-1.454-14.78 11.641 11.641 0 0 0-8.24-3.433v.003z" fill="#37474F"/><path d="M58.794 44.605a11.97 11.97 0 0 1-6.67-2.033A12.05 12.05 0 0 1 47.7 37.16a12.11 12.11 0 0 1-.683-6.968 12.077 12.077 0 0 1 3.286-6.175 11.992 11.992 0 0 1 6.149-3.301 11.959 11.959 0 0 1 6.937.686 12.02 12.02 0 0 1 5.39 4.442 12.099 12.099 0 0 1 2.023 6.701 12.1 12.1 0 0 1-3.52 8.525 11.993 11.993 0 0 1-8.488 3.536zm0-23.767c-2.306 0-4.56.686-6.477 1.973a11.699 11.699 0 0 0-4.294 5.256 11.757 11.757 0 0 0-.663 6.766 11.726 11.726 0 0 0 3.192 5.995 11.641 11.641 0 0 0 5.97 3.204 11.61 11.61 0 0 0 6.736-.668 11.67 11.67 0 0 0 5.23-4.314 11.744 11.744 0 0 0-1.455-14.781 11.64 11.64 0 0 0-8.239-3.431z" fill="#37474F"/><path d="M51.501 38.177c-2.374 0-4.695-.707-6.67-2.032a12.047 12.047 0 0 1-4.42-5.411 12.108 12.108 0 0 1-.684-6.967 12.074 12.074 0 0 1 3.285-6.174 11.988 11.988 0 0 1 6.147-3.3 11.955 11.955 0 0 1 6.936.687 12.016 12.016 0 0 1 5.387 4.44 12.096 12.096 0 0 1 2.024 6.7 12.1 12.1 0 0 1-3.52 8.521 11.993 11.993 0 0 1-8.485 3.536zm0-23.767c-2.306 0-4.56.687-6.477 1.973a11.698 11.698 0 0 0-4.294 5.256 11.757 11.757 0 0 0-.663 6.765 11.725 11.725 0 0 0 3.19 5.995 11.642 11.642 0 0 0 5.97 3.205 11.61 11.61 0 0 0 6.735-.666 11.669 11.669 0 0 0 5.232-4.313 11.746 11.746 0 0 0 1.965-6.506 11.748 11.748 0 0 0-3.418-8.276 11.645 11.645 0 0 0-8.24-3.433z" fill="#37474F"/><path d="M56.279 38.391c-2.25 0-4.449-.669-6.32-1.924a11.412 11.412 0 0 1-4.189-5.126 11.47 11.47 0 0 1-.648-6.6 11.438 11.438 0 0 1 3.113-5.849 11.356 11.356 0 0 1 5.823-3.126 11.325 11.325 0 0 1 6.571.65 11.383 11.383 0 0 1 5.104 4.209 11.458 11.458 0 0 1 1.915 6.347 11.46 11.46 0 0 1-3.334 8.07 11.359 11.359 0 0 1-8.035 3.349zm0-22.49a10.988 10.988 0 0 0-6.127 1.86 11.06 11.06 0 0 0-4.065 4.966 11.117 11.117 0 0 0-.632 6.397 11.086 11.086 0 0 0 3.014 5.672 11.006 11.006 0 0 0 5.643 3.033c2.138.428 4.355.21 6.37-.628a11.033 11.033 0 0 0 4.949-4.077 11.106 11.106 0 0 0 1.858-6.152 11.108 11.108 0 0 0-3.228-7.82A11.01 11.01 0 0 0 56.28 15.9z" fill="#37474F"/><path d="M68.077 40.016c-2.626 0-5.193-.783-7.377-2.25a13.325 13.325 0 0 1-4.89-5.985 13.392 13.392 0 0 1-.754-7.706 13.356 13.356 0 0 1 3.635-6.829 13.26 13.26 0 0 1 6.8-3.65 13.224 13.224 0 0 1 7.671.76c2.426 1.01 4.5 2.72 5.96 4.913a13.38 13.38 0 0 1 2.237 7.41 13.383 13.383 0 0 1-3.895 9.427 13.265 13.265 0 0 1-9.387 3.91zm0-26.324c-2.557 0-5.057.763-7.182 2.19a12.974 12.974 0 0 0-4.761 5.829 13.04 13.04 0 0 0-.734 7.503c.499 2.519 1.73 4.833 3.539 6.648a12.912 12.912 0 0 0 6.62 3.554c2.508.5 5.107.243 7.47-.74a12.942 12.942 0 0 0 5.801-4.783 13.028 13.028 0 0 0 2.18-7.215 13.03 13.03 0 0 0-3.793-9.179 12.916 12.916 0 0 0-9.14-3.807z" fill="#37474F"/><path d="M58.794 49.66c-4.467 0-8.835-1.33-12.55-3.823a22.668 22.668 0 0 1-8.32-10.183 22.782 22.782 0 0 1-1.285-13.109 22.72 22.72 0 0 1 6.183-11.617 22.558 22.558 0 0 1 11.566-6.21 22.496 22.496 0 0 1 13.05 1.292 22.61 22.61 0 0 1 10.138 8.357 22.76 22.76 0 0 1 3.807 12.605 22.765 22.765 0 0 1-6.623 16.036 22.563 22.563 0 0 1-15.966 6.652zm0-45.026A22.17 22.17 0 0 0 46.44 8.4a22.317 22.317 0 0 0-8.19 10.026 22.43 22.43 0 0 0-1.264 12.905 22.368 22.368 0 0 0 6.087 11.437A22.209 22.209 0 0 0 54.46 48.88c4.314.862 8.785.42 12.849-1.271a22.26 22.26 0 0 0 9.98-8.227 22.408 22.408 0 0 0 3.748-12.41 22.412 22.412 0 0 0-6.522-15.79 22.214 22.214 0 0 0-15.72-6.548z" fill="#37474F"/><path d="M50.67 52.822c-4.467 0-8.835-1.33-12.55-3.823a22.667 22.667 0 0 1-8.319-10.183 22.782 22.782 0 0 1-1.285-13.109 22.72 22.72 0 0 1 6.182-11.617 22.558 22.558 0 0 1 11.566-6.21 22.497 22.497 0 0 1 13.05 1.292 22.611 22.611 0 0 1 10.138 8.356 22.76 22.76 0 0 1 3.807 12.606 22.609 22.609 0 0 1-1.674 8.709 22.53 22.53 0 0 1-4.892 7.384 22.414 22.414 0 0 1-7.352 4.914 22.337 22.337 0 0 1-8.67 1.681zm0-45.023a22.191 22.191 0 0 0-15.557 6.634 22.388 22.388 0 0 0-6.422 15.702c0 5.88 2.308 11.521 6.422 15.702a22.192 22.192 0 0 0 15.557 6.634 22.154 22.154 0 0 0 8.59-1.625 22.23 22.23 0 0 0 7.304-4.824 22.344 22.344 0 0 0 4.888-7.278 22.424 22.424 0 0 0 0-17.217 22.344 22.344 0 0 0-4.888-7.279 22.23 22.23 0 0 0-7.303-4.824 22.153 22.153 0 0 0-8.59-1.625z" fill="#37474F"/><path d="M90.596 40.187c1.34-.186 2.564-1.261 3.345-3.183 1.56-3.846.77-9.62-1.767-12.9-1.265-1.641-2.737-2.344-4.072-2.16l-28.937 3.995c-1.341.187-2.56 1.262-3.345 3.183-1.56 3.847-.77 9.62 1.767 12.901 1.268 1.64 2.737 2.343 4.072 2.16l28.937-3.996z" fill="#6B6BC7"/><path opacity=".1" d="m76.124 32.694-13.437 7.52-.304-10.493-5.17-2.75a6.338 6.338 0 0 0-1.378 2.16c-1.56 3.847-.77 9.62 1.767 12.901 1.268 1.64 2.737 2.344 4.072 2.16l27.27-3.767-12.82-7.731z" fill="#000"/><path opacity=".2" d="M59.107 26.727c2.224-.577 15.676-2.945 23.587-4.035l-23.529 3.247c-1.341.186-2.56 1.262-3.345 3.183-1.007 2.487-1.028 5.777-.238 8.68-.836-5.044 1.308-10.488 3.525-11.075z" fill="#fff"/><path d="M92.171 24.103c-1.265-1.64-2.737-2.343-4.072-2.16-1.335.184-2.561 1.262-3.346 3.184-1.56 3.846-.77 9.623 1.764 12.9 1.269 1.641 2.737 2.347 4.073 2.16 1.335-.186 2.564-1.261 3.345-3.183 1.564-3.846.773-9.62-1.764-12.9z" fill="#6B6BC7"/><path opacity=".2" d="M92.171 24.103c-1.265-1.64-2.737-2.343-4.072-2.16-1.335.184-2.561 1.262-3.346 3.184-1.56 3.846-.77 9.623 1.764 12.9 1.269 1.641 2.737 2.347 4.073 2.16 1.335-.186 2.564-1.261 3.345-3.183 1.564-3.846.773-9.62-1.764-12.9z" fill="#000"/><path d="m31.354 31.108.581 17.09 14.444-9.05-.58-17.089-14.445 9.05z" fill="#455A64"/><path opacity=".05" d="M45.798 22.06 45.3 38.705l-13.364 9.491L46.38 39.15l-.58-17.09z" fill="#fff"/><path d="m45.798 22.06 15.025 8.04.58 17.09-15.024-8.041-.58-17.09z" fill="#37474F"/><path d="m31.935 48.197 15.025 8.04 14.444-9.048-15.025-8.04-14.444 9.048z" fill="#263238"/><path d="m43.185 54.023 16.47 9.55 32.939-19.1-16.47-9.552-32.939 19.102z" fill="#6B6BC7"/><path opacity=".5" d="m43.185 54.023 16.47 9.55 32.939-19.1-16.47-9.552-32.939 19.102z" fill="#fff"/><g opacity=".1" fill="#fff"><path d="m59.199 44.736 29.7 1.882 3.695-2.148-2.382-1.38-25.402-1.608-5.611 3.254zM47.291 51.64l-3.099 1.8 29.7 1.878 3.1-1.8-29.7-1.878zM69.001 39.054l-1.715.993 19.843 1.255-2.136-1.237-15.992-1.011zM66.675 59.503l5.614-3.256-28.361-1.793 6.989 4.05 15.758 1zM55.239 47.033l-1.716.993 29.7 1.879 1.716-.993-29.7-1.879z"/></g><path d="m43.185 54.023 16.47 9.55V74.87l-16.47-9.55V54.023z" fill="#6B6BC7"/><path opacity=".3" d="m43.185 54.023 16.47 9.55V74.87l-16.47-9.55V54.023z" fill="#fff"/><path d="M92.594 44.473V55.77l-32.939 19.1V63.573l32.939-19.1z" fill="#6B6BC7"/><path d="M92.594 44.473V55.77l-32.939 19.1V63.573l32.939-19.1z" fill="#fff" opacity=".15"/><path d="M44.697 45.766a14.23 14.23 0 0 0-4.352.232 20.267 20.267 0 0 0-3.346 1.142 14.531 14.531 0 0 0-7.031 7.384 14.62 14.62 0 0 0-.469 10.207 14.549 14.549 0 0 0 6.325 8.003 14.442 14.442 0 0 0 10.004 1.857 14.484 14.484 0 0 0 8.755-5.203 14.602 14.602 0 0 0 3.195-9.7 14.592 14.592 0 0 0-3.94-9.421 14.471 14.471 0 0 0-9.132-4.501h-.009z" fill="#6B6BC7"/><path opacity=".15" d="M48.338 70.025c2.789-1.562 1.536-4.809-2.972-6.04-4.507-1.231-9.374-.128-7.908 4.155-6.113-3.245-7.694-14.792-1.992-20.123a14.518 14.518 0 0 0-4.817 5.14 14.592 14.592 0 0 0-.272 13.692 14.526 14.526 0 0 0 4.61 5.328 14.421 14.421 0 0 0 13.537 1.64 14.482 14.482 0 0 0 5.74-4.073 14.568 14.568 0 0 0 3.152-6.309c-.75 2.322-3.768 6.382-9.078 6.59z" fill="#000"/><path opacity=".2" d="M55.449 59.946c-.402 1.027-1.393 1.876-2.482 1.833-1.649-.042-2.613-1.784-3.52-3.165-2.335-3.54-6.252-5.776-10.316-6.97a4.659 4.659 0 0 1-1.45-.612 1.404 1.404 0 0 1-.609-1.362 2.36 2.36 0 0 1 .934-1.296 8.622 8.622 0 0 1 3.41-1.041c3.04-.272 6.225.647 8.798 2.263 2.573 1.617 4.562 4.088 5.292 7.076.25 1.087.341 2.248-.057 3.274z" fill="#fff"/><path opacity=".2" d="M50.844 58.114c.18.593.507 1.13.949 1.564.262.272.592.469.955.57 3.756.917 1.706-8.07-1.12-5.929-.46.392-.77.932-.878 1.528a4.374 4.374 0 0 0 .094 2.267z" fill="#fff"/><path d="M111.211 43.615c-14.295 25.163-44.15 37.798-72.183 31.77-9.158-1.979-17.88-5.88-25.244-11.498a.835.835 0 0 1 .912-1.396 78.436 78.436 0 0 0 25.11 8.716c2.078.305 4.462.61 6.564.74a76.23 76.23 0 0 0 9.885.017c1.578-.088 3.345-.326 4.915-.473.812-.135 2.433-.394 3.25-.525 1.066-.147 3.736-.795 4.828-1.02 1.061-.288 2.11-.612 3.169-.902 1.536-.403 3.17-1.066 4.684-1.57 1.469-.596 3.13-1.24 4.562-1.91l2.978-1.435c1.94-1.048 3.886-2.096 5.733-3.309.787-.483 2.028-1.274 2.767-1.833.74-.559 1.999-1.375 2.698-1.949l2.616-2.071c.842-.724 1.66-1.482 2.503-2.215a89.234 89.234 0 0 0 9.194-9.858.64.64 0 0 1 1.059.712v.009z" fill="#37474F"/><path d="M83.071 119.694s-2.965-2.016-.709-4.976c.32-.419 8.054-8.419 8.054-8.419l-8.306-4.818-6.576 11.065-.407.681s-2.476 5.6 1.235 6.348c1.9.379 6.71.119 6.71.119z" fill="#FFA8A7"/><path d="M72.341 118.298c-.076.338-.048.69.079 1.011.152.434 2.254 2.09 2.795 2.796.541.705.608.992 1.217 1.961.681 1.072 1.052 2.395 4.06 3.452 3.008 1.057 5.073.706 6.43.122.48-.237.897-.586 1.216-1.017 0 0 .49-1.726-.459-2.111l-15.338-6.214z" fill="#263238"/><path d="M80.61 115.479c.394.041.779.144 1.141.305a.572.572 0 0 1 .408.464c.015.248-.076.489-.04.737.05.262.153.51.304.73a20.219 20.219 0 0 0 3.9 4.408c.982.871 1.955 1.833 2.013 3.229.036.889-1.098 2.068-4.948 2.163-1.965.049-4.94-1.302-5.819-2.545-.879-1.243-1.25-2.328-1.962-3.238-.711-.91-2.877-2.371-3.278-3.434a5.745 5.745 0 0 1 .465-2.386c.27-.791 1.293-1.97 1.493-2.474a1.414 1.414 0 0 1 1.235-.898l-.401.712c-1.004 2.065 1.104 4.454 1.256 4.399.207-.071.204-.789.255-.972.155-.531.48-.742.977-.935a6.733 6.733 0 0 1 2.342-.305c.22-.001.44.012.66.04z" fill="#455A64"/><path d="M83.427 127.515c-1.965.049-4.94-1.302-5.818-2.545-.29-.412-.555-.842-.794-1.286.067.076.13.159.189.22.133.134.267.266.407.394a4.364 4.364 0 0 0 1.901 1.115c.645.138 2.23.532 2.737-.104.304-.36.158-.941-.149-1.39a10.054 10.054 0 0 0-.526-.638 7.206 7.206 0 0 1 1.947-1.186c1.323-.482 1.435-.345 1.435-.345.232.259.504.477.806.648.297.162.624.259.961.284.122-.002.242-.019.36-.052.863.703 1.52 1.39 1.493 2.722-.067.886-1.102 2.065-4.949 2.163z" fill="#37474F"/><path d="M83.868 120.412c.28.3.48.666.584 1.063.003.166.023.331.06.492.204.486.825.18.937-.217.037-.134.049-.274.034-.412a18.359 18.359 0 0 1-3.041-3.623 3.028 3.028 0 0 1-.238-.449v-.016c.052.362.147.716.283 1.054.38.753.842 1.461 1.38 2.108zM74.534 116.282a3.541 3.541 0 0 1-.405-1.9c.044-.388.121-.771.231-1.146.265-.568.724-.657 1.174-.696l-.401.712c-.213.442-.192 1.622.043 2.275.233.734.616 1.41 1.125 1.986 1.387 1.647 1.682 2.426 3.13 3.794 1.447 1.369 2.752 1.833 2.676 2.139-.076.305-.608.611-1.925-.251-1.317-.861-3.042-3.018-3.775-4.17-.733-1.151-1.271-1.509-1.873-2.743z" fill="#37474F"/><path d="M81.28 123.299a.18.18 0 0 0 .11-.037c1.143-.837 1.897-1.151 3.49-1.096a.197.197 0 0 0 .206-.191.2.2 0 0 0-.052-.143.195.195 0 0 0-.138-.063c-1.685-.055-2.524.281-3.74 1.173a.203.203 0 0 0-.043.278.197.197 0 0 0 .167.079zM80.246 122.144a.199.199 0 0 0 .115-.036c1.25-.822 2.157-1.076 3.866-1.002a.205.205 0 0 0 .145-.051.195.195 0 0 0 .048-.063.196.196 0 0 0 .01-.154.204.204 0 0 0-.179-.136c-1.803-.103-2.798.196-4.124 1.07a.196.196 0 0 0-.089.129.206.206 0 0 0 .031.155.221.221 0 0 0 .177.088zM79.206 120.987a.26.26 0 0 0 .121-.031c1.354-.81 2.409-1.033 4.237-.916a.22.22 0 0 0 .24-.19.212.212 0 0 0-.055-.156.214.214 0 0 0-.149-.07c-1.925-.15-3.078.11-4.513.969a.195.195 0 0 0-.097.13.202.202 0 0 0 .03.16.226.226 0 0 0 .186.104zM78.162 119.832c.045 0 .089-.01.128-.031 1.46-.794 2.667-.986 4.61-.812a.229.229 0 0 0 .26-.19.225.225 0 0 0-.058-.162.213.213 0 0 0-.07-.052.21.21 0 0 0-.085-.021c-2.041-.192-3.346.024-4.9.871a.196.196 0 0 0-.113.133.203.203 0 0 0 .034.172.251.251 0 0 0 .195.092zM77.119 118.674a.27.27 0 0 0 .137-.028c1.563-.779 2.923-.944 4.985-.714a.245.245 0 0 0 .273-.19.235.235 0 0 0-.219-.247c-2.162-.239-3.631-.058-5.289.77a.203.203 0 0 0-.09.305.255.255 0 0 0 .203.104z" fill="#263238"/><path d="M76.754 109.518c.56 1.131 3.844 4.073 7.658 3.886 0 0 6.387-6.443 9.91-10.163 3.403-3.602 4.273-5.915 4.023-7.723-.249-1.809-1.216-3.843-5.31-6.877-4.833-3.59-11.816-7.787-11.816-7.787H66.924s-1.913 5.368.32 9.046c2.232 3.678 4.747 4.411 8.874 6.055 4.675 1.863 7.087 2.835 7.087 2.835s-.712.705-2.433 3.702c-1.363 2.346-4.018 7.026-4.018 7.026z" fill="#404077"/><path d="M83.126 88.895c-.177 2.767-2.13 5.673-4.523 6.61l4.608 3.294L74 95.133v-7.158l9.127.92zM83.211 98.799l3.364 1.271-4.453.213c.325-.522.689-1.018 1.089-1.484zM39.685 91.772c-.95-.44-1.825-.186-2.762.48-.937.666-1.606 1.943-1.28 3.681.325 1.738.672 2.661.1 4.179-.572 1.519-1.445 3.917-.334 6.18 1.11 2.264 2.983 2.869 4.145 3.175 1.162.305 2.737-.117 3.318-.767l-3.187-16.928z" fill="#263238"/><path d="M44.01 93.575c-.715-.8-2.175-1.381-3.185-1.659-1.01-.278-2.503-.266-3.528.852-1.216 1.33-1.237 2.707-.93 4.366.307 1.659.03 2.75-.581 4.539-.612 1.791-.46 4.726 1.864 6.294 2.324 1.567 4.216 1.289 5.222.736 1.007-.553 1.15-1.286.928-2.117-.222-.831-.928-1.873-1.08-3.07-.064-.501-.14-1.28.043-1.766.182-.486.833-.733.955-1.305a.378.378 0 0 0 0-.143c-.034-.165-.222-.239-.374-.306-.496-.217-.146-1.24-.092-1.67.086-.664.168-1.327.253-1.993.1-.763.407-1.991.505-2.758z" fill="#455A64"/><path d="M43.21 105.132a1.077 1.077 0 0 1-.532-.364 2.661 2.661 0 0 1-.42-1.081c-.886.01-1.77.081-2.646.213-.058.361.042.553.073 1.07a.816.816 0 0 1-.526.788 1.537 1.537 0 0 1-.913.101 3.012 3.012 0 0 1-2.083-1.528 4.67 4.67 0 0 1-.548-2.059c-.398 1.787-.067 4.308 2.023 5.716 2.32 1.564 4.215 1.289 5.222.736 1.007-.553 1.15-1.286.928-2.117a12.01 12.01 0 0 0-.578-1.475z" fill="#37474F"/><path d="M40.175 99.29a6.89 6.89 0 0 0-.472 2.961c.082 1.384.48 1.983-.049 2.19-.529.208-.626-.327-.708-1.879a7.461 7.461 0 0 1 .666-3.552c.34-.887.546-1.82.608-2.768a3.867 3.867 0 0 1 1.649-2.808 1.835 1.835 0 0 1 1.922-.088s.797.382.304.916c-.258-.452-1.016-.83-2.01-.168a3.283 3.283 0 0 0-1.372 2.646c.006.8-.189 1.5-.538 2.55z" fill="#37474F"/><path d="M39.511 104.157a.21.21 0 0 1-.212-.183.21.21 0 0 1 .158-.232c.994-.272 3.285-.401 3.595.091a.217.217 0 0 1 .038.165.21.21 0 0 1-.173.17.207.207 0 0 1-.218-.109c-.195-.165-1.959-.232-3.13.089l-.058.009zM42.754 102.892a.203.203 0 0 1-.102-.026.21.21 0 0 1-.078-.071c-.191-.165-1.956-.239-3.13.079a.228.228 0 0 1-.082.006.217.217 0 0 1-.14-.081.214.214 0 0 1 .04-.296.188.188 0 0 1 .073-.035c.995-.269 3.285-.391 3.595.101a.209.209 0 0 1-.064.305.199.199 0 0 1-.112.018zM42.957 101.765a.216.216 0 0 1-.113-.033.22.22 0 0 1-.078-.089c-.17-.19-1.913-.483-3.115-.306a.208.208 0 0 1-.082-.003.207.207 0 0 1-.155-.177.213.213 0 0 1 .18-.238c1.018-.141 3.306.027 3.552.556a.207.207 0 0 1-.1.281.189.189 0 0 1-.089.009z" fill="#263238"/><path d="M40.293 98.918c-.328.571-.304 1.194.2.855.506-.339 1.585.129 2.936.669 1.35.541 4.745 2.12 4.745 2.12l4.163-7.026c-3.561-.96-4.392-.687-8.355-1.763-1.776-.482-2.925.987-3.157 2.38-.23 1.393-.24 2.255-.532 2.765z" fill="#FFA8A7"/><path d="M62.557 80.854c-1.506 2.539-1.825 4.537-2.13 7.121-.337 2.875-1.122 8.582-1.122 8.582-2.558-.945-6.04-1.87-12.038-2.75 0 0-3.345 1.894-2.704 7.735 0 0 9.216 5.529 14.405 7.894 5.343 2.444 8.163 1.735 10.49-1.686 2.15-3.165 6.305-12.736 6.305-12.736 3.804-.242 10.453-7.35 9.179-14.166l-22.385.006z" fill="#404077"/><path d="M59.317 96.556c-.471 3.33-.352 5.594 0 7.58-2.01-2.319-1.155-7.983-1.155-7.983.42.138.812.275 1.155.403z" fill="#263238"/><path d="M86.611 57.637c5.542-.776 7.34 2.328 7.71 3.733.371 1.405.32 3.125-2.381 7.06L86.61 57.637z" fill="#F0F0F0"/><path d="M60.987 84.627a61.986 61.986 0 0 1 4.2-13.65c2.169-5.034 6.023-10.102 7.872-11.66 0 0 3.175-.455 7.96-1.307 4.783-.853 8.068-.349 9.823.965 1.755 1.314 2.85 3.263 2.351 6.033-.499 2.771-3.041 6.617-4.49 8.896-1.447 2.28-2.016 3.776-2.201 5.725-.14 1.464.14 2.307-.332 4.079-5.143 6.88-19.748 5.566-25.183.92z" fill="#FAFAFA"/><path d="M85.346 57.588v.306c2.315 0 4.152.458 5.31 1.322 1.907 1.427 2.656 3.36 2.23 5.728-.453 2.518-2.67 5.994-4.136 8.291l-.305.492c-1.469 2.313-2.056 3.846-2.25 5.862-.042.48-.056.961-.043 1.442a8.59 8.59 0 0 1-.264 2.527c-2.224 2.93-6.57 4.61-11.941 4.61-4.967 0-9.891-1.44-12.613-3.666a61.696 61.696 0 0 1 4.13-13.399c2.13-4.973 5.885-9.9 7.716-11.486.554-.083 3.59-.532 7.88-1.296 1.41-.264 2.84-.404 4.274-.418v-.306m0 0c-1.452.014-2.9.155-4.328.422-4.784.852-7.96 1.307-7.96 1.307-1.849 1.558-5.702 6.626-7.87 11.66a61.988 61.988 0 0 0-4.201 13.65c2.765 2.365 7.908 3.865 12.953 3.865 4.888 0 9.703-1.403 12.23-4.784.472-1.772.192-2.615.332-4.079.185-1.949.754-3.446 2.202-5.725 1.448-2.278 3.99-6.11 4.489-8.895.499-2.786-.593-4.723-2.351-6.034-1.165-.87-2.999-1.387-5.496-1.387z" fill="#E0E0E0"/><path d="M80.477 60.396H79.15c.949 2.389 2.828 5.822 6.326 8.034l.24-1.048c-1.228-.874-3.306-2.612-5.24-6.986zM88.014 60.396c.304 3.482-.505 6.384-.873 6.873l.374 1.191c.72-1.05 1.572-4.331 1.174-8.064h-.675zM87.04 69.472s1.57 12.476 1.621 13.698c.052 1.222-1.904 4.167-2.165 4.31-.262.144-1.931-2.767-1.938-3.736-.006-.968 1.457-14.303 1.457-14.303l1.025.03z" fill="#6B6BC7"/><path d="M87.14 67.27a2.671 2.671 0 0 0-1.438.112c-.277.48-.383 1.222-.18 1.589.204.366.609.916 1.083.895.475-.022.913-.63.98-1.222.082-.645-.444-1.375-.444-1.375z" fill="#6B6BC7"/><path opacity=".2" d="M87.14 67.27a2.671 2.671 0 0 0-1.438.112c-.277.48-.383 1.222-.18 1.589.204.366.609.916 1.083.895.475-.022.913-.63.98-1.222.082-.645-.444-1.375-.444-1.375z" fill="#fff"/><path d="M81.106 43.505c-2.159 2.093-1.727 4.784-1.216 7.494.608 3.088.566 4.072 2.232 4.967.365-9.522 2.46 2.35 10.621-4.424 1.475-1.221 1.889-5.343.377-7.347-2.144-2.828-7.804-4.622-12.014-.69z" fill="#37474F"/><path d="M79.86 53.999c1.332.687 2.034-.217 2.034-.217l-1.5 3.43s-.942 2.123.743 3.333c4.675 3.36 3.461 4.512 5.01 6.086.607-.663.796-3.84.951-4.671l1.347-3.309c.559.065 1.121.084 1.682.058 1.33-.08 2.15-.959 2.674-2.346.845-2.227 1.019-5.676.56-10.2-1.36-1.283-6.153-1.916-9.429-.248-.097 2.63-.84 2.997-.928 4.127-.1 1.268-.21 1.55-.608 1.69-.398.14-.697-.48-.824-.868-.213-.647-.408-1.069-1.01-1.274-.602-.204-1.299-.155-1.928.633-.967 1.225.255 3.278 1.225 3.776z" fill="#FFA8A7"/><path d="M88.445 58.651c-1.55-.201-3.667-1.197-4.483-2.096-.815-.898-1.262-2.553-1.262-2.553a5.084 5.084 0 0 0 .888 3.085c1.037 1.497 4.447 2.566 4.447 2.566l.41-1.002zM87.998 47.29c-.042 0-.091.028-.091.067 0 .04.04.058.073.074.054.03.106.065.155.103a.44.44 0 0 1 .125.135c.02.04.032.082.036.125.013.073.02.146.022.22 0 .061.051.1.11.052a.168.168 0 0 0 .045-.073.537.537 0 0 0 .04-.257.504.504 0 0 0-.233-.365.519.519 0 0 0-.282-.081zm2.385.073a.139.139 0 0 0-.041-.133.137.137 0 0 0-.136-.029.609.609 0 0 0-.325.4.665.665 0 0 0 .137.691c.027.024.07.046.1.024.03-.02 0-.305.015-.388a.71.71 0 0 1 .092-.305c.064-.079.117-.166.158-.26zm-1.302-.55a.043.043 0 0 0-.038-.003.042.042 0 0 0-.026.028.188.188 0 0 0 .037.168 1.472 1.472 0 0 1 .146.593c.005.127-.002.255-.022.381-.018.12-.051.236-.07.355 0 0 0 .046.025.03a.894.894 0 0 0 .25-.727 1.535 1.535 0 0 0-.07-.433.746.746 0 0 0-.232-.392z" fill="#F28F8F"/><path d="m85.757 48.393 1.402-.56a.8.8 0 0 1-.438 1.012.733.733 0 0 1-.964-.452zM91.207 47.828l1.372.663a.733.733 0 0 1-.706.448.726.726 0 0 1-.285-.073.806.806 0 0 1-.38-1.038z" fill="#37474F"/><path d="m88.987 48.952.155 3.72 2.102-.305c-.332-1.106-1.42-2.877-2.257-3.415z" fill="#F28F8F"/><path d="M87.47 53.788a.774.774 0 0 0-.256.22c-.204.287.042.458.304.507.3.052.588.16.848.32a.71.71 0 0 0 .393.163.367.367 0 0 0 .24-.123.405.405 0 0 0 .06-.253 1.032 1.032 0 0 0-.571-.856 1.149 1.149 0 0 0-1.019.022z" fill="#B16668"/><path d="M88.375 54.836c.062.04.126.078.192.113a1.316 1.316 0 0 0-1.177-1.106.698.698 0 0 0-.176.165c-.204.287.042.458.304.507.303.05.594.16.857.32z" fill="#F28F8F"/><path d="M87.734 50.41a.66.66 0 0 1-.402.608.65.65 0 0 1-.894-.478.66.66 0 0 1 .645-.785.65.65 0 0 1 .65.654zM92.378 50.314a.66.66 0 0 1-.402.61.65.65 0 0 1-.893-.477.66.66 0 0 1 .278-.675.652.652 0 0 1 1.017.542z" fill="#263238"/><path d="M86.125 66.628c-.782-1.051-.846-4.036-1.442-4.583-.596-.547-4.103-3.104-4.316-4.756l.5-1.152c-.424-.238-1.13 1.13-2.924 2.499 0 0-.343 1.698.782 3.754 1.33 2.426 2.591 3.306 2.591 3.306s2.035-2.245 2.345-2.313c.31-.067 1.463 2.81 2.464 3.245zM86.125 66.628c.523-.767.712-4.097.879-4.525.347-.9 1.344-3.226 1.344-3.226.126.116.238.246.335.388 1.368 2.105 1.095 4.962.608 5.805-.365-.975-1.317-2.27-1.52-2.041-.204.23-.828 3.269-1.646 3.599z" fill="#F0F0F0"/><path d="M52.565 77.778c3.395-2.013 8.249-4.857 8.249-4.857s7.886-2.854 9.63-4.2c2.24-1.74 4.376-4.962 2.356-8.426-2.244-.917-3.473.354-8.58 3.11-4.784 2.587-5.985 3.024-8.03 4.814-2.043 1.79-6.03 5.994-7.122 6.626-1.004.584-2.345.284-3.3.254-.955-.03-1.746.443-2.522.229-.775-.214-1.216-1.454-1.825-2.004-.608-.55-1.06-.678-1.365-.458-.304.22.955 2.321.955 2.321s-1.542-1.63-2.09-1.958c-.547-.327-1.189-.07-1.177.232.013.303 2.57 2.909 2.923 3.324.353.416 1.232.776 2.476 1.136 1.244.361 3.394.975 4.726 1.045 1.333.07 2.537.095 4.696-1.188z" fill="#FFA8A7"/><path d="M41.023 75.187c.38.633.715 1.268 1.217 1.528.502.26 1.076.534 1.076.534a8.883 8.883 0 0 1-1.557-.592c-.322-.232-.736-1.47-.736-1.47z" fill="#F28F8F"/><path d="m60.884 73.04 10.684-4.14c1.89-1.527 3.47-6.277 1.49-9.583-3.217 0-3.856.917-7.865 3.135-2.752 1.527-6.01 3.247-6.01 3.247-1.7.816-3.804 2.927-5.261 4.35-1.457 1.424-2.914 2.99-2.914 2.99s-.362 1.116.852 2.445a3.914 3.914 0 0 0 2.67 1.34l6.354-3.784zM12.802 15.88l-2.017 5.69L0 11.283 12.619 31.59l2.035-6.018 9.459 11.132-11.311-20.826zM11.004 74.09l2.527 4.04-11.624 1.692 18.602 1.597-2.449-3.931 11.333-.263-18.389-3.134zM99.495 4.91l2.159 3.94L108.355 0l-6.798 16.13-2.226-3.73-5.67 9.161L99.495 4.91zM112.64 64.346l-1.058 4.991L124 67.694l-18.589 6.882.867-3.925-12.215 2.548 18.577-8.853z" fill="#F0F0F0"/><path d="M62.654 36.708c9.036-.462 12.72 2.254 13.41 5.688a6.287 6.287 0 0 1-.67 4.332l1.786 2.007-3.607-.254c-1.067.578-2.21 1-3.394 1.253-4.198.672-11.029.663-14.42-2.139a6.102 6.102 0 0 1-1.296-1.457c-1.353-2.147-2.077-8.905 8.19-9.43z" fill="#fff"/><path d="M60.756 41.486a.146.146 0 0 1 .143.143v3.452a.138.138 0 0 1-.043.101.137.137 0 0 1-.1.043h-.429a.149.149 0 0 1-.103-.043.15.15 0 0 1-.043-.1V43.67h-1.606v1.411a.14.14 0 0 1-.042.101.137.137 0 0 1-.1.043H58a.148.148 0 0 1-.1-.04.139.139 0 0 1-.043-.104V41.63a.138.138 0 0 1 .042-.1.126.126 0 0 1 .1-.043h.432a.146.146 0 0 1 .143.143v1.372h1.606v-1.372a.147.147 0 0 1 .146-.143h.43zM64.208 44.556c.039 0 .076.015.104.043a.15.15 0 0 1 .042.1v.382a.15.15 0 0 1-.042.101.148.148 0 0 1-.104.043h-2.336a.146.146 0 0 1-.142-.144V41.63a.136.136 0 0 1 .042-.1.137.137 0 0 1 .1-.043h2.294a.128.128 0 0 1 .1.042.132.132 0 0 1 .046.101v.379a.131.131 0 0 1-.046.1.129.129 0 0 1-.1.044h-1.719V43h1.603a.136.136 0 0 1 .1.043.15.15 0 0 1 .043.1v.382a.147.147 0 0 1-.143.144h-1.603v.886h1.761zM67.487 44.556c.038 0 .074.016.1.043a.15.15 0 0 1 .043.1v.382a.15.15 0 0 1-.043.101.143.143 0 0 1-.1.043H65.16a.148.148 0 0 1-.103-.043.15.15 0 0 1-.043-.1v-3.453a.147.147 0 0 1 .146-.143h.43a.128.128 0 0 1 .1.042.132.132 0 0 1 .045.101v2.927h1.752zM69.722 41.486c.359-.022.713.086.998.305a1.295 1.295 0 0 1 0 1.79c-.284.221-.64.33-.998.306h-.851v1.191a.15.15 0 0 1-.043.101.143.143 0 0 1-.1.043h-.432a.139.139 0 0 1-.1-.043.138.138 0 0 1-.043-.1v-3.453a.147.147 0 0 1 .143-.143l1.426.003zm-.851 1.735h.824a.874.874 0 0 0 .484-.12.468.468 0 0 0 .182-.42.45.45 0 0 0-.182-.413.91.91 0 0 0-.484-.116h-.824v1.069zM72.177 44.464a.146.146 0 0 1 .143.147v.47a.137.137 0 0 1-.043.101.136.136 0 0 1-.1.043h-.456a.149.149 0 0 1-.104-.043.147.147 0 0 1-.04-.1v-.471c0-.039.014-.076.04-.104a.149.149 0 0 1 .104-.043h.456zm.118-.464a.15.15 0 0 1-.042.104.146.146 0 0 1-.103.04h-.405a.146.146 0 0 1-.1-.04.15.15 0 0 1-.043-.104v-2.37a.136.136 0 0 1 .043-.102.137.137 0 0 1 .1-.042h.41a.146.146 0 0 1 .147.143L72.294 44z" fill="#455A64"/></svg>