<svg width="24" height="24" viewBox="0 0 24 24" fill="none" xmlns="http://www.w3.org/2000/svg">
<path fill-rule="evenodd" clip-rule="evenodd" d="M12 2C6.477 2 2 6.477 2 12C2 17.523 6.477 22 12 22C17.523 22 22 17.523 22 12C22 6.477 17.523 2 12 2ZM4 12C4 14.1217 4.84285 16.1566 6.34315 17.6569C7.84344 19.1571 9.87827 20 12 20C14.1217 20 16.1566 19.1571 17.6569 17.6569C19.1571 16.1566 20 14.1217 20 12C20 9.87827 19.1571 7.84344 17.6569 6.34315C16.1566 4.84285 14.1217 4 12 4C9.87827 4 7.84344 4.84285 6.34315 6.34315C4.84285 7.84344 4 9.87827 4 12Z" fill="#272766"/>
<path d="M11 10.9798C11 10.7146 11.1054 10.4602 11.2929 10.2727C11.4804 10.0851 11.7348 9.97978 12 9.97978C12.2652 9.97978 12.5196 10.0851 12.7071 10.2727C12.8946 10.4602 13 10.7146 13 10.9798V16.9798C13 17.245 12.8946 17.4994 12.7071 17.6869C12.5196 17.8744 12.2652 17.9798 12 17.9798C11.7348 17.9798 11.4804 17.8744 11.2929 17.6869C11.1054 17.4994 11 17.245 11 16.9798V10.9798ZM12 6.05078C11.7348 6.05078 11.4804 6.15614 11.2929 6.34367C11.1054 6.53121 11 6.78556 11 7.05078C11 7.316 11.1054 7.57035 11.2929 7.75789C11.4804 7.94542 11.7348 8.05078 12 8.05078C12.2652 8.05078 12.5196 7.94542 12.7071 7.75789C12.8946 7.57035 13 7.316 13 7.05078C13 6.78556 12.8946 6.53121 12.7071 6.34367C12.5196 6.15614 12.2652 6.05078 12 6.05078Z" fill="#272766"/>
</svg>
