<svg width="50" height="50" viewBox="0 0 50 50" fill="none" xmlns="http://www.w3.org/2000/svg">
<g id="&#240;&#159;&#166;&#134; icon &#34;arrow up&#34;">
<path id="Vector" d="M25 0C11.2 0 0 11.2 0 25C0 38.8 11.2 50 25 50C38.8 50 50 38.8 50 25C50 11.2 38.8 0 25 0ZM33.825 25.075C33.45 25.45 32.975 25.625 32.5 25.625C32.025 25.625 31.55 25.45 31.175 25.075L26.875 20.775V33.75C26.875 34.775 26.025 35.625 25 35.625C23.975 35.625 23.125 34.775 23.125 33.75V20.775L18.825 25.075C18.1 25.8 16.9 25.8 16.175 25.075C15.45 24.35 15.45 23.15 16.175 22.425L23.675 14.925C24.4 14.2 25.6 14.2 26.325 14.925L33.825 22.425C34.55 23.15 34.55 24.35 33.825 25.075Z" fill="#6B6BC7"/>
</g>
</svg>
