<svg width="30" height="28" viewBox="0 0 30 28" fill="none" xmlns="http://www.w3.org/2000/svg">
<path d="M14.9995 22.25C16.8745 22.25 18.4685 21.5935 19.7815 20.2805C21.0945 18.9675 21.7505 17.374 21.7495 15.5C21.7495 13.625 21.093 12.031 19.78 10.718C18.467 9.405 16.8735 8.749 14.9995 8.75C13.1245 8.75 11.5305 9.4065 10.2175 10.7195C8.90452 12.0325 8.24852 13.626 8.24952 15.5C8.24952 17.375 8.90602 18.969 10.219 20.282C11.532 21.595 13.1255 22.251 14.9995 22.25ZM14.9995 19.25C13.9495 19.25 13.062 18.8875 12.337 18.1625C11.612 17.4375 11.2495 16.55 11.2495 15.5C11.2495 14.45 11.612 13.5625 12.337 12.8375C13.062 12.1125 13.9495 11.75 14.9995 11.75C16.0495 11.75 16.937 12.1125 17.662 12.8375C18.387 13.5625 18.7495 14.45 18.7495 15.5C18.7495 16.55 18.387 17.4375 17.662 18.1625C16.937 18.8875 16.0495 19.25 14.9995 19.25ZM2.99951 27.5C2.17451 27.5 1.46801 27.206 0.880014 26.618C0.292014 26.03 -0.00148573 25.324 -0.000485735 24.5V6.5C-0.000485735 5.675 0.293514 4.9685 0.881514 4.3805C1.46951 3.7925 2.17551 3.499 2.99951 3.5H7.72452L10.4995 0.5H19.4995L22.2745 3.5H26.9995C27.8245 3.5 28.531 3.794 29.119 4.382C29.707 4.97 30.0005 5.676 29.9995 6.5V24.5C29.9995 25.325 29.7055 26.0315 29.1175 26.6195C28.5295 27.2075 27.8235 27.501 26.9995 27.5H2.99951ZM26.9995 24.5V6.5H20.9245L18.187 3.5H11.812L9.07452 6.5H2.99951V24.5H26.9995Z" fill="#FEFEFE"/>
</svg>
