<svg width="412" height="358" viewBox="0 0 412 358" fill="none" xmlns="http://www.w3.org/2000/svg">
<path d="M60.3299 326.965C140.783 368.344 271.182 368.344 351.653 326.965C432.124 285.586 432.107 218.491 351.653 177.103C271.2 135.715 140.801 135.724 60.3299 177.103C-20.1411 218.482 -20.0788 285.586 60.3299 326.965Z" fill="#F5F5F5"/>
<path d="M345.141 216.115C345.238 210.585 351.021 196.124 356.884 189.036C362.747 181.948 371.849 176.864 378.236 179.17C384.171 181.316 383.388 189.134 376.057 194.201C368.726 199.267 357.729 205.599 354.393 214.512L347.525 225.411L345.141 216.115Z" fill="#6B6BC7"/>
<path opacity="0.1" d="M345.141 216.115C345.238 210.585 351.021 196.124 356.884 189.036C362.747 181.948 371.849 176.864 378.236 179.17C384.171 181.316 383.388 189.134 376.057 194.201C368.726 199.267 357.729 205.599 354.393 214.512L347.525 225.411L345.141 216.115Z" fill="black"/>
<path d="M346.192 220.603C346.278 220.597 346.36 220.564 346.426 220.508C346.491 220.452 346.537 220.376 346.556 220.291C350.587 201.467 366.129 186.383 375.311 183.151C375.361 183.134 375.408 183.107 375.448 183.072C375.488 183.036 375.521 182.993 375.544 182.945C375.567 182.897 375.58 182.845 375.583 182.791C375.586 182.738 375.578 182.685 375.56 182.634C375.542 182.585 375.514 182.539 375.479 182.5C375.443 182.46 375.4 182.429 375.352 182.406C375.304 182.384 375.252 182.371 375.199 182.369C375.146 182.367 375.093 182.376 375.044 182.394C365.675 185.689 349.857 201.013 345.764 220.122C345.746 220.227 345.767 220.335 345.825 220.424C345.883 220.514 345.973 220.578 346.076 220.603H346.192Z" fill="white"/>
<path d="M348.79 232.74C349.733 229.65 353.621 224.583 359.831 220.451C366.699 215.883 375.329 213.88 377.375 210.256C379.831 205.919 376.21 201.708 369.226 202.456C362.242 203.204 349.804 212.509 347.598 226.818L348.79 232.74Z" fill="#6B6BC7"/>
<path d="M347.5 229.453C347.577 229.448 347.652 229.42 347.715 229.375C347.777 229.329 347.826 229.267 347.856 229.195C353.923 213.123 366.352 207.655 372.073 207.014C372.125 207.009 372.177 206.993 372.223 206.967C372.27 206.942 372.311 206.907 372.344 206.866C372.377 206.825 372.401 206.777 372.416 206.726C372.43 206.675 372.435 206.622 372.429 206.569C372.424 206.516 372.409 206.464 372.384 206.417C372.359 206.37 372.325 206.328 372.283 206.295C372.241 206.261 372.193 206.237 372.142 206.223C372.09 206.209 372.037 206.205 371.984 206.213C365.658 206.916 353.301 212.499 347.073 228.91C347.035 229.009 347.039 229.12 347.082 229.216C347.125 229.313 347.205 229.389 347.304 229.427C347.364 229.459 347.434 229.468 347.5 229.453Z" fill="white"/>
<path d="M75.2508 268.418L81.9856 264.562C81.9856 264.562 85.2151 246.753 82.8041 231.437C79.4056 209.907 64.7615 202.48 59.4413 204.626C54.121 206.772 52.8666 213.139 62.4751 225.578C68.1423 232.925 75.4376 248.445 75.2508 268.418Z" fill="#6B6BC7"/>
<g opacity="0.1">
<path d="M75.2508 268.418L81.9856 264.562C81.9856 264.562 85.2151 246.753 82.8041 231.438C79.4056 209.907 64.7615 202.48 59.4413 204.626C54.121 206.772 52.8666 213.139 62.4751 225.579C68.1423 232.925 75.4376 248.445 75.2508 268.418Z" fill="black"/>
</g>
<path d="M77.6872 259.87H77.6249C77.5619 259.863 77.5011 259.842 77.4461 259.811C77.3911 259.779 77.343 259.737 77.3048 259.686C77.2666 259.635 77.239 259.577 77.2237 259.516C77.2084 259.454 77.2057 259.39 77.2157 259.327C80.0004 239.176 71.8777 217.093 62.803 208.189C62.7578 208.145 62.7219 208.092 62.6973 208.034C62.6728 207.976 62.6602 207.914 62.6602 207.85C62.6602 207.787 62.6728 207.725 62.6973 207.667C62.7219 207.609 62.7578 207.556 62.803 207.512C62.8929 207.423 63.0144 207.373 63.1411 207.373C63.2677 207.373 63.3892 207.423 63.4791 207.512C72.7495 216.577 80.9968 239.016 78.1765 259.47C78.1555 259.583 78.0948 259.686 78.0052 259.76C77.9156 259.833 77.803 259.872 77.6872 259.87Z" fill="white"/>
<path d="M56.5678 279.219C55.509 279.833 53.3116 278.497 52.4753 277.927C51.0345 276.948 49.8702 275.614 49.0945 274.054C48.2118 272.284 47.9009 270.283 48.2048 268.328C48.3734 267.301 48.6142 266.286 48.9255 265.292L49.8151 262.336C50.1585 261.384 50.3038 260.372 50.2422 259.362C49.9842 257.34 48.1959 255.925 46.5678 254.705C44.7885 253.351 42.8935 251.57 42.9024 249.139C43.0353 247.255 43.7858 245.468 45.0376 244.055C46.2031 242.586 47.5821 241.286 48.5963 239.727C49.4318 238.658 49.8775 237.336 49.8596 235.979C49.7518 235.144 49.4732 234.341 49.0411 233.619C48.052 232.114 47.189 230.529 46.4611 228.882C45.865 227.181 45.954 225.071 47.2796 223.851C47.8725 223.408 48.5476 223.088 49.2656 222.909C49.9835 222.73 50.7299 222.696 51.461 222.809C52.8377 222.981 54.161 223.448 55.34 224.18C59.2012 226.326 61.3987 230.894 65.4912 232.55C67.1169 233.054 68.7718 233.459 70.4467 233.761C71.2843 233.917 72.0801 234.247 72.7833 234.728C73.4865 235.209 74.0815 235.833 74.5303 236.557C76.0338 239.558 73.2402 243.262 74.299 246.45C75.1886 249.273 77.9733 250.35 79.5124 252.888C80.136 254.013 80.3882 255.306 80.2331 256.584C80.0959 258.739 79.5684 260.851 78.6761 262.817C77.6737 264.771 76.5288 266.649 75.2509 268.435C75.1886 268.48 56.7279 279.13 56.5678 279.219Z" fill="#6B6BC7"/>
<path d="M67.502 273.378C67.4389 273.376 67.3768 273.361 67.3194 273.335C67.262 273.308 67.2104 273.271 67.1674 273.225C67.1244 273.178 67.091 273.124 67.069 273.065C67.0471 273.006 67.037 272.943 67.0393 272.879C67.8312 253.806 58.8455 232.738 52.3153 226.621C52.2282 226.53 52.1797 226.408 52.1797 226.282C52.1797 226.156 52.2282 226.035 52.3153 225.944C52.4052 225.855 52.5267 225.805 52.6533 225.805C52.7799 225.805 52.9014 225.855 52.9914 225.944C59.6551 232.177 68.8187 253.601 68.018 272.951C68.0045 273.075 67.943 273.189 67.8467 273.269C67.7503 273.349 67.6267 273.388 67.502 273.378Z" fill="white"/>
<path d="M64.6468 250.85H64.5044C59.9881 249.603 55.3491 248.853 50.67 248.615C50.6069 248.613 50.5449 248.598 50.4875 248.572C50.43 248.546 50.3784 248.508 50.3354 248.462C50.2924 248.416 50.259 248.361 50.237 248.302C50.2151 248.243 50.205 248.18 50.2074 248.117C50.2085 248.053 50.2224 247.99 50.2483 247.932C50.2741 247.874 50.3115 247.822 50.358 247.779C50.4045 247.736 50.4593 247.702 50.519 247.681C50.5787 247.659 50.6422 247.65 50.7056 247.654C55.4685 247.903 60.1904 248.667 64.7891 249.933C64.8952 249.97 64.9851 250.043 65.0432 250.139C65.1012 250.235 65.1237 250.349 65.1068 250.46C65.0899 250.571 65.0346 250.673 64.9506 250.747C64.8665 250.822 64.759 250.865 64.6468 250.868V250.85Z" fill="white"/>
<path d="M58.9151 272.141L156.005 328.239C157.199 328.845 158.519 329.161 159.857 329.161C161.196 329.161 162.516 328.845 163.71 328.239L347.543 222C349.669 220.771 349.669 218.776 347.543 217.547L250.444 161.449C249.25 160.843 247.93 160.527 246.592 160.527C245.253 160.527 243.933 160.843 242.739 161.449L58.9151 267.688C56.7887 268.926 56.7887 270.912 58.9151 272.141Z" fill="#37474F"/>
<path d="M111.387 298.203C113.042 299.042 114.87 299.479 116.725 299.479C118.58 299.479 120.409 299.042 122.063 298.203C125.017 296.493 125.017 293.751 122.063 292.023C120.409 291.185 118.58 290.748 116.725 290.748C114.87 290.748 113.042 291.185 111.387 292.023C108.433 293.733 108.433 296.529 111.387 298.203Z" fill="#263238"/>
<path d="M156.005 328.247L58.9148 272.149C57.0109 271.054 56.8152 269.344 58.3098 268.116C57.3609 268.868 56.5812 269.811 56.0217 270.885C55.4621 271.959 55.1353 273.14 55.0625 274.349V277.973C55.1341 279.311 55.5204 280.613 56.1898 281.774C56.8592 282.934 57.7928 283.92 58.9148 284.651L156.005 340.749C157.193 341.368 158.518 341.674 159.857 341.64V329.165C158.516 329.191 157.19 328.875 156.005 328.247Z" fill="#455A64"/>
<path d="M347.541 234.529C348.662 233.796 349.595 232.81 350.264 231.65C350.933 230.49 351.32 229.188 351.393 227.85V224.226C351.318 223.017 350.99 221.836 350.429 220.762C349.868 219.689 349.087 218.745 348.137 217.993C349.641 219.222 349.445 220.932 347.541 222.036L163.708 328.248C162.521 328.869 161.194 329.175 159.855 329.138V341.676C161.194 341.713 162.521 341.406 163.708 340.785L347.541 234.529Z" fill="#263238"/>
<path d="M172.011 316.618L80.3749 263.654C79.0938 262.915 79.0938 261.722 80.3749 260.983L231.103 173.835C231.82 173.47 232.613 173.28 233.417 173.28C234.22 173.28 235.013 173.47 235.73 173.835L327.411 226.79C328.692 227.52 328.692 228.722 327.411 229.461L176.629 316.618C175.914 316.982 175.122 317.172 174.32 317.172C173.518 317.172 172.726 316.982 172.011 316.618Z" fill="#FAFAFA"/>
<path d="M148.174 245.356L202.382 276.673L168.165 296.449C167.567 296.748 166.907 296.904 166.239 296.904C165.57 296.904 164.911 296.748 164.313 296.449L113.957 267.35C113.725 267.271 113.523 267.121 113.38 266.921C113.237 266.722 113.16 266.482 113.16 266.237C113.16 265.991 113.237 265.752 113.38 265.552C113.523 265.352 113.725 265.202 113.957 265.124L148.174 245.356Z" fill="#E6E6E6"/>
<path d="M202.34 276.673L195.952 251.259C195.807 250.653 195.47 250.109 194.991 249.71C194.506 249.298 193.907 249.046 193.274 248.989L148.141 245.356L202.34 276.673Z" fill="#E0E0E0"/>
<path d="M202.341 276.673L153.827 274.669C153.246 274.646 152.692 274.416 152.265 274.021C151.838 273.626 151.565 273.092 151.496 272.514L148.133 245.347L202.341 276.673Z" fill="#E0E0E0"/>
<path d="M202.341 276.673L153.827 274.669C153.246 274.646 152.692 274.416 152.265 274.021C151.838 273.626 151.565 273.092 151.496 272.514L148.133 245.347L154.12 272.06C154.174 272.298 154.302 272.513 154.486 272.673C154.67 272.833 154.901 272.93 155.143 272.951L202.341 276.673Z" fill="#FAFAFA"/>
<path d="M159.012 274.59L166.245 297.563L168.166 296.45L159.012 274.59Z" fill="#FAFAFA"/>
<path d="M112.039 266.237L113.961 265.124L151.79 270.413L112.039 266.237Z" fill="#FAFAFA"/>
<path d="M179.012 233.931L222.134 258.864C222.731 259.166 223.391 259.324 224.06 259.324C224.73 259.324 225.39 259.166 225.987 258.864L287.187 223.513C287.42 223.434 287.622 223.284 287.764 223.085C287.907 222.885 287.984 222.645 287.984 222.4C287.984 222.154 287.907 221.915 287.764 221.715C287.622 221.516 287.42 221.366 287.187 221.287L244.065 196.354C243.468 196.052 242.808 195.894 242.139 195.894C241.469 195.894 240.81 196.052 240.213 196.354L179.012 231.705C178.779 231.784 178.578 231.934 178.435 232.133C178.292 232.333 178.215 232.572 178.215 232.818C178.215 233.064 178.292 233.303 178.435 233.503C178.578 233.702 178.779 233.852 179.012 233.931Z" fill="#E6E6E6"/>
<path d="M213.298 230.637C212.784 229.838 212.479 228.923 212.412 227.975C212.346 227.027 212.518 226.078 212.915 225.215C213.716 223.434 215.46 221.724 218.137 220.184C221.074 218.456 224.315 217.31 227.684 216.809C230.97 216.335 234.315 216.455 237.559 217.165C240.905 217.893 244.115 219.147 247.07 220.878C249.928 222.522 251.874 224.22 252.906 225.971C253.41 226.717 253.711 227.582 253.78 228.479C253.848 229.377 253.682 230.278 253.297 231.091C252.514 232.757 250.869 234.315 248.377 235.757C245.989 237.202 243.302 238.079 240.522 238.322C238.207 238.547 235.879 238.069 233.84 236.951C233.475 236.792 233.147 236.557 232.879 236.263C232.61 235.968 232.407 235.62 232.283 235.241C232.224 234.913 232.253 234.575 232.367 234.262C232.481 233.95 232.676 233.673 232.933 233.46C231.5 233.577 230.057 233.478 228.653 233.166C227.277 232.87 225.957 232.359 224.739 231.652C222.687 230.465 221.613 229.177 221.518 227.788C221.423 226.399 222.405 225.123 224.463 223.959C226.946 222.502 229.788 221.77 232.666 221.849C235.605 221.914 238.478 222.732 241.011 224.226C242.059 224.811 242.993 225.58 243.769 226.497C244.385 227.175 244.788 228.021 244.926 228.928L236.918 233.576C236.269 233.95 235.913 234.279 235.86 234.564C235.806 234.849 236.038 235.152 236.545 235.455C237.653 235.993 238.921 236.101 240.104 235.757C241.846 235.349 243.513 234.667 245.041 233.736C247.052 232.579 248.324 231.332 248.858 230.023C249.125 229.388 249.227 228.695 249.154 228.01C249.081 227.325 248.835 226.669 248.44 226.105C247.366 224.57 245.938 223.318 244.276 222.454C240.862 220.433 237.002 219.286 233.039 219.115C229.019 219.002 225.051 220.046 221.607 222.125C219.419 223.389 218.013 224.725 217.39 226.132C217.078 226.787 216.94 227.511 216.99 228.235C217.04 228.959 217.276 229.658 217.675 230.263C218.753 231.851 220.208 233.145 221.91 234.03C223.04 234.678 224.232 235.211 225.468 235.624C226.621 236.023 227.815 236.291 229.027 236.425C229.156 236.435 229.283 236.469 229.401 236.523C229.463 236.523 229.463 236.639 229.401 236.755L228.226 238.402C228.178 238.466 228.121 238.523 228.057 238.571C227.884 238.63 227.697 238.63 227.524 238.571C226.056 238.386 224.613 238.046 223.217 237.556C221.759 237.071 220.352 236.442 219.018 235.677C216.26 234.199 214.356 232.463 213.298 230.637ZM231.847 231.412C233.074 231.568 234.319 231.334 235.406 230.744L240.059 228.073C239.508 227.138 238.694 226.385 237.719 225.909C236.234 225.037 234.548 224.568 232.826 224.547C231.111 224.517 229.421 224.96 227.942 225.829C226.643 226.577 226.011 227.316 226.047 228.046C226.047 228.776 226.776 229.533 228.137 230.317C229.279 230.95 230.545 231.327 231.847 231.421V231.412Z" fill="#FAFAFA"/>
<path d="M291.538 194.04C291.904 194.229 292.31 194.327 292.722 194.327C293.133 194.327 293.539 194.229 293.905 194.04C294.046 193.991 294.169 193.899 294.256 193.776C294.342 193.654 294.389 193.508 294.389 193.359C294.389 193.209 294.342 193.063 294.256 192.941C294.169 192.819 294.046 192.727 293.905 192.677C293.537 192.495 293.132 192.401 292.722 192.401C292.311 192.401 291.906 192.495 291.538 192.677C291.397 192.727 291.275 192.819 291.188 192.941C291.101 193.063 291.055 193.209 291.055 193.359C291.055 193.508 291.101 193.654 291.188 193.776C291.275 193.899 291.397 193.991 291.538 194.04Z" fill="#263238"/>
<path d="M295.309 204.76C296.041 205.133 296.851 205.328 297.672 205.328C298.493 205.328 299.302 205.133 300.034 204.76C301.341 204.012 301.341 202.783 300.034 202.035C299.302 201.662 298.493 201.468 297.672 201.468C296.851 201.468 296.041 201.662 295.309 202.035C293.975 202.783 293.975 204.012 295.309 204.76Z" fill="#263238"/>
<path d="M291.983 200.015C292.872 199.507 292.81 198.67 291.876 198.136L276.342 189.151C275.843 188.884 275.287 188.739 274.72 188.73C274.154 188.721 273.594 188.847 273.086 189.098C272.196 189.597 272.267 190.442 273.193 190.977L288.726 199.952C289.227 200.217 289.782 200.36 290.347 200.371C290.913 200.381 291.473 200.26 291.983 200.015Z" fill="#263238"/>
<path d="M90.582 86.7763C90.6312 85.82 90.906 84.889 91.3838 84.0594C91.8616 83.2298 92.5289 82.5253 93.3311 82.0035L234.104 0.661349C234.957 0.226622 235.901 0 236.858 0C237.815 0 238.758 0.226622 239.611 0.661349L242.707 2.44224C243.508 2.96317 244.175 3.66629 244.653 4.4942C245.13 5.32212 245.406 6.25137 245.456 7.20612V115.217C245.402 116.172 245.124 117.101 244.647 117.93C244.17 118.758 243.506 119.464 242.707 119.99L101.934 201.332C101.082 201.763 100.14 201.987 99.1852 201.987C98.2303 201.987 97.2886 201.763 96.4361 201.332L93.3311 199.551C92.5329 199.025 91.8686 198.32 91.3912 197.491C90.9139 196.662 90.6368 195.733 90.582 194.778V86.7763Z" fill="#6B6BC7"/>
<path opacity="0.4" d="M91.3828 84.0602L99.1941 88.5658L244.656 4.50784C244.192 3.66997 243.525 2.96255 242.716 2.45091L239.602 0.67002C238.751 0.235368 237.809 0.00875854 236.853 0.00875854C235.898 0.00875854 234.956 0.235368 234.104 0.67002L93.3401 82.0033C92.5196 82.5063 91.8448 83.2154 91.3828 84.0602Z" fill="white"/>
<path opacity="0.1" d="M90.582 86.7673V194.76C90.6329 195.717 90.9093 196.649 91.3887 197.478C91.868 198.308 92.5367 199.012 93.34 199.533L96.4361 201.314C96.6755 201.453 96.929 201.567 97.1923 201.653C97.56 201.774 97.9383 201.86 98.3222 201.911C99.0452 202.005 99.7788 201.977 100.493 201.831C100.674 201.794 100.852 201.746 101.027 201.688C101.14 201.658 101.251 201.616 101.356 201.563C101.148 201.653 100.924 201.699 100.698 201.699C100.471 201.699 100.247 201.653 100.039 201.563C99.7509 201.371 99.5201 201.103 99.3713 200.79C99.2225 200.476 99.1613 200.128 99.1941 199.783V91.7271C99.1667 91.2373 99.2891 90.7508 99.545 90.3324C99.8009 89.914 100.178 89.5836 100.626 89.3852L99.1941 88.5482L91.3827 84.0425C90.8896 84.8683 90.6141 85.8058 90.582 86.7673Z" fill="black"/>
<path opacity="0.2" d="M99.1933 88.5663L164.389 112.947C166.643 113.786 169.116 113.833 171.401 113.078C173.686 112.324 175.646 110.814 176.96 108.797L187.431 92.7692L245.171 4.22339L189.513 93.348L245.456 115.262C245.399 116.24 245.092 117.187 244.566 118.013L189.362 93.5974L177.191 113.098C175.841 115.262 173.756 116.866 171.319 117.616C168.882 118.365 166.257 118.209 163.926 117.176L155.269 113.347L100.03 201.555C99.7412 201.362 99.5105 201.095 99.3617 200.781C99.2129 200.468 99.1516 200.12 99.1844 199.774V197.993L154.994 113.276L99.1933 88.5663Z" fill="black"/>
<path d="M115.322 63.3487L105.696 57.8012L105.607 57.7478C101.337 55.3347 95.4826 55.6998 88.9969 59.4397C75.9454 66.9817 65.3672 85.3249 65.3672 100.4C65.3672 107.924 68.0362 113.223 72.2622 115.698L81.0165 120.693L83.1073 117.194C85.489 116.652 87.7748 115.751 89.8866 114.523C102.938 106.981 113.516 88.6374 113.516 73.5621C113.515 71.5272 113.267 69.5 112.778 67.5249L115.322 63.3487Z" fill="#37474F"/>
<path d="M98.123 64.7027C85.0626 72.2448 74.4844 90.588 74.4844 105.663C74.4844 120.738 85.0626 126.865 98.1141 119.323C111.166 111.781 121.753 93.4285 121.753 78.3622C121.753 63.2958 111.175 57.1518 98.123 64.7027Z" fill="#455A64"/>
<path d="M90.775 93.8111C90.691 93.724 90.6299 93.6173 90.5973 93.5008C90.5647 93.3842 90.5616 93.2613 90.5882 93.1432C90.633 92.822 90.7552 92.5164 90.9441 92.2528L98.2483 81.3983C98.4351 81.14 98.613 80.8818 98.8088 80.6325C98.9716 80.3995 99.1806 80.2025 99.4227 80.0537L102.092 78.5399C102.18 78.4741 102.286 78.4359 102.396 78.4301C102.506 78.4242 102.616 78.451 102.711 78.5071C102.806 78.5632 102.882 78.6461 102.93 78.7454C102.978 78.8446 102.996 78.9559 102.981 79.0653V104.122C102.967 104.438 102.872 104.745 102.706 105.013C102.558 105.29 102.34 105.524 102.074 105.69L99.3515 107.257C99.2609 107.325 99.1531 107.368 99.04 107.379C98.9269 107.39 98.813 107.369 98.7109 107.319C98.6178 107.254 98.5438 107.165 98.4969 107.062C98.4499 106.959 98.4316 106.844 98.444 106.731V87.5779L93.6843 94.6392C93.5269 94.8975 93.2983 95.1047 93.0259 95.2358C92.9273 95.2854 92.8169 95.3067 92.707 95.2973C92.597 95.2879 92.4918 95.2481 92.4031 95.1824L90.775 93.8111Z" fill="#FAFAFA"/>
<path d="M308.754 180.178V178.584H309.145C309.736 177.501 310.634 176.618 311.725 176.046C313.951 174.918 316.411 174.33 318.905 174.33C321.4 174.33 323.859 174.918 326.085 176.046C327.177 176.618 328.075 177.501 328.665 178.584H329.056V180.124C329.056 181.647 328.095 183.178 326.085 184.345C323.864 185.464 321.413 186.047 318.926 186.045C316.44 186.044 313.989 185.458 311.77 184.336C309.733 183.196 308.745 181.665 308.754 180.178Z" fill="#263238"/>
<path d="M326.085 174.434C323.861 173.302 321.401 172.711 318.906 172.711C316.41 172.711 313.95 173.302 311.726 174.434C307.758 176.722 307.758 180.436 311.726 182.733C313.951 183.861 316.411 184.449 318.906 184.449C321.4 184.449 323.86 183.861 326.085 182.733C330.053 180.436 330.053 176.722 326.085 174.434Z" fill="#455A64"/>
<path d="M321.556 117.552V177.907C321.534 178.137 321.452 178.357 321.318 178.545C321.183 178.733 321.001 178.881 320.79 178.975C320.218 179.269 319.583 179.422 318.94 179.422C318.296 179.422 317.662 179.269 317.089 178.975C316.878 178.881 316.696 178.733 316.562 178.545C316.427 178.357 316.345 178.137 316.324 177.907V117.552H321.556Z" fill="#37474F"/>
<path d="M316.289 124.124V126.012L321.52 129.031V127.152L316.289 124.124Z" fill="#263238"/>
<path d="M349.661 101.569L349.216 102.46L344.43 112.059L342.161 116.662L334.475 132.094L333.629 133.794H333.478C333.169 133.805 332.862 133.734 332.588 133.59L298.327 113.768C298.072 113.606 297.858 113.387 297.704 113.127C297.549 112.867 297.458 112.574 297.438 112.272V99.0225C297.438 92.4154 301.788 84.5438 307.153 81.4451C309.697 79.9758 312.001 79.8601 313.736 80.8307L349.661 101.569Z" fill="#455A64"/>
<path d="M343.193 102.272C341.022 103.074 333.148 109.583 333.148 119.841C333.148 128.46 333.148 132.93 333.148 133.741H333.469H333.62L334.465 132.04L342.161 116.662L344.429 112.103L344.954 111.061L343.193 102.272Z" fill="#37474F"/>
<path d="M352.48 122.895C352.394 123.041 352.271 123.161 352.124 123.243L352.035 123.296L334.34 133.581C334.12 133.698 333.877 133.765 333.628 133.777H333.477V119.841C333.521 117.32 334.043 114.83 335.016 112.504L335.905 113.003L342.178 116.627L351.911 122.263L352.409 122.548C352.463 122.586 352.5 122.643 352.513 122.708C352.527 122.772 352.515 122.839 352.48 122.895Z" fill="#37474F"/>
<path d="M349.66 101.569C347.943 100.679 345.674 100.83 343.192 102.273C340.146 104.189 337.684 106.905 336.075 110.126C335.667 110.898 335.302 111.692 334.981 112.504C334.008 114.83 333.485 117.32 333.441 119.841V133.768H333.593C333.841 133.756 334.084 133.689 334.304 133.572L351.991 123.34L352.08 123.287C352.22 123.195 352.34 123.077 352.436 122.94C352.685 122.628 352.829 122.244 352.845 121.845V108.648C352.89 105.086 351.644 102.62 349.66 101.569ZM351.635 122.406L334.731 132.2C334.589 132.281 334.473 132.2 334.473 132.049V119.841C334.519 117.494 334.998 115.175 335.888 113.002C335.898 112.955 335.916 112.91 335.941 112.869C336.282 112.009 336.674 111.17 337.116 110.358C338.614 107.4 340.887 104.904 343.69 103.136C344.777 102.446 346.026 102.056 347.311 102.005C347.975 101.998 348.629 102.157 349.215 102.468C350.906 103.359 351.884 105.558 351.884 108.613V121.969C351.88 122.056 351.855 122.141 351.811 122.217C351.768 122.293 351.708 122.357 351.635 122.406Z" fill="#455A64"/>
<path d="M351.893 108.648V122.299L335.879 113.038C335.889 112.991 335.907 112.946 335.932 112.905C337.649 108.613 340.541 104.971 343.681 103.172C344.768 102.482 346.017 102.092 347.302 102.041C350.14 102.006 351.893 104.543 351.893 108.648Z" fill="#263238"/>
<path d="M322.59 115.415L324.004 114.596C324.306 114.459 324.639 114.405 324.968 114.438C325.298 114.471 325.613 114.59 325.882 114.783C326.659 115.291 327.305 115.975 327.769 116.779C328.233 117.583 328.5 118.486 328.551 119.413C328.583 119.739 328.529 120.068 328.395 120.366C328.261 120.664 328.051 120.922 327.786 121.114L326.478 121.871L326.238 121.47C325.969 121.411 325.711 121.312 325.472 121.176C324.695 120.669 324.049 119.985 323.585 119.18C323.121 118.376 322.854 117.473 322.803 116.546C322.805 116.315 322.832 116.085 322.883 115.86L322.59 115.415Z" fill="#E0E0E0"/>
<path d="M324.536 115.567C325.313 116.073 325.959 116.755 326.422 117.558C326.886 118.361 327.154 119.262 327.205 120.188C327.205 121.898 326.004 122.583 324.536 121.737C323.76 121.229 323.114 120.545 322.65 119.741C322.186 118.937 321.918 118.034 321.867 117.107C321.858 115.406 323.059 114.712 324.536 115.567Z" fill="#FAFAFA"/>
<path d="M324.536 119.386C324.33 119.386 324.134 119.305 323.988 119.159C323.843 119.014 323.762 118.817 323.762 118.612V96.6978C323.762 96.4924 323.843 96.2953 323.988 96.15C324.134 96.0048 324.33 95.9232 324.536 95.9232C324.741 95.9232 324.938 96.0048 325.083 96.15C325.228 96.2953 325.31 96.4924 325.31 96.6978V118.612C325.31 118.817 325.228 119.014 325.083 119.159C324.938 119.305 324.741 119.386 324.536 119.386Z" fill="#EBEBEB"/>
<path d="M323.762 98.8617L316.004 94.3828L318.433 99.0576L316.004 100.928L323.762 105.415V98.8617Z" fill="#6B6BC7"/>
<mask id="mask0_3387_6234" style="mask-type:luminance" maskUnits="userSpaceOnUse" x="334" y="102" width="18" height="33">
<path d="M351.896 108.646C351.896 104.577 350.117 102.039 347.315 102.039C346.029 102.09 344.78 102.48 343.694 103.17C340.553 104.951 337.662 108.61 335.945 112.902C335.919 112.943 335.901 112.989 335.891 113.036C335.001 115.205 334.522 117.521 334.477 119.866V134.442L351.896 124.38V108.646Z" fill="white"/>
</mask>
<g mask="url(#mask0_3387_6234)">
<path d="M347.856 113.097C347.85 112.978 347.817 112.862 347.758 112.758C347.699 112.655 347.617 112.566 347.518 112.5L329.973 102.367C329.867 102.315 329.749 102.287 329.631 102.287C329.512 102.287 329.395 102.315 329.288 102.367L328.897 102.59C328.797 102.656 328.715 102.744 328.656 102.848C328.598 102.951 328.564 103.067 328.559 103.186V116.659C328.566 116.777 328.6 116.893 328.659 116.996C328.718 117.099 328.799 117.188 328.897 117.255L346.468 127.344C346.574 127.397 346.691 127.424 346.81 127.424C346.929 127.424 347.046 127.397 347.153 127.344L347.544 127.122C347.644 127.056 347.726 126.967 347.785 126.864C347.843 126.76 347.877 126.644 347.882 126.525L347.856 113.097Z" fill="#F0F0F0"/>
<path d="M347.759 112.741L346.79 113.302L328.676 102.83C328.734 102.726 328.816 102.638 328.916 102.572L329.307 102.349C329.413 102.292 329.53 102.263 329.65 102.263C329.77 102.263 329.887 102.292 329.993 102.349L347.537 112.483C347.63 112.55 347.706 112.639 347.759 112.741Z" fill="#FAFAFA"/>
<path d="M347.855 113.097V126.551C347.85 126.67 347.816 126.786 347.758 126.89C347.699 126.994 347.616 127.082 347.517 127.148L347.126 127.37L347.037 127.415H346.894C346.803 127.433 346.71 127.433 346.619 127.415H346.556H346.512C346.538 127.428 346.567 127.435 346.596 127.435C346.626 127.435 346.655 127.428 346.681 127.415C346.717 127.391 346.746 127.358 346.765 127.318C346.784 127.279 346.791 127.236 346.788 127.192V113.693C346.79 113.632 346.773 113.572 346.74 113.521C346.706 113.47 346.658 113.43 346.601 113.408L346.788 113.301L347.757 112.74C347.821 112.848 347.855 112.971 347.855 113.097Z" fill="#E0E0E0"/>
<path d="M346.788 113.303L338.656 116.339C338.375 116.443 338.068 116.448 337.783 116.354C337.499 116.26 337.255 116.073 337.091 115.823L335.792 113.828L328.594 102.786L335.525 113.899L328.559 116.66C328.565 116.78 328.602 116.896 328.665 116.998L335.551 113.953L337.064 116.384C337.232 116.654 337.492 116.854 337.796 116.948C338.1 117.041 338.428 117.021 338.719 116.891L339.795 116.419L346.681 127.345C346.717 127.321 346.747 127.288 346.765 127.248C346.784 127.209 346.792 127.166 346.788 127.122V126.9L339.831 116.339L346.788 113.303Z" fill="#E0E0E0"/>
</g>
<path d="M363.577 110.892L361.718 112.441C361.232 113.158 360.7 113.842 360.125 114.489L354.787 120.66L352.901 122.841L340.766 129.858L334.965 134.675H334.903C334.73 134.704 334.552 134.676 334.396 134.595L333.853 134.284C333.808 134.257 333.769 134.221 333.739 134.178C333.709 134.134 333.689 134.085 333.68 134.033C333.672 133.981 333.675 133.928 333.69 133.877C333.704 133.827 333.73 133.78 333.764 133.74L337.999 128.843L340.668 125.735C345.625 120.313 351.315 115.611 357.572 111.764C360.081 110.322 361.647 109.823 362.207 110.17L363.479 110.909C363.479 110.909 363.568 110.892 363.577 110.892Z" fill="#455A64"/>
<path d="M361.432 115.255L357.874 119.324L357.803 119.413L354.475 123.269C354.277 123.486 354.049 123.675 353.799 123.83L335.116 134.604C335.053 134.641 334.983 134.665 334.911 134.675H334.902L341.628 126.902L342.02 126.457C346.979 121.04 352.669 116.341 358.924 112.494C361.37 111.079 362.936 110.571 363.532 110.865C364.262 111.266 363.585 112.77 361.432 115.255Z" fill="#37474F"/>
</svg>
