<svg width="32" height="32" viewBox="0 0 32 32" fill="none" xmlns="http://www.w3.org/2000/svg">
<path fill-rule="evenodd" clip-rule="evenodd" d="M30.2938 8.25C30.5163 7.545 30.2938 7.0325 29.3094 7.0325H26.0362C25.2106 7.0325 24.8294 7.48125 24.6069 7.96125C24.6069 7.96125 22.9231 12.0612 20.5719 14.7194C19.8094 15.4881 19.46 15.7444 19.0469 15.7444C18.8244 15.7444 18.5381 15.4881 18.5381 14.7837V8.21688C18.5381 7.38438 18.2844 7 17.585 7H12.4375C11.9288 7 11.6112 7.38438 11.6112 7.76875C11.6112 8.56938 12.7869 8.76187 12.9137 11.0037V15.875C12.9137 16.9319 12.7263 17.125 12.31 17.125C11.1981 17.125 8.4975 12.9931 6.8775 8.285C6.5625 7.3525 6.2425 7 5.41625 7H2.11188C1.15875 7 1 7.44813 1 7.92875C1 8.79375 2.11188 13.1494 6.17875 18.9144C8.87937 22.8519 12.7237 24.9681 16.1869 24.9681C18.2844 24.9681 18.5381 24.4875 18.5381 23.6869V20.7081C18.5381 19.7475 18.7288 19.5875 19.3962 19.5875C19.8725 19.5875 20.7306 19.8431 22.6688 21.7331C24.8925 23.975 25.2738 25 26.5131 25H29.7856C30.7388 25 31.1838 24.5194 30.9294 23.5906C30.6437 22.6619 29.5631 21.3169 28.165 19.7156C27.4025 18.8194 26.2587 17.8263 25.9094 17.3456C25.4331 16.705 25.56 16.4488 25.9094 15.8725C25.8775 15.8725 29.8813 10.1713 30.2938 8.2475" fill="#6B6BC7"/>
</svg>
