<svg xmlns="http://www.w3.org/2000/svg" width="630" height="434" fill="none"><path fill="#F5F5F5" d="M315 434c173.97 0 315-6.784 315-15.154 0-8.369-141.03-15.154-315-15.154S0 410.477 0 418.846C0 427.216 141.03 434 315 434Z"/><path fill="#263238" d="M459.998 57.862c-7.345 7.766-18.349 27.927-9.908 35.004a24.23 24.23 0 0 0 18.656.217L466.77 63.97s-1.033-11.21-6.772-6.108Z"/><path fill="#FFA8A7" d="M454.144 124.605a121.693 121.693 0 0 1-3.596 11.783c-1.377 3.825-2.958 7.587-4.692 11.298a90.951 90.951 0 0 1-5.93 10.864 81.527 81.527 0 0 1-3.609 5.178 77.939 77.939 0 0 1-1.989 2.55c-.344.408-.714.803-1.071 1.211l-.536.613c-.355.389-.739.751-1.147 1.083a8.582 8.582 0 0 1-3.163 1.582 9.123 9.123 0 0 1-3.213.216 12.373 12.373 0 0 1-4.489-1.453 27.987 27.987 0 0 1-5.674-4.183 77.573 77.573 0 0 1-8.327-9.245 165.606 165.606 0 0 1-13.16-20.058l4.654-3.023c2.372 2.997 4.808 6.058 7.294 9.003 2.487 2.946 4.986 5.879 7.652 8.633a76.947 76.947 0 0 0 7.995 7.651 19.363 19.363 0 0 0 3.927 2.551c.341.173.715.273 1.097.293h-.293a1.898 1.898 0 0 0-.587.242.164.164 0 0 1-.076.064l.408-.523c.28-.344.561-.676.829-1.033a56.585 56.585 0 0 0 1.568-2.18 64.437 64.437 0 0 0 2.882-4.616c1.811-3.176 3.43-6.529 4.96-9.934 1.531-3.405 2.857-6.937 4.106-10.495a172.338 172.338 0 0 0 3.354-10.673l10.826 2.601Z"/><path fill="#8D8DE9" d="M462.14 127.435c-1.186 3.329-5.216 9.297-8.378 13.709-2.308 3.188-4.145 5.559-4.145 5.559l-1.823-1.275-15.098-10.265c2.843-8.633 6.618-17.852 17.151-20.403 6.631-1.581 14.409 6.733 12.293 12.675Z"/><path fill="#fff" d="M462.139 127.435c-1.186 3.328-5.215 9.296-8.378 13.708a240.416 240.416 0 0 1-4.144 5.56l-1.824-1.275-15.098-10.265c2.844-8.633 6.618-17.853 17.151-20.403 6.631-1.581 14.41 6.733 12.293 12.675Z" opacity=".5"/><path fill="#000" d="M453.762 141.144a240.416 240.416 0 0 1-4.144 5.56l-1.823-1.275c.905-3.443 2.55-8.837 4.947-10.979a16.035 16.035 0 0 1 1.02 6.694Z" opacity=".3"/><path fill="#FFA8A7" d="m399.21 135.368.497-9.487-11.349 1.581s3.201 7.281 6.58 10.329l4.272-2.423ZM396.035 121.927l-8.212 2.742.536 2.792 11.349-1.581-3.673-3.953ZM490.449 406.674 479.7 407.72l-7.154-25.211 10.75-1.032 7.153 25.197ZM568.031 382.434l-9.959 4.577-13.81-21.588 9.959-4.578 13.81 21.589Z"/><path fill="#263238" d="m555.101 383.657 10.967-5.7a.881.881 0 0 1 1.122.267l5.751 7.983a1.774 1.774 0 0 1-.093 2.082 1.768 1.768 0 0 1-.57.468c-3.825 1.913-5.789 2.653-10.597 5.101-2.945 1.543-9.257 5.394-13.338 7.511-4.081 2.117-6.376-1.785-4.897-3.035 6.772-5.611 8.927-9.793 10.38-13.287.262-.59.71-1.079 1.275-1.39ZM477.774 404.443h13.058a1.073 1.073 0 0 1 1.02.791l2.831 10.29a1.61 1.61 0 0 1-.851 1.897 1.605 1.605 0 0 1-.731.156h-30.017c-4.744 0-5.738-4.807-3.826-5.241 8.812-1.951 13.9-4.641 16.578-7.204.26-.239.566-.423.899-.541a2.623 2.623 0 0 1 1.039-.148Z"/><path fill="#000" d="m472.546 382.509 3.698 12.994h11.043l-3.979-14.026-10.762 1.032ZM554.234 360.845l-9.972 4.578 7.128 11.132 9.959-4.578-7.115-11.132Z" opacity=".2"/><path fill="#8D8DE9" d="m504.986 174.861-44.159 5.649c-18.567-62.484-13.899-64.754-13.899-64.754s7.37-2.55 14.894-4.514c1.135-.293 2.282-.574 3.404-.829a143.4 143.4 0 0 1 20.059-2.55l2.971-.191a134.823 134.823 0 0 1 16.106.255c-.817 8.046-1.403 14.855-1.773 20.811-.497 7.753-.65 14.026-.536 19.459.27 8.951 1.25 17.867 2.933 26.664Z"/><path fill="#fff" d="m504.987 174.86-44.16 5.649c-18.566-62.483-13.899-64.753-13.899-64.753s7.37-2.551 14.894-4.514a117.58 117.58 0 0 1 3.405-.829 143.385 143.385 0 0 1 20.058-2.55l2.971-.192c5.369-.236 10.747-.15 16.106.255-.816 8.047-1.403 14.856-1.773 20.811-.497 7.753-.65 14.027-.535 19.459a168.874 168.874 0 0 0 2.933 26.664Z" opacity=".5"/><path fill="#000" d="M502.054 148.171c-2.984-6.376-4.438-20.288-2.551-25.057l3.086 5.598c-.497 7.728-.65 14.001-.535 19.459Z" opacity=".3"/><path fill="#FFA8A7" d="M480.426 94.486c.408 5.458 1.696 11.018 4.858 13.351a37.918 37.918 0 0 0-13.504 7.282c-5.42-2.857-6.542-4.706-6.542-4.706 6.975-2.639 6.491-7.434 3.533-15.136l5.445-2.933a3.568 3.568 0 0 1 5.48.22 3.57 3.57 0 0 1 .73 1.922Z"/><path fill="#8D8DE9" d="M466.604 106.05c-1.926-.88-5.534 3.89-6.019 5.165-.485 1.275 1.479 1.67 1.275 3.354-.204 1.683.918 3.175 4.246 4.488 3.329 1.314 9.921.523 12.115-2.742 2.193-3.264 15.863-5.878 13.95-9.13-1.913-3.251-3.392-1.428-4.744-4.68-1.351-3.251-7.077-.14-8.926 1.556-1.849 1.696-3.787 5.675-11.897 1.989Z"/><path fill="#000" d="M474.255 92.33a3.557 3.557 0 0 1 6.121 1.658 22.06 22.06 0 0 1-9.526 9.755 23.547 23.547 0 0 0-2.04-8.48l5.445-2.932Z" opacity=".2"/><path fill="#FFA8A7" d="M488.894 77.374c-2.704 10.545-3.622 15.06-10.061 19.497-9.692 6.669-22.048 1.046-22.545-10.087-.447-10.022 4.055-25.58 15.302-27.811a14.844 14.844 0 0 1 17.304 18.4Z"/><path fill="#FFA8A7" d="M489.404 87.753a7.913 7.913 0 0 1-4.463 4.119c-2.627.956-4.145-1.352-3.584-3.928.51-2.32 2.487-5.623 5.203-5.445a3.57 3.57 0 0 1 2.844 5.254Z"/><path fill="#263238" d="M462.281 65.271c5.177-1.058 17.61-.178 18.694 4.91-4.425 4.131-2.295 17.444-6.899 21.346 6.721 6.376 20.046 6.44 20.046 6.44s13.173-35.794-2.907-37.541c-3.379-9.054-21.678-9.87-31.216-2.55"/><path fill="#8D8DE9" d="M487.006 70.678h-6.376a.842.842 0 0 1-.841-.842.854.854 0 0 1 .841-.841h6.376a.842.842 0 0 1 .842.841.837.837 0 0 1-.243.6.823.823 0 0 1-.599.242ZM460.827 180.522s-16.96 85.348-11.311 118.311c5.419 31.599 22.086 92.909 22.086 92.909l18.911-.484s-11.872-71.04-12.102-97.449c-.395-43.802 14.754-117.431 14.754-117.431l-32.338 4.144Z"/><path fill="#263238" d="m470.416 392.724 21.882-.599-1.351-7.179-23.706 1.211 3.175 6.567Z"/><path fill="#000" d="m476.231 190.864 7.562-13.287 9.373-1.199s-6.899 33.486-11.26 68.719c-5.241-16.845-7.09-46.48-5.675-54.233Z" opacity=".3"/><path fill="#8D8DE9" d="M470.428 179.411s13.403 72.2 25.351 113.427c9.64 33.295 50.114 78.665 50.114 78.665l14.308-7.179s-27.161-50.267-33.894-72.889c-21.538-72.379-4.693-98.686-21.372-116.576l-34.507 4.552Z"/><path fill="#263238" d="m546.046 375.917 16.845-8.697-2.525-7.179-18.605 10.329 4.285 5.547Z"/><path fill="#8D8DE9" d="m505.318 172.143 2.551 3.698c.191.28-.128.65-.638.714l-46.327 5.942c-.395 0-.752-.102-.803-.357l-.906-3.902c0-.268.255-.548.689-.599l44.72-5.738a.798.798 0 0 1 .714.242Z"/><path fill="#fff" d="m505.318 172.143 2.551 3.698c.191.28-.128.65-.638.714l-46.327 5.942c-.395 0-.752-.102-.803-.357l-.906-3.902c0-.268.255-.548.689-.599l44.72-5.738a.798.798 0 0 1 .714.242Z" opacity=".4"/><path fill="#263238" d="m499.949 177.959 1.199-.166c.242 0 .408-.166.369-.319l-1.275-5.1c0-.153-.255-.243-.497-.217l-1.199.153c-.229 0-.395.178-.37.331l1.276 5.101c.038.14.306.242.497.217ZM464.282 182.525l1.199-.153c.229 0 .395-.179.369-.319l-1.275-5.101c0-.153-.268-.255-.497-.217l-1.199.153c-.242 0-.408.179-.37.319l1.276 5.101c.025.153.267.255.497.217ZM482.109 180.242l1.199-.153c.242 0 .408-.178.37-.331l-1.211-5.101c0-.14-.268-.242-.498-.217l-1.198.153c-.243 0-.409.179-.37.332l1.211 5.101c.038.153.293.242.497.216ZM470.836 76.926c-.166.867-.765 1.48-1.275 1.365-.51-.115-.893-.893-.727-1.76.166-.867.765-1.492 1.275-1.377.51.115.893.905.727 1.772ZM461.019 75.039c-.166.867-.753 1.479-1.276 1.364-.522-.115-.892-.893-.726-1.76.165-.867.765-1.492 1.339-1.377.573.115.841.893.663 1.773Z"/><path fill="#263238" d="m460.546 73.356-1.976-.995s.752 1.837 1.976.995Z"/><path fill="#FF5652" d="M463.619 76.978a23.7 23.7 0 0 1-4.157 4.948 3.828 3.828 0 0 0 2.984 1.186l1.173-6.134Z"/><path fill="#263238" d="M465.761 87.433a.257.257 0 0 1-.115-.255.267.267 0 0 1 .306-.217 6.965 6.965 0 0 0 6.121-1.606.268.268 0 0 1 .428.08.235.235 0 0 1 0 .196.232.232 0 0 1-.058.08 7.37 7.37 0 0 1-6.605 1.76.141.141 0 0 1-.077-.038ZM474.254 74.249a.465.465 0 0 1-.178-.204 4.127 4.127 0 0 0-2.933-2.334.508.508 0 0 1-.459-.574.534.534 0 0 1 .574-.459 5.105 5.105 0 0 1 3.749 2.907.524.524 0 0 1-.23.702.547.547 0 0 1-.523-.038ZM457.589 69.913v-.09c-.02-.064-.027-.132-.02-.199a.515.515 0 0 1 .364-.438 5.1 5.1 0 0 1 4.68.765.527.527 0 0 1 .064.74.526.526 0 0 1-.74.063 4.028 4.028 0 0 0-3.698-.574.535.535 0 0 1-.65-.267Z"/><path fill="#FFA8A7" d="M508.901 119.059a76.349 76.349 0 0 1 3.902 4.552 168.353 168.353 0 0 1 3.584 4.642c2.282 3.162 4.437 6.375 6.375 9.806a93.87 93.87 0 0 1 5.394 10.533c.421.905.766 1.849 1.148 2.767.383.918.74 1.849 1.059 2.805.318.956.65 1.849.981 2.907l.459 1.709.332 1.696a38.117 38.117 0 0 1-.446 12.752 69.904 69.904 0 0 1-3.379 11.477 116.052 116.052 0 0 1-4.808 10.622 109.211 109.211 0 0 1-5.891 9.972l-4.795-2.831c1.505-3.239 2.984-6.669 4.246-10.074a106.058 106.058 0 0 0 3.431-10.304 68.495 68.495 0 0 0 2.104-10.303c.193-1.655.286-3.32.28-4.986a26.362 26.362 0 0 0-.497-4.603l-.255-1.046-.319-.995c-.255-.714-.637-1.594-.956-2.371a47.591 47.591 0 0 0-1.059-2.41c-.382-.804-.714-1.594-1.135-2.372-1.568-3.163-3.417-6.21-5.279-9.258-1.862-3.048-3.953-5.968-6.108-8.837a118.57 118.57 0 0 0-3.277-4.285 124.085 124.085 0 0 0-3.354-4.029l8.263-7.536Z"/><path fill="#FFA8A7" d="m515.059 199.408-8.798 4.298 9.028 7.051s3.915-4.718 3.749-9.27l-3.979-2.079ZM502.079 212.428l7.676 3.978 5.471-5.649-9.028-7.052-4.119 8.723Z"/><path fill="#8D8DE9" d="M504.361 107.9c5.471.74 13.734 16.016 13.734 16.016l-13.912 13.67s-10.661-12.152-10.38-19.255c.255-6.032 3.583-11.362 10.558-10.431Z"/><path fill="#fff" d="M504.361 107.901c5.471.74 13.734 16.016 13.734 16.016l-13.912 13.67s-10.661-12.152-10.38-19.255c.255-6.032 3.583-11.362 10.558-10.431Z" opacity=".5"/><path fill="#8D8DE9" d="M550.764 387.649a.765.765 0 0 1-.179 0 1.48 1.48 0 0 1-.644-.376 1.478 1.478 0 0 1-.376-.645.884.884 0 0 1 .115-.879c.867-1.11 4.82-.74 5.267-.702a.256.256 0 0 1 .216.192.27.27 0 0 1 0 .144.272.272 0 0 1-.076.123c-1.097.867-3.048 2.27-4.323 2.143Zm3.494-2.168c-1.581-.102-3.711 0-4.17.548a.387.387 0 0 0 0 .383.976.976 0 0 0 .663.701c.651.128 1.964-.472 3.469-1.696l.038.064Z"/><path fill="#8D8DE9" d="M554.59 385.443c-1.275-.191-3.826-1.275-4.119-2.397a.893.893 0 0 1 .434-1.046 1.276 1.276 0 0 1 1.135-.204c1.543.383 3.022 3.175 3.086 3.29a.284.284 0 0 1 0 .268.27.27 0 0 1-.23.114l-.306-.025Zm-2.78-3.162a.802.802 0 0 0-.612.14c-.268.191-.268.357-.23.472.217.739 2.13 1.734 3.443 2.002-.535-.906-1.568-2.372-2.55-2.551l-.051-.063ZM471.997 406.585a4.39 4.39 0 0 1-2.55-.6 1.635 1.635 0 0 1-.651-1.275.74.74 0 0 1 .319-.714c1.186-.791 5.611 1.275 6.491 1.632a.24.24 0 0 1 .14.255.254.254 0 0 1-.204.23c-1.162.277-2.35.435-3.545.472Zm-2.066-2.245a.92.92 0 0 0-.51.115.253.253 0 0 0-.084.107c-.018.043-.024.09-.018.135a1.103 1.103 0 0 0 .459.868c.765.573 2.551.65 4.884.229a15.924 15.924 0 0 0-4.731-1.454Z"/><path fill="#8D8DE9" d="M475.529 406.138h-.102c-1.466-.599-4.424-2.971-4.259-4.208 0-.268.217-.599.893-.676 2.55-.306 3.672 4.387 3.723 4.578a.262.262 0 0 1-.089.268.255.255 0 0 1-.166.038Zm-3.239-4.399h-.165c-.281 0-.421.115-.447.242-.089.714 1.951 2.551 3.456 3.405-.37-1.16-1.313-3.647-2.869-3.647h.025Z"/><path fill="#263238" d="m470.352 75.23-1.964-.995s.765 1.85 1.964.995Z"/><path fill="#87BF8B" d="M77.07 351.666c0-.733-2.519-74.771-14.523-86.431-11.568-11.247-24.923-.412-25.473 0l-1.466-1.741c.138-.137 15.486-12.645 28.543 0 12.645 12.302 15.119 84.919 15.21 88.012l-2.29.16Z"/><path fill="#87BF8B" d="M78.099 366.258c-.344-3.619-8.247-89.042 23.984-125.992l1.718 1.512c-31.566 36.24-23.503 123.426-23.411 124.32l-2.291.16Z"/><path fill="#87BF8B" d="m77.41 356.914-2.29-.137c0-1.008 6.3-100.038-17.227-121.686l1.558-1.672c24.213 22.358 18.143 119.372 17.96 123.495Z"/><path fill="#87BF8B" d="M80.391 356.844h-2.29c0-2.749.778-67.097 19.127-77.588a13.126 13.126 0 0 1 11.981-1.168c11.133 4.581 16.608 24.327 16.837 25.198l-2.291.618c0-.206-5.429-19.494-15.508-23.663a10.804 10.804 0 0 0-5.109-.708 10.804 10.804 0 0 0-4.856 1.739c-17.135 9.827-17.891 74.931-17.891 75.572ZM73.29 356.912l-2.29-.137c0-.504 2.748-50.672-10.767-68.334-3.253-4.215-6.758-6.208-10.446-5.979-8.774.619-16.173 13.516-16.241 13.745l-1.993-1.123c.32-.572 8.063-14.111 18.074-14.821 4.581-.321 8.682 2.016 12.416 6.872 14.042 18.235 11.362 67.67 11.247 69.777Z"/><path fill="#87BF8B" d="M75.854 363.762c-.367-4.879-8.865-119.692 6.116-139.989l1.856 1.375c-14.5 19.586-5.773 137.24-5.681 138.431l-2.29.183ZM113.195 289.908s-8.957 3.299-6.299 11.11c2.657 7.812 31.017 20.617 31.017 20.617s11.889-10.881.985-28.588c-10.905-17.708-25.451-8.728-25.703-3.139Z"/><path fill="#000" d="M113.195 289.908s-8.957 3.299-6.299 11.11c2.657 7.812 31.017 20.617 31.017 20.617s11.889-10.881.985-28.588c-10.905-17.708-25.451-8.728-25.703-3.139Z" opacity=".2"/><path fill="#87BF8B" d="M74.204 275.04s9.553-.412 10.103 7.835c.55 8.246-20.617 30.994-20.617 30.994s-15.165-5.475-11.912-26.023c3.253-20.549 20.067-17.8 22.426-12.806Z"/><path fill="#000" d="M74.204 275.04s9.553-.412 10.103 7.835c.55 8.246-20.617 30.994-20.617 30.994s-15.165-5.475-11.912-26.023c3.253-20.549 20.067-17.8 22.426-12.806Z" opacity=".2"/><path fill="#87BF8B" d="M66.118 235.687s6.368-.687 5.865-4.582c-.505-3.894-24.764-13.859-39.058 2.291 0 0 9.163 15.715 22.404 15.921 13.24.206 10.79-13.63 10.79-13.63Z"/><path fill="#000" d="M66.118 235.687s6.368-.687 5.865-4.582c-.505-3.894-24.764-13.859-39.058 2.291 0 0 9.163 15.715 22.404 15.921 13.24.206 10.79-13.63 10.79-13.63Z" opacity=".2"/><path fill="#87BF8B" d="M77.984 226.224s-5.75 2.795-7.376-.779c-1.626-3.573 13.745-24.854 34.362-18.715 0 0 .549 18.189-10.56 25.359-11.111 7.17-16.426-5.865-16.426-5.865Z"/><path fill="#000" d="M77.984 226.224s-5.75 2.795-7.376-.779c-1.626-3.573 13.745-24.854 34.362-18.715 0 0 .549 18.189-10.56 25.359-11.111 7.17-16.426-5.865-16.426-5.865Z" opacity=".2"/><path fill="#87BF8B" d="M47.838 286.77s4.399-3.551-.343-5.292c-4.742-1.741-28.016-1.237-28.245 21.809 0 0 27.1 4.581 30.444-4.261 3.344-8.843-1.856-12.256-1.856-12.256Z"/><path fill="#000" d="M47.838 286.77s4.399-3.551-.343-5.292c-4.742-1.741-28.016-1.237-28.245 21.809 0 0 27.1 4.581 30.444-4.261 3.344-8.843-1.856-12.256-1.856-12.256Z" opacity=".2"/><path fill="#87BF8B" d="M103.116 235.066s-4.398-3.551.344-5.292c4.742-1.741 28.016-1.237 28.245 21.808 0 0-27.1 4.582-30.444-4.261-3.345-8.842 1.855-12.255 1.855-12.255Z"/><path fill="#000" d="M103.116 235.066s-4.398-3.551.344-5.292c4.742-1.741 28.016-1.237 28.245 21.808 0 0-27.1 4.582-30.444-4.261-3.345-8.842 1.855-12.255 1.855-12.255Z" opacity=".2"/><path fill="#87BF8B" d="M88.867 253.621s-.389-4.307 3.093-2.612c3.482 1.695 15.623 14.776 3.047 27.192 0 0-16.93-12.531-13.882-19.06 3.046-6.528 7.742-5.52 7.742-5.52Z"/><path fill="#000" d="M88.867 253.621s-.389-4.307 3.093-2.612c3.482 1.695 15.623 14.776 3.047 27.192 0 0-16.93-12.531-13.882-19.06 3.046-6.528 7.742-5.52 7.742-5.52Z" opacity=".2"/><path fill="#87BF8B" d="M43.92 259.786s2.611-3.459-1.214-3.871c-3.826-.413-21.098 4.169-17.09 21.372 0 0 21.007-1.58 21.9-8.727.894-7.148-3.596-8.774-3.596-8.774Z"/><path fill="#000" d="M43.92 259.786s2.611-3.459-1.214-3.871c-3.826-.413-21.098 4.169-17.09 21.372 0 0 21.007-1.58 21.9-8.727.894-7.148-3.596-8.774-3.596-8.774Z" opacity=".2"/><path fill="#263B28" d="M114.867 420.732H42.8l-7.766-78.894h87.622l-7.789 78.894Z"/><path fill="#fff" d="M114.867 420.732H42.8l-7.766-78.894h87.622l-7.789 78.894Z" opacity=".5"/><path fill="#263B28" d="M126.504 333.136H31.185v17.409h95.319v-17.409Z"/><path fill="#fff" d="M126.504 333.136H31.185v17.409h95.319v-17.409Z" opacity=".2"/><path fill="#263238" d="M196.801 32.047c-1.275-5.369-14.613-10.47-26.09-2.55a28.054 28.054 0 0 0-10.839 32.236c6.159 18.235-25.988 17.56-33.435 48.304-5.878 24.228-.433 58.543 32.377 56.681 50.076-2.844 45.753-51.785 47.947-77.505 2.193-25.72 29.52-54.565-9.96-57.166Z"/><path fill="#FFA8A7" d="M213.34 100.716c.217 3.724.65 7.128 1.135 10.661.485 3.532 1.16 6.988 1.913 10.456.752 3.468 1.606 6.937 2.69 10.354a95.67 95.67 0 0 0 3.724 10.202l1.122 2.55c.166.37.472.931.701 1.403.23.472.536.905.804 1.364a39.373 39.373 0 0 0 3.494 4.655 80.426 80.426 0 0 0 7.651 7.651 142.397 142.397 0 0 0 16.781 12.751l3.392-4.539a419.505 419.505 0 0 1-7.205-7.116c-2.359-2.397-4.692-4.833-6.911-7.306a97.055 97.055 0 0 1-6.185-7.511 33.493 33.493 0 0 1-2.397-3.826c-.14-.293-.319-.599-.434-.88-.114-.28-.242-.51-.382-.93l-.867-2.245a126.039 126.039 0 0 1-5.101-18.911c-.65-3.239-1.122-6.528-1.607-9.806-.484-3.277-.854-6.656-1.135-9.767l-11.183.79Z"/><path fill="#6B6BC7" d="M220.992 87.326c4.527 1.147 7.651 19.79 7.651 19.79l-17.33 11.783s-7.128-22.099-3.634-27.085c3.672-5.202 6.707-6.172 13.313-4.488Z"/><path fill="#000" d="m220.583 91.482 3.481 18.796-7.013 4.757 3.532-23.553Z" opacity=".2"/><path fill="#FFA8A7" d="m254.682 166.667 11.668 1.862-6.657 7.371s-6.873-1.569-8.084-5.968l3.073-3.265Z"/><path fill="#FFA8A7" d="m271.872 169.995-6.657 7.205-5.521-1.301 6.656-7.371 5.522 1.467ZM196.484 401.07h10.992l.739-25.453h-10.992l-.739 25.453ZM120.483 368.68l10.176 4.157 12.892-22.227-10.176-4.157-12.892 22.227Z"/><path fill="#263238" d="m132.572 371.307-10.61-6.299a.877.877 0 0 0-1.147.191l-6.198 7.651a1.785 1.785 0 0 0-.296 1.389 1.773 1.773 0 0 0 .819 1.161c3.736 2.13 5.649 2.971 10.316 5.751 2.869 1.709 9.628 7.549 13.594 9.908 3.965 2.359 6.503-1.441 5.1-2.779a37.712 37.712 0 0 1-10.303-15.507 2.946 2.946 0 0 0-1.275-1.466ZM207.859 399.807h-12.357a.857.857 0 0 0-.867.74l-1.415 9.78a1.776 1.776 0 0 0 1.041 1.798c.226.101.471.153.718.153 4.311-.076 6.376-.331 11.821-.331 3.341 0 10.202.344 14.856.344 4.655 0 4.859-4.552 2.946-4.973-8.62-1.849-12.012-4.399-14.907-6.835a2.847 2.847 0 0 0-1.836-.676Z"/><g fill="#000" opacity=".2"><path d="m208.201 375.63-.37 13.122h-10.992l.37-13.122h10.992ZM133.36 346.454l10.189 4.157-6.657 11.464-10.176-4.157 6.644-11.464Z"/></g><path fill="#6B6BC7" d="M220.992 87.326s5.241 1.837-5.254 66.309h-44.631c.753-18.171.765-29.329-7.919-66.653a131.188 131.188 0 0 1 18.962-2.55 141.249 141.249 0 0 1 20.263 0c8.709.905 18.579 2.894 18.579 2.894Z"/><path fill="#000" d="M166.874 101.761c4.042 1.007 7.778 5.419 7.332 13.542a19.522 19.522 0 0 1-3.723 10.202c-.715-6.249-1.913-13.504-3.826-22.788l.217-.956Z" opacity=".2"/><path fill="#FAFAFA" d="M200.067 102.334s-5.802 3.584-7.32 8.927c-6.299-4.617-14.855-17.457-15.2-25.147a1.7 1.7 0 0 1 1.696-1.709 20.94 20.94 0 0 1 2.908.128l17.916 17.801Z"/><path fill="#FAFAFA" d="M200.066 102.335s5.802 3.583 7.32 8.926c6.771-4.96 3.009-21.334-.867-26.778a19.58 19.58 0 0 0-4.106 0l-2.347 17.852Z"/><path fill="#FFA8A7" d="M184.139 61.682c1.276 6.516 2.551 18.464-2.002 22.825a47.021 47.021 0 0 0 17.917 17.853c9.041-7.218 2.346-17.853 2.346-17.853-7.269-1.734-7.077-7.14-5.815-12.203l-12.446-10.622Z"/><path fill="#000" d="m189.241 66.018 7.37 6.287a19.926 19.926 0 0 0-.625 3.596c-2.779-.408-7.153-2.767-7.753-5.79-.267-1.428.753-3.417 1.008-4.093Z" opacity=".2"/><path fill="#FFA8A7" d="M173.224 51.2c3.01 10.483 4.068 14.984 10.648 19.256 9.896 6.376 22.112.408 22.29-10.763.166-10.06-4.794-25.503-16.143-27.428A14.868 14.868 0 0 0 173.224 51.2Z"/><path fill="#263238" d="M195.858 33.196c-.498 3.545-19.906 14.945-23.591 9.002-3.685-5.942 1.619-10.418 9.883-11.553a20.927 20.927 0 0 1 13.708 2.55Z"/><path fill="#263238" d="M183.209 35.12c2.384 3.136-2.666 25.732-9.896 23.603-7.23-2.13-6.899-9.36-1.874-16.03a19.382 19.382 0 0 1 11.77-7.574Z"/><path fill="#6B6BC7" d="M215.738 153.66s8.671 84.697 7.931 118.171c-.752 34.863-13.529 114.383-13.529 114.383h-14.856s2.346-77.48 1.033-111.718c-1.428-37.325-13.287-120.836-13.287-120.836h32.708Z"/><path fill="#455A64" d="M215.738 153.66s8.671 84.697 7.931 118.171c-.752 34.863-13.529 114.383-13.529 114.383h-14.856s2.346-77.48 1.033-111.718c-1.428-37.325-13.287-120.836-13.287-120.836h32.708Z" opacity=".4"/><path fill="#263238" d="M194.022 386.736h17.432l1.275-5.56-19.523-.675.816 6.235Z"/><path fill="#000" d="M196.484 174.726c10.967 22.048 2.206 62.279-1.67 77.25-1.989-22.482-5.343-49.962-7.957-70.135 1.67-11.425 4.578-17.291 9.627-7.115Z" opacity=".2"/><path fill="#6B6BC7" d="M203.957 153.66s-10.113 87.987-17.751 116.27c-9.066 33.55-45.906 90.793-45.906 90.793l-13.874-5.662s23.782-65.174 30.719-82.886c14.792-37.733 2.129-93.943 13.95-118.592l32.862.077Z"/><path fill="#455A64" d="M203.957 153.66s-10.113 87.987-17.751 116.27c-9.066 33.55-45.906 90.793-45.906 90.793l-13.874-5.662s23.782-65.174 30.719-82.886c14.792-37.733 2.129-93.943 13.95-118.592l32.862.077Z" opacity=".4"/><path fill="#263238" d="m124.539 355.126 17.215 7.026 4.042-4.655-19.88-9.181-1.377 6.81ZM190.797 50.257c.191.867.803 1.466 1.377 1.275.574-.191.867-.93.676-1.785-.192-.855-.804-1.467-1.378-1.276-.573.192-.867.919-.675 1.786ZM200.577 48.089c.191.867.816 1.466 1.377 1.339.561-.128.867-.931.676-1.798-.192-.867-.804-1.467-1.377-1.34-.574.128-.868.932-.676 1.799Z"/><path fill="#263238" d="m201.011 46.393 1.951-1.059s-.701 1.862-1.951 1.059Z"/><path fill="#ED893E" d="M197.912 50.32a23.774 23.774 0 0 0 4.31 4.833 3.835 3.835 0 0 1-2.958 1.276l-1.352-6.108Z"/><path fill="#263238" d="M195.297 60.852a8.21 8.21 0 0 0 1.275-.191.252.252 0 0 0 .159-.114.26.26 0 0 0 .036-.093.277.277 0 0 0-.003-.1.257.257 0 0 0-.306-.191 7.055 7.055 0 0 1-6.185-1.44.261.261 0 0 0-.197-.123.27.27 0 0 0-.218.077.267.267 0 0 0 .045.415 7.358 7.358 0 0 0 5.394 1.76Z"/><path fill="#FFA8A7" d="M172.524 61.656a7.954 7.954 0 0 0 5.1 3.354c2.755.51 3.826-2.015 2.895-4.476-.867-2.219-3.367-5.1-6.019-4.54a3.588 3.588 0 0 0-2.519 2.297 3.581 3.581 0 0 0 .543 3.365Z"/><path fill="#263238" d="M186.69 46.444a.522.522 0 0 0 .574-.19c1.415-1.952 4.526-1.926 4.552-1.926a.523.523 0 0 0 .523-.523.521.521 0 0 0-.312-.483.51.51 0 0 0-.198-.04c-.153 0-3.673 0-5.407 2.36a.521.521 0 0 0 .115.727l.153.075ZM202.618 40.923a.529.529 0 0 0 .433-.28.524.524 0 0 0-.229-.702 5.218 5.218 0 0 0-4.757-.09.534.534 0 0 0-.191.715.521.521 0 0 0 .714.191 4.146 4.146 0 0 1 3.762.115.664.664 0 0 0 .268.05Z"/><path fill="#6B6BC7" d="M136.793 375.477h.166a1.476 1.476 0 0 0 1.071-.969.866.866 0 0 0-.063-.893c-.804-1.148-4.782-1.007-5.229-.982a.23.23 0 0 0-.229.166.273.273 0 0 0-.009.15.264.264 0 0 0 .073.131c.982.969 2.856 2.563 4.22 2.397Zm-3.443-2.359c1.594 0 3.724.178 4.145.778a.39.39 0 0 1 0 .395 1.015 1.015 0 0 1-.702.663c-.726.166-1.989-.536-3.443-1.836Z"/><path fill="#6B6BC7" d="M133.133 373.117c1.364-.166 3.825-1.096 4.157-2.168a.906.906 0 0 0-.383-1.071 1.355 1.355 0 0 0-1.122-.267c-1.569.306-3.201 3.022-3.277 3.136a.3.3 0 0 0 0 .255.26.26 0 0 0 .098.094c.04.023.085.034.131.034.132.008.265.004.396-.013Zm2.818-3.009a.879.879 0 0 1 .637.178c.268.204.255.37.204.485-.255.727-2.231 1.632-3.557 1.811.586-.88 1.708-2.283 2.639-2.461l.077-.013ZM211.977 401.721a4.09 4.09 0 0 0 2.665-.676 1.429 1.429 0 0 0 .472-1.275.816.816 0 0 0-.434-.689c-1.351-.752-5.738 1.492-6.223 1.747a.272.272 0 0 0-.14.268.243.243 0 0 0 .204.217c1.136.246 2.294.383 3.456.408Zm1.964-2.27c.166-.01.332.021.484.089a.36.36 0 0 1 .179.281.975.975 0 0 1-.306.841c-.663.6-2.474.702-4.91.294a14.284 14.284 0 0 1 4.553-1.505Z"/><path fill="#6B6BC7" d="M208.572 401.337h.102c1.275-.586 3.902-2.958 3.698-4.208 0-.293-.255-.663-.969-.74a1.889 1.889 0 0 0-1.441.459c-1.39 1.148-1.645 4.107-1.645 4.234a.232.232 0 0 0 .102.23c.047.025.101.034.153.025Zm2.614-4.463h.166c.472 0 .497.242.51.306.128.74-1.632 2.614-2.971 3.418a6.012 6.012 0 0 1 1.403-3.392c.243-.222.563-.341.892-.332Z"/><path fill="#263238" d="m191.23 48.573 1.951-1.072s-.701 1.862-1.951 1.072Z"/><path fill="#6B6BC7" d="m170.431 151.034-1.135 3.991c-.153.319.204.638.727.638h45.996c.395 0 .726-.204.752-.459l.408-3.991c0-.281-.319-.51-.765-.51h-45.205a.796.796 0 0 0-.778.331Z"/><path fill="#000" d="m170.431 151.034-1.135 3.991c-.153.319.204.638.727.638h45.996c.395 0 .726-.204.752-.459l.408-3.991c0-.281-.319-.51-.765-.51h-45.205a.796.796 0 0 0-.778.331Z" opacity=".2"/><path fill="#6B6BC7" d="M176.655 156.084h-1.211c-.242 0-.421-.115-.408-.268l.574-5.19c0-.153.229-.28.459-.28h1.275c.242 0 .434.127.408.28l-.561 5.19c-.076.153-.293.268-.536.268Z"/><path fill="#fff" d="M176.655 156.084h-1.211c-.242 0-.421-.115-.408-.268l.574-5.19c0-.153.229-.28.459-.28h1.275c.242 0 .434.127.408.28l-.561 5.19c-.076.153-.293.268-.536.268Z" opacity=".4"/><path fill="#6B6BC7" d="M212.563 156.084h-1.211c-.242 0-.421-.115-.408-.268l.561-5.19c0-.153.23-.28.472-.28h1.211c.242 0 .421.127.408.28l-.561 5.19c-.025.153-.229.268-.472.268Z"/><path fill="#fff" d="M212.563 156.084h-1.211c-.242 0-.421-.115-.408-.268l.561-5.19c0-.153.23-.28.472-.28h1.211c.242 0 .421.127.408.28l-.561 5.19c-.025.153-.229.268-.472.268Z" opacity=".4"/><path fill="#6B6BC7" d="M194.685 156.084h-1.276c-.242 0-.42-.115-.408-.268l.561-5.19c0-.153.23-.28.472-.28h1.212c.242 0 .42.127.408.28l-.561 5.19c.038.153-.166.268-.408.268Z"/><path fill="#fff" d="M194.685 156.084h-1.276c-.242 0-.42-.115-.408-.268l.561-5.19c0-.153.23-.28.472-.28h1.212c.242 0 .42.127.408.28l-.561 5.19c.038.153-.166.268-.408.268Z" opacity=".4"/><path fill="#FFA8A7" d="m197.925 162.562 10.839-4.846-3.086 10.75s-6.886 1.556-9.883-1.9l2.13-4.004Z"/><path fill="#FFA8A7" d="M157.986 100.243c-.497 3.761-.892 7.549-1.339 11.31l-1.147 11.349c-.408 3.826-.714 7.562-1.071 11.349l-.472 5.675-.128 1.428v2.41a12.124 12.124 0 0 0 1.518 4.604 19.212 19.212 0 0 0 5.1 5.585 39.798 39.798 0 0 0 5.458 3.456 75.284 75.284 0 0 0 11.107 4.654c3.736 1.275 7.485 2.334 11.247 3.277 3.762.944 7.524 1.722 11.413 2.321l1.275-5.419c-3.507-1.161-7.09-2.347-10.571-3.686s-6.963-2.652-10.304-4.17a78.986 78.986 0 0 1-9.538-4.973 30.023 30.023 0 0 1-4.004-2.894 9.779 9.779 0 0 1-2.41-2.882 1.657 1.657 0 0 1-.204-.791v-.382l.204-1.403.816-5.649c.497-3.826 1.058-7.536 1.518-11.311l1.44-11.311c.409-3.825.88-7.549 1.276-11.336l-11.184-1.211Z"/><path fill="#6B6BC7" d="M163.189 87.006c-4.463 1.352-9.844 16.756-9.844 16.756l15.646 16.105s8.034-16.577 6.159-22.34c-1.964-6.02-6.86-12.077-11.961-10.521Z"/><path fill="#FFA8A7" d="m217.728 159.948-3.061 8.85-8.99-.332 3.086-10.75 8.965 2.232Z"/><path fill="#8D8DE9" d="M348.63 247.394a12.148 12.148 0 0 1-12.126 11.795H304.42a24.573 24.573 0 1 1-39.849 0h-32.096a12.14 12.14 0 0 1-12.114-12.114V143.046a12.148 12.148 0 0 1 12.114-12.127h104.029a12.156 12.156 0 0 1 12.114 11.808v32.403a24.556 24.556 0 0 0-35.305 7.12 24.56 24.56 0 0 0 35.305 32.741v32.084c-.002.106.002.213.012.319Z"/><path fill="#fff" d="M284.489 294.396a20.858 20.858 0 0 1-18.606-11.34 20.845 20.845 0 0 1 1.659-21.725l4.183-5.803h-39.25a8.465 8.465 0 0 1-8.442-8.454V143.045a8.469 8.469 0 0 1 8.442-8.467h104.029a8.52 8.52 0 0 1 8.454 8.238v25.873a.17.17 0 0 1-.076.128.17.17 0 0 1-.153 0 27.838 27.838 0 0 0-10.419-2.002 28.243 28.243 0 0 0-10.987 1.973 28.233 28.233 0 0 0 10.987 54.479c3.57.01 7.107-.67 10.419-2.002a.153.153 0 0 1 .076-.019.16.16 0 0 1 .077.019.161.161 0 0 1 .076.127v26.014a8.556 8.556 0 0 1-8.454 8.084h-39.212l4.144 5.79a.16.16 0 0 1 .046.114.164.164 0 0 1-.046.115.152.152 0 0 1-.216 0l-4.336-6.057a.154.154 0 0 1 0-.166.17.17 0 0 1 .06-.056.172.172 0 0 1 .08-.02h39.531a8.252 8.252 0 0 0 8.135-7.766V221.66a28.27 28.27 0 0 1-10.329 1.938 28.547 28.547 0 0 1-27.677-21.37 28.55 28.55 0 0 1 38.006-33.781v-25.618a8.199 8.199 0 0 0-8.135-7.932h-104.08a8.123 8.123 0 0 0-5.749 2.392 8.142 8.142 0 0 0-2.374 5.756v104.029a8.133 8.133 0 0 0 8.123 8.136h39.53a.137.137 0 0 1 .082.016.148.148 0 0 1 .059.06.163.163 0 0 1 .024.083.163.163 0 0 1-.024.083l-4.362 6.07a20.404 20.404 0 0 0-3.902 11.986 20.583 20.583 0 0 0 41.163 0 .153.153 0 0 1 .153-.153.168.168 0 0 1 .063.008c.02.007.038.018.054.032a.157.157 0 0 1 .049.113 20.925 20.925 0 0 1-20.875 20.888Z" opacity=".3"/><path fill="#6B6BC7" d="M464.785 130.906h-32.07a24.577 24.577 0 0 1-7.137 35.314 24.579 24.579 0 0 1-25.627 0 24.574 24.574 0 0 1-7.137-35.314h-32.07a12.169 12.169 0 0 0-12.127 12.115v32.096a24.563 24.563 0 0 0-38.911 19.931 24.56 24.56 0 0 0 38.911 19.931v32.096a12.165 12.165 0 0 0 12.127 12.127h104.041a12.155 12.155 0 0 0 12.114-12.127V143.033a12.15 12.15 0 0 0-12.114-12.127Z"/><path fill="#fff" d="M464.787 255.528H360.746a8.454 8.454 0 0 1-8.455-8.454v-39.25l-5.802 4.183a20.86 20.86 0 0 1-33.065-16.947.15.15 0 0 1 .008-.063.153.153 0 0 1 .145-.103.165.165 0 0 1 .166.166 20.545 20.545 0 0 0 11.17 18.307 20.547 20.547 0 0 0 21.385-1.615l6.057-4.361a.166.166 0 0 1 .081-.027.173.173 0 0 1 .083.018.162.162 0 0 1 .063.056.164.164 0 0 1 .028.08v39.531a8.133 8.133 0 0 0 8.136 8.135h104.041a8.135 8.135 0 0 0 8.136-8.135V143.033a8.15 8.15 0 0 0-8.136-8.136h-25.401a28.543 28.543 0 0 1 1.742 13.606 28.543 28.543 0 0 1-15.046 21.974 28.553 28.553 0 0 1-41.678-21.974 28.556 28.556 0 0 1 1.743-13.606h-25.401a8.147 8.147 0 0 0-8.136 8.136v39.53a.177.177 0 0 1-.026.087.181.181 0 0 1-.063.066.198.198 0 0 1-.083.019.198.198 0 0 1-.083-.019l-6.057-4.361a20.401 20.401 0 0 0-11.987-3.889.153.153 0 0 1-.153-.153.148.148 0 0 1 .008-.063.164.164 0 0 1 .032-.054.143.143 0 0 1 .052-.036.142.142 0 0 1 .061-.013 20.745 20.745 0 0 1 12.178 3.94l5.802 4.183v-39.237a8.47 8.47 0 0 1 8.455-8.455h25.631a.178.178 0 0 1 .14.077.186.186 0 0 1 0 .14 27.937 27.937 0 0 0-1.989 10.444 28.229 28.229 0 0 0 28.226 27.632 28.236 28.236 0 0 0 28.226-27.632 27.958 27.958 0 0 0-1.99-10.444.143.143 0 0 1 0-.14.167.167 0 0 1 .141-.077h25.631a8.464 8.464 0 0 1 8.454 8.455v104.041a8.47 8.47 0 0 1-8.429 8.454Z" opacity=".3"/></svg>