<svg width="313" height="224" fill="none" xmlns="http://www.w3.org/2000/svg"><ellipse cx="165.5" cy="206.393" rx="78.5" ry="11.021" fill="#9FAFA4"/><path d="M87.726 216.224c18.646-14.337 21.745-39.282 19.866-61.507-.323-3.711-.106-7.642-2.064-10.789-1.958-3.147-6.228-5.181-9.531-3.438-2.719 1.443-3.778 4.716-5.2 7.451a22.003 22.003 0 0 1-8.396 8.775c-2.33 1.35-5.253 2.252-7.683 1.087-3.333-1.593-3.947-5.998-4.11-9.694l-.924-20.65c-.171-3.695-.347-7.466-1.695-10.914-1.348-3.449-4.076-6.561-7.684-7.362-3.608-.8-7.902 1.455-8.473 5.107-.235 1.521.154 3.066.13 4.606-.023 1.54-.621 3.27-2.117 3.773-1.496.504-3.014-.462-4.19-1.476-4.051-3.536-6.917-8.194-9.602-12.805-2.686-4.611-5.326-9.419-9.03-13.298-3.704-3.879-8.726-6.854-14.097-6.88-5.37-.028-10.905 3.546-12.016 8.806-1.11 5.261 2.257 10.398 5.82 14.438A83.075 83.075 0 0 0 24.96 126.85c1.227.759 2.542 1.587 3.069 2.93.937 2.459-1.297 4.988-3.721 5.932-2.747 1.024-5.82.936-8.678 1.422-2.858.486-5.997 1.923-6.964 4.669-1.331 3.855 2.064 7.646 5.344 10.074a71.824 71.824 0 0 0 21.738 10.958c2.804.854 5.743 1.574 8.056 3.369 2.313 1.795 3.832 5.039 2.623 7.709-1.208 2.669-4.611 3.671-7.517 3.311-2.906-.36-5.564-1.788-8.362-2.668-5.244-1.649-11.828-.955-14.926 3.606-2.019 2.994-2.002 7.019-.735 10.397 1.268 3.378 3.642 6.22 6.136 8.835 8.725 9.116 19.671 16.25 31.801 19.724 12.13 3.474 23.23 3.991 34.86-.908" fill="#B8CFBF"/><path d="M81.916 211.645c-2.737-8.072-9.938-26.998-14.038-35.846l-3.042-6.53c-1.004-2.142-1.995-4.261-3.084-6.273a127.63 127.63 0 0 0-6.81-11.141c-2.321-3.441-4.63-6.611-6.778-9.567a154.94 154.94 0 0 0-6.254-8.019 93.102 93.102 0 0 0-10.09-10.424 86.077 86.077 0 0 0-2.968-2.518l-.826-.681c-.179-.139-.276-.204-.276-.204s.083.085.252.237l.77.661c.67.559 1.67 1.434 2.925 2.578a99.15 99.15 0 0 1 9.989 10.494c1.969 2.385 4.031 5.095 6.206 8.042a273.115 273.115 0 0 1 6.779 9.567 128.123 128.123 0 0 1 6.772 11.145c1.078 2.006 2.071 4.143 3.073 6.262 1.001 2.118 2 4.329 3.042 6.53 4.077 8.836 11.293 27.743 14.043 35.789" fill="#fff"/><path d="M61.635 162.966c.078-.385.122-.778.134-1.174.062-.76.126-1.866.19-3.219.131-2.72.202-6.485.272-10.639.07-4.154.196-7.905.377-10.617.085-1.355.166-2.45.255-3.206.05-.39.071-.785.063-1.18a6.894 6.894 0 0 0-.2 1.155c-.111.752-.227 1.875-.347 3.202-.284 2.708-.436 6.474-.504 10.647-.068 4.172-.12 7.843-.164 10.641-.03 1.301-.06 2.385-.082 3.222-.027.388-.025.779.006 1.168zM30.375 158.662c.105.028.213.039.32.033l.92.023c.8.022 1.95.044 3.37.122 2.843.13 6.773.48 11.097 1.079 4.325.599 8.21 1.361 11.017 1.995 1.402.309 2.533.592 3.305.783l.903.216c.104.036.21.053.318.052a1.02 1.02 0 0 0-.303-.127c-.244-.084-.555-.18-.888-.292-.771-.241-1.9-.573-3.32-.942-2.797-.71-6.696-1.507-11.026-2.112-4.33-.605-8.233-.883-11.102-.943a48.497 48.497 0 0 0-3.374.015l-.915.081a1.122 1.122 0 0 0-.322.017zM77.937 200.682c.07-.14.127-.288.17-.441l.427-1.275c.364-1.132.833-2.781 1.45-4.833 1.18-4.092 2.654-9.811 4.213-16.144 1.56-6.333 2.987-12.085 4.095-16.202l1.338-4.867c.146-.544.27-.982.363-1.324.048-.153.082-.311.104-.473a1.839 1.839 0 0 0-.171.442l-.427 1.274a170.78 170.78 0 0 0-1.444 4.827c-1.18 4.098-2.66 9.818-4.213 16.15-1.554 6.333-2.994 12.061-4.113 16.179l-1.339 4.867-.357 1.323c-.05.16-.082.327-.096.497zM35.926 188.702c.135.065.274.115.417.148l1.224.355 4.503 1.288c3.801 1.084 9.036 2.653 14.816 4.403 5.78 1.749 11.033 3.273 14.849 4.289 1.905.504 3.455.898 4.524 1.15l1.238.279c.144.042.29.066.438.072a2.194 2.194 0 0 0-.424-.154l-1.223-.355-4.503-1.275c-3.8-1.085-9.036-2.654-14.815-4.403-5.78-1.75-11.028-3.28-14.844-4.289-1.91-.504-3.455-.899-4.529-1.15l-1.233-.286a1.987 1.987 0 0 0-.438-.072z" fill="#fff"/><path d="M233.941 132.763c-19.559-13.058-24.313-37.741-23.919-60.042.076-3.724-.402-7.632 1.342-10.903 1.743-3.271 5.868-5.586 9.28-4.068 2.809 1.258 4.083 4.454 5.685 7.087a21.99 21.99 0 0 0 8.962 8.194c2.414 1.191 5.391 1.896 7.738.57 3.219-1.811 3.538-6.248 3.454-9.946l-.453-20.666c-.075-3.698-.15-7.472.965-11.003 1.115-3.531 3.63-6.819 7.176-7.859 3.546-1.04 7.981.923 8.795 4.529.335 1.501.05 3.07.176 4.604.126 1.535.838 3.221 2.364 3.624 1.526.402 2.976-.663 4.083-1.753 3.806-3.8 6.355-8.639 8.727-13.42 2.373-4.78 4.687-9.753 8.124-13.871 3.438-4.118 8.25-7.423 13.607-7.809 5.357-.385 11.117 2.81 12.576 7.985 1.459 5.175-1.56 10.525-4.846 14.794a83.136 83.136 0 0 1-17.162 16.581c-1.173.839-2.431 1.753-2.867 3.129-.771 2.516 1.627 4.89 4.108 5.67 2.809.838 5.869.544 8.753.838 2.884.293 6.112 1.518 7.26 4.193 1.585 3.758-1.551 7.767-4.661 10.409a71.842 71.842 0 0 1-20.96 12.387c-2.741 1.04-5.625 1.954-7.813 3.9-2.188 1.946-3.488 5.284-2.105 7.867 1.384 2.583 4.846 3.355 7.722 2.801 2.875-.553 5.433-2.155 8.166-3.22 5.122-1.997 11.737-1.745 15.132 2.6 2.214 2.851 2.465 6.868 1.426 10.324-1.04 3.455-3.22 6.449-5.534 9.225-8.098 9.679-18.545 17.529-30.416 21.806-11.871 4.278-22.913 5.536-34.843 1.426" fill="#B8CFBF"/><path d="M238.228 127.857c2.337-8.99 8.723-30.146 12.555-40.105l2.847-7.352c.941-2.413 1.87-4.8 2.923-7.079a134.936 134.936 0 0 1 6.729-12.7c2.33-3.943 4.673-7.593 6.854-10.995a167.2 167.2 0 0 1 6.405-9.271 102.699 102.699 0 0 1 10.592-12.239 96.419 96.419 0 0 1 3.171-3.007l.885-.816c.193-.167.299-.247.299-.247s-.087.1-.268.28l-.822.79a106.88 106.88 0 0 0-3.115 3.067 109.153 109.153 0 0 0-10.468 12.306c-2.031 2.767-4.137 5.895-6.349 9.29-2.212 3.396-4.53 7.06-6.854 10.996a135.632 135.632 0 0 0-6.686 12.7c-1.04 2.272-1.968 4.679-2.909 7.065-.941 2.386-1.87 4.873-2.848 7.352-3.807 9.946-10.212 31.082-12.567 40.045" fill="#fff"/><path d="M256.684 73.277a7.056 7.056 0 0 1-.274-1.257 100.31 100.31 0 0 1-.548-3.462c-.43-2.928-.898-6.992-1.402-11.477-.505-4.485-1.035-8.529-1.521-11.443-.236-1.457-.442-2.633-.623-3.442a8.223 8.223 0 0 1-.193-1.27c.153.397.27.809.349 1.23.206.802.455 2.005.729 3.429.604 2.9 1.165 6.958 1.67 11.463.505 4.505.941 8.469 1.277 11.49.168 1.404.312 2.573.424 3.476.071.416.108.84.112 1.263zM292.361 65.622c-.119.04-.243.063-.368.067l-1.059.114c-.922.1-2.249.234-3.882.454-3.271.414-7.776 1.17-12.71 2.233a165.496 165.496 0 0 0-12.524 3.215c-1.589.468-2.866.882-3.739 1.163l-1.021.32a1.18 1.18 0 0 1-.362.087c.104-.073.217-.13.337-.167.274-.113.623-.247.997-.4a87.758 87.758 0 0 1 3.738-1.338c3.159-1.036 7.583-2.272 12.524-3.342 4.941-1.07 9.421-1.744 12.729-2.085a59.878 59.878 0 0 1 3.901-.308h1.065a1.4 1.4 0 0 1 .374-.013zM241.705 115.622a2.702 2.702 0 0 1-.243-.461l-.623-1.337c-.536-1.19-1.247-2.928-2.169-5.087-1.782-4.311-4.068-10.354-6.517-17.051-2.449-6.698-4.686-12.78-6.387-17.125l-2.043-5.133c-.225-.575-.412-1.036-.555-1.397a3 3 0 0 1-.168-.502c.101.141.182.297.243.462l.623 1.337c.536 1.19 1.277 2.927 2.162 5.08 1.782 4.317 4.075 10.36 6.517 17.057 2.443 6.698 4.692 12.754 6.406 17.098l2.043 5.134.549 1.397c.074.168.128.345.162.528zM289.017 98.635c-.149.084-.306.15-.467.2l-1.377.502-5.072 1.825c-4.281 1.537-10.169 3.736-16.667 6.182-6.499 2.447-12.412 4.599-16.717 6.063-2.15.728-3.901 1.303-5.109 1.678l-1.402.421a2.27 2.27 0 0 1-.499.12c.151-.085.31-.155.474-.207l1.377-.501 5.071-1.812c4.281-1.537 10.169-3.736 16.668-6.183 6.498-2.446 12.405-4.605 16.711-6.062 2.155-.729 3.9-1.304 5.115-1.678l1.396-.428a2.46 2.46 0 0 1 .498-.12z" fill="#fff"/><path d="m121.117 44.914-1.279-2.148a88.892 88.892 0 0 1 11.459-5.695l.953 2.323a83.824 83.824 0 0 0-11.133 5.52zM84.507 89.03 82 88.18a86.99 86.99 0 0 1 30.867-40.867l1.479 2.023A84.214 84.214 0 0 0 84.507 89.03z" fill="#8D8DE9"/><path d="M164.097 194.37c42.625 0 77.18-34.424 77.18-76.888 0-42.465-34.555-76.89-77.18-76.89-42.626 0-77.18 34.425-77.18 76.89 0 42.464 34.554 76.888 77.18 76.888z" fill="#8D8DE9"/><path opacity=".6" d="M228.562 117.482a64.077 64.077 0 0 1-14.879 41.019 64.52 64.52 0 0 1-37.749 22.092 64.684 64.684 0 0 1-43.209-7.024 64.3 64.3 0 0 1-28.741-32.9 63.993 63.993 0 0 1-1.019-43.604 64.262 64.262 0 0 1 27.173-34.197 64.668 64.668 0 0 1 42.834-9.02 64.546 64.546 0 0 1 38.74 20.318.149.149 0 0 1 .125 0 63.963 63.963 0 0 1 16.725 43.316z" fill="#fff"/><path d="M228.562 117.482a64.048 64.048 0 0 1-10.511 35.146 64.402 64.402 0 0 1-28.103 23.686 64.688 64.688 0 0 1-36.533 4.503 64.568 64.568 0 0 1-33.051-16.147 64.089 64.089 0 0 1-16.952-44.89 64.105 64.105 0 0 1 18.991-44.073 64.588 64.588 0 0 1 44.343-18.676 64.606 64.606 0 0 1 44.966 17.136.147.147 0 0 1 .125 0 63.962 63.962 0 0 1 16.725 43.315z" fill="#fff"/><path d="M164.095 121.227a3.756 3.756 0 0 1-2.658-1.099l-31.443-31.325a3.748 3.748 0 0 1-1.197-2.675 3.736 3.736 0 0 1 1.101-2.716 3.764 3.764 0 0 1 2.726-1.097 3.77 3.77 0 0 1 2.685 1.192l28.786 28.677 16.625-16.562a3.769 3.769 0 0 1 5.223.092 3.74 3.74 0 0 1 1.102 2.584 3.74 3.74 0 0 1-1.009 2.62l-19.283 19.21a3.793 3.793 0 0 1-2.658 1.099z" fill="#263238"/></svg>