<svg width="351" height="191" fill="none" xmlns="http://www.w3.org/2000/svg"><path d="M348.83 30.275s-4.227-2.582-8.9 7.483-6.377 15.842-6.377 15.842-1.259 2.116-2.726.815c-1.466-1.301-3.54-5.063-5.947-4.294-2.478.805-3.201 3.636-2.574 7.732.627 4.096 1.664 13.118 1.76 13.933.096.815-.329 2.025-1.472 1.276-1.142-.75-7.818-7.65-10.913-4.284-3.095 3.367.506 14.49.901 15.695.394 1.206.146 1.757-.43 2.087-.577.329-2.6-2.213-4.552-4.107-1.952-1.893-4.607-3.736-6.225-1.645-1.618 2.091-1.861 10.546 6.65 23.953l4.349 5.954 7.368-.679c15.677-2.41 21.877-8.151 22.383-10.748.506-2.598-2.61-3.367-5.33-3.61-2.721-.243-5.968-.106-6.099-.755-.132-.648.121-1.17 1.289-1.69 1.169-.522 11.905-5.12 12.405-9.67.501-4.552-9.102-5.018-10.402-5.403-1.3-.385-.673-1.488 0-1.95.673-.46 8.147-5.619 11.631-7.842 3.485-2.222 5.093-4.617 4.081-7.017-1.011-2.314-5.193-1.402-7.14-1.655-1.947-.254-1.179-2.593-1.179-2.593s3.222-5.063 7.712-15.224c4.491-10.161-.359-11.645-.359-11.645" fill="#B8CFBF"/><path d="M344.643 39.281s-.025.076-.086.218c-.06.142-.151.365-.262.633l-1.042 2.405c-.911 2.09-2.246 5.108-3.909 8.83-3.328 7.442-8.011 17.68-13.219 28.97-5.209 11.29-9.933 21.527-13.301 28.955l-3.979 8.794-1.083 2.39c-.126.263-.222.471-.288.617a2.257 2.257 0 0 1-.106.208c.022-.074.049-.147.081-.218a41.1 41.1 0 0 0 .263-.628c.243-.562.597-1.372 1.042-2.41.91-2.091 2.245-5.103 3.909-8.824 3.327-7.443 8.01-17.68 13.219-28.975 5.209-11.296 9.917-21.523 13.285-28.945 1.679-3.701 3.034-6.704 3.98-8.79l1.087-2.39c.121-.268.217-.47.288-.622.071-.152.121-.218.121-.218z" fill="#fff"/><path d="M327.586 55.507c.091.16.161.33.207.507.122.319.278.79.471 1.372.374 1.17.854 2.79 1.35 4.592l1.249 4.617.384 1.398c.062.162.101.333.117.506a2.108 2.108 0 0 1-.208-.506c-.121-.32-.278-.79-.465-1.378-.364-1.17-.824-2.8-1.32-4.602l-1.279-4.607-.39-1.392a2.256 2.256 0 0 1-.116-.507zM332.045 68.606c0-.065 3.277-1.205 7.368-2.531s7.429-2.375 7.449-2.309c.02.066-3.277 1.205-7.368 2.532-4.091 1.326-7.429 2.374-7.449 2.308zM323.261 85.587c.18-.034.363-.05.546-.046l1.477-.05c1.244-.046 2.968-.112 4.865-.259 1.896-.147 3.61-.319 4.854-.46l1.467-.168c.18-.033.364-.043.546-.03a2.53 2.53 0 0 1-.506.127 35.86 35.86 0 0 1-1.461.243 65.97 65.97 0 0 1-4.855.541 63.95 63.95 0 0 1-4.885.178c-.622 0-1.128 0-1.477-.026a2.094 2.094 0 0 1-.571-.05zM316.626 74.631c.118.12.219.255.304.4.182.263.445.653.758 1.14.633.966 1.487 2.313 2.418 3.806.93 1.494 1.765 2.856 2.356 3.848.299.507.531.901.688 1.185.096.14.172.29.228.45a1.738 1.738 0 0 1-.309-.4c-.182-.268-.44-.653-.758-1.139a282.662 282.662 0 0 1-2.418-3.812 231.18 231.18 0 0 1-2.356-3.848c-.294-.506-.506-.901-.688-1.18a2.103 2.103 0 0 1-.223-.45zM306.967 88.635c.147.155.278.325.389.507l.976 1.458a492.525 492.525 0 0 1 3.136 4.855 355.348 355.348 0 0 1 3.074 4.901l.911 1.519c.117.18.219.369.303.567a3.026 3.026 0 0 1-.389-.506l-.971-1.458a449.2 449.2 0 0 1-3.141-4.86 398.679 398.679 0 0 1-3.074-4.902 65.918 65.918 0 0 1-.906-1.519 3.073 3.073 0 0 1-.308-.562zM315.641 102.048c.224-.051.453-.078.682-.081l1.871-.132c1.578-.111 3.763-.273 6.165-.506 2.402-.233 4.551-.506 6.144-.724l1.856-.248c.227-.041.457-.061.688-.061a3.375 3.375 0 0 1-.673.157c-.435.086-1.067.197-1.845.324-1.568.258-3.738.562-6.145.805-2.407.243-4.597.38-6.179.446-.794.03-1.432.05-1.877.05a4.048 4.048 0 0 1-.687-.03z" fill="#fff"/><path d="M47.688 80.145c11.798-7.883 14.665-22.783 14.428-36.246-.046-2.248.242-4.607-.81-6.581-1.051-1.975-3.54-3.372-5.598-2.456-1.694.76-2.462 2.688-3.428 4.278a13.27 13.27 0 0 1-5.406 4.947c-1.457.719-3.252 1.144-4.668.344-1.942-1.093-2.134-3.772-2.083-6.005l.273-12.475c.045-2.232.09-4.51-.582-6.642-.672-2.132-2.19-4.116-4.329-4.744-2.139-.628-4.814.557-5.305 2.734-.202.906-.03 1.853-.106 2.78-.076.926-.506 1.944-1.426 2.186-.92.244-1.795-.4-2.463-1.058-2.295-2.293-3.833-5.215-5.264-8.1-1.431-2.886-2.827-5.889-4.9-8.374C13.947 2.247 11.044.252 7.813.019 4.582-.214 1.107 1.715.228 4.839c-.88 3.124.94 6.354 2.922 8.93a50.161 50.161 0 0 0 10.352 10.01c.708.507 1.467 1.058 1.73 1.889.465 1.519-.981 2.951-2.478 3.422-1.694.507-3.54.33-5.28.507-1.74.177-3.686.916-4.38 2.531-.955 2.268.936 4.688 2.813 6.283a43.329 43.329 0 0 0 12.642 7.478c1.654.628 3.393 1.18 4.713 2.354 1.32 1.175 2.104 3.19 1.27 4.75-.835 1.559-2.923 2.025-4.658 1.69-1.734-.334-3.277-1.3-4.925-1.944-3.09-1.205-7.08-1.053-9.128 1.57-1.335 1.721-1.487 4.146-.86 6.232.627 2.086 1.942 3.894 3.338 5.57 4.885 5.842 11.186 10.581 18.346 13.163 7.161 2.582 13.822 3.342 21.018.86" fill="#B8CFBF"/><path d="M46.783 80.402c-1.896-6.81-7.08-22.834-10.19-30.378l-2.31-5.57c-.765-1.827-1.518-3.634-2.373-5.36a100.245 100.245 0 0 0-5.461-9.62c-1.892-2.988-3.793-5.752-5.563-8.329a127.203 127.203 0 0 0-5.199-7.022 79.639 79.639 0 0 0-8.597-9.27 75.934 75.934 0 0 0-2.574-2.279l-.718-.617c-.157-.127-.243-.188-.243-.188s.071.076.218.213l.667.597A84.88 84.88 0 0 1 6.97 4.903c3.06 2.89 5.9 6.006 8.496 9.321 1.648 2.096 3.358 4.465 5.153 7.038a219.58 219.58 0 0 1 5.563 8.328 100.541 100.541 0 0 1 5.426 9.62c.844 1.721 1.598 3.544 2.361 5.351.764 1.808 1.518 3.691 2.312 5.57 3.09 7.533 8.288 23.542 10.2 30.331" fill="#fff"/><path d="M31.803 39.06c.105-.31.18-.628.223-.952a73.59 73.59 0 0 0 .445-2.623c.349-2.217.728-5.296 1.138-8.693.41-3.397.84-6.46 1.234-8.668.192-1.103.359-1.994.505-2.607a5.82 5.82 0 0 0 .157-.962c-.124.3-.218.613-.283.932-.167.607-.37 1.519-.592 2.597-.49 2.197-.945 5.27-1.355 8.683-.41 3.412-.764 6.415-1.037 8.703-.136 1.063-.253 1.95-.343 2.633a5.687 5.687 0 0 0-.091.957zM2.847 33.261c.097.031.197.048.299.051l.86.086c.748.076 1.825.177 3.15.344 2.655.314 6.311.886 10.316 1.692 4.005.805 7.586 1.71 10.165 2.435 1.29.354 2.326.668 3.034.88l.83.244c.093.036.192.058.293.066a1.012 1.012 0 0 0-.273-.127c-.223-.086-.506-.187-.81-.304a74.391 74.391 0 0 0-3.034-1.012c-2.564-.785-6.154-1.722-10.164-2.532s-7.647-1.321-10.332-1.58a52.012 52.012 0 0 0-3.166-.232h-.864c-.1-.016-.203-.02-.304-.01zM43.961 71.134c.078-.11.144-.227.198-.35l.505-1.012c.435-.901 1.012-2.217 1.76-3.853 1.447-3.265 3.303-7.842 5.29-12.915 1.987-5.073 3.803-9.68 5.183-12.971l1.66-3.889c.181-.435.333-.785.45-1.058a2.15 2.15 0 0 0 .136-.38 1.438 1.438 0 0 0-.197.35l-.506 1.012c-.435.901-1.037 2.218-1.755 3.848-1.446 3.27-3.307 7.848-5.29 12.92-1.982 5.074-3.808 9.66-5.198 12.952l-1.66 3.888-.444 1.058c-.06.128-.104.262-.132.4zM5.561 58.267c.121.064.248.114.38.152l1.117.38 4.116 1.382c3.475 1.165 8.253 2.83 13.528 4.683 5.274 1.853 10.074 3.484 13.568 4.592 1.745.552 3.166.988 4.147 1.271l1.138.32c.13.044.267.074.404.09a2.16 2.16 0 0 0-.384-.157l-1.118-.38-4.116-1.371c-3.474-1.165-8.253-2.83-13.528-4.684-5.274-1.853-10.068-3.488-13.563-4.592-1.75-.552-3.165-.987-4.152-1.27l-1.132-.325a2.116 2.116 0 0 0-.405-.09zM241.864 2.146h63.754l-12.47 8.875v7.413a13.824 13.824 0 0 1-4.114 9.733 13.788 13.788 0 0 1-9.783 3.972h-40.007a13.79 13.79 0 0 1-9.783-3.972 13.819 13.819 0 0 1-4.113-9.733 16.422 16.422 0 0 1 4.888-11.57 16.381 16.381 0 0 1 11.628-4.718z" fill="#fff"/><path d="M282.392 12.053c0 .07-10.62.131-23.768.131-13.148 0-23.768-.06-23.768-.131 0-.071 10.62-.132 23.768-.132 13.148 0 23.768.056 23.768.132zM282.392 16.985c0 .07-10.62.131-23.768.131-13.148 0-23.768-.06-23.768-.131 0-.071 10.62-.132 23.768-.132 13.148 0 23.768.056 23.768.131zM145.136 154.059H69.695l12.289 8.901v17.467a3.646 3.646 0 0 0 3.646 3.645h59.506a3.634 3.634 0 0 0 3.368-2.249c.184-.442.278-.917.278-1.396v-22.722a3.648 3.648 0 0 0-3.646-3.646z" fill="#fff"/><path d="M141.991 166.402c0 .076-11.378.132-25.411.132-14.034 0-25.412-.056-25.412-.132 0-.076 11.373-.131 25.412-.131 14.038 0 25.411.06 25.411.131zM141.991 173.111c0 .071-11.378.132-25.411.132-14.034 0-25.412-.061-25.412-.132 0-.071 11.373-.131 25.412-.131 14.038 0 25.411.06 25.411.131z" fill="#fff"/><path d="M200.045 30.26a1.777 1.777 0 0 0 1.093 1.637 1.766 1.766 0 0 0 1.929-.384 1.774 1.774 0 0 0-1.252-3.026 1.769 1.769 0 0 0-1.77 1.773zM194.731 32.032a1.771 1.771 0 0 0 0-3.545 1.77 1.77 0 0 0-1.77 1.773 1.77 1.77 0 0 0 1.77 1.771zM185.894 29.374a1.773 1.773 0 0 0 .963 2.564 1.769 1.769 0 0 0 2.324-1.446 1.77 1.77 0 0 0-3.287-1.118z" fill="#455A64"/><path d="M194.618 9.557a2.36 2.36 0 0 0-.354 0l-1.052.03c-.232 0-.505 0-.778.036l-.926.132-1.082.157-1.214.298a19.545 19.545 0 0 0-5.861 2.532 20.751 20.751 0 0 0-9.507 15.573c-.08.945-.098 1.894-.056 2.84.036.477.026.968.096 1.449.071.48.147.972.218 1.463a20.839 20.839 0 0 0 1.972 5.777 22.203 22.203 0 0 0 3.768 5.194 21.726 21.726 0 0 0 5.431 3.904 19.705 19.705 0 0 0 6.619 2.025c.585.087 1.175.136 1.765.147.594.045 1.19.056 1.786.035 1.2-.05 2.394-.2 3.57-.45a20.915 20.915 0 0 0 7.115-3.003l-.212.026 7.246 2.91.43.173-.121-.446-2.134-7.756-.036.187a20.793 20.793 0 0 0 3.869-8.86c.278-1.502.373-3.032.283-4.556a15.35 15.35 0 0 0-.207-2.182 96.07 96.07 0 0 0-.167-1.064c-.061-.35-.167-.688-.253-1.012a20.76 20.76 0 0 0-8.091-11.802 19.865 19.865 0 0 0-4.809-2.531l-1.088-.39-1.011-.264-.941-.232c-.303-.056-.596-.087-.869-.132-.547-.066-1.012-.162-1.452-.182l-1.062-.036h-.652a1.523 1.523 0 0 0-.223 0 .656.656 0 0 0 .223.03l.647.056 1.057.071c.42.03.895.137 1.441.218a20.616 20.616 0 0 1 10.51 5.218 20.655 20.655 0 0 1 5.966 10.112c.076.335.182.669.243 1.013.061.344.101.689.157 1.043.115.708.18 1.424.192 2.142.08 1.49-.019 2.984-.293 4.45a20.528 20.528 0 0 1-3.839 8.657l-.065.087.03.106a1401.24 1401.24 0 0 0 2.114 7.761l.308-.273-7.247-2.921-.111-.046-.106.066a20.317 20.317 0 0 1-10.448 3.372c-.582.02-1.164.01-1.745-.03-.577-.011-1.153-.06-1.724-.147a19.31 19.31 0 0 1-6.473-1.98 21.5 21.5 0 0 1-5.32-3.812 21.831 21.831 0 0 1-3.702-5.063 20.57 20.57 0 0 1-1.921-5.666c-.076-.506-.152-.957-.223-1.433-.071-.475-.061-.951-.096-1.422a21.386 21.386 0 0 1 .04-2.785 20.495 20.495 0 0 1 9.26-15.386 19.71 19.71 0 0 1 5.77-2.602l1.193-.32 1.072-.177.921-.151c.283-.03.541-.041.769-.056l1.046-.076c.116-.003.232-.018.344-.046z" fill="#455A64"/><path d="M106.072 85.229c6.417-.21 9.885 2.16 10.972 6.941 1.087 4.78-2.323 24.103-2.323 24.103 10.058 6.009 16.92 9.954 21.681 12.099 3.748 1.679 14.827 10.629 14.95 12.806.124 2.178-4.332-1.518-7.108-3.318-2.776-1.799-6.104-1.606-11.631-3.053-5.528-1.446-25.19-6.339-27.941-8.901-2.752-2.563 1.4-40.677 1.4-40.677z" fill="#FFA8A7"/><path d="m100.09 79.178-7.076.185c-4.73.125-9.316-1.587-12.752-4.76s-5.438-7.547-5.567-12.16c-.142-5.524 1.966-10.878 5.863-14.89 3.896-4.011 9.264-6.353 14.927-6.513 5.666-.14 11.157 1.915 15.272 5.716 4.115 3.8 6.517 9.037 6.681 14.562.126 4.612-1.63 9.084-4.883 12.433s-7.737 5.301-12.465 5.427z" fill="#263238"/><path d="M89.82 36.22c3.154 4.314 0 7.383-4.44 10.444-4.44 3.061-8.427 4.998-11.582.683-3.155-4.314-1.59-9.239 2.834-12.316 4.423-3.077 10.049-3.093 13.188 1.19z" fill="#263238"/><path d="m79.153 50.056-4.448 3.366a2.64 2.64 0 0 1-.533-.935 2.598 2.598 0 0 1 .215-2.085c.179-.315.421-.592.713-.813a3.004 3.004 0 0 1 4.053.467z" fill="#263238"/><path d="M108.921 50.014c2.29 1.245 5.239 6.709 5.289 18.326 0 9.842-3.164 12.364-4.786 13.104-1.623.739-4.803.401-7.892 0l.05 4.081s5.552 5.921 5.362 8.637c-.189 2.715-7.1 4.121-11.161 1.606-4.061-2.514-7.562-7.543-7.562-7.543l-.297-13.658s-1.762 1.759-4.942-.804c-2.595-2.097-3.55-5.72-1.647-7.737a4.446 4.446 0 0 1 1.777-1.037 4.53 4.53 0 0 1 2.066-.134c.69.115 1.342.389 1.902.797a4.34 4.34 0 0 1 1.322 1.555s4.943.048 11.351-3.631a18.208 18.208 0 0 0 6.249-5.71 17.657 17.657 0 0 0 2.919-7.852z" fill="#FFA8A7"/><path d="M102.876 66.163c.009.243-.055.482-.185.689a1.254 1.254 0 0 1-.543.475 1.296 1.296 0 0 1-1.384-.196 1.233 1.233 0 0 1-.382-.607 1.208 1.208 0 0 1 .024-.711c.079-.23.226-.432.422-.581.196-.15.433-.239.68-.258a1.322 1.322 0 0 1 .937.318 1.262 1.262 0 0 1 .431.871z" fill="#263238"/><path d="m103.444 74.494 2.974.844a1.497 1.497 0 0 1-.708.93 1.54 1.54 0 0 1-1.178.146 1.64 1.64 0 0 1-.932-.75 1.571 1.571 0 0 1-.156-1.17z" fill="#F28F8F"/><path d="m113.174 62.092-2.62-1.671c.104-.171.242-.32.407-.438a1.526 1.526 0 0 1 1.156-.262c.201.035.392.109.563.218a1.577 1.577 0 0 1 .494 2.153zM112.663 65.007c.01.244-.053.486-.183.696a1.26 1.26 0 0 1-.546.482 1.306 1.306 0 0 1-1.397-.196 1.23 1.23 0 0 1 .07-1.915c.199-.15.438-.239.688-.256.343-.018.679.097.935.32s.412.535.433.869z" fill="#263238"/><path d="m106.912 63.842.157 8.058 3.978-1.317-4.135-6.74zM101.533 81.428c-3.295-.329-9.984-2.024-11.096-4.563a6.65 6.65 0 0 0 2.43 3.214c2.043 1.607 8.716 3.31 8.716 3.31l-.05-1.96z" fill="#F28F8F"/><path d="M132.654 134.832c2.108.804 2.026 1.398 3.748 2.346 3.187 1.768 5.255 1.422 5.255 1.422a28.603 28.603 0 0 0 3.015 2.41c2.249 1.511 4.514 2.668 7.29 1.816 3.039-.94.898-3.872 0-5.318-.898-1.447-5.766-5.681-6.755-6.548-.988-.868-5.115-1.462-8.764-2.571l-3.789 6.443zM102.505 152.386c-5.494-1.559-25.165-6.926-31.137-8.838-4.119-1.317-6.4-2.241-6.516-5.752-.099-3.262 4.852-29.984 6.656-36.564 1.573-5.776 5.082-7.752 10.783-10.179 3.937 3.037 5.057 18.519.354 22.584-1.755 6.781-4.942 18.559-4.942 18.559s11.186 5.672 19.176 9.424c3.987 1.872 9.39 4.555 12.57 4.893 2.521.265 6.993.434 7.957 1.293a73.993 73.993 0 0 1 6.483 7.344c.898 1.438 3.048 4.378 0 5.318-2.776.852-5.033-.305-7.29-1.816a29.072 29.072 0 0 1-3.015-2.41 11.284 11.284 0 0 1-6.516-1.261 488.712 488.712 0 0 1-4.563-2.595z" fill="#FFA8A7"/><path d="M149.146 22.027H58.802c-5.28 0-10.344 2.099-14.078 5.836a19.933 19.933 0 0 0-5.832 14.09v32.22h-19.49l19.49 19.505v21.904a19.934 19.934 0 0 0 5.832 14.09 19.9 19.9 0 0 0 14.078 5.836h90.344a19.902 19.902 0 0 0 14.079-5.836 19.933 19.933 0 0 0 5.831-14.09v-73.63a19.932 19.932 0 0 0-5.831-14.09 19.903 19.903 0 0 0-14.079-5.835z" fill="#8D8DE9"/><g clip-path="url(#a)"><path d="M106.073 85.227c6.417-.209 9.885 2.161 10.972 6.941 1.087 4.78-2.323 24.103-2.323 24.103 10.058 6.009 16.92 9.954 21.681 12.099 3.748 1.679 14.827 10.629 14.95 12.807.124 2.177-4.332-1.519-7.108-3.318-2.776-1.8-6.104-1.607-11.631-3.053-5.528-1.447-25.19-6.339-27.941-8.902-2.752-2.563 1.4-40.677 1.4-40.677z" fill="#FFA8A7"/><path d="m88.586 87.99-6.294 3.086s4.341 4.258 3.147 14.719c-.824 7.407-2.537 8.034-6.392 10.131 5.132 11.376 5.198 28.119 5.198 28.119s9.06 4.748 25.535.177c14.49-4.017 13.048-12.734 13.048-12.734l-6.227-4.684-1.384-11.047s4.942-4.821 2.784-13.369c-2.158-8.548-11.928-17.16-11.928-17.16h-3.822L88.586 87.99z" fill="#FAFAFA"/><path d="M120.514 138.171c-7.356 2.684-18.534 3.11-23.064 0-4.53-3.109-8.295-11.681-7.562-17.233.733-5.551-.717-15.04-2.95-20.663l-1.457-.402c.183 1.968.158 3.95-.074 5.913-.824 7.407-2.537 8.034-6.392 10.131 4.819 11.095 5.197 28.119 5.197 28.119s9.061 4.749 25.536.177c4.679-1.293 8.46-3.302 10.708-6.05l.058.008z" fill="#F0F0F0"/><path d="m100.094 79.177-7.076.185c-4.73.125-9.317-1.587-12.752-4.76-3.436-3.173-5.439-7.547-5.568-12.16-.142-5.524 1.967-10.878 5.863-14.89 3.897-4.01 9.265-6.353 14.928-6.513 5.665-.14 11.157 1.915 15.272 5.716 4.114 3.8 6.517 9.037 6.68 14.563.127 4.611-1.63 9.083-4.883 12.432-3.253 3.35-7.736 5.301-12.464 5.427z" fill="#263238"/><path d="M89.822 36.22c3.155 4.314 0 7.383-4.44 10.444-4.44 3.06-8.427 4.997-11.581.683-3.155-4.315-1.59-9.24 2.833-12.317 4.424-3.077 10.05-3.093 13.188 1.19z" fill="#263238"/><path d="m79.154 50.054-4.448 3.366a2.64 2.64 0 0 1-.532-.935 2.598 2.598 0 0 1 .215-2.084c.179-.316.421-.592.713-.813a3.004 3.004 0 0 1 4.052.466z" fill="#263238"/><path d="M108.923 50.014c2.29 1.245 5.239 6.708 5.289 18.325 0 9.842-3.163 12.365-4.786 13.104-1.623.74-4.802.402-7.891 0l.049 4.081s5.552 5.921 5.363 8.637c-.19 2.716-7.101 4.122-11.162 1.607-4.061-2.515-7.562-7.544-7.562-7.544l-.296-13.658s-1.763 1.76-4.943-.804c-2.594-2.097-3.55-5.72-1.647-7.736a4.446 4.446 0 0 1 1.777-1.037 4.53 4.53 0 0 1 2.066-.135 4.48 4.48 0 0 1 1.902.798 4.34 4.34 0 0 1 1.322 1.555s4.943.048 11.351-3.632a18.209 18.209 0 0 0 6.249-5.71 17.645 17.645 0 0 0 2.919-7.852z" fill="#FFA8A7"/><path d="M102.879 66.163c.009.242-.056.481-.185.689a1.256 1.256 0 0 1-.543.475 1.3 1.3 0 0 1-1.384-.196 1.225 1.225 0 0 1-.382-.607 1.208 1.208 0 0 1 .024-.712c.079-.23.226-.431.422-.58.196-.15.433-.24.68-.258a1.326 1.326 0 0 1 .937.317c.127.11.231.245.305.394.073.15.116.312.126.478z" fill="#263238"/><path d="m103.447 74.494 2.973.844a1.497 1.497 0 0 1-.708.93 1.54 1.54 0 0 1-1.178.146 1.64 1.64 0 0 1-.932-.75 1.57 1.57 0 0 1-.155-1.17z" fill="#F28F8F"/><path d="m113.174 62.09-2.62-1.672a1.518 1.518 0 0 1 .957-.685 1.548 1.548 0 0 1 1.168.203c.349.23.594.58.686.981.092.4.024.82-.191 1.172zM112.665 65.006c.01.244-.053.486-.183.696a1.26 1.26 0 0 1-.546.482 1.307 1.307 0 0 1-1.397-.196 1.222 1.222 0 0 1 .07-1.915c.199-.15.438-.239.688-.256.343-.018.679.097.935.32.256.222.411.535.433.869z" fill="#263238"/><path d="m106.915 63.84.157 8.058 3.978-1.318-4.135-6.74zM101.534 81.427c-3.295-.329-9.984-2.024-11.096-4.563a6.65 6.65 0 0 0 2.43 3.214c2.043 1.607 8.716 3.31 8.716 3.31l-.05-1.96z" fill="#F28F8F"/><path d="M132.656 134.83c2.108.804 2.026 1.398 3.747 2.346 3.188 1.768 5.256 1.422 5.256 1.422a28.612 28.612 0 0 0 3.015 2.411c2.249 1.51 4.514 2.667 7.29 1.815 3.039-.94.898-3.872 0-5.318-.898-1.446-5.766-5.68-6.755-6.548-.988-.868-5.115-1.462-8.764-2.571l-3.789 6.443zM102.507 152.385c-5.494-1.558-25.165-6.925-31.137-8.837-4.119-1.318-6.4-2.242-6.516-5.753-.098-3.261 4.852-29.983 6.656-36.563 1.573-5.776 5.083-7.753 10.783-10.18 3.937 3.038 5.057 18.52.354 22.585-1.755 6.781-4.942 18.559-4.942 18.559s11.186 5.672 19.176 9.424c3.987 1.872 9.391 4.555 12.57 4.892 2.521.266 6.994.434 7.957 1.294a73.966 73.966 0 0 1 6.483 7.343c.898 1.438 3.048 4.379 0 5.319-2.776.851-5.033-.306-7.29-1.816a29.313 29.313 0 0 1-3.015-2.41 11.28 11.28 0 0 1-6.515-1.262 480.212 480.212 0 0 1-4.564-2.595z" fill="#FFA8A7"/></g><path d="M205.352 60.873h90.511c5.29 0 10.364 2.1 14.104 5.836a19.914 19.914 0 0 1 5.843 14.09v32.22h19.526l-19.526 19.506v21.904a19.915 19.915 0 0 1-5.843 14.089 19.954 19.954 0 0 1-14.104 5.836h-90.511a19.957 19.957 0 0 1-14.105-5.836 19.914 19.914 0 0 1-5.842-14.089v-73.63a19.914 19.914 0 0 1 5.842-14.09 19.958 19.958 0 0 1 14.105-5.836z" fill="#B2B2E4"/><path d="M222.683 129.906c-.173 2.974-.519 5.694-.906 8.516-.387 2.821-.926 5.581-1.526 8.352s-1.282 5.541-2.147 8.271a76.362 76.362 0 0 1-2.971 8.149l-.895 2.037c-.132.295-.376.743-.559 1.12-.184.377-.428.724-.641 1.09a31.644 31.644 0 0 1-2.788 3.718 64.27 64.27 0 0 1-6.105 6.112 113.733 113.733 0 0 1-13.389 10.186l-2.706-3.627a330.57 330.57 0 0 0 5.748-5.683 174.35 174.35 0 0 0 5.515-5.837 77.383 77.383 0 0 0 4.934-5.999 26.765 26.765 0 0 0 1.913-3.056c.112-.234.254-.479.346-.703.091-.224.193-.407.305-.744l.692-1.792a100.756 100.756 0 0 0 4.069-15.106c.519-2.587.896-5.215 1.282-7.833a140.3 140.3 0 0 0 .906-7.802l8.923.631z" fill="#FFA8A7"/><path d="M216.579 119.21c-3.612.917-6.104 15.809-6.104 15.809l13.826 9.412s5.688-17.652 2.9-21.635c-2.93-4.156-5.352-4.93-10.622-3.586z" fill="#407BFF"/><path opacity=".2" d="m216.903 122.531-2.777 15.014 5.595 3.799-2.818-18.813z" fill="#000"/><path d="m189.697 182.586-9.309 1.487 5.311 5.888s5.484-1.253 6.45-4.767l-2.452-2.608z" fill="#FFA8A7"/><path d="m175.984 185.245 5.311 5.755 4.405-1.039-5.311-5.888-4.405 1.172z" fill="#FFA8A7"/><path d="M216.577 119.209s-4.182 1.467 4.192 52.967h35.609c-.601-14.515-.611-23.427 6.318-53.242a104.6 104.6 0 0 0-15.129-2.037 112.708 112.708 0 0 0-16.167 0c-6.948.723-14.823 2.312-14.823 2.312z" fill="#407BFF"/><path opacity=".2" d="M259.758 130.741c-3.225.805-6.206 4.329-5.85 10.817a15.602 15.602 0 0 0 2.971 8.149c.569-4.991 1.526-10.787 3.052-18.202l-.173-.764z" fill="#000"/><path d="M233.274 131.198s4.629 2.862 5.84 7.13c5.026-3.687 11.853-13.944 12.127-20.086a1.366 1.366 0 0 0-.392-.965 1.358 1.358 0 0 0-.961-.4c-.774-.02-1.55.014-2.32.102l-14.294 14.219zM233.274 131.199s-4.629 2.862-5.84 7.13c-5.402-3.962-2.401-17.041.692-21.391a15.733 15.733 0 0 1 3.276 0l1.872 14.261z" fill="#FAFAFA"/><path d="M245.981 98.727c-1.017 5.205-2.035 14.749 1.597 18.233a37.535 37.535 0 0 1-14.294 14.26c-7.214-5.765-1.872-14.26-1.872-14.26 5.799-1.385 5.646-5.704 4.639-9.748l9.93-8.485z" fill="#FFA8A7"/><path opacity=".2" d="m241.912 102.19-5.881 5.022c.254.94.421 1.901.499 2.872 2.218-.326 5.707-2.21 6.186-4.624.213-1.141-.601-2.73-.804-3.27z" fill="#000"/><path d="M254.69 90.355c-2.402 8.372-3.246 11.968-8.496 15.38-7.895 5.093-17.642.326-17.784-8.597-.132-8.036 3.825-20.372 12.88-21.91a11.854 11.854 0 0 1 10.916 3.82 11.896 11.896 0 0 1 2.484 11.307z" fill="#FFA8A7"/><path d="M236.633 75.971c.397 2.832 15.882 11.938 18.822 7.191 2.941-4.746-1.292-8.321-7.885-9.228a16.68 16.68 0 0 0-10.937 2.037z" fill="#263238"/><path d="M246.722 77.51c-1.902 2.505 2.127 20.555 7.895 18.854 5.769-1.701 5.504-7.477 1.496-12.804a15.462 15.462 0 0 0-9.391-6.05zM240.671 89.601c-.152.693-.641 1.172-1.098 1.019-.458-.153-.692-.744-.54-1.426.153-.683.641-1.172 1.099-1.019.458.153.692.734.539 1.426zM232.867 87.867c-.153.693-.652 1.172-1.099 1.07-.448-.102-.692-.744-.539-1.436.152-.693.641-1.172 1.098-1.07.458.102.692.744.54 1.436z" fill="#263238"/><path d="m232.521 86.513-1.557-.845s.56 1.487 1.557.845z" fill="#263238"/><path d="M234.994 89.649a18.978 18.978 0 0 1-3.439 3.86 3.052 3.052 0 0 0 2.361 1.02l1.078-4.88z" fill="#ED893E"/><path d="M237.079 98.063a6.521 6.521 0 0 1-1.017-.153.196.196 0 0 1-.127-.09.2.2 0 0 1-.028-.075.194.194 0 0 1 .035-.152.194.194 0 0 1 .058-.054.202.202 0 0 1 .153-.026 5.62 5.62 0 0 0 4.935-1.151.21.21 0 0 1 .157-.098.217.217 0 0 1 .174.062c.022.023.04.05.05.08.011.03.015.063.011.094a.213.213 0 0 1-.097.157 5.878 5.878 0 0 1-4.304 1.406z" fill="#263238"/><path d="M255.25 98.705a6.362 6.362 0 0 1-4.07 2.679c-2.198.408-3.052-1.61-2.31-3.575.692-1.772 2.686-4.075 4.803-3.626a2.86 2.86 0 0 1 2.133 3.233c-.076.47-.267.912-.556 1.29z" fill="#FFA8A7"/><path d="M243.948 86.555a.416.416 0 0 1-.457-.153c-1.13-1.558-3.612-1.538-3.633-1.538a.42.42 0 0 1-.168-.803.407.407 0 0 1 .158-.032c.122 0 2.93 0 4.314 1.884a.42.42 0 0 1-.092.58l-.122.062zM231.239 82.142a.426.426 0 0 1-.345-.224.413.413 0 0 1-.024-.318.414.414 0 0 1 .207-.242 4.156 4.156 0 0 1 3.795-.071.429.429 0 0 1 .152.57.415.415 0 0 1-.57.153 3.303 3.303 0 0 0-3.001.092.526.526 0 0 1-.214.04zM240.324 88.255l-1.557-.856s.56 1.487 1.557.856z" fill="#263238"/><path d="m256.919 170.098.905 3.188c.123.255-.162.51-.579.51h-36.698c-.316 0-.58-.163-.601-.367l-.325-3.188c0-.224.254-.408.61-.408h36.067a.647.647 0 0 1 .621.265z" fill="#407BFF"/><path opacity=".2" d="m256.919 170.098.905 3.188c.123.255-.162.51-.579.51h-36.698c-.316 0-.58-.163-.601-.367l-.325-3.188c0-.224.254-.408.61-.408h36.067a.647.647 0 0 1 .621.265z" fill="#000"/><path d="M251.953 174.132h.967c.193 0 .336-.091.326-.214l-.458-4.145c0-.123-.183-.224-.367-.224h-1.017c-.193 0-.346.101-.326.224l.448 4.145c.061.123.234.214.427.214z" fill="#407BFF"/><path opacity=".4" d="M251.953 174.132h.967c.193 0 .336-.091.326-.214l-.458-4.145c0-.123-.183-.224-.367-.224h-1.017c-.193 0-.346.101-.326.224l.448 4.145c.061.123.234.214.427.214z" fill="#fff"/><path d="M223.303 174.132h.967c.193 0 .335-.091.325-.214l-.447-4.145c0-.123-.184-.224-.377-.224h-.966c-.194 0-.336.101-.326.224l.448 4.145c.02.123.183.214.376.214z" fill="#407BFF"/><path opacity=".4" d="M223.303 174.132h.967c.193 0 .335-.091.325-.214l-.447-4.145c0-.123-.184-.224-.377-.224h-.966c-.194 0-.336.101-.326.224l.448 4.145c.02.123.183.214.376.214z" fill="#fff"/><path d="M237.566 174.132h1.017c.193 0 .336-.091.326-.214l-.448-4.145c0-.123-.183-.224-.376-.224h-.967c-.193 0-.336.101-.325.224l.447 4.145c-.03.123.132.214.326.214z" fill="#407BFF"/><path opacity=".4" d="M237.566 174.132h1.017c.193 0 .336-.091.326-.214l-.448-4.145c0-.123-.183-.224-.376-.224h-.967c-.193 0-.336.101-.325.224l.447 4.145c-.03.123.132.214.326.214z" fill="#fff"/><path d="m234.986 179.307-8.648-3.871 2.462 8.587s5.494 1.242 7.885-1.518l-1.699-3.198z" fill="#FFA8A7"/><path d="M266.85 129.53c.396 3.005.712 6.03 1.068 9.035l.916 9.065c.325 3.056.569 6.041.854 9.066l.377 4.533.101 1.14v1.926a9.665 9.665 0 0 1-1.21 3.677 15.334 15.334 0 0 1-4.07 4.461 31.642 31.642 0 0 1-4.354 2.761 60.023 60.023 0 0 1-8.862 3.717c-2.981 1.019-5.972 1.864-8.974 2.618a99.353 99.353 0 0 1-9.105 1.854l-1.018-4.329c2.798-.927 5.657-1.874 8.435-2.944 2.777-1.069 5.555-2.118 8.22-3.331a62.835 62.835 0 0 0 7.61-3.972 23.864 23.864 0 0 0 3.195-2.312 7.808 7.808 0 0 0 1.923-2.302 1.33 1.33 0 0 0 .163-.632v-.305l-.163-1.121-.651-4.512c-.397-3.056-.845-6.02-1.211-9.035l-1.15-9.035c-.325-3.056-.702-6.03-1.017-9.055l8.923-.968z" fill="#FFA8A7"/><path d="M262.696 118.955c3.561 1.079 7.855 13.384 7.855 13.384l-12.484 12.865s-6.41-13.242-4.914-17.846c1.567-4.808 5.474-9.646 9.543-8.403z" fill="#407BFF"/><path d="m219.182 177.218 2.442 7.069 7.172-.264-2.462-8.587-7.152 1.782z" fill="#FFA8A7"/><g clip-path="url(#b)"><path d="M235.603 75.61c1.018-4.289 11.66-8.363 20.816-2.037a22.428 22.428 0 0 1 8.648 25.75c-4.914 14.565 20.735 14.025 26.677 38.584 4.69 19.353.346 46.763-25.832 45.276-39.954-2.272-36.505-41.365-38.255-61.91-1.75-20.545-23.553-43.585 7.946-45.663z" fill="#263238"/><path d="M222.407 130.462c-.173 2.974-.519 5.694-.906 8.515-.386 2.822-.926 5.582-1.526 8.352-.6 2.771-1.282 5.542-2.147 8.271a76.495 76.495 0 0 1-2.97 8.149l-.896 2.037c-.132.296-.376.744-.559 1.121-.184.377-.428.723-.641 1.09a31.633 31.633 0 0 1-2.788 3.717 64.259 64.259 0 0 1-6.104 6.112 113.636 113.636 0 0 1-13.39 10.186l-2.706-3.626a337.938 337.938 0 0 0 5.749-5.684c1.882-1.915 3.744-3.86 5.514-5.837a77.195 77.195 0 0 0 4.934-5.999 26.591 26.591 0 0 0 1.913-3.056c.112-.234.254-.479.346-.703.091-.224.193-.407.305-.743l.692-1.793a100.846 100.846 0 0 0 4.07-15.106c.518-2.587.895-5.215 1.282-7.833.386-2.617.681-5.317.905-7.802l8.923.632z" fill="#FFA8A7"/><path d="M216.303 119.765c-3.612.917-6.104 15.809-6.104 15.809l13.826 9.412s5.688-17.652 2.9-21.635c-2.93-4.156-5.352-4.93-10.622-3.586z" fill="#407BFF"/><path opacity=".2" d="M216.627 123.086 213.85 138.1l5.595 3.8-2.818-18.814z" fill="#000"/><path d="M216.302 119.766s-4.182 1.467 4.191 52.967h35.61c-.601-14.515-.611-23.428 6.318-53.242a104.46 104.46 0 0 0-15.129-2.037 112.419 112.419 0 0 0-16.167 0c-6.949.723-14.823 2.312-14.823 2.312z" fill="#407BFF"/><path opacity=".2" d="M259.48 131.296c-3.225.805-6.206 4.329-5.85 10.818a15.61 15.61 0 0 0 2.971 8.148c.57-4.991 1.526-10.787 3.052-18.202l-.173-.764z" fill="#000"/><path d="M232.998 131.756s4.629 2.862 5.84 7.13c5.026-3.687 11.853-13.944 12.128-20.086a1.359 1.359 0 0 0-1.353-1.365c-.775-.02-1.55.014-2.32.101l-14.295 14.22zM232.998 131.755s-4.629 2.862-5.84 7.13c-5.403-3.962-2.401-17.041.692-21.39a15.597 15.597 0 0 1 3.276 0l1.872 14.26z" fill="#FAFAFA"/><path d="M245.705 99.283c-1.018 5.205-2.035 14.75 1.597 18.233a37.53 37.53 0 0 1-14.295 14.26c-7.213-5.765-1.872-14.26-1.872-14.26 5.8-1.385 5.647-5.704 4.64-9.748l9.93-8.485z" fill="#FFA8A7"/><path opacity=".2" d="m241.634 102.746-5.88 5.021c.254.941.42 1.902.498 2.873 2.218-.326 5.708-2.211 6.186-4.625.214-1.14-.6-2.729-.804-3.269z" fill="#000"/><path d="M254.414 90.91c-2.401 8.372-3.246 11.968-8.495 15.38-7.895 5.093-17.642.326-17.785-8.597-.132-8.037 3.826-20.372 12.881-21.91a11.849 11.849 0 0 1 10.916 3.82 11.885 11.885 0 0 1 2.483 11.306z" fill="#FFA8A7"/><path d="M236.354 76.527c.397 2.831 15.882 11.938 18.822 7.19 2.941-4.746-1.292-8.321-7.884-9.227a16.68 16.68 0 0 0-10.938 2.037z" fill="#263238"/><path d="M246.448 78.065c-1.903 2.506 2.126 20.555 7.895 18.854 5.769-1.7 5.504-7.476 1.496-12.803a15.465 15.465 0 0 0-9.391-6.05zM240.395 90.155c-.153.692-.641 1.17-1.099 1.018-.458-.153-.692-.743-.539-1.426.152-.682.641-1.171 1.099-1.019.457.153.691.734.539 1.427zM232.591 88.424c-.153.692-.652 1.171-1.099 1.07-.448-.103-.692-.744-.54-1.437.153-.692.641-1.171 1.099-1.07.458.103.692.744.54 1.437z" fill="#263238"/><path d="m232.245 87.07-1.557-.846s.56 1.487 1.557.845z" fill="#263238"/><path d="M234.716 90.206a19.005 19.005 0 0 1-3.438 3.86 3.048 3.048 0 0 0 2.36 1.019l1.078-4.88z" fill="#ED893E"/><path d="M236.802 98.62a6.533 6.533 0 0 1-1.017-.153.2.2 0 0 1-.127-.09.184.184 0 0 1-.028-.075.194.194 0 0 1 .035-.152.203.203 0 0 1 .211-.08 5.62 5.62 0 0 0 4.935-1.151.212.212 0 0 1 .331-.037c.022.023.04.05.05.08.011.03.014.063.011.095a.213.213 0 0 1-.097.157 5.879 5.879 0 0 1-4.304 1.406z" fill="#263238"/><path d="M254.974 99.262a6.363 6.363 0 0 1-4.07 2.679c-2.197.408-3.052-1.609-2.309-3.575.692-1.772 2.686-4.074 4.802-3.626a2.858 2.858 0 0 1 2.133 3.233c-.075.47-.267.912-.556 1.29z" fill="#FFA8A7"/><path d="M243.671 87.11a.416.416 0 0 1-.458-.153c-1.129-1.558-3.612-1.538-3.632-1.538a.416.416 0 0 1-.417-.418.412.412 0 0 1 .249-.385.406.406 0 0 1 .158-.032c.122 0 2.93 0 4.314 1.884a.42.42 0 0 1-.092.58l-.122.062zM230.963 82.7a.43.43 0 0 1-.346-.224.42.42 0 0 1 .183-.56 4.158 4.158 0 0 1 3.795-.072.43.43 0 0 1 .153.57.418.418 0 0 1-.57.153 3.303 3.303 0 0 0-3.001.092.533.533 0 0 1-.214.04zM240.048 88.811l-1.557-.855s.56 1.487 1.557.855z" fill="#263238"/><path d="m256.642 170.655.906 3.188c.122.255-.163.509-.58.509H220.27c-.315 0-.58-.163-.6-.366l-.326-3.188c0-.225.255-.408.611-.408h36.067a.639.639 0 0 1 .62.265z" fill="#407BFF"/><path opacity=".2" d="m256.642 170.655.906 3.188c.122.255-.163.509-.58.509H220.27c-.315 0-.58-.163-.6-.366l-.326-3.188c0-.225.255-.408.611-.408h36.067a.639.639 0 0 1 .62.265z" fill="#000"/><path d="M251.678 174.688h.966c.193 0 .336-.092.326-.214l-.458-4.146c0-.122-.183-.224-.366-.224h-1.018c-.193 0-.346.102-.325.224l.447 4.146c.061.122.234.214.428.214z" fill="#407BFF"/><path opacity=".4" d="M251.678 174.688h.966c.193 0 .336-.092.326-.214l-.458-4.146c0-.122-.183-.224-.366-.224h-1.018c-.193 0-.346.102-.325.224l.447 4.146c.061.122.234.214.428.214z" fill="#fff"/><path d="M223.026 174.688h.967c.193 0 .336-.092.325-.214l-.447-4.146c0-.122-.183-.224-.377-.224h-.966c-.194 0-.336.102-.326.224l.448 4.146c.02.122.183.214.376.214z" fill="#407BFF"/><path opacity=".4" d="M223.026 174.688h.967c.193 0 .336-.092.325-.214l-.447-4.146c0-.122-.183-.224-.377-.224h-.966c-.194 0-.336.102-.326.224l.448 4.146c.02.122.183.214.376.214z" fill="#fff"/><path d="M237.292 174.688h1.017c.194 0 .336-.092.326-.214l-.448-4.146c0-.122-.183-.224-.376-.224h-.967c-.193 0-.336.102-.325.224l.447 4.146c-.03.122.132.214.326.214z" fill="#407BFF"/><path opacity=".4" d="M237.292 174.688h1.017c.194 0 .336-.092.326-.214l-.448-4.146c0-.122-.183-.224-.376-.224h-.967c-.193 0-.336.102-.325.224l.447 4.146c-.03.122.132.214.326.214z" fill="#fff"/><path d="M266.572 130.086c.397 3.004.712 6.03 1.068 9.034l.916 9.066c.325 3.056.569 6.04.854 9.065l.377 4.533.102 1.141V164.85a9.678 9.678 0 0 1-1.211 3.677 15.337 15.337 0 0 1-4.07 4.462 31.635 31.635 0 0 1-4.354 2.76 60.028 60.028 0 0 1-8.862 3.718c-2.981 1.018-5.972 1.864-8.973 2.618a99.44 99.44 0 0 1-9.106 1.853l-1.018-4.329c2.798-.927 5.657-1.874 8.435-2.943 2.777-1.07 5.555-2.119 8.22-3.331a63.072 63.072 0 0 0 7.611-3.973 23.83 23.83 0 0 0 3.194-2.312 7.783 7.783 0 0 0 1.923-2.302c.106-.193.162-.411.163-.631v-.306l-.163-1.12-.651-4.513c-.397-3.055-.845-6.02-1.211-9.035l-1.149-9.035c-.326-3.055-.702-6.03-1.018-9.055l8.923-.967z" fill="#FFA8A7"/><path d="M262.421 119.512c3.561 1.079 7.854 13.384 7.854 13.384l-12.483 12.865s-6.41-13.242-4.914-17.846c1.567-4.808 5.473-9.646 9.543-8.403z" fill="#407BFF"/></g><defs><clipPath id="a"><path fill="#fff" transform="translate(55.985 22.027)" d="M0 0h96.167v113.481H0z"/></clipPath><clipPath id="b"><path fill="#fff" transform="translate(199.264 65.867)" d="M0 0h97.83v108.487H0z"/></clipPath></defs></svg>