<svg width="72" height="72" viewBox="0 0 72 72" fill="none" xmlns="http://www.w3.org/2000/svg">
<path d="M27.1307 5C18.8935 5 12.1968 11.6967 12.1968 19.9339C12.1968 28.014 18.5162 34.5535 26.7534 34.8364C27.0049 34.805 27.2565 34.805 27.4451 34.8364H27.6023H27.6652C35.7138 34.5535 42.0332 28.014 42.0646 19.9339C42.0646 11.6967 35.3679 5 27.1307 5Z" fill="#6B6BC7"/>
<path d="M43.105 43.196C34.3333 37.3482 20.0282 37.3482 11.1936 43.196C7.20079 45.8684 5 49.4839 5 53.351C5 57.2181 7.20079 60.8023 11.1622 63.4432C15.5638 66.3986 21.3487 67.8763 27.1337 67.8763C32.9185 67.8763 38.7034 66.3986 43.105 63.4432C47.0664 60.7708 49.2672 57.1867 49.2672 53.2882C49.2357 49.4211 47.0664 45.8369 43.105 43.196Z" fill="#6B6BC7"/>
<path d="M61.6812 21.783C62.1842 27.8824 57.8455 33.227 51.8405 33.9501C51.8091 33.9501 51.8091 33.9501 51.7777 33.9501H51.6833C51.4947 33.9501 51.3061 33.9501 51.1489 34.013C48.0992 34.1702 45.301 33.1956 43.1946 31.4035C46.4329 28.5112 48.2878 24.1725 47.9106 19.4565C47.6905 16.9099 46.8102 14.5833 45.4897 12.6026C46.6844 12.0053 48.0678 11.628 49.4825 11.5022C55.6448 10.9677 61.1467 15.558 61.6812 21.783Z" fill="#6B6BC7"/>
<path d="M67.9656 50.872C67.7141 53.9216 65.7648 56.5626 62.4951 58.3546C59.3511 60.0838 55.3897 60.9013 51.4597 60.8069C53.7233 58.7634 55.0438 56.2167 55.2953 53.5129C55.6097 49.6144 53.7548 45.873 50.0449 42.8862C47.9384 41.2199 45.4861 39.8994 42.8137 38.9248C49.7619 36.9127 58.5022 38.2646 63.8784 42.6033C66.7709 44.9298 68.2486 47.8537 67.9656 50.872Z" fill="#6B6BC7"/>
</svg>
