<svg width="20" height="20" viewBox="0 0 20 20" fill="none" xmlns="http://www.w3.org/2000/svg">
<path fill-rule="evenodd" clip-rule="evenodd" d="M19.5304 1.53034C19.8233 1.23744 19.8233 0.762566 19.5304 0.469671C19.2375 0.176776 18.7627 0.176776 18.4698 0.469671L9.99978 8.93975L1.53032 0.470198C1.23743 0.177303 0.76256 0.177303 0.469669 0.470198C0.176777 0.763093 0.176777 1.23797 0.469669 1.53086L8.93913 10.0004L0.469669 18.47C0.176777 18.7629 0.176777 19.2377 0.469669 19.5306C0.76256 19.8235 1.23743 19.8235 1.53032 19.5306L9.99978 11.0611L18.4698 19.5312C18.7627 19.8241 19.2375 19.8241 19.5304 19.5312C19.8233 19.2383 19.8233 18.7634 19.5304 18.4705L11.0604 10.0004L19.5304 1.53034Z" fill="#272766"/>
</svg>
