<svg width="80" height="74" viewBox="0 0 80 74" fill="none" xmlns="http://www.w3.org/2000/svg">
<path d="M70.5922 8.87387L69.6095 10.0071L70.5922 8.87386C70.5215 8.81255 70.4779 8.73905 70.4586 8.67426C70.4403 8.61315 70.445 8.56827 70.4566 8.53505C71.0026 6.97518 70.2664 5.25669 68.7605 4.57584L66.6144 3.60552C65.1054 2.92326 63.325 3.49932 62.5017 4.93622C62.4676 4.99584 62.3467 5.09851 62.1309 5.06958C61.0598 4.92607 59.977 4.89107 58.899 4.96512C58.8029 4.97172 58.7176 4.94935 58.6564 4.91546C58.5987 4.88353 58.5698 4.84676 58.5546 4.81339C57.8574 3.28743 56.0982 2.5613 54.5277 3.15126L55.0436 4.52466L54.5277 3.15126L52.3665 3.96313C50.811 4.54746 49.9545 6.21847 50.3885 7.82245L51.8364 7.43073L50.3885 7.82245C50.4075 7.89267 50.3929 8.05519 50.216 8.19026C49.3542 8.84815 48.5613 9.59167 47.8494 10.4094C47.7871 10.481 47.7125 10.5254 47.6465 10.5452C47.5841 10.5639 47.5378 10.5594 47.5031 10.5474C45.9434 10.0093 44.2304 10.7467 43.5492 12.2494L42.5736 14.4014C41.895 15.8984 42.4591 17.6662 43.8794 18.4934C43.9351 18.5258 44.0341 18.6419 44.0058 18.8513C43.8594 19.9347 43.8241 21.0303 43.9003 22.1209C43.9157 22.3398 43.8045 22.4551 43.7419 22.4857C42.2527 23.2148 41.5618 24.9564 42.1462 26.508L42.9646 28.681C43.549 30.2327 45.2174 31.0856 46.8173 30.6506C46.8843 30.6324 47.043 30.6455 47.1758 30.819C47.8374 31.6837 48.5852 32.4789 49.4078 33.1923C49.4785 33.2536 49.5221 33.3271 49.5415 33.3919C49.5597 33.453 49.555 33.4979 49.5434 33.5311C48.9974 35.0909 49.7336 36.8094 51.2395 37.4903L53.3856 38.4606C54.8946 39.1429 56.675 38.5668 57.4983 37.1299C57.5324 37.0703 57.6533 36.9676 57.8691 36.9965C58.9474 37.141 60.0376 37.1755 61.1229 37.0995C61.3377 37.0844 61.4487 37.194 61.4774 37.2531C62.1997 38.7443 63.9393 39.4395 65.4904 38.8569L67.6788 38.0348C69.2316 37.4515 70.0856 35.7826 69.6505 34.1821C69.6324 34.1155 69.6453 33.9571 69.8185 33.8246C70.6834 33.1629 71.4788 32.4149 72.1923 31.5922C72.2536 31.5215 72.3271 31.4779 72.3919 31.4585C72.453 31.4403 72.4979 31.445 72.5311 31.4566C74.091 32.0026 75.8095 31.2664 76.4903 29.7605L77.4697 27.5943C78.1503 26.0889 77.5515 24.3134 76.0981 23.5278C76.0745 23.5151 76.0466 23.4913 76.023 23.4411C75.9977 23.3874 75.9828 23.3122 75.9941 23.2284C76.1405 22.1451 76.1759 21.0496 76.0997 19.9592C76.0844 19.7399 76.1957 19.6242 76.2587 19.5934C77.7472 18.8646 78.4385 17.1242 77.8557 15.5727L77.0348 13.3873C76.4515 11.8346 74.7827 10.9806 73.1821 11.4157C73.1155 11.4338 72.9571 11.4209 72.8246 11.2477C72.163 10.3827 71.415 9.58736 70.5922 8.87387ZM62.4504 15.659C63.509 16.1398 64.4013 16.9235 65.0147 17.9112C65.6284 18.8993 65.9353 20.0471 65.8967 21.2095C65.8582 22.372 65.4758 23.4969 64.7981 24.4422C64.1203 25.3874 63.1775 26.1105 62.0889 26.52C61.0003 26.9295 59.8147 27.0071 58.682 26.7429C57.5493 26.4788 56.5203 25.8848 55.7251 25.0359C54.93 24.1871 54.4043 23.1216 54.2145 21.9741C54.0249 20.8269 54.1794 19.6493 54.6587 18.59C55.3051 17.1697 56.4882 16.0637 57.9487 15.5142C59.4093 14.9648 61.0282 15.0168 62.4504 15.659Z" fill="#6B6BC7" stroke="#FEFEFE" stroke-width="3"/>
<path d="M11.3004 56.868L10.6401 54.4567L11.3005 56.868C11.3574 56.8524 11.433 56.8496 11.5328 56.8868C11.6385 56.9263 11.7561 57.0068 11.8508 57.131C12.9347 58.5528 14.1587 59.8621 15.5043 61.0392C15.6227 61.1429 15.6959 61.2665 15.7287 61.3757C15.7596 61.4789 15.7521 61.5554 15.7325 61.6126C14.8424 64.2059 16.0667 67.0513 18.5618 68.188L22.061 69.7822C24.5608 70.921 27.5167 69.9674 28.8796 67.5823C28.9085 67.5318 28.9596 67.4767 29.0565 67.4326C29.1593 67.3858 29.3 67.3596 29.4554 67.3807C31.2251 67.621 33.0147 67.6805 34.7964 67.5583C34.955 67.5474 35.0956 67.5832 35.1969 67.6374C35.2926 67.6887 35.3416 67.7483 35.3682 67.8024C36.5758 70.2616 39.4521 71.4034 42.0176 70.4421L45.6019 69.099C48.1769 68.1341 49.5931 65.3667 48.8696 62.7138C48.8538 62.6559 48.8511 62.5789 48.8894 62.4772C48.9299 62.3693 49.0125 62.2494 49.1396 62.1531C50.5596 61.0766 51.8663 59.8583 53.0395 58.517C53.144 58.3976 53.2685 58.3238 53.3782 58.2909C53.4817 58.2597 53.558 58.2674 53.6146 58.2868C56.2068 59.1765 59.0509 57.9527 60.1871 55.4587L61.782 51.9581C62.921 49.458 61.9672 46.5018 59.5819 45.1388C59.5312 45.1098 59.4762 45.0586 59.432 44.9617C59.3853 44.859 59.3591 44.7186 59.3802 44.5634C59.6213 42.786 59.6809 40.9887 59.5578 39.1992C59.5471 39.0442 59.5823 38.9071 59.6352 38.8087C59.6851 38.7159 59.7427 38.6693 59.7942 38.6442C62.2574 37.4456 63.4048 34.5702 62.4436 32.0051L61.0992 28.4171C60.1341 25.8419 57.3665 24.4255 54.7133 25.1491C54.6552 25.165 54.5782 25.1676 54.4765 25.1294C54.3688 25.089 54.2492 25.0065 54.153 24.8797C53.0716 23.4533 51.8477 22.1406 50.5003 20.9622L48.8545 22.844L50.5003 20.9622C50.3821 20.8588 50.3092 20.7355 50.2769 20.627C50.2464 20.5247 50.2542 20.4497 50.2734 20.3945C51.1743 17.8017 49.9534 14.9493 47.4555 13.8114L43.9604 12.219C41.459 11.0795 38.5013 12.0337 37.1375 14.4203C37.1083 14.4714 37.0568 14.5267 36.9596 14.5711C36.8566 14.6182 36.7159 14.6446 36.5603 14.6238C34.7846 14.3864 32.9893 14.3303 31.2022 14.4563C31.0469 14.4673 30.9093 14.4321 30.8106 14.3791C30.7176 14.329 30.671 14.2713 30.646 14.2197L28.3961 15.3096L30.646 14.2197C29.4485 11.748 26.5639 10.5971 23.9939 11.5659L20.4045 12.9188C17.8352 13.8873 16.4254 16.6524 17.1507 19.3006C17.1663 19.3577 17.169 19.4333 17.1319 19.5327C17.0926 19.6381 17.0124 19.7551 16.8888 19.8492C15.4605 20.9365 14.1444 22.1639 12.9602 23.513C12.8588 23.6285 12.738 23.6996 12.6317 23.7313C12.5313 23.7612 12.4572 23.7536 12.4022 23.7347C9.81259 22.8421 6.96873 24.0636 5.83314 26.5562L4.23375 30.0669C3.09687 32.5623 4.04558 35.513 6.42377 36.8783C6.4738 36.907 6.52837 36.9578 6.57221 37.0541C6.61869 37.1562 6.64481 37.2959 6.62407 37.4505C6.38659 39.2212 6.33012 41.0114 6.45552 42.7935C6.46671 42.9525 6.43099 43.0935 6.3766 43.1951C6.32525 43.291 6.26552 43.34 6.21133 43.3664C3.74366 44.5728 2.59851 47.4583 3.56733 50.0285L4.91893 53.6142C5.88736 56.1834 8.6523 57.5932 11.3004 56.868ZM41.7906 44.9759L41.789 44.9794C40.9995 46.713 39.7137 48.1736 38.0944 49.1766C36.475 50.1796 34.5946 50.6801 32.6909 50.6148C30.7871 50.5495 28.9454 49.9213 27.3986 48.8096C25.8518 47.6979 24.6693 46.1526 24.0004 44.369C23.3316 42.5854 23.2065 40.6436 23.6409 38.789C24.0753 36.9343 25.0498 35.25 26.4412 33.949C27.8326 32.648 29.5784 31.7887 31.458 31.4796C33.3376 31.1705 35.2667 31.4256 37.0014 32.2125L37.0049 32.2141C38.159 32.7355 39.1988 33.4798 40.0645 34.4042C40.9301 35.3285 41.6047 36.4148 42.0493 37.6007C42.494 38.7865 42.7001 40.0484 42.6557 41.3141C42.6113 42.5798 42.3173 43.8242 41.7906 44.9759Z" fill="#6B6BC7" stroke="#FEFEFE" stroke-width="5"/>
<path d="M44.7165 24.1652C45.0915 23.086 44.5833 21.8987 43.5436 21.425L40.7974 20.1739C39.7558 19.6994 38.5243 20.0967 37.9564 21.0905C37.4744 21.934 36.5001 22.3515 35.5371 22.2228C34.2739 22.0539 32.9969 22.014 31.7256 22.1037C30.7546 22.1721 29.807 21.6908 29.3826 20.8147C28.8847 19.7869 27.6853 19.3084 26.6166 19.7112L23.7964 20.7743C22.7265 21.1775 22.1395 22.3289 22.4415 23.4317C22.6984 24.3697 22.3049 25.3554 21.531 25.9445C20.5129 26.7195 19.5748 27.5944 18.7307 28.556C18.093 29.2825 17.0899 29.6065 16.1759 29.2915C15.0982 28.92 13.9147 29.4283 13.4421 30.4657L12.1855 33.224C11.7125 34.2623 12.1072 35.4899 13.0966 36.058C13.9368 36.5403 14.3517 37.5121 14.2229 38.4723C14.0541 39.7312 14.0139 41.0042 14.1031 42.2713C14.1716 43.2448 13.6913 44.1954 12.8145 44.624C11.7859 45.1269 11.3085 46.3296 11.7124 47.401L12.7743 50.2184C13.1776 51.2881 14.3289 51.8751 15.4315 51.5732C16.3696 51.3162 17.3553 51.71 17.9449 52.4835C18.7168 53.496 19.5884 54.4284 20.5467 55.2667C21.278 55.9065 21.606 56.9142 21.2906 57.8332C20.9195 58.9144 21.4299 60.1006 22.4701 60.5745L25.2194 61.827C26.2598 62.301 27.4899 61.9041 28.057 60.9116C28.5395 60.0672 29.5155 59.6505 30.4792 59.7813C31.7376 59.9521 33.0101 59.9944 34.2771 59.9075C35.2479 59.841 36.195 60.3198 36.6239 61.1932C37.1273 62.2184 38.3265 62.6945 39.396 62.2937L42.2123 61.2384C43.2852 60.8363 43.8754 59.6831 43.5739 58.5777C43.3168 57.6348 43.7156 56.6453 44.4944 56.0549C45.5039 55.2897 46.4328 54.4236 47.2668 53.4702C47.907 52.7383 48.9151 52.4089 49.8348 52.7246C50.9151 53.0953 52.1003 52.5854 52.5738 51.546L53.8269 48.7956C54.3009 47.755 53.904 46.5247 52.9112 45.9574C52.067 45.4749 51.6501 44.4992 51.7808 43.5357C51.9524 42.2714 51.9947 40.9928 51.9072 39.7199C51.8406 38.7516 52.3204 37.8074 53.1931 37.3827C54.2174 36.8843 54.6946 35.6885 54.2949 34.6218L53.2385 31.8027C52.8364 30.7295 51.683 30.1393 50.5773 30.4408C49.6346 30.6979 48.6452 30.2994 48.0549 29.5207C47.2858 28.5062 46.4154 27.5727 45.4571 26.7346C44.7248 26.0941 44.3972 25.0842 44.7165 24.1652ZM41.6932 44.9408C40.9119 46.6563 39.6396 48.1018 38.0371 49.0944C36.4345 50.087 34.5737 50.5822 32.6897 50.5176C30.8058 50.453 28.9833 49.8313 27.4526 48.7312C25.9218 47.631 24.7516 46.1018 24.0897 44.3368C23.4278 42.5718 23.304 40.6501 23.7339 38.8148C24.1638 36.9794 25.1282 35.3126 26.5051 34.0251C27.882 32.7377 29.6096 31.8873 31.4697 31.5814C33.3298 31.2756 35.2388 31.5279 36.9555 32.3067C38.098 32.8229 39.1274 33.5597 39.9844 34.4749C40.8414 35.39 41.5092 36.4654 41.9494 37.6394C42.3896 38.8133 42.5936 40.0627 42.5497 41.3157C42.5057 42.5687 42.2147 43.8006 41.6932 44.9408Z" fill="#6B6BC7"/>
</svg>
