<svg width="421" height="313" viewBox="0 0 421 313" fill="none" xmlns="http://www.w3.org/2000/svg">
<path d="M378.817 289.004H350.93V289.214H378.817V289.004Z" fill="#EBEBEB"/>
<path d="M278.887 291.293H271.57V291.503H278.887V291.293Z" fill="#EBEBEB"/>
<path d="M350.088 281.196H333.93V281.406H350.088V281.196Z" fill="#EBEBEB"/>
<path d="M80.5379 282.609H44.1719V282.82H80.5379V282.609Z" fill="#EBEBEB"/>
<path d="M93.3689 282.609H88.0391V282.82H93.3689V282.609Z" fill="#EBEBEB"/>
<path d="M189.576 286.16H110.697V286.371H189.576V286.16Z" fill="#EBEBEB"/>
<path d="M200.734 237.941H38.1438C36.8686 237.941 35.6458 237.435 34.7441 236.534C33.8425 235.633 33.3359 234.411 33.3359 233.137V4.76239C33.347 3.49553 33.8585 2.28433 34.7589 1.39244C35.6594 0.500548 36.8759 0.000165054 38.1438 0.000213627H200.734C201.365 0.000213627 201.991 0.124478 202.574 0.365914C203.157 0.60735 203.687 0.96123 204.134 1.40735C204.58 1.85346 204.934 2.38308 205.176 2.96596C205.417 3.54884 205.542 4.17356 205.542 4.80446V233.137C205.542 233.768 205.417 234.392 205.176 234.975C204.934 235.558 204.58 236.088 204.134 236.534C203.687 236.98 203.157 237.334 202.574 237.575C201.991 237.817 201.365 237.941 200.734 237.941ZM38.1438 0.168489C36.9252 0.170713 35.7571 0.655426 34.8954 1.51647C34.0337 2.37751 33.5487 3.5447 33.5464 4.76239V233.137C33.5487 234.354 34.0337 235.522 34.8954 236.383C35.7571 237.244 36.9252 237.728 38.1438 237.731H200.734C201.953 237.728 203.121 237.244 203.982 236.383C204.844 235.522 205.329 234.354 205.331 233.137V4.76239C205.329 3.5447 204.844 2.37751 203.982 1.51647C203.121 0.655426 201.953 0.170713 200.734 0.168489H38.1438Z" fill="#EBEBEB"/>
<path d="M382.857 237.941H220.267C218.992 237.941 217.769 237.435 216.867 236.534C215.966 235.633 215.459 234.411 215.459 233.137V4.76239C215.47 3.49553 215.982 2.28433 216.882 1.39244C217.782 0.500548 218.999 0.000165054 220.267 0.000213627H382.857C384.132 0.000213627 385.355 0.506374 386.257 1.40735C387.158 2.30832 387.665 3.5303 387.665 4.80446V233.137C387.665 234.411 387.158 235.633 386.257 236.534C385.355 237.435 384.132 237.941 382.857 237.941ZM220.267 0.168489C219.048 0.170713 217.88 0.655426 217.018 1.51647C216.157 2.37751 215.672 3.5447 215.669 4.76239V233.137C215.672 234.354 216.157 235.522 217.018 236.383C217.88 237.244 219.048 237.728 220.267 237.731H382.857C384.076 237.728 385.244 237.244 386.105 236.383C386.967 235.522 387.452 234.354 387.454 233.137V4.76239C387.452 3.5447 386.967 2.37751 386.105 1.51647C385.244 0.655426 384.076 0.170713 382.857 0.168489H220.267Z" fill="#EBEBEB"/>
<path d="M421 275.467H0V275.677H421V275.467Z" fill="#EBEBEB"/>
<path d="M78.0957 189.47C79.059 194.062 81.7778 198.098 85.6737 200.719C89.5603 203.3 94.0459 204.838 98.6994 205.186C103.204 205.607 108.046 205.094 111.641 202.351C115.236 199.608 116.996 194.164 114.537 190.37C111.06 185.002 103.591 184.548 97.2091 185.01C90.8267 185.473 84.116 187.332 78.0957 189.47Z" fill="#E0E0E0"/>
<path d="M135.376 156.142C139.038 159.081 141.406 163.331 141.978 167.989C142.521 172.622 141.857 177.318 140.05 181.619C138.366 185.826 135.73 189.898 131.63 191.859C127.529 193.819 121.896 192.919 119.631 189.006C116.423 183.479 119.412 176.613 122.704 171.136C125.997 165.658 130.737 160.534 135.376 156.142Z" fill="#E0E0E0"/>
<path d="M65.5742 160.703C65.5966 165.186 67.3665 169.483 70.5083 172.684C73.6526 175.838 77.5551 178.133 81.8417 179.347C85.9759 180.609 90.6069 181.03 94.4717 179.171C98.3364 177.311 101.048 172.532 99.5237 168.519C97.2924 162.831 90.3795 160.947 84.3256 160.181C78.2716 159.415 71.6198 159.861 65.5742 160.703Z" fill="#E0E0E0"/>
<path d="M125.551 140.443C128.415 143.894 129.819 148.325 129.467 152.794C129.081 157.229 127.562 161.491 125.055 165.171C122.689 168.788 119.422 172.095 115.237 173.155C111.052 174.215 105.924 172.314 104.552 168.191C102.607 162.402 106.716 156.546 110.85 152.053C114.984 147.561 120.407 143.665 125.551 140.443Z" fill="#E0E0E0"/>
<path d="M57.5256 131.827C57.1887 136.09 58.53 140.316 61.2641 143.606C63.996 146.854 67.5194 149.343 71.4944 150.834C75.3171 152.356 79.6871 153.139 83.5266 151.675C87.3661 150.211 90.2626 145.895 89.1259 141.949C87.4419 136.379 81.0427 134.073 75.3592 132.837C69.6757 131.6 63.3354 131.507 57.5256 131.827Z" fill="#E0E0E0"/>
<path d="M116.087 117.372C118.533 120.877 119.512 125.197 118.815 129.412C118.107 133.59 116.335 137.516 113.671 140.813C111.145 144.061 107.777 146.947 103.718 147.62C99.6597 148.293 94.9445 146.046 93.9678 142.058C92.5785 136.413 96.9485 131.171 101.226 127.242C105.726 123.316 110.722 119.997 116.087 117.372Z" fill="#E0E0E0"/>
<path d="M55.9094 104.625C55.0786 108.598 55.834 112.737 58.0144 116.161C60.2033 119.552 63.2273 122.324 66.7965 124.213C70.215 126.106 74.2397 127.368 78.0372 126.442C81.8346 125.517 85.1184 121.806 84.4869 117.944C83.5859 112.492 77.8182 109.531 72.6063 107.696C67.1991 105.947 61.5855 104.914 55.9094 104.625Z" fill="#E0E0E0"/>
<path d="M112.828 98.0204C114.708 101.619 115.113 105.807 113.956 109.699C112.8 113.552 110.672 117.043 107.776 119.837C104.998 122.597 101.478 124.886 97.5711 125.054C93.6643 125.222 89.4879 122.53 89.0417 118.634C88.4186 113.148 93.1675 108.74 97.6722 105.542C102.375 102.387 107.47 99.858 112.828 98.0204Z" fill="#E0E0E0"/>
<path d="M60.3048 74.5964C58.9599 78.2017 59.0747 82.1889 60.6248 85.711C62.1883 89.2021 64.6274 92.2306 67.706 94.5033C70.6446 96.7666 74.2315 98.5251 77.9279 98.197C81.6242 97.8688 85.2196 94.8315 85.1775 91.1547C85.1185 85.9129 80.1255 82.3286 75.5029 79.855C70.6879 77.4476 65.5786 75.6797 60.3048 74.5964Z" fill="#E0E0E0"/>
<path d="M114.622 76.5656C115.874 80.2054 115.657 84.1898 114.015 87.6718C112.359 91.1202 109.842 94.0844 106.707 96.279C103.718 98.4666 100.089 100.133 96.4008 99.7119C92.7128 99.2912 89.1932 96.1949 89.328 92.4929C89.5216 87.2511 94.6073 83.7931 99.2888 81.4456C104.164 79.1556 109.319 77.5149 114.622 76.5656Z" fill="#E0E0E0"/>
<path d="M69.1954 47.1173C67.4759 50.3227 67.0771 54.0723 68.0839 57.5672C69.1034 61.0351 70.9999 64.1821 73.5906 66.7045C76.0493 69.2286 79.1815 71.3068 82.6842 71.4667C86.1869 71.6266 89.9422 69.2791 90.3801 65.8042C90.9863 60.8906 86.7763 56.8941 82.8021 54.025C78.5909 51.1334 74.0157 48.8107 69.1954 47.1173Z" fill="#E0E0E0"/>
<path d="M119.816 55.8925C120.522 59.4621 119.806 63.1661 117.82 66.2162C115.833 69.2358 113.097 71.6907 109.88 73.3427C106.799 75.0254 103.144 76.1108 99.7763 75.2442C96.4083 74.3775 93.4697 71.0373 94.0759 67.5708C94.9179 62.6993 100.13 60.1078 104.811 58.5008C109.677 56.9788 114.722 56.1019 119.816 55.8925Z" fill="#E0E0E0"/>
<path d="M101.739 33.9496C101.532 33.6035 101.198 33.3518 100.808 33.2481C100.418 33.1444 100.003 33.1969 99.6507 33.3943C96.0297 35.2555 93.0456 38.1524 91.0792 41.7155C89.7084 44.185 89.2976 47.073 89.9256 49.8263C91.2812 55.4299 98.7245 57.2052 102.37 52.7291C105.183 49.271 105.604 44.4836 104.981 40.1085C104.635 37.7358 102.968 35.9857 101.739 33.9496Z" fill="#E0E0E0"/>
<path d="M179.936 222.35C160.326 220.44 141.457 211.9 125.273 197.723C109.803 184.052 98.2587 166.507 91.8291 146.896C81.944 116.169 84.1416 80.4777 98.0262 46.402L99.5839 47.0415C85.8845 80.7217 83.6701 116.001 93.4625 146.399C106.337 186.407 141.97 216.974 180.121 220.718L179.936 222.35Z" fill="#E0E0E0"/>
<path d="M334.147 189.47C333.186 194.063 330.467 198.1 326.569 200.719C322.679 203.299 318.191 204.837 313.535 205.186C309.039 205.607 304.189 205.094 300.594 202.351C296.998 199.608 295.239 194.164 297.697 190.37C301.175 185.002 308.643 184.548 315.034 185.01C321.425 185.473 328.127 187.332 334.147 189.47Z" fill="#E0E0E0"/>
<path d="M276.866 156.142C273.211 159.084 270.849 163.334 270.281 167.989C269.742 172.622 270.407 177.316 272.21 181.619C273.894 185.826 276.529 189.898 280.63 191.859C284.73 193.819 290.363 192.919 292.628 189.006C295.836 183.479 292.855 176.613 289.555 171.136C286.254 165.658 281.505 160.534 276.866 156.142Z" fill="#E0E0E0"/>
<path d="M346.669 160.703C346.647 165.186 344.877 169.483 341.735 172.684C338.592 175.84 334.689 178.135 330.401 179.347C326.267 180.609 321.636 181.03 317.771 179.171C313.907 177.311 311.195 172.532 312.77 168.519C314.993 162.831 321.906 160.947 327.926 160.181C333.946 159.415 340.623 159.861 346.669 160.703Z" fill="#E0E0E0"/>
<path d="M286.693 140.443C283.828 143.893 282.426 148.325 282.786 152.794C283.164 157.231 284.684 161.494 287.198 165.171C289.555 168.788 292.822 172.095 297.007 173.155C301.192 174.215 306.32 172.314 307.692 168.191C309.637 162.402 305.528 156.546 301.394 152.053C297.26 147.561 291.871 143.665 286.693 140.443Z" fill="#E0E0E0"/>
<path d="M354.718 131.827C355.055 136.09 353.714 140.316 350.98 143.606C348.248 146.854 344.725 149.343 340.75 150.834C336.927 152.356 332.565 153.139 328.717 151.675C324.869 150.211 321.981 145.895 323.126 141.949C324.81 136.379 331.201 134.073 336.885 132.837C342.568 131.6 348.909 131.507 354.718 131.827Z" fill="#E0E0E0"/>
<path d="M296.165 117.372C293.713 120.874 292.73 125.196 293.428 129.412C294.144 133.593 295.924 137.519 298.598 140.813C301.124 144.061 304.492 146.947 308.559 147.62C312.626 148.293 317.324 146.046 318.309 142.058C319.69 136.413 315.329 131.171 311.043 127.242C306.537 123.316 301.535 119.998 296.165 117.372Z" fill="#E0E0E0"/>
<path d="M356.336 104.625C357.166 108.598 356.411 112.737 354.231 116.161C352.042 119.552 349.018 122.324 345.449 124.213C342.03 126.106 338.014 127.368 334.208 126.442C330.402 125.517 327.127 121.806 327.758 117.944C328.659 112.492 334.427 109.531 339.647 107.696C345.051 105.947 350.662 104.914 356.336 104.625Z" fill="#E0E0E0"/>
<path d="M299.381 98.0204C297.501 101.619 297.096 105.807 298.252 109.699C299.434 113.558 301.588 117.049 304.508 119.837C307.279 122.597 310.798 124.886 314.705 125.054C318.612 125.222 322.788 122.53 323.235 118.634C323.858 113.148 319.117 108.74 314.604 105.542C309.88 102.381 304.762 99.8526 299.381 98.0204Z" fill="#E0E0E0"/>
<path d="M351.956 74.5964C353.298 78.2028 353.18 82.19 351.627 85.711C350.064 89.2021 347.625 92.2306 344.546 94.5033C341.608 96.7666 338.021 98.5251 334.333 98.197C330.645 97.8688 327.032 94.8315 327.075 91.1547C327.134 85.9129 332.127 82.3286 336.749 79.855C341.567 77.4469 346.679 75.679 351.956 74.5964Z" fill="#E0E0E0"/>
<path d="M297.622 76.5656C296.37 80.2054 296.587 84.1898 298.229 87.6718C299.885 91.1202 302.402 94.0844 305.537 96.279C308.526 98.4666 312.155 100.133 315.843 99.7119C319.531 99.2912 323.051 96.1949 322.916 92.4929C322.722 87.2511 317.645 83.7931 312.955 81.4456C308.08 79.1556 302.925 77.5149 297.622 76.5656Z" fill="#E0E0E0"/>
<path d="M343.048 47.1173C344.767 50.3227 345.166 54.0723 344.159 57.5672C343.145 61.0372 341.247 64.1852 338.653 66.7045C336.194 69.2286 333.062 71.3068 329.559 71.4667C326.056 71.6266 322.301 69.2791 321.863 65.8042C321.257 60.8906 325.467 56.8941 329.483 54.025C333.681 51.1361 338.242 48.8135 343.048 47.1173Z" fill="#E0E0E0"/>
<path d="M292.427 55.8925C291.721 59.4621 292.437 63.1661 294.423 66.2162C296.411 69.2358 299.146 71.6907 302.363 73.3427C305.445 75.0254 309.057 76.1108 312.467 75.2442C315.877 74.3775 318.774 71.0373 318.167 67.5708C317.325 62.6993 312.122 60.1078 307.432 58.5008C302.566 56.9788 297.522 56.1019 292.427 55.8925Z" fill="#E0E0E0"/>
<path d="M310.505 33.9497C310.713 33.603 311.049 33.3512 311.44 33.2475C311.832 33.1439 312.248 33.1965 312.601 33.3944C316.218 35.2582 319.199 38.1547 321.164 41.7156C322.535 44.1851 322.946 47.0731 322.318 49.8265C320.962 55.43 313.519 57.2053 309.873 52.7292C307.061 49.2711 306.64 44.4837 307.271 40.1086C307.608 37.7359 309.275 35.9858 310.505 33.9497Z" fill="#E0E0E0"/>
<path d="M232.308 222.35L232.148 220.667C270.283 216.932 305.941 186.365 318.807 146.399C328.574 116.042 326.385 80.772 312.66 47.0581L314.227 46.4186C328.103 80.4943 330.3 116.185 320.415 146.912C313.988 166.518 302.446 184.057 286.979 197.723C270.821 211.9 251.919 220.44 232.308 222.35Z" fill="#E0E0E0"/>
<path d="M181.341 204.21L176.289 230.739H182.604L191.453 209.578C191.453 209.578 190.822 202.948 181.341 204.21Z" fill="#E0E0E0"/>
<path d="M236.602 204.21L241.654 230.739H235.339L226.498 209.578C226.498 209.578 227.138 202.948 236.602 204.21Z" fill="#E0E0E0"/>
<path d="M209.523 207.786C229.747 207.786 246.141 191.404 246.141 171.195C246.141 150.986 229.747 134.604 209.523 134.604C189.299 134.604 172.904 150.986 172.904 171.195C172.904 191.404 189.299 207.786 209.523 207.786Z" fill="#FEFEFE"/>
<path d="M147.882 110.658C148.308 111.263 148.947 111.685 149.67 111.841C150.394 111.997 151.151 111.875 151.788 111.499L172.729 99.0721C173.185 98.8024 173.706 98.66 174.236 98.6598L223.619 98.7692L247.263 83.128L249.469 86.1149L254.933 74.4535L242.868 75.4294L244.257 78.2396L223.081 93.3087L173.563 93.3844C173.074 93.3855 172.593 93.51 172.165 93.7462L148.884 106.367C148.517 106.565 148.197 106.839 147.944 107.17C147.691 107.501 147.512 107.882 147.417 108.287C147.322 108.693 147.315 109.114 147.395 109.522C147.475 109.931 147.641 110.318 147.882 110.658Z" fill="#EBEBEB"/>
<path d="M263.497 61.7151H260.971C260.388 61.7223 259.829 61.949 259.406 62.3498C258.983 62.7506 258.727 63.2961 258.689 63.8774L258.083 75.5557C258.064 75.8356 258.104 76.1163 258.199 76.3803C258.294 76.6442 258.442 76.8857 258.635 77.0895C258.828 77.2933 259.061 77.4551 259.32 77.5647C259.578 77.6743 259.856 77.7294 260.137 77.7264H262.663C263.247 77.7191 263.807 77.4912 264.23 77.0886C264.654 76.686 264.909 76.1385 264.945 75.5557L265.56 63.8774C265.577 63.5975 265.536 63.3169 265.44 63.0534C265.344 62.7899 265.194 62.5491 265.001 62.3461C264.807 62.143 264.573 61.9822 264.315 61.8736C264.056 61.765 263.777 61.7111 263.497 61.7151Z" fill="#EBEBEB"/>
<path d="M283.51 61.7151H276.092L277.776 57.8195C277.951 57.4028 278.018 56.9482 277.969 56.4985L277.624 53.4275C277.559 52.8304 277.274 52.2789 276.824 51.8806C276.374 51.4823 275.792 51.2659 275.191 51.2736H272.244L271.991 56.0274L267.217 62.0432C266.741 62.6393 266.461 63.3683 266.417 64.1298L265.844 75.0677C265.824 75.4117 265.874 75.7563 265.991 76.0802C266.109 76.4041 266.292 76.7006 266.528 76.9512C266.765 77.2019 267.051 77.4015 267.367 77.5377C267.684 77.6739 268.026 77.7439 268.37 77.7432H278.702C279.16 77.7385 279.613 77.638 280.031 77.4482C280.448 77.2584 280.822 76.9835 281.127 76.641L282.087 75.5725C282.491 75.1431 282.776 74.6151 282.912 74.0412L285.185 63.9447L283.51 61.7151Z" fill="#EBEBEB"/>
<path d="M210.5 313C300.663 313 373.755 308.736 373.755 303.476C373.755 298.216 300.663 293.951 210.5 293.951C120.336 293.951 47.2441 298.216 47.2441 303.476C47.2441 308.736 120.336 313 210.5 313Z" fill="#F5F5F5"/>
<path d="M292.4 266.026H128.598V310.997H292.4V266.026Z" fill="#263238"/>
<path opacity="0.2" d="M292.4 266.026H128.598V311.006H292.4V266.026Z" fill="#FEFEFE"/>
<path d="M243.993 230.646H172.895V265.992H243.993V230.646Z" fill="#263238"/>
<path opacity="0.2" d="M243.993 230.646H172.895V265.992H243.993V230.646Z" fill="#FEFEFE"/>
<path d="M206.348 240.633L205.607 244.369H209.657L206.382 260.734H211.038L215.029 240.633H206.348Z" fill="#6B6BC7"/>
<g opacity="0.2">
<path d="M207.054 240.633L206.305 244.369H210.329L207.054 260.734H211.003L215.028 240.633H207.054Z" fill="#FEFEFE"/>
</g>
<path d="M189.449 16.9541C189.382 16.9571 189.315 16.9426 189.255 16.912L182.856 13.5465C182.803 13.5229 182.756 13.4887 182.717 13.4461C182.678 13.4034 182.649 13.3533 182.63 13.2987C182.611 13.2441 182.604 13.1863 182.609 13.1288C182.613 13.0713 182.63 13.0154 182.657 12.9645C182.684 12.9137 182.722 12.8689 182.767 12.8331C182.812 12.7973 182.864 12.7711 182.92 12.7562C182.976 12.7414 183.034 12.7381 183.091 12.7467C183.148 12.7553 183.203 12.7755 183.252 12.8061L189.651 16.1716C189.7 16.198 189.743 16.2338 189.778 16.2769C189.812 16.32 189.838 16.3695 189.854 16.4227C189.87 16.4759 189.875 16.5316 189.869 16.5867C189.863 16.6418 189.846 16.6952 189.819 16.7437C189.783 16.8092 189.729 16.8633 189.663 16.9004C189.598 16.9375 189.524 16.956 189.449 16.9541Z" fill="#6B6BC7"/>
<path d="M193.727 19.2422C193.657 19.2444 193.588 19.23 193.525 19.2001L191.369 18.0558C191.32 18.0301 191.276 17.9949 191.24 17.9521C191.205 17.9093 191.178 17.8599 191.161 17.8067C191.145 17.7535 191.139 17.6975 191.145 17.6421C191.15 17.5866 191.166 17.5328 191.193 17.4837C191.246 17.3855 191.336 17.3121 191.443 17.2791C191.55 17.2461 191.665 17.2561 191.765 17.307L193.921 18.4513C194.019 18.5048 194.092 18.5946 194.125 18.7014C194.158 18.8083 194.148 18.9238 194.097 19.0234C194.061 19.0898 194.008 19.1452 193.942 19.1837C193.877 19.2222 193.803 19.2424 193.727 19.2422Z" fill="#6B6BC7"/>
<path d="M189.45 25.3934H172.913C172.802 25.3934 172.694 25.349 172.615 25.2701C172.537 25.1911 172.492 25.084 172.492 24.9724C172.492 24.8607 172.537 24.7537 172.615 24.6747C172.694 24.5957 172.802 24.5514 172.913 24.5514H189.45C189.562 24.5514 189.669 24.5957 189.748 24.6747C189.827 24.7537 189.871 24.8607 189.871 24.9724C189.871 25.084 189.827 25.1911 189.748 25.2701C189.669 25.349 189.562 25.3934 189.45 25.3934Z" fill="#6B6BC7"/>
<path d="M169.401 44.4499C169.325 44.451 169.25 44.4312 169.185 44.3926C169.12 44.354 169.066 44.2981 169.03 44.2311C169.004 44.182 168.988 44.1282 168.982 44.0728C168.977 44.0173 168.983 43.9613 168.999 43.9081C169.016 43.8549 169.043 43.8055 169.078 43.7627C169.114 43.7199 169.158 43.6847 169.207 43.659L177.392 39.3175C177.441 39.2912 177.495 39.2748 177.55 39.2695C177.606 39.2641 177.662 39.2698 177.715 39.2863C177.768 39.3027 177.818 39.3295 177.86 39.3652C177.903 39.4009 177.938 39.4448 177.964 39.4942C177.99 39.5426 178.006 39.5958 178.012 39.6507C178.017 39.7055 178.011 39.7608 177.995 39.8133C177.978 39.8659 177.951 39.9146 177.916 39.9566C177.88 39.9986 177.836 40.033 177.787 40.0579L169.603 44.3994C169.541 44.4319 169.471 44.4492 169.401 44.4499Z" fill="#6B6BC7"/>
<path d="M179.826 39.023C179.75 39.0242 179.675 39.0043 179.61 38.9657C179.544 38.9271 179.491 38.8713 179.455 38.8043C179.403 38.7067 179.39 38.5927 179.42 38.4861C179.45 38.3794 179.52 38.2885 179.615 38.2321L183.025 36.3306C183.073 36.3025 183.126 36.2843 183.181 36.2771C183.236 36.2699 183.292 36.2739 183.346 36.2889C183.399 36.3038 183.449 36.3293 183.492 36.364C183.536 36.3986 183.572 36.4417 183.598 36.4905C183.652 36.5876 183.666 36.7023 183.636 36.8096C183.606 36.9168 183.535 37.0078 183.438 37.0626L180.028 38.9725C179.966 39.006 179.896 39.0234 179.826 39.023Z" fill="#6B6BC7"/>
<path d="M185.239 36.0446C185.163 36.0458 185.088 36.0259 185.023 35.9873C184.957 35.9487 184.904 35.8929 184.868 35.8259C184.842 35.7768 184.826 35.723 184.82 35.6675C184.815 35.6121 184.821 35.5561 184.837 35.5029C184.854 35.4496 184.88 35.4002 184.916 35.3575C184.952 35.3147 184.996 35.2794 185.045 35.2537L193.33 30.8618C193.378 30.8353 193.431 30.8186 193.486 30.8128C193.54 30.8069 193.595 30.812 193.648 30.8276C193.7 30.8433 193.749 30.8693 193.792 30.904C193.834 30.9388 193.869 30.9816 193.895 31.03C193.921 31.0786 193.938 31.132 193.944 31.1871C193.95 31.2422 193.945 31.2979 193.929 31.3511C193.914 31.4042 193.888 31.4538 193.853 31.4969C193.818 31.54 193.775 31.5757 193.726 31.6022L185.441 35.9941C185.379 36.0267 185.309 36.044 185.239 36.0446Z" fill="#6B6BC7"/>
<path d="M232.628 19.2426C232.552 19.2437 232.477 19.2239 232.411 19.1853C232.346 19.1467 232.293 19.0909 232.257 19.0239C232.231 18.9748 232.214 18.9209 232.209 18.8655C232.204 18.81 232.209 18.7541 232.226 18.7009C232.242 18.6476 232.269 18.5982 232.305 18.5554C232.341 18.5127 232.384 18.4774 232.434 18.4517L243.144 12.7724C243.193 12.7463 243.246 12.7301 243.301 12.7248C243.356 12.7196 243.411 12.7254 243.463 12.7418C243.516 12.7583 243.565 12.7851 243.607 12.8207C243.649 12.8563 243.683 12.9 243.708 12.9491C243.735 12.9971 243.751 13.0498 243.757 13.1043C243.763 13.1587 243.758 13.2138 243.742 13.2663C243.727 13.3188 243.701 13.3676 243.666 13.4099C243.631 13.4523 243.588 13.4873 243.54 13.5129L232.83 19.2005C232.767 19.2305 232.697 19.2449 232.628 19.2426Z" fill="#6B6BC7"/>
<path d="M245.518 25.3934H236.946C236.835 25.3934 236.728 25.349 236.649 25.2701C236.57 25.1911 236.525 25.084 236.525 24.9724C236.525 24.8607 236.57 24.7537 236.649 24.6747C236.728 24.5957 236.835 24.5514 236.946 24.5514H245.518C245.63 24.5514 245.737 24.5957 245.816 24.6747C245.895 24.7537 245.939 24.8607 245.939 24.9724C245.939 25.0277 245.928 25.0824 245.907 25.1335C245.886 25.1846 245.855 25.231 245.816 25.2701C245.777 25.3092 245.73 25.3402 245.679 25.3613C245.628 25.3825 245.573 25.3934 245.518 25.3934Z" fill="#6B6BC7"/>
<path d="M250.461 25.3934H248.558C248.446 25.3934 248.339 25.349 248.26 25.2701C248.181 25.1911 248.137 25.084 248.137 24.9724C248.137 24.8607 248.181 24.7537 248.26 24.6747C248.339 24.5957 248.446 24.5514 248.558 24.5514H250.461C250.572 24.5535 250.677 24.5986 250.756 24.6771C250.834 24.7556 250.879 24.8614 250.882 24.9724C250.882 25.084 250.837 25.1911 250.758 25.2701C250.679 25.349 250.572 25.3934 250.461 25.3934Z" fill="#6B6BC7"/>
<path d="M256.943 25.3934H253.441C253.329 25.3934 253.222 25.349 253.143 25.2701C253.064 25.1911 253.02 25.084 253.02 24.9724C253.02 24.8607 253.064 24.7537 253.143 24.6747C253.222 24.5957 253.329 24.5514 253.441 24.5514H256.926C257.038 24.5514 257.145 24.5957 257.224 24.6747C257.303 24.7537 257.347 24.8607 257.347 24.9724C257.348 25.0812 257.305 25.1858 257.23 25.2643C257.155 25.3428 257.052 25.389 256.943 25.3934Z" fill="#6B6BC7"/>
<path d="M256.944 44.45C256.876 44.4504 256.809 44.433 256.75 44.3995L232.618 31.6022C232.52 31.5487 232.447 31.4589 232.414 31.352C232.381 31.2452 232.391 31.1296 232.442 31.0301C232.468 30.9813 232.504 30.9383 232.547 30.9035C232.59 30.8687 232.64 30.8427 232.693 30.827C232.746 30.8114 232.802 30.8064 232.857 30.8124C232.912 30.8183 232.966 30.8351 233.014 30.8618L257.146 43.6591C257.229 43.7037 257.294 43.7745 257.332 43.8605C257.369 43.9464 257.377 44.0425 257.354 44.1334C257.331 44.2243 257.278 44.3048 257.203 44.3622C257.129 44.4196 257.038 44.4505 256.944 44.45Z" fill="#6B6BC7"/>
<path d="M193.147 230.31C192.64 229.627 192.012 229.042 191.294 228.585C191.294 228.585 189.543 225.665 190.216 218.379L187.345 216.797C186.855 216.539 186.298 216.437 185.749 216.505C185.2 216.573 184.684 216.807 184.272 217.176C184.154 217.276 184.054 217.395 183.977 217.529C183.635 218.229 183.334 218.948 183.076 219.683C182.258 222.199 181.589 224.762 181.072 227.357L181.62 227.517L183.068 222.746C183.539 221.122 184.339 223.377 184.247 225.228C184.154 227.079 184.44 229.166 188.01 230.167C192.161 231.32 193.955 231.606 193.147 230.31Z" fill="#2E353A"/>
<path d="M189.938 219.128L186.183 217.925L185.947 212.448L186.638 206.12L192.927 206.819L191.142 214.189L189.938 219.128Z" fill="#FFC3BD"/>
<path d="M190.477 215.737C190.477 215.737 190.308 219.103 190.477 222.914C190.444 224.852 190.787 226.777 191.487 228.585C191.487 228.585 188.666 228.374 187.967 226.263C187.269 224.151 187.26 217.571 184.439 217.201C184.772 216.802 185.148 216.441 185.559 216.124C186.191 215.619 190.477 215.737 190.477 215.737Z" fill="#FFC3BD"/>
<path d="M219.418 32.023L221.851 33.9329L224.815 32.7045L222.121 30.5758C222.121 30.5758 220.479 29.6083 219.418 32.023Z" fill="#FFC3BD"/>
<path d="M208.865 32.3094C209.258 32.0053 209.606 31.6486 209.901 31.2493C210.163 30.8663 210.282 30.403 210.236 29.9411C210.19 29.4793 209.982 29.0486 209.648 28.7251C208.925 27.9451 208.098 27.2685 207.19 26.7143C206.457 25.7046 206.44 24.4678 205.598 23.5591C204.756 22.6504 203.3 22.9533 202.23 23.7779C202.23 23.7779 202.593 26.8657 203.443 28.1278C203.957 28.8934 204.352 29.9451 205.228 30.2396C205.262 30.1976 208.04 31.8635 208.865 32.3094Z" fill="#FFC3BD"/>
<path d="M206.071 30.5758L203.057 33.0999L206.29 34.9005L209.868 31.3583C209.868 31.3583 209.094 28.9856 206.071 30.5758Z" fill="#FFC3BD"/>
<path d="M219.839 32.3679C219.441 32.0713 219.084 31.7233 218.778 31.333C218.496 30.9519 218.361 30.4823 218.396 30.0098C218.432 29.5373 218.636 29.0932 218.972 28.7584C219.675 27.9606 220.485 27.2641 221.38 26.6887C222.079 25.6622 222.07 24.4254 222.895 23.4914C223.721 22.5575 225.177 22.8352 226.263 23.6345C226.263 23.6345 225.977 26.7307 225.16 28.0096C224.664 28.7921 224.318 29.8522 223.426 30.1635C223.392 30.1635 220.656 31.8968 219.839 32.3679Z" fill="#FFC3BD"/>
<path d="M220.604 69.5148L227.415 76.7001C229.764 73.831 237.646 61.345 238.808 50.0117C239.186 46.3013 237.393 45.5356 237.393 45.5356L223.828 31.4594C220.679 30.5339 220.856 33.4451 220.856 33.4451C220.856 33.4451 231.423 49.5742 231.078 50.4913C230.876 51.013 220.604 69.5148 220.604 69.5148Z" fill="#6B6BC7"/>
<path opacity="0.1" d="M220.604 69.5148L227.415 76.7001C229.764 73.831 237.646 61.345 238.808 50.0117C239.186 46.3013 237.393 45.5356 237.393 45.5356L223.828 31.4594C220.679 30.5339 220.856 33.4451 220.856 33.4451C220.856 33.4451 231.423 49.5742 231.078 50.4913C230.876 51.013 220.604 69.5148 220.604 69.5148Z" fill="black"/>
<path opacity="0.1" d="M220.604 69.5148L227.415 76.7001C229.764 73.831 237.646 61.345 238.808 50.0117C239.186 46.3013 237.393 45.5356 237.393 45.5356L223.828 31.4594C220.679 30.5339 220.856 33.4451 220.856 33.4451C220.856 33.4451 231.423 49.5742 231.078 50.4913C230.876 51.013 220.604 69.5148 220.604 69.5148Z" fill="#FEFEFE"/>
<path d="M205.162 68.5893L205.011 69.2792C204.421 71.9969 200.801 75.9681 198.14 75.2193C196.01 72.182 188.415 59.7464 188.087 48.3542C187.977 44.6185 189.83 43.9959 189.83 43.9959L204.986 30.9883C208.185 30.576 208.185 33.3104 208.185 33.3104C208.185 33.3104 195.555 48.4552 195.799 49.3975C195.943 49.936 205.162 68.5893 205.162 68.5893Z" fill="#6B6BC7"/>
<g opacity="0.2">
<path d="M205.162 68.5893L205.011 69.2792C204.421 71.9969 200.801 75.9681 198.14 75.2193C196.01 72.182 188.415 59.7464 188.087 48.3542C187.977 44.6185 189.83 43.9959 189.83 43.9959L204.986 30.9883C208.185 30.576 208.185 33.3104 208.185 33.3104C208.185 33.3104 195.555 48.4552 195.799 49.3975C195.943 49.936 205.162 68.5893 205.162 68.5893Z" fill="#FEFEFE"/>
</g>
<path d="M195.883 71.6263C197.474 74.3608 199.183 77.7431 200.825 80.7552C200.986 81.0464 201.214 81.2945 201.491 81.4783C201.769 81.6622 202.086 81.7763 202.417 81.811C202.748 81.8457 203.082 81.8 203.391 81.6777C203.701 81.5554 203.976 81.3601 204.193 81.1086C207.048 77.8441 208.513 72.9473 207.233 68.976C205.549 68.2356 203.688 67.4952 202.038 66.7548C199.655 67.9243 197.255 69.363 195.883 71.6263Z" fill="#6B6BC7"/>
<path opacity="0.2" d="M195.883 71.6263C197.474 74.3608 199.183 77.7431 200.825 80.7552C200.986 81.0464 201.214 81.2945 201.491 81.4783C201.769 81.6622 202.086 81.7763 202.417 81.811C202.748 81.8457 203.082 81.8 203.391 81.6777C203.701 81.5554 203.976 81.3601 204.193 81.1086C207.048 77.8441 208.513 72.9473 207.233 68.976C205.549 68.2356 203.688 67.4952 202.038 66.7548C199.655 67.9243 197.255 69.363 195.883 71.6263Z" fill="#FEFEFE"/>
<path d="M229.141 85.2149L228.299 88.0083C227.752 90.9026 227.011 93.6455 226.691 96.2285C226.571 101.495 226.853 106.763 227.533 111.987C227.533 111.987 228.207 124.036 228.182 124.852L196.186 124.717C197.305 110.078 204.673 97.398 204.673 95.3619C204.673 92.7789 204.505 94.0494 202.298 86.9482C202.298 86.9482 202.298 86.9061 202.298 86.864C202.298 86.822 202.256 86.7126 202.223 86.6369C202.199 86.5312 202.168 86.4272 202.13 86.3256C202.13 86.2582 202.13 86.1909 202.071 86.1152L201.827 85.2738C201.263 83.3555 200.303 79.9059 199.368 75.7326C198.762 72.9898 200.21 69.4896 202.947 68.8754L203.41 68.7997C204.841 68.6146 206.424 68.4379 208.041 68.3622C211.654 68.1056 215.281 68.1056 218.894 68.3622C220.664 68.4827 222.427 68.6989 224.174 69.0101C224.729 69.0942 225.496 69.8514 226.295 70.8611C227.812 72.8897 228.855 75.2318 229.347 77.7156C229.84 80.1994 229.769 82.7618 229.141 85.2149Z" fill="#6B6BC7"/>
<g opacity="0.2">
<path d="M229.141 85.2149L228.299 88.0083C227.752 90.9026 227.011 93.6455 226.691 96.2285C226.571 101.495 226.853 106.763 227.533 111.987C227.533 111.987 228.207 124.036 228.182 124.852L196.186 124.717C197.305 110.078 204.673 97.398 204.673 95.3619C204.673 92.7789 204.505 94.0494 202.298 86.9482C202.298 86.9482 202.298 86.9061 202.298 86.864C202.298 86.822 202.256 86.7126 202.223 86.6369C202.199 86.5312 202.168 86.4272 202.13 86.3256C202.13 86.2582 202.13 86.1909 202.071 86.1152L201.827 85.2738C201.263 83.3555 200.303 79.9059 199.368 75.7326C198.762 72.9898 200.21 69.4896 202.947 68.8754L203.41 68.7997C204.841 68.6146 206.424 68.4379 208.041 68.3622C211.654 68.1056 215.281 68.1056 218.894 68.3622C220.664 68.4827 222.427 68.6989 224.174 69.0101C224.729 69.0942 225.496 69.8514 226.295 70.8611C227.812 72.8897 228.855 75.2318 229.347 77.7156C229.84 80.1994 229.769 82.7618 229.141 85.2149Z" fill="#FEFEFE"/>
</g>
<path d="M214.457 65.2154C214.608 65.2154 205.742 64.8957 204.715 66.2251C204.344 66.6725 204.138 67.2342 204.134 67.8153C204.135 68.1036 204.224 68.3846 204.39 68.6207C204.555 68.8568 204.789 69.0367 205.06 69.1362C203.906 69.8262 202.34 70.5413 202.534 71.8707C202.642 72.3453 202.892 72.7755 203.252 73.1034C203.612 73.4314 204.064 73.6413 204.546 73.7049C205.517 73.8057 206.498 73.7025 207.426 73.402C207.297 73.8172 207.304 74.2625 207.444 74.6737C207.585 75.085 207.853 75.441 208.209 75.6905C208.903 76.0863 209.692 76.2869 210.491 76.2711C211.967 76.3452 213.447 76.2804 214.911 76.0776C215.366 74.866 214.785 73.402 214.145 72.2746C212.638 69.6074 216.267 67.6807 214.457 65.2154Z" fill="#6B6BC7"/>
<path d="M214.457 65.2154C214.608 65.2154 205.742 64.8957 204.715 66.2251C204.344 66.6725 204.138 67.2342 204.134 67.8153C204.135 68.1036 204.224 68.3846 204.39 68.6207C204.555 68.8568 204.789 69.0367 205.06 69.1362C203.906 69.8262 202.34 70.5413 202.534 71.8707C202.642 72.3453 202.892 72.7755 203.252 73.1034C203.612 73.4314 204.064 73.6413 204.546 73.7049C205.517 73.8057 206.498 73.7025 207.426 73.402C207.297 73.8172 207.304 74.2625 207.444 74.6737C207.585 75.085 207.853 75.441 208.209 75.6905C208.903 76.0863 209.692 76.2869 210.491 76.2711C211.967 76.3452 213.447 76.2804 214.911 76.0776C215.366 74.866 216.595 73.503 215.922 72.3671C214.415 69.7 216.267 67.6807 214.457 65.2154Z" fill="#FEFEFE"/>
<path d="M215.451 65.2574C215.3 65.2574 223.77 64.8956 224.798 66.225C225.176 66.6691 225.384 67.2323 225.387 67.8152C225.382 68.1026 225.292 68.3821 225.127 68.6176C224.962 68.853 224.73 69.0336 224.461 69.1361C225.614 69.8261 227.172 70.5412 226.987 71.8706C226.878 72.3459 226.625 72.7763 226.264 73.1042C225.903 73.4321 225.45 73.6417 224.966 73.7048C223.996 73.8046 223.015 73.7014 222.086 73.4019C222.219 73.816 222.215 74.2616 222.076 74.6734C221.936 75.0852 221.668 75.4416 221.312 75.6905C220.615 76.0873 219.823 76.2879 219.022 76.271C217.548 76.3456 216.071 76.2808 214.609 76.0775C214.155 74.8659 214.736 73.4019 215.367 72.2745C216.874 69.6073 213.641 67.7226 215.451 65.2574Z" fill="#FEFEFE"/>
<path d="M213.91 75.3119L217.32 79.8217L219.425 75.3119H213.91Z" fill="#FEFEFE"/>
<path d="M203.764 52.2079C202.907 52.7631 202.135 53.4406 201.474 54.2188C201.144 54.6109 200.903 55.0694 200.766 55.563C200.63 56.0566 200.601 56.5738 200.683 57.0795C200.781 57.5813 201.052 58.0328 201.449 58.3556C201.846 58.6783 202.343 58.852 202.855 58.8464C202.114 59.8392 200.767 61.1938 200.514 62.4054C200.354 63.0043 200.387 63.6387 200.609 64.2176C200.832 64.7964 201.232 65.2901 201.752 65.6279C205.221 65.2745 208.715 65.0726 212.176 64.7192C212.226 62.9355 212.454 61.3537 212.496 59.5868C210.256 56.6252 206.871 54.3114 203.764 52.2079Z" fill="#263238"/>
<path d="M222.759 52.2079C223.615 52.7654 224.386 53.4426 225.05 54.2188C225.378 54.6118 225.618 55.0703 225.755 55.5637C225.891 56.057 225.921 56.5739 225.841 57.0795C225.743 57.5813 225.472 58.0328 225.075 58.3556C224.678 58.6783 224.181 58.852 223.669 58.8464C224.41 59.8392 225.757 61.1938 226.01 62.4054C226.171 63.0052 226.137 63.6406 225.913 64.2199C225.689 64.7991 225.286 65.2922 224.763 65.6279C221.303 65.2745 217.809 65.0726 214.348 64.7192C214.297 62.9355 214.07 61.3537 214.02 59.5868C216.293 56.6252 219.678 54.3114 222.759 52.2079Z" fill="#263238"/>
<path d="M211.342 56.4734C211.771 59.8389 212.041 65.922 209.582 67.9834C211.418 70.5075 213.792 71.9715 216.453 74.7648C219.349 70.3729 219.88 68.6396 219.88 68.6396C216.242 67.5206 216.512 64.7946 217.354 62.262L211.342 56.4734Z" fill="#FFC3BD"/>
<path opacity="0.2" d="M211.999 57.1047C211.915 59.0762 212.26 61.0424 213.009 62.8681C213.531 64.1302 215.148 64.778 216.815 65.0136C216.84 64.0767 217.008 63.149 217.312 62.2623L211.999 57.1047Z" fill="black"/>
<path d="M206.341 51.9974C207.604 57.4075 207.983 59.7128 211.233 62.0939C216.083 65.6109 222.449 62.9353 222.853 57.2392C223.207 52.1909 221.085 44.1642 215.401 42.8853C214.144 42.5979 212.835 42.6357 211.597 42.9952C210.358 43.3547 209.232 44.024 208.325 44.9397C207.418 45.8554 206.76 46.9873 206.413 48.2282C206.065 49.4691 206.041 50.778 206.341 52.0311V51.9974Z" fill="#FFC3BD"/>
<path d="M210.549 41.4298C214.313 38.4093 218.127 39.9826 220.123 41.1942C221.121 41.8028 221.98 42.615 222.643 43.5776C223.306 44.5402 223.759 45.6318 223.971 46.7809C224.131 47.6812 223.752 49.7173 222.009 50.1464C221.599 49.0847 220.991 48.1109 220.216 47.2773C219.003 46.1751 216.662 44.7532 215.686 44.9804C214.642 46.9913 212.974 50.727 210.036 51.4253C207.821 51.947 210.086 63.2046 205.582 58.5265C200.193 51.1561 203.005 47.5887 204.605 44.6523C206.205 41.7159 210.549 41.4298 210.549 41.4298Z" fill="#263238"/>
<path d="M219.357 57.4838C219.38 57.4689 219.399 57.4471 219.409 57.4215C219.42 57.3959 219.422 57.3677 219.416 57.3406C219.408 57.3079 219.388 57.2793 219.36 57.2606C219.332 57.2419 219.298 57.2344 219.265 57.2396C218.718 57.3632 218.151 57.3559 217.608 57.2184C217.065 57.0808 216.562 56.8169 216.141 56.4481C216.114 56.4239 216.08 56.4104 216.044 56.4104C216.008 56.4104 215.973 56.4239 215.947 56.4481C215.923 56.4731 215.91 56.5063 215.91 56.5407C215.91 56.5752 215.923 56.6083 215.947 56.6334C216.399 57.035 216.941 57.3213 217.528 57.468C218.114 57.6146 218.727 57.6171 219.315 57.4754L219.357 57.4838Z" fill="#263238"/>
<path d="M219.989 55.0179C220.27 55.0172 220.548 54.956 220.804 54.8384C221.06 54.7208 221.287 54.5496 221.471 54.3364C220.572 53.6386 219.77 52.8237 219.088 51.9133L219.989 55.0179Z" fill="#ED893E"/>
<path d="M205.448 56.5494C205.602 57.0612 205.857 57.5374 206.196 57.9504C206.536 58.3634 206.954 58.7051 207.427 58.9558C208.69 59.5952 209.607 58.5435 209.498 57.2057C209.397 56.0025 208.656 54.2104 207.241 54.1094C207.002 54.0981 206.762 54.1343 206.537 54.2159C206.311 54.2974 206.104 54.4227 205.927 54.5846C205.75 54.7465 205.607 54.9417 205.506 55.1591C205.405 55.3764 205.348 55.6116 205.338 55.8511C205.333 56.0885 205.37 56.3251 205.448 56.5494Z" fill="#FFC3BD"/>
<path d="M202.366 85.3328C202.45 85.6443 202.534 85.9137 202.602 86.1748C202.517 85.9222 202.442 85.6527 202.357 85.3328H202.366Z" fill="#6B6BC7"/>
<path d="M230.237 221.669L226.002 221.492L224.411 214.745L223.266 208.485L229.496 207.357L229.892 214.93L230.237 221.669Z" fill="#FFC3BD"/>
<path d="M236.603 229.763C235.918 229.251 235.144 228.869 234.321 228.636C234.321 228.636 231.795 226.339 230.38 219.162L227.181 218.464C226.638 218.357 226.076 218.418 225.569 218.639C225.062 218.86 224.634 219.23 224.343 219.7C224.257 219.832 224.195 219.977 224.158 220.13C224.03 220.898 223.948 221.673 223.914 222.452C223.844 225.097 223.934 227.743 224.183 230.377H224.756V225.388C224.756 223.705 226.153 225.632 226.591 227.433C227.029 229.233 227.896 231.143 231.643 231.084C235.929 231.009 237.722 230.773 236.603 229.763Z" fill="#2E353A"/>
<path d="M229.697 216.604C229.697 216.604 230.497 219.877 231.718 223.495C232.243 225.358 233.121 227.103 234.303 228.635C234.303 228.635 231.55 229.233 230.27 227.416C228.99 225.598 227.112 219.288 224.309 219.734C224.509 219.258 224.764 218.806 225.066 218.388C225.555 217.714 229.697 216.604 229.697 216.604Z" fill="#FFC3BD"/>
<path d="M230.751 167.283L229.808 212.868L224.2 213.449C221.504 202.745 219.738 191.828 218.921 180.82C218.694 177.051 219.595 172.667 219.182 169.681C218.812 167.072 217.776 165.474 216.319 159.534C214.56 152.39 212.724 142.807 213.196 135.344C213.196 135.344 205.533 127.351 207.487 116.455L214.315 114.646L224.352 111.971H227.51L227.577 113.3L230.751 167.283Z" fill="#263238"/>
<g opacity="0.1">
<path d="M230.751 167.283L229.808 212.868L224.2 213.449C221.504 202.745 219.738 191.828 218.921 180.82C218.694 177.051 219.595 172.667 219.182 169.681C218.812 167.072 217.776 165.474 216.319 159.534C214.56 152.39 212.724 142.807 213.196 135.344C213.196 135.344 205.533 127.351 207.487 116.455L214.315 114.646L224.352 111.971H227.173L227.24 113.3L230.751 167.283Z" fill="black"/>
</g>
<path d="M218.474 114.032L205.583 168.772L191.656 212.187L186.082 211.186C186.565 200.144 188.005 189.165 190.385 178.372C191.227 174.687 193.357 170.741 193.812 167.762C194.207 165.154 193.677 163.295 193.972 157.22C194.325 149.866 195.302 140.157 197.887 133.148C197.887 133.148 192.835 123.296 197.811 113.418L218.474 114.032Z" fill="#263238"/>
<path d="M227.668 114.873L218.094 115.622L197.811 113.426L198.518 111.861L224.359 111.97L227.508 111.987H227.542L227.584 113.316L227.668 114.873Z" fill="#263238"/>
<path d="M217.91 40.8828H210.5C211.235 40.3973 211.791 39.6853 212.083 38.8551C212.504 37.6183 212.824 37.5005 213.018 36.0954C213.175 35.0086 213.256 33.9121 213.262 32.814C213.264 31.3269 213.062 29.8465 212.664 28.4136H215.72C215.329 29.8452 215.125 31.3216 215.114 32.8056C215.147 34.8765 215.55 36.925 216.301 38.8551C216.604 39.6871 217.168 40.3987 217.91 40.8828Z" fill="#6B6BC7"/>
<path opacity="0.2" d="M215.745 28.4136C215.619 29.1372 215.476 29.7935 215.324 30.4161C214.869 32.4204 214.092 34.3382 213.026 36.0954C213.183 35.0086 213.264 33.9121 213.27 32.814C213.271 31.3269 213.07 29.8465 212.672 28.4136H215.745Z" fill="black"/>
<path d="M209.027 19.8399L208.058 21.0347L207.57 20.4625C206.896 19.7899 205.996 19.3912 205.044 19.3435H204.825C204.62 19.374 204.423 19.4447 204.245 19.5516C204.067 19.6584 203.912 19.7993 203.789 19.9661C203.596 20.2167 203.453 20.5024 203.368 20.8075C203.344 20.8933 203.324 20.9804 203.309 21.0683C203.21 21.7373 203.282 22.4207 203.52 23.054C203.663 23.6022 203.969 24.0942 204.397 24.4653C204.825 24.8363 205.356 25.0688 205.92 25.1322H206.61V26.7644H205.92C204.379 26.7644 202.947 25.5697 202.257 23.7187C202.257 23.5925 202.173 23.4663 202.139 23.3485C201.882 22.5968 201.806 21.7952 201.917 21.0086C202.028 20.2221 202.323 19.4729 202.779 18.8219C203.035 18.4689 203.368 18.1791 203.754 17.975C204.139 17.7708 204.566 17.6575 205.002 17.6439C205.602 17.639 206.196 17.7624 206.745 18.0057C207.41 18.2932 208.012 18.7108 208.513 19.2341L209.027 19.8399Z" fill="#6B6BC7"/>
<path opacity="0.2" d="M206.76 18.0397C206.73 18.1251 206.681 18.2027 206.617 18.2669C206.412 18.4523 206.171 18.5952 205.91 18.6876C205.529 18.8596 205.17 19.0771 204.841 19.3355C204.636 19.366 204.438 19.4367 204.261 19.5435C204.083 19.6504 203.928 19.7912 203.805 19.9581C203.552 20.2937 203.387 20.687 203.325 21.1023C203.092 21.4894 202.902 21.9015 202.761 22.3307C202.672 22.7351 202.46 23.1023 202.155 23.3825C201.741 22.1225 201.816 20.753 202.365 19.5458C202.482 19.3005 202.626 19.0691 202.795 18.8559C203.05 18.5029 203.384 18.2132 203.769 18.009C204.154 17.8048 204.582 17.6915 205.017 17.6779H205.253C205.773 17.7064 206.284 17.829 206.76 18.0397Z" fill="#FEFEFE"/>
<path opacity="0.3" d="M205.254 17.6695C205.258 17.6861 205.258 17.7034 205.254 17.72C205.197 17.955 205.093 18.176 204.949 18.3697C204.804 18.5635 204.621 18.726 204.412 18.8475C203.904 19.1861 203.33 19.4127 202.728 19.5121C202.622 19.5205 202.515 19.5205 202.408 19.5121C202.525 19.2669 202.669 19.0355 202.838 18.8222C203.093 18.4692 203.427 18.1795 203.812 17.9753C204.198 17.7711 204.625 17.6579 205.06 17.6443L205.254 17.6695Z" fill="#FEFEFE"/>
<path opacity="0.2" d="M206.072 25.1658C205.957 25.3256 205.789 25.4401 205.598 25.4893C205.408 25.5385 205.206 25.5193 205.028 25.435C204.582 25.2694 204.182 24.9998 203.861 24.6486C203.54 24.2973 203.308 23.8747 203.184 23.4157C202.964 22.5588 203.035 21.6533 203.386 20.8411C203.361 20.9269 203.342 21.014 203.327 21.102C203.227 21.771 203.299 22.4543 203.537 23.0876C203.68 23.6358 203.986 24.1279 204.414 24.4989C204.843 24.8699 205.374 25.1024 205.937 25.1658H206.072Z" fill="black"/>
<path d="M219.586 19.8399L220.554 21.0347L221.043 20.4625C221.717 19.7899 222.617 19.3912 223.569 19.3435H223.788C223.993 19.374 224.19 19.4447 224.368 19.5516C224.545 19.6584 224.7 19.7993 224.823 19.9661C225.017 20.2167 225.16 20.5024 225.244 20.8075C225.273 20.8922 225.292 20.9796 225.303 21.0683C225.403 21.7373 225.33 22.4207 225.093 23.054C224.95 23.6022 224.644 24.0942 224.216 24.4653C223.787 24.8363 223.256 25.0688 222.693 25.1322H222.002V26.7644H222.693C224.234 26.7644 225.665 25.5697 226.356 23.7187L226.482 23.3485C226.738 22.5962 226.813 21.7942 226.7 21.0076C226.587 20.221 226.291 19.4722 225.834 18.8219C225.578 18.4689 225.244 18.1791 224.859 17.975C224.474 17.7708 224.047 17.6575 223.611 17.6439C223.011 17.639 222.416 17.7624 221.868 18.0057C221.202 18.2932 220.601 18.7108 220.1 19.2341L219.586 19.8399Z" fill="#6B6BC7"/>
<path opacity="0.2" d="M221.85 18.0397C221.88 18.1251 221.929 18.2027 221.993 18.2669C222.198 18.4523 222.439 18.5952 222.7 18.6876C223.081 18.8596 223.44 19.0771 223.769 19.3355C223.975 19.366 224.172 19.4367 224.349 19.5435C224.527 19.6504 224.682 19.7912 224.805 19.9581C225.058 20.2937 225.223 20.687 225.285 21.1023C225.518 21.4894 225.708 21.9015 225.849 22.3307C225.941 22.736 226.156 23.1031 226.464 23.3825C226.871 22.1209 226.793 20.7529 226.245 19.5458C226.128 19.3005 225.984 19.0691 225.815 18.8559C225.56 18.5029 225.226 18.2132 224.841 18.009C224.456 17.8048 224.028 17.6915 223.593 17.6779H223.357C222.837 17.7064 222.326 17.829 221.85 18.0397Z" fill="#FEFEFE"/>
<path opacity="0.3" d="M223.357 17.6695C223.357 17.6695 223.357 17.6695 223.357 17.72C223.414 17.955 223.518 18.176 223.663 18.3697C223.808 18.5635 223.99 18.726 224.199 18.8475C224.707 19.1861 225.281 19.4127 225.883 19.5121C225.99 19.5205 226.097 19.5205 226.203 19.5121C226.086 19.2669 225.942 19.0355 225.774 18.8222C225.518 18.4692 225.185 18.1795 224.799 17.9753C224.414 17.7711 223.987 17.6579 223.551 17.6443L223.357 17.6695Z" fill="#FEFEFE"/>
<path opacity="0.2" d="M222.541 25.1658C222.656 25.3256 222.824 25.4401 223.014 25.4893C223.205 25.5385 223.407 25.5193 223.585 25.435C224.031 25.2694 224.431 24.9998 224.752 24.6486C225.073 24.2973 225.305 23.8747 225.429 23.4157C225.653 22.5592 225.581 21.6524 225.227 20.8411C225.256 20.9258 225.275 21.0132 225.286 21.102C225.386 21.771 225.313 22.4543 225.075 23.0876C224.933 23.6358 224.627 24.1279 224.198 24.4989C223.77 24.8699 223.239 25.1024 222.676 25.1658H222.541Z" fill="black"/>
<path d="M222.86 24.905C222.843 25.1343 222.809 25.362 222.759 25.5865C222.534 26.8727 221.819 28.0217 220.764 28.7921C218.17 30.5338 214.028 31.0302 210.66 30.0458L210.365 29.9532C209.521 29.6899 208.723 29.2983 207.999 28.7921C207.552 28.4645 207.167 28.0599 206.862 27.5974C206.318 26.7965 205.987 25.8696 205.902 24.905C205.816 24.0041 205.934 23.0953 206.248 22.2462L206.357 21.9686C206.538 21.5375 206.766 21.1282 207.039 20.7486C207.376 20.2774 207.772 19.9072 208.083 19.394C208.414 18.9599 208.583 18.4246 208.563 17.8795L214.373 18.4011L220.183 17.8795C220.162 18.4246 220.332 18.9599 220.663 19.394C220.974 19.8651 221.37 20.2353 221.707 20.7486C222.06 21.2279 222.343 21.7548 222.549 22.3135C222.836 23.1454 222.942 24.0288 222.86 24.905Z" fill="#6B6BC7"/>
<path opacity="0.1" d="M215.551 22.7172C212.183 24.1476 208.52 23.1211 206.996 22.5406C206.753 22.4509 206.517 22.3441 206.289 22.2208L206.34 22.0862C206.53 21.6031 206.778 21.1453 207.081 20.7232C207.417 20.252 207.813 19.8818 208.125 19.3686C208.455 18.9345 208.625 18.3992 208.605 17.8541L214.414 18.3757L218.877 18.0729C218.97 18.6702 219.071 21.2112 215.551 22.7172Z" fill="#FEFEFE"/>
<path opacity="0.1" d="M222.86 24.9051C222.813 25.6661 222.602 26.408 222.24 27.0792C221.878 27.7504 221.374 28.3349 220.763 28.7922C217.345 31.0892 211.375 31.2154 208.015 28.7922C207.414 28.3266 206.916 27.7401 206.555 27.0706C206.194 26.4011 205.977 25.6634 205.919 24.9051C205.902 24.681 205.902 24.456 205.919 24.232C208.167 26.8571 212.52 27.7069 216.023 25.9147C217.884 24.986 219.301 23.3584 219.963 21.3881C220.352 20.2434 220.405 19.0112 220.115 17.8375H220.266C220.246 18.3826 220.416 18.9179 220.746 19.352C221.058 19.8232 221.454 20.1934 221.79 20.7066C222.645 21.9302 223.025 23.4223 222.86 24.9051Z" fill="black"/>
<path opacity="0.1" d="M222.76 25.5864C222.535 26.8726 221.819 28.0216 220.764 28.792C218.095 30.5841 213.793 31.0553 210.383 29.9531C209.953 29.7848 209.541 29.5913 209.111 29.381C208.252 28.9473 207.492 28.3399 206.88 27.5973C206.335 26.7964 206.005 25.8695 205.92 24.9049C205.838 23.9985 205.956 23.0851 206.265 22.2293C207.267 22.7679 208.338 23.1671 209.448 23.4156C210.274 23.6452 211.12 23.8001 211.974 23.8784C214.289 24.0887 218.828 24.156 222.507 22.2966C222.819 23.3637 222.905 24.4841 222.76 25.5864Z" fill="black"/>
<path opacity="0.2" d="M222.861 24.905C222.814 25.6661 222.603 26.4079 222.241 27.0791C221.879 27.7503 221.375 28.3348 220.764 28.7921C217.346 31.0891 211.376 31.2153 208.017 28.7921C207.415 28.3265 206.917 27.74 206.556 27.0705C206.195 26.401 205.978 25.6633 205.92 24.905C205.92 24.6778 207.023 27.1599 207.015 26.9075C209.498 29.9112 214.256 30.071 217.961 28.3883C222.423 26.3521 221.657 21.6573 220.705 19.394C221.017 19.8567 221.413 20.2354 221.741 20.7318C222.607 21.9417 223.005 23.4244 222.861 24.905Z" fill="black"/>
<path opacity="0.3" d="M220.393 18.8727C212.95 20.9845 208.192 18.0313 208.15 17.6443L214.39 18.3847L220.199 17.863C220.173 18.2108 220.239 18.5595 220.393 18.8727Z" fill="black"/>
<path d="M220.847 17.0212C220.861 17.3711 220.776 17.7178 220.603 18.0224C217.496 19.1499 211.147 19.0826 208.175 18.0224C208.002 17.7178 207.918 17.3711 207.931 17.0212C208.941 17.6943 212.217 17.8626 214.389 17.9131C216.562 17.9635 219.837 17.6691 220.847 17.0212Z" fill="#6B6BC7"/>
<path opacity="0.1" d="M218.921 18.5104H218.862C215.812 19.0039 212.7 18.9754 209.659 18.4263C209.15 18.3285 208.649 18.1935 208.16 18.0224C207.981 17.7201 207.893 17.3723 207.908 17.0212C209.111 17.5246 210.401 17.7849 211.705 17.7869C212.631 17.8626 213.574 17.8962 214.366 17.9131C215.799 17.8914 217.229 17.7931 218.652 17.6186H218.702C218.803 17.8962 218.862 18.5104 218.921 18.5104Z" fill="#6B6BC7"/>
<path d="M220.849 17.0213C220.899 17.5177 218.011 17.93 214.39 17.93C210.77 17.93 207.882 17.5177 207.932 17.0213C207.983 16.5249 210.871 16.1799 214.39 16.1799C217.91 16.1799 220.798 16.5333 220.849 17.0213Z" fill="#6B6BC7"/>
<path opacity="0.2" d="M220.208 16.9293C220.208 17.2998 217.682 17.5945 214.474 17.5945C211.266 17.5945 208.698 17.2998 208.723 16.9293C208.748 16.5588 211.316 16.2726 214.465 16.2726C217.614 16.2726 220.191 16.5673 220.208 16.9293Z" fill="black"/>
<path opacity="0.3" d="M211.174 20.6397C211.101 20.8294 210.972 20.9919 210.803 21.1049C210.634 21.218 210.434 21.276 210.231 21.2712C210.077 21.2845 209.922 21.2643 209.777 21.212C209.632 21.1596 209.499 21.0764 209.389 20.9681C209.297 20.8755 209.01 20.4124 209.288 20.1261C209.512 19.9999 209.764 19.9336 210.021 19.9336C210.277 19.9336 210.53 19.9999 210.753 20.1261C211.183 20.3618 211.208 20.4966 211.174 20.6397Z" fill="#FEFEFE"/>
<path opacity="0.3" d="M210.306 19.9833C210.778 20.0507 210.668 20.6654 210.171 20.6738C210.11 20.6812 210.048 20.6812 209.986 20.6738C209.498 20.598 209.624 19.9833 210.121 19.9749C210.183 19.9694 210.245 19.9722 210.306 19.9833Z" fill="#FEFEFE"/>
<path opacity="0.2" d="M211.663 17.8466C211.333 18.0809 210.957 18.2416 210.56 18.3182C210.283 18.3825 210.001 18.4192 209.718 18.4276C209.209 18.3298 208.708 18.1947 208.219 18.0235C208.09 17.8006 208.007 17.5545 207.975 17.2993C208.126 17.3516 208.286 17.3773 208.446 17.3751H208.682C208.682 17.3751 208.682 17.4341 208.8 17.4593L209.019 17.5098L209.76 17.6361L210.383 17.7119L210.922 17.7709L211.663 17.8466Z" fill="#FEFEFE"/>
<path opacity="0.2" d="M215.282 17.9306C214.758 18.4535 214.053 18.7549 213.312 18.7726C212.938 18.8219 212.558 18.8219 212.184 18.7726L211.855 18.722C211.407 18.6416 210.971 18.5029 210.559 18.3095C210.211 18.1889 209.915 17.9545 209.717 17.6443C210.264 17.7201 210.921 17.7874 211.653 17.8379C212.386 17.8885 213.413 17.9221 214.381 17.9221H215.274L215.282 17.9306Z" fill="#FEFEFE"/>
<path opacity="0.3" d="M210.887 17.7872C210.874 17.8435 210.841 17.8935 210.795 17.9288C210.749 17.964 210.693 17.9824 210.635 17.9808C210.635 17.9808 210.281 17.9808 210.348 17.7282L210.887 17.7872Z" fill="#FEFEFE"/>
<path d="M222.919 41.6739H205.691C207.323 40.7634 209.161 40.2855 211.03 40.2857H217.58C219.449 40.2855 221.287 40.7634 222.919 41.6739Z" fill="#6B6BC7"/>
<path opacity="0.3" d="M222.919 41.6739H205.691C207.323 40.7634 209.161 40.2855 211.03 40.2857H217.58C219.449 40.2855 221.287 40.7634 222.919 41.6739Z" fill="#FEFEFE"/>
<path d="M227.238 109.741C228.005 121.234 228.99 135.748 229.764 147.25C218.103 149.479 206.15 149.747 194.4 148.041C194.182 143.548 195.739 138.609 194.611 134.25C192.632 126.569 194.502 118.088 198.821 111.407C205.557 110.877 208.976 110.448 215.712 109.918C218.499 109.699 227.238 109.741 227.238 109.741Z" fill="#6B6BC7"/>
<path opacity="0.2" d="M227.238 109.741C228.005 121.234 228.99 135.748 229.764 147.25C218.103 149.479 206.15 149.747 194.4 148.041C194.182 143.548 195.739 138.609 194.611 134.25C192.632 126.569 194.502 118.088 198.821 111.407C205.557 110.877 208.976 110.448 215.712 109.918C218.499 109.699 227.238 109.741 227.238 109.741Z" fill="#FEFEFE"/>
<path d="M212.966 51.0548C212.922 51.0674 212.875 51.0674 212.831 51.0548C212.779 51.0292 212.738 50.9843 212.717 50.9295C212.697 50.8746 212.699 50.814 212.722 50.7603C212.928 50.3266 213.229 49.9453 213.604 49.645C213.979 49.3448 214.417 49.1335 214.886 49.027C214.913 49.0166 214.943 49.0126 214.972 49.0154C215.002 49.0182 215.03 49.0276 215.055 49.043C215.081 49.0585 215.102 49.0795 215.118 49.1044C215.134 49.1293 215.144 49.1576 215.147 49.1869C215.157 49.2447 215.146 49.3043 215.115 49.3541C215.084 49.4039 215.035 49.4403 214.978 49.4561C214.576 49.5451 214.199 49.7257 213.878 49.9841C213.556 50.2424 213.299 50.5714 213.126 50.9454C213.108 50.9736 213.085 50.9978 213.057 51.0166C213.03 51.0354 212.999 51.0484 212.966 51.0548Z" fill="#263238"/>
<path d="M220.983 47.875C220.95 47.8832 220.915 47.8832 220.882 47.875C220.539 47.7634 220.175 47.7312 219.818 47.7808C219.461 47.8304 219.119 47.9605 218.819 48.1613C218.77 48.1939 218.71 48.2061 218.652 48.1951C218.593 48.1841 218.542 48.1508 218.508 48.1023C218.476 48.0543 218.464 47.9954 218.475 47.9386C218.486 47.8818 218.519 47.8317 218.567 47.7992C218.922 47.5586 219.327 47.4025 219.752 47.3426C220.177 47.2828 220.609 47.3209 221.017 47.454C221.072 47.4732 221.117 47.5127 221.144 47.5644C221.171 47.6161 221.176 47.676 221.16 47.7318C221.144 47.7683 221.12 47.8003 221.089 47.8253C221.059 47.8502 221.022 47.8673 220.983 47.875Z" fill="#263238"/>
<path d="M216.394 51.8374C216.529 52.2749 216.47 52.6788 216.175 52.8134C215.88 52.948 215.527 52.6704 215.333 52.2329C215.139 51.7954 215.257 51.3915 215.552 51.2569C215.847 51.1223 216.251 51.4083 216.394 51.8374Z" fill="#263238"/>
<path d="M215.484 51.3249L216.276 50.6008C216.276 50.6008 216.116 51.5775 215.484 51.3249Z" fill="#263238"/>
<path d="M221.302 50.6514C221.429 51.0889 221.37 51.4928 221.083 51.6274C220.797 51.762 220.427 51.476 220.241 51.0469C220.056 50.6178 220.182 50.2055 220.469 50.0709C220.755 49.9362 221.125 50.1887 221.302 50.6514Z" fill="#263238"/>
<path d="M220.369 50.1305L221.169 49.4063C221.169 49.4063 221.001 50.3746 220.369 50.1305Z" fill="#263238"/>
<path opacity="0.1" d="M210.205 148.646L212.251 139.955C212.269 139.872 212.315 139.798 212.381 139.745C212.447 139.692 212.529 139.663 212.613 139.663C212.698 139.663 212.78 139.692 212.846 139.745C212.912 139.798 212.957 139.872 212.975 139.955L214.162 148.495L210.205 148.646Z" fill="black"/>
</svg>
