<svg width="72" height="72" viewBox="0 0 72 72" fill="none" xmlns="http://www.w3.org/2000/svg">
<path d="M67.8371 50.66C67.0041 59.9265 60.3059 66 50.5882 66H19.3529C9.77412 66 2 58.2259 2 48.6471V24.3529C2 14.9129 7.69176 8.31882 16.5418 7.20824C17.4441 7.06941 18.3812 7 19.3529 7H50.5882C51.4906 7 52.3582 7.03471 53.1912 7.17353C61.4859 8.14529 67.1082 13.9412 67.8371 22.34C67.9412 23.3465 67.1082 24.1794 66.1018 24.1794H60.7223C57.3906 24.1794 54.3018 25.4635 52.0806 27.7541C49.4429 30.3224 48.1241 33.9318 48.4365 37.5412C48.9918 43.8576 54.5447 48.8206 61.1388 48.8206H66.1018C67.1082 48.8206 67.9412 49.6535 67.8371 50.66Z" fill="#6B6BC7"/>
<path d="M71.4124 32.9225V40.0719C71.4124 41.9807 69.8853 43.5425 67.9418 43.6119H61.1395C57.3912 43.6119 53.9553 40.8701 53.643 37.1219C53.4348 34.9354 54.2677 32.8878 55.7253 31.4648C57.0095 30.146 58.7795 29.3825 60.723 29.3825H67.9418C69.8853 29.4519 71.4124 31.0136 71.4124 32.9225Z" fill="#6B6BC7"/>
</svg>
